<svg width="20" height="20" viewBox="0 0 20 20" fill="none" xmlns="http://www.w3.org/2000/svg">
<path fill-rule="evenodd" clip-rule="evenodd" d="M9.89629 9H9.93461C10.5252 8.9994 11.1099 8.88239 11.6553 8.65569C12.2007 8.42899 12.6961 8.09707 13.1133 7.67878C13.5304 7.26049 13.8613 6.76402 14.0867 6.21782C14.3122 5.67163 14.4278 5.08636 14.4272 4.49541C14.4266 3.90446 14.3098 3.31944 14.0832 2.7737C13.8567 2.22797 13.5249 1.73224 13.1068 1.3148C12.6888 0.897359 12.1927 0.566333 11.6469 0.34074C11.101 0.115147 10.516 -0.000597267 9.92543 2.3176e-06C9.03219 -0.000193291 8.15918 0.265736 7.41759 0.763965C6.676 1.26219 6.09951 1.97016 5.76156 2.79751C5.42362 3.62487 5.33951 4.53411 5.52005 5.40945C5.70058 6.2848 6.13755 7.08659 6.77522 7.71249C7.60426 8.53808 8.72664 9.00106 9.89629 9ZM17.9266 14.8661C17.8511 13.7291 17.5535 12.6205 17.0522 11.6087C16.4261 10.4097 15.4849 9.70022 14.2593 9.51237C14.0227 9.46153 13.7788 9.46189 13.5424 9.51344C13.306 9.565 13.0822 9.66665 12.8848 9.81213C12.7263 9.93603 12.5564 10.0459 12.3769 10.1619L12.2547 10.2398C10.7427 11.221 9.27082 11.221 7.755 10.2398C7.65764 10.1779 7.56409 10.1119 7.46482 10.04L7.46356 10.0391C7.29595 9.92347 7.12259 9.80387 6.94168 9.70021C6.74595 9.57265 6.52427 9.4953 6.29456 9.47441C5.66816 9.46229 5.04909 9.6178 4.49612 9.9261C3.68284 10.3817 3.10443 11.1112 2.67297 12.2203C2.15942 13.5452 1.9437 15.0181 2.01243 16.7327C2.02414 17.4509 2.2614 18.1451 2.68751 18.7082C3.11363 19.2712 3.70493 19.6719 4.37018 19.8482C4.49989 19.8884 4.63225 19.9159 4.76056 19.9426C4.78521 19.9478 4.80972 19.9529 4.83403 19.958C4.90276 19.97 4.97155 19.984 5.03837 20H14.9484H14.9752L15.0229 19.9841C15.0351 19.978 15.0479 19.9733 15.0611 19.97C16.7984 19.7702 17.9781 18.4173 17.9991 16.6027C18.005 16.0229 17.9808 15.4432 17.9266 14.8661Z" fill="black" fill-opacity="0.6"/>
</svg>
