<svg width="18" height="15" viewBox="0 0 18 15" fill="none" xmlns="http://www.w3.org/2000/svg">
<path d="M17.539 7.50784C17.5454 7.44017 17.5454 7.37204 17.539 7.30437V7.12437C17.5223 7.08066 17.5013 7.03872 17.4763 6.99918L17.4372 6.92093C17.4021 6.87317 17.3629 6.82864 17.3198 6.78789L11.2943 0.793654C10.8881 0.402115 10.245 0.402115 9.83878 0.793654C9.4398 1.19374 9.4398 1.84124 9.83878 2.24136L13.4072 5.80974C13.5584 5.96402 13.556 6.21177 13.4017 6.36304C13.3299 6.43344 13.2338 6.47349 13.1333 6.47489H1.48127C0.915087 6.47481 0.456091 6.93377 0.456055 7.49991C0.456018 8.06609 0.91494 8.52509 1.48112 8.52513H13.1333C13.3493 8.52817 13.522 8.70578 13.519 8.92184C13.5176 9.02236 13.4775 9.11849 13.4072 9.19027L9.83878 12.7508C9.43892 13.1536 9.43892 13.8036 9.83878 14.2064C10.245 14.5979 10.8881 14.5979 11.2943 14.2064L17.2807 8.21994C17.328 8.17242 17.3699 8.11994 17.4059 8.06342C17.4403 8.00777 17.4716 7.9503 17.4998 7.89127L17.539 7.78955C17.5404 7.76087 17.5404 7.73214 17.539 7.70346C17.5451 7.63839 17.5451 7.57287 17.539 7.50784Z" fill="white"/>
</svg>
