<svg width="20" height="18" viewBox="0 0 20 18" fill="none" xmlns="http://www.w3.org/2000/svg">
<path d="M19.9943 9.00931C20.0019 8.9301 20.0019 8.85036 19.9943 8.77116V8.56048C19.9748 8.50932 19.9503 8.46023 19.921 8.41395L19.8752 8.32238C19.8342 8.26647 19.7882 8.21435 19.7379 8.16666L12.6854 1.15083C12.21 0.692562 11.4572 0.692562 10.9818 1.15083C10.5148 1.6191 10.5148 2.37696 10.9818 2.84527L15.1583 7.0218C15.3354 7.20238 15.3326 7.49235 15.152 7.66941C15.0679 7.7518 14.9554 7.79868 14.8378 7.80031H1.19994C0.537265 7.80022 4.29357e-05 8.3374 2.57354e-09 9.00003C-4.29305e-05 9.6627 0.537093 10.1999 1.19977 10.2H14.8378C15.0906 10.2035 15.2928 10.4114 15.2893 10.6643C15.2876 10.7819 15.2407 10.8945 15.1583 10.9785L10.9818 15.1459C10.5138 15.6173 10.5138 16.378 10.9818 16.8494C11.4572 17.3077 12.21 17.3077 12.6854 16.8494L19.6921 9.84277C19.7474 9.78715 19.7965 9.72573 19.8386 9.65957C19.8788 9.59444 19.9155 9.52718 19.9485 9.45809L19.9943 9.33903C19.996 9.30546 19.996 9.27184 19.9943 9.23827C20.0015 9.1621 20.0015 9.08543 19.9943 9.00931Z" fill="#1579AD"/>
</svg>
