<svg width="17" height="11" viewBox="0 0 17 11" fill="none" xmlns="http://www.w3.org/2000/svg">
<path d="M1.3082 6.37062C1.31448 6.37676 1.32104 6.3826 1.32786 6.38814L6.6118 10.649C6.84326 10.8754 7.14838 11 7.47276 11C7.8017 11 8.11094 10.8719 8.34367 10.6393C8.55645 10.4264 8.66419 10.1334 8.66419 9.76866V6.33516C8.67502 6.34684 13.9999 10.649 13.9999 10.649C14.2313 10.8754 14.5366 11 14.8608 11C15.1898 11 15.499 10.8719 15.7317 10.6393C15.9444 10.4264 16.0522 10.1334 16.0522 9.76866V1.23134C16.0522 0.866647 15.9444 0.573642 15.7316 0.36072C15.499 0.128133 15.1897 0 14.8608 0C14.5366 0 14.2313 0.124557 13.9999 0.351015C13.9999 0.351015 8.67502 4.65316 8.66419 4.66484V1.23134C8.66419 0.866647 8.55645 0.573642 8.34353 0.36072C8.11094 0.128133 7.80166 0 7.47276 0C7.14838 0 6.84326 0.124557 6.6118 0.351015L1.32786 4.61183C1.321 4.61737 1.31447 4.62325 1.3082 4.62934C1.07586 4.86211 0.947768 5.17135 0.947768 5.5C0.947768 5.82865 1.07586 6.13789 1.3082 6.37062Z" fill="white"/>
</svg>
