<svg width="22" height="15" viewBox="0 0 22 15" fill="none" xmlns="http://www.w3.org/2000/svg">
<path d="M10.5405 2C8.58713 2 7 3.58713 7 5.54051C7 7.4939 8.58713 9.08102 10.5405 9.08102C12.4939 9.08102 14.081 7.4939 14.081 5.54051C14.081 3.58713 12.4939 2 10.5405 2ZM10.2719 4.49057C9.83241 4.49057 9.46615 4.85683 9.46615 5.29634H8.29412C8.31854 4.19756 9.19756 3.31853 10.2719 3.31853V4.49057Z" fill="#0D6EFD"/>
<path d="M21.7436 6.3485C20.5472 4.85905 16.2741 0 11 0C5.72586 0 1.45283 4.85905 0.256382 6.3485C-0.0854606 6.7636 -0.0854606 7.37403 0.256382 7.81354C1.45283 9.303 5.72586 14.162 11 14.162C16.2741 14.162 20.5472 9.303 21.7436 7.81354C22.0855 7.39845 22.0855 6.78801 21.7436 6.3485ZM11 12.2087C8.16759 12.2087 5.87236 9.91343 5.87236 7.08102C5.87236 4.24861 8.16759 1.95339 11 1.95339C13.8324 1.95339 16.1276 4.24861 16.1276 7.08102C16.1276 9.91343 13.8324 12.2087 11 12.2087Z" fill="#0D6EFD"/>
</svg>
