<svg width="19" height="19" viewBox="0 0 19 19" fill="none" xmlns="http://www.w3.org/2000/svg">
<g clip-path="url(#clip0_2308_9827)">
<mask id="mask0_2308_9827" style="mask-type:luminance" maskUnits="userSpaceOnUse" x="0" y="0" width="19" height="19">
<path d="M18.4999 18.5V0.500051H0.499999V18.5H18.4999Z" fill="white" stroke="white" stroke-width="0.999997"/>
</mask>
<g mask="url(#mask0_2308_9827)">
<path d="M18.4433 4.08204V6.82812H0.556641V4.08204C0.556641 3.46714 1.05502 2.96876 1.66992 2.96876H17.33C17.9449 2.96876 18.4433 3.46714 18.4433 4.08204Z" stroke="#1579AD" stroke-miterlimit="10" stroke-linecap="round" stroke-linejoin="round"/>
<path d="M3.5625 4.45312V1.48438" stroke="#1579AD" stroke-miterlimit="10" stroke-linecap="round" stroke-linejoin="round"/>
<path d="M9.5 4.45312V1.48438" stroke="#1579AD" stroke-miterlimit="10" stroke-linecap="round" stroke-linejoin="round"/>
<path d="M15.4375 4.45312V1.48438" stroke="#1579AD" stroke-miterlimit="10" stroke-linecap="round" stroke-linejoin="round"/>
<path d="M4.15625 9.79688H5.34375" stroke="#1579AD" stroke-miterlimit="10" stroke-linecap="round" stroke-linejoin="round"/>
<path d="M4.15625 12.1719H5.34375" stroke="#1579AD" stroke-miterlimit="10" stroke-linecap="round" stroke-linejoin="round"/>
<path d="M4.15625 14.5469H5.34375" stroke="#1579AD" stroke-miterlimit="10" stroke-linecap="round" stroke-linejoin="round"/>
<path d="M8.90625 9.79688H10.0937" stroke="#1579AD" stroke-miterlimit="10" stroke-linecap="round" stroke-linejoin="round"/>
<path d="M8.90625 12.1719H10.0937" stroke="#1579AD" stroke-miterlimit="10" stroke-linecap="round" stroke-linejoin="round"/>
<path d="M8.90625 14.5469H10.0937" stroke="#1579AD" stroke-miterlimit="10" stroke-linecap="round" stroke-linejoin="round"/>
<path d="M13.6562 9.79688H14.8437" stroke="#1579AD" stroke-miterlimit="10" stroke-linecap="round" stroke-linejoin="round"/>
<path d="M13.6562 12.1719H14.8437" stroke="#1579AD" stroke-miterlimit="10" stroke-linecap="round" stroke-linejoin="round"/>
<path d="M13.6562 14.5469H14.8437" stroke="#1579AD" stroke-miterlimit="10" stroke-linecap="round" stroke-linejoin="round"/>
<path d="M17.33 17.5156H1.66992C1.05509 17.5156 0.556641 17.0172 0.556641 16.4023V4.08207C0.556641 3.46725 1.05509 2.96879 1.66992 2.96879H17.33C17.9449 2.96879 18.4433 3.46725 18.4433 4.08207V16.4023C18.4433 17.0172 17.9449 17.5156 17.33 17.5156Z" stroke="#1579AD" stroke-miterlimit="10" stroke-linecap="round" stroke-linejoin="round"/>
</g>
</g>
<defs>
<clipPath id="clip0_2308_9827">
<rect width="19" height="19" fill="white"/>
</clipPath>
</defs>
</svg>
