<svg width="25" height="25" viewBox="0 0 25 25" fill="none" xmlns="http://www.w3.org/2000/svg">
<path fill-rule="evenodd" clip-rule="evenodd" d="M19.7247 6.23701C19.8051 6.32004 19.8708 6.4211 19.9178 6.53431C19.9648 6.64751 19.9923 6.77061 19.9986 6.89644C20.0049 7.02227 19.9899 7.14832 19.9545 7.26727C19.9191 7.38621 19.8641 7.49567 19.7925 7.58929L11.3112 18.6861C11.2393 18.7801 11.1522 18.8562 11.0549 18.91C10.9577 18.9637 10.8524 18.9941 10.7451 18.9992C10.6378 19.0044 10.5307 18.9842 10.4302 18.9399C10.3296 18.8956 10.2375 18.8281 10.1593 18.7413L5.2516 13.2951C5.10436 13.1294 5.01522 12.9046 5.00178 12.6651C4.98833 12.4256 5.05157 12.1889 5.179 12.0018C5.24778 11.9003 5.33333 11.8164 5.43046 11.7551C5.5276 11.6938 5.63429 11.6564 5.74405 11.6452C5.85381 11.634 5.96436 11.6492 6.06899 11.6899C6.17362 11.7306 6.27014 11.7959 6.35269 11.882L10.1601 15.9198C10.3191 16.0885 10.5284 16.1758 10.742 16.1626C10.9556 16.1494 11.156 16.0368 11.2991 15.8494L18.5938 6.31404C18.7358 6.12845 18.934 6.01622 19.1457 6.00162C19.3573 5.98703 19.5653 6.07125 19.7247 6.23606V6.23701Z" fill="#0EC122"/>
</svg>
