<svg width="53" height="53" viewBox="0 0 53 53" fill="none" xmlns="http://www.w3.org/2000/svg">
<rect width="53" height="53" rx="26.5" fill="white"/>
<path d="M13.4451 13C13.062 13.0024 12.6952 13.1532 12.4246 13.4197C12.154 13.6861 12.0014 14.0468 12 14.4232V29.5804C12 30.3591 12.6524 31 13.4451 31H37.5531C37.9359 30.9981 38.3026 30.848 38.5734 30.5822C38.8443 30.3165 38.9976 29.9565 39 29.5804V14.4232C38.9976 14.0468 38.8445 13.6864 38.5737 13.4201C38.3029 13.1537 37.9362 13.0028 37.5531 13H13.4451Z" fill="#E7EBEF"/>
<path d="M35.6232 13C36.0067 13.0023 36.3738 13.153 36.645 13.4194C36.9162 13.6858 37.0696 14.0464 37.0719 14.4232V28.6334C37.0719 29.4121 36.4159 30.0512 35.6232 30.0512H13.4451C13.0626 30.0498 12.6961 29.9 12.4255 29.6345C12.1548 29.369 12.0019 29.0092 12 28.6334V29.5804C12 30.3591 12.6524 31 13.4451 31H37.5531C37.9359 30.9981 38.3026 30.848 38.5734 30.5822C38.8443 30.3165 38.9976 29.9565 39 29.5804V14.4232C38.9976 14.0468 38.8445 13.6864 38.5737 13.4201C38.3029 13.1537 37.9362 13.0028 37.5531 13H35.6232Z" fill="#DBE1E7"/>
<path d="M16.406 32C15.0813 32 14 33.2247 14 34.7258V35.2742C14 36.7753 15.0813 38 16.406 38C17.729 38 18.8085 36.7753 18.8085 35.2742V34.7258C18.8085 33.2247 17.729 32 16.406 32ZM36.594 32C35.271 32 34.1915 33.2247 34.1915 34.7258V35.2742C34.1915 36.7753 35.271 38 36.594 38C37.9187 38 39 36.7753 39 35.2742V34.7258C39 33.2247 37.9187 32 36.594 32Z" fill="#FDD5A6"/>
<path d="M15.9813 32C15.6313 32 15.3018 32.0866 15 32.2331C15.8628 32.656 16.47 33.6154 16.47 34.7294V35.2782C16.47 36.3922 15.8628 37.3515 15 37.7745C15.3724 37.9544 15.7791 38.0285 16.1836 37.9902C16.588 37.9518 16.9777 37.8023 17.3175 37.5549C17.6573 37.3075 17.9367 36.97 18.1307 36.5726C18.3247 36.1753 18.4271 35.7305 18.4288 35.2782V34.7294C18.4288 33.2275 17.3291 32 15.9813 32ZM36.5524 32C36.2044 32 35.8729 32.0866 35.5712 32.2331C36.4339 32.656 37.0412 33.6154 37.0412 34.7294V35.2782C37.0412 36.3922 36.4339 37.3515 35.5712 37.7745C35.9436 37.9544 36.3503 38.0285 36.7547 37.9902C37.1592 37.9518 37.5488 37.8023 37.8886 37.5549C38.2285 37.3075 38.5079 36.97 38.7019 36.5726C38.8958 36.1753 38.9983 35.7305 39 35.2782V34.7294C39 33.2275 37.9003 32 36.5524 32Z" fill="#FDCC93"/>
<path d="M26.5019 32C25.1243 32 24 33.2247 24 34.7258V35.2742C24 36.7753 25.1243 38 26.5019 38C27.8776 38 29 36.7753 29 35.2742V34.7258C29 33.2247 27.8776 32 26.5019 32Z" fill="#FDD5A6"/>
<path d="M26.8585 32C26.5524 32 26.264 32.0866 26 32.2331C26.7549 32.656 27.2862 33.6154 27.2862 34.7294V35.2782C27.2862 36.3922 26.7549 37.3515 26 37.7745C26.3259 37.9544 26.6817 38.0285 27.0356 37.9902C27.3894 37.9518 27.7303 37.8023 28.0276 37.5549C28.325 37.3075 28.5694 36.97 28.7391 36.5726C28.9088 36.1753 28.9985 35.7305 29 35.2782V34.7294C29 33.2275 28.0378 32 26.8585 32Z" fill="#FDCC93"/>
<path d="M14.4799 15C14.3526 15 14.2306 15.0492 14.1406 15.1369C14.0506 15.2245 14 15.3434 14 15.4674V28.5344C14.0005 28.658 14.0512 28.7765 14.1412 28.8637C14.2311 28.951 14.3529 29 14.4799 29H36.5183C36.5813 29.0002 36.6438 28.9884 36.7021 28.9651C36.7604 28.9418 36.8134 28.9076 36.8582 28.8644C36.9029 28.8211 36.9384 28.7697 36.9628 28.7131C36.9871 28.6565 36.9998 28.5958 37 28.5344V15.4674C37 15.4059 36.9875 15.3449 36.9633 15.2881C36.9391 15.2313 36.9036 15.1797 36.8588 15.1363C36.8141 15.0928 36.7609 15.0585 36.7025 15.0351C36.6441 15.0117 36.5815 14.9998 36.5183 15H14.4799Z" fill="#68B1FC"/>
<path d="M15 37C14.2047 37.0009 13.4422 37.282 12.8798 37.7817C12.3174 38.2814 12.001 38.9589 12 39.6655V40.5552C12 40.6137 12.013 40.6717 12.0383 40.7258C12.0636 40.7799 12.1006 40.829 12.1473 40.8703C12.194 40.9116 12.2494 40.9444 12.3104 40.9666C12.3713 40.9889 12.4366 41.0002 12.5025 41H20.4975C20.5635 41.0002 20.629 40.9888 20.6901 40.9665C20.7512 40.9441 20.8067 40.9112 20.8534 40.8697C20.9001 40.8282 20.9371 40.7789 20.9623 40.7246C20.9874 40.6704 21.0002 40.6122 21 40.5535V39.6639C20.9985 38.9575 20.6819 38.2804 20.1195 37.7811C19.5572 37.2818 18.795 37.0009 18 37H15Z" fill="#FC6067"/>
<path d="M27.9981 37C28.7938 37.0004 29.5567 37.2814 30.1195 37.7811C30.6823 38.2809 30.999 38.9586 31 39.6655V40.5552C31 40.6137 30.987 40.6717 30.9617 40.7258C30.9364 40.7799 30.8994 40.829 30.8527 40.8703C30.806 40.9116 30.7506 40.9444 30.6896 40.9666C30.6287 40.9889 30.5634 41.0002 30.4975 41H22.5025C22.4365 41.0002 22.371 40.9888 22.3099 40.9665C22.2488 40.9441 22.1933 40.9112 22.1466 40.8697C22.0999 40.8282 22.0629 40.7789 22.0377 40.7246C22.0126 40.6704 21.9998 40.6122 22 40.5535V39.6639C22.0015 38.9575 22.3181 38.2804 22.8805 37.7811C23.4428 37.2818 24.205 37.0009 25 37H27.9981Z" fill="#68B1FC"/>
<path d="M38.0038 37C39.656 37 41 38.1968 41 39.6655V40.5552C41 40.6729 40.9475 40.7857 40.8539 40.8691C40.7604 40.9525 40.6335 40.9996 40.5009 41H32.5028C32.4367 41.0002 32.3712 40.9888 32.3101 40.9665C32.249 40.9441 32.1935 40.9112 32.1467 40.8697C32.1 40.8282 32.063 40.7789 32.0378 40.7246C32.0126 40.6704 31.9998 40.6122 32 40.5535V39.6639C32.0015 38.9575 32.3183 38.2804 32.881 37.7811C33.4437 37.2818 34.2064 37.0009 35.0019 37H38.0038Z" fill="#59E78B"/>
<path d="M28.5006 40.112H22.5025C22.4365 40.1123 22.371 40.1009 22.3099 40.0785C22.2488 40.0561 22.1933 40.0233 22.1466 39.9818C22.0999 39.9403 22.0629 39.8909 22.0377 39.8367C22.0126 39.7824 21.9998 39.7242 22 39.6655V40.5552C22 40.8002 22.2248 41 22.5025 41H30.4975C30.5635 41.0002 30.629 40.9888 30.6901 40.9665C30.7512 40.9441 30.8067 40.9112 30.8534 40.8697C30.9001 40.8282 30.9371 40.7789 30.9623 40.7246C30.9874 40.6704 31.0002 40.6122 31 40.5535V39.6639C30.9985 38.9575 30.6819 38.2804 30.1195 37.7811C29.5572 37.2818 28.795 37.0009 28 37H26.0013C26.7966 37.0009 27.5591 37.282 28.1215 37.7817C28.6839 38.2814 29.0003 38.9589 29.0013 39.6655C29.0015 39.7241 28.9887 39.7821 28.9637 39.8363C28.9386 39.8904 28.9018 39.9397 28.8553 39.9812C28.8088 40.0226 28.7535 40.0556 28.6926 40.078C28.6318 40.1005 28.5665 40.112 28.5006 40.112Z" fill="#4FA4FB"/>
<path d="M38.4982 40.112H32.5007C32.4348 40.112 32.3696 40.1005 32.3087 40.078C32.2478 40.0556 32.1925 40.0226 32.146 39.9812C32.0995 39.9397 32.0626 39.8904 32.0376 39.8363C32.0125 39.7821 31.9998 39.7241 32 39.6655V40.5552C31.9981 40.8002 32.223 41 32.5007 41H40.4974C40.5634 41.0002 40.6289 40.9888 40.69 40.9665C40.7511 40.9441 40.8066 40.9112 40.8533 40.8697C40.9001 40.8282 40.9371 40.7789 40.9622 40.7246C40.9874 40.6704 41.0002 40.6122 41 40.5535V39.6639C40.9985 38.9575 40.6818 38.2804 40.1194 37.7811C39.5569 37.2818 38.7946 37.0009 37.9994 37H36.0021C36.7976 37.0009 37.5603 37.282 38.1228 37.7817C38.6853 38.2814 39.0017 38.9589 39.0027 39.6655C39.003 39.7242 38.9901 39.7824 38.965 39.8367C38.9398 39.8909 38.9028 39.9403 38.8561 39.9818C38.8093 40.0233 38.7538 40.0561 38.6927 40.0785C38.6317 40.1009 38.5643 40.1123 38.4982 40.112Z" fill="#41E37A"/>
<path d="M18.4987 40.112H12.5025C12.4365 40.1123 12.371 40.1009 12.3099 40.0785C12.2488 40.0561 12.1933 40.0233 12.1466 39.9818C12.0999 39.9403 12.0629 39.8909 12.0377 39.8367C12.0126 39.7824 11.9998 39.7242 12 39.6655V40.5552C12 40.8002 12.2248 41 12.5025 41H20.4975C20.5635 41.0002 20.629 40.9888 20.6901 40.9665C20.7512 40.9441 20.8067 40.9112 20.8534 40.8697C20.9001 40.8282 20.9371 40.7789 20.9623 40.7246C20.9874 40.6704 21.0002 40.6122 21 40.5535V39.6639C20.9985 38.9575 20.6819 38.2804 20.1195 37.7811C19.5572 37.2818 18.795 37.0009 18 37H15.9994C16.7947 37.0009 17.5572 37.282 18.1196 37.7817C18.682 38.2814 18.9984 38.9589 18.9994 39.6655C18.9996 39.7241 18.9869 39.7821 18.9618 39.8363C18.9368 39.8904 18.8999 39.9397 18.8534 39.9812C18.8069 40.0226 18.7516 40.0556 18.6908 40.078C18.6299 40.1005 18.5646 40.112 18.4987 40.112Z" fill="#FB4F56"/>
<path d="M14.4835 15C14.4202 14.9995 14.3574 15.0113 14.2987 15.0346C14.2401 15.0579 14.1868 15.0922 14.1418 15.1357C14.0969 15.1791 14.0612 15.2308 14.0369 15.2877C14.0125 15.3447 14 15.4058 14 15.4674V28.5361C14.0018 28.7936 14.2173 29.0018 14.4835 29H16.3976C16.2706 29.0005 16.1487 28.9519 16.0584 28.865C15.9681 28.778 15.9169 28.6597 15.9159 28.5361V16.4005C15.9159 16.143 16.1314 15.9313 16.3976 15.9331H36.5183C36.7845 15.9331 37.0018 16.143 37 16.4023V15.4674C37 15.4059 36.9875 15.345 36.9633 15.2882C36.9391 15.2313 36.9035 15.1797 36.8588 15.1363C36.814 15.0929 36.7609 15.0585 36.7025 15.0351C36.6441 15.0117 36.5815 14.9998 36.5183 15H14.4835Z" fill="#4FA4FB"/>
<path d="M27.4033 12C27.0314 12.002 26.6753 12.1606 26.4124 12.4413C26.1496 12.722 26.0014 13.1021 26 13.4988V21.4973C26 22.3194 26.6325 22.9998 27.4033 22.9998H27.871V25.4984C27.8709 25.5941 27.8965 25.6879 27.9448 25.7686C27.9931 25.8494 28.0621 25.9136 28.1435 25.9538C28.225 25.994 28.3156 26.0084 28.4045 25.9953C28.4934 25.9823 28.577 25.9423 28.6453 25.8802L31.7955 22.9998H39.5914C39.9643 22.9973 40.3212 22.8382 40.5849 22.557C40.8485 22.2757 40.9977 21.895 41 21.4973V13.4988C40.9977 13.1014 40.8484 12.721 40.5846 12.4404C40.3209 12.1597 39.964 12.0015 39.5914 12H27.4033Z" fill="#FC6067"/>
<path d="M31 14.4993V19.4991C31 19.8921 31.4307 20.1302 31.765 19.9243L35.7639 17.4262C35.8361 17.3813 35.8957 17.3186 35.937 17.2443C35.9783 17.1699 36 17.0862 36 17.0011C36 16.916 35.9783 16.8323 35.937 16.7579C35.8957 16.6835 35.8361 16.6209 35.7639 16.5759L31.765 14.0741C31.4628 13.8852 31 14.0685 31 14.4993Z" fill="#E7EBEF"/>
<path d="M37.4991 12C38.3209 12 39.0011 12.6748 39.0011 13.499V20.4986C38.9986 20.8964 38.8396 21.2772 38.5584 21.5585C38.2773 21.8397 37.8967 21.9989 37.4991 22.0013H31.1849L27.8256 24.8802C27.7529 24.9423 27.664 24.9822 27.5694 24.9953C27.4747 25.0084 27.3783 24.9942 27.2915 24.9542C27.2046 24.9143 27.1311 24.8503 27.0794 24.7699C27.0278 24.6894 27.0002 24.5959 27 24.5003V25.5021C27.0006 25.5975 27.0284 25.6908 27.0802 25.771C27.132 25.8512 27.2056 25.9148 27.2923 25.9546C27.3791 25.9943 27.4753 26.0084 27.5698 25.9952C27.6643 25.982 27.7531 25.9421 27.8256 25.8801L31.1849 23.0013H39.498C39.8956 22.9988 40.2762 22.8397 40.5573 22.5584C40.8385 22.2771 40.9975 21.8963 41 21.4985V13.499C40.9975 13.1015 40.8383 12.7211 40.5571 12.4405C40.2758 12.1598 39.8952 12.0015 39.498 12H37.4991Z" fill="#FB4F56"/>
<path d="M19.0003 26C17.3471 26 16 27.0076 16 28.2493V29H27V28.2493C27 27.0076 25.6548 26 24.0015 26H19.0003Z" fill="#FCBC60"/>
<path d="M22 26C23.6534 26 25.0008 27.0076 25.0008 28.2493V29H27V28.2493C27 27.0076 25.6546 26 24.0011 26H22Z" fill="#FBB04F"/>
<path d="M19 24V25.8752C19 25.9035 19.0038 25.9319 19.0113 25.9603C19.0113 25.9603 19.1002 26.2397 19.3953 26.495C19.6903 26.7504 20.2369 27 21.0028 27C21.7669 27 22.3077 26.7518 22.6047 26.495C22.8997 26.2397 22.9886 25.9617 22.9886 25.9617C22.9967 25.9338 23.0006 25.9052 22.9999 25.8766V24H19Z" fill="#FDD5A6"/>
<path d="M19 24V25.5645C19.6064 25.8497 20.2968 26 21 26C21.7032 26 22.3936 25.8497 23 25.5645V24H19Z" fill="#FDCC93"/>
<path d="M18 20V22.0023C18.0015 22.7972 18.3184 23.5591 18.8813 24.121C19.4442 24.6829 20.2071 24.999 21.0028 25C22.6555 25 24 23.6532 24 22.0004V20H18Z" fill="#FDD5A6"/>
<path d="M21.9991 20V22.0023C21.9975 22.621 21.8046 23.2242 21.4468 23.7294C21.089 24.2345 20.5837 24.6169 20 24.8243C20.3139 24.9377 20.6506 25 21.0024 25C22.6553 25 24 23.6532 24 22.0004V20H21.9991Z" fill="#FDCC93"/>
<path d="M21.0003 17C20.2049 17.001 19.4423 17.3174 18.8799 17.8797C18.3174 18.442 18.001 19.2044 18 19.9996V21.4957C18 21.7752 18.2229 22 18.5026 22H19.9989C21.2761 22 22.5949 21.3464 22.9274 21.1311L23.6453 21.8508C23.7398 21.9452 23.8664 21.9981 24.0005 22H24.4974C24.5637 22.0002 24.6293 21.9874 24.6905 21.9621C24.7517 21.9368 24.8073 21.8996 24.854 21.8527C24.9008 21.8058 24.9377 21.7501 24.9628 21.6888C24.9878 21.6275 25.0005 21.5619 25 21.4957V19.9996C24.999 19.2044 24.6826 18.442 24.1201 17.8797C23.5577 17.3174 22.7951 17.001 21.9997 17H21.0003Z" fill="#5A626E"/>
<path d="M20.5563 17C20.3673 17 20.1826 17.0189 20 17.0453C20.776 17.1638 21.4804 17.5253 21.989 18.0659C22.4975 18.6064 22.7774 19.2914 22.7792 19.9996V21.2066L23.495 21.8508C23.5999 21.9452 23.7405 21.9981 23.8896 22H24.4416C24.5152 22.0002 24.5881 21.9874 24.6561 21.9621C24.7241 21.9368 24.7859 21.8996 24.8378 21.8527C24.8897 21.8058 24.9308 21.7501 24.9587 21.6888C24.9865 21.6275 25.0005 21.5619 25 21.4957V19.9996C24.9989 19.2044 24.6473 18.442 24.0224 17.8797C23.3976 17.3174 22.5504 17.001 21.6667 17H20.5563Z" fill="#515663"/>
</svg>
