<svg width="170" height="103" viewBox="0 0 170 103" fill="none" xmlns="http://www.w3.org/2000/svg">
<rect width="170" height="103" rx="20" fill="#E4E5FF"/>
<mask id="mask0_821_7708" style="mask-type:alpha" maskUnits="userSpaceOnUse" x="0" y="0" width="170" height="103">
<rect width="170" height="103" rx="20" fill="#F7F7FF"/>
</mask>
<g mask="url(#mask0_821_7708)">
<path d="M-3.8252 47.3384C-3.8252 47.3384 17.3763 47.3797 25.0748 36.4142C30.548 28.6185 26.8228 19.6551 31.8748 11.4445C40.7479 -2.97624 53.323 -8.29013 67.5748 -3.64135" stroke="#D2D4FF"/>
<path d="M115.6 110.88C115.6 110.88 136.802 110.922 144.5 99.9562C149.973 92.1605 146.248 83.1971 151.3 74.9865C160.173 60.5658 172.748 55.2519 187 59.9006" stroke="#D2D4FF"/>
<path d="M-2.125 87.394C-2.125 87.394 38.3711 82.2393 52.275 59.8233C58.8377 49.2428 56.9211 39.3365 63.325 28.6112C73.8931 10.9117 84.4297 2.69171 102 -1.56055" stroke="#D2D4FF"/>
<path d="M68 104.561L106.675 67.1061C120.726 54.1405 133.522 52.8211 143.225 34.8535C149.738 22.7922 153.425 0 153.425 0" stroke="#D2D4FF"/>
</g>
</svg>
