<svg width="25" height="25" viewBox="0 0 25 25" fill="none" xmlns="http://www.w3.org/2000/svg">
<path fill-rule="evenodd" clip-rule="evenodd" d="M12.4997 0.454102C15.7063 0.454102 18.7198 1.70141 20.986 3.96694C23.2523 6.23334 24.5009 9.24848 24.5 12.4559C24.4991 19.0655 19.1255 24.4471 12.5217 24.4541H12.4927C5.92401 24.4541 0.546847 19.1173 0.50031 12.5436C0.477481 9.32134 1.71641 6.28601 3.9888 3.99766C6.25592 1.7137 9.27728 0.454979 12.4953 0.454102H12.4997ZM19.3046 19.2761C21.1371 17.4451 22.1433 15.0137 22.1363 12.4313C22.1301 9.84537 21.1099 7.41745 19.2642 5.59608C17.4229 3.7791 14.9863 2.79512 12.397 2.81881C7.1524 2.87236 2.87631 7.19362 2.86314 12.4515C2.87543 17.7506 7.18226 22.0745 12.4637 22.0911H12.4944C15.0698 22.0911 17.487 21.0922 19.3046 19.2761ZM15.138 13.3732C15.6034 13.8375 16.0845 14.3176 16.556 14.7934C16.8142 15.0541 16.9477 15.4043 16.924 15.7537C16.8985 16.1004 16.7194 16.4225 16.4331 16.6385C16.2241 16.7956 15.9757 16.879 15.7158 16.879C15.3918 16.879 15.0844 16.7508 14.8482 16.5173C14.5586 16.2313 14.2716 15.9435 13.9846 15.6557L13.9842 15.6554L12.5021 14.1728L11.4765 15.198C11.4054 15.2692 11.3344 15.3403 11.2635 15.4115C11.1926 15.4825 11.1218 15.5536 11.0507 15.6246C10.753 15.924 10.4545 16.2224 10.1542 16.5191C9.89517 16.7745 9.54659 16.9044 9.19713 16.8755C8.84591 16.8474 8.52191 16.6639 8.30679 16.3707C7.96698 15.9082 8.01264 15.2454 8.41303 14.8303C8.61782 14.6174 8.82863 14.4076 9.03363 14.2035C9.05012 14.1871 9.06657 14.1707 9.08298 14.1544L9.09088 14.1465C9.18116 14.0571 9.27055 13.9677 9.36082 13.8775L9.36132 13.877L9.4263 13.812C9.77137 13.4662 10.1173 13.1204 10.4642 12.7745L10.4644 12.7742C10.5539 12.6857 10.6434 12.5971 10.7328 12.5094L10.7873 12.4559L10.7846 12.4532C10.7056 12.3751 10.6275 12.2979 10.5493 12.2198L10.2991 11.9696C9.68005 11.3517 9.06191 10.7337 8.44464 10.1149C8.11537 9.78571 8.00298 9.35912 8.12766 8.91584C8.25322 8.46642 8.57635 8.16359 9.03557 8.06177C9.45 7.97048 9.84249 8.08284 10.1419 8.37953C10.4701 8.70588 10.7975 9.03311 11.1248 9.36034L11.1253 9.36087L11.185 9.42144C11.2535 9.48989 11.3219 9.55835 11.3903 9.62679C11.5956 9.83216 11.8007 10.0374 12.0069 10.2422C12.172 10.4063 12.337 10.5652 12.5118 10.7328L13.4197 9.8217C13.8947 9.3442 14.3697 8.86757 14.8456 8.39181C15.3206 7.91606 16.0916 7.91255 16.5639 8.38304C16.7958 8.61389 16.924 8.91935 16.924 9.24237C16.924 9.5689 16.7949 9.87788 16.5596 10.1131L14.2169 12.455C14.3486 12.5849 14.4784 12.7147 14.6083 12.8445L14.6085 12.8447L15.138 13.3732Z" fill="#818181"/>
</svg>
