<svg width="17" height="17" viewBox="0 0 17 17" fill="none" xmlns="http://www.w3.org/2000/svg">
<path fill-rule="evenodd" clip-rule="evenodd" d="M5.85979 1.5C5.48523 1.5 5.18158 1.80364 5.18158 2.17819C5.18158 2.55275 5.48523 2.85638 5.85979 2.85638H12.8842C13.5798 2.85638 14.1437 3.42028 14.1437 4.11588V11.14C14.1437 11.5146 14.4473 11.8182 14.8219 11.8182C15.1965 11.8182 15.5001 11.5146 15.5001 11.14V4.11588C15.5001 2.67117 14.3289 1.5 12.8842 1.5H5.85979ZM3.43776 5.71466H10.7043C11.0254 5.71466 11.2857 5.97492 11.2857 6.29597V13.5623C11.2857 13.8834 11.0254 14.1436 10.7043 14.1436H3.43776C3.1167 14.1436 2.85643 13.8834 2.85643 13.5623V6.29597C2.85643 5.97492 3.1167 5.71466 3.43776 5.71466ZM1.5 6.29597C1.5 5.22581 2.36756 4.35828 3.43776 4.35828H10.7043C11.7745 4.35828 12.6421 5.22581 12.6421 6.29597V13.5623C12.6421 14.6325 11.7745 15.5 10.7043 15.5H3.43776C2.36756 15.5 1.5 14.6325 1.5 13.5623V6.29597ZM7.11913 7.31311C7.4937 7.31311 7.79735 7.61675 7.79735 7.9913V9.2511H9.05714C9.4317 9.2511 9.73535 9.55474 9.73535 9.92929C9.73535 10.3038 9.4317 10.6075 9.05714 10.6075H7.79735V11.8667C7.79735 12.2412 7.4937 12.5449 7.11913 12.5449C6.74457 12.5449 6.44092 12.2412 6.44092 11.8667V10.6075H5.18163C4.80706 10.6075 4.50341 10.3038 4.50341 9.92929C4.50341 9.55474 4.80706 9.2511 5.18163 9.2511H6.44092V7.9913C6.44092 7.61675 6.74457 7.31311 7.11913 7.31311Z" fill="black"/>
</svg>
