<svg width="17" height="17" viewBox="0 0 17 17" fill="none" xmlns="http://www.w3.org/2000/svg">
<path fill-rule="evenodd" clip-rule="evenodd" d="M16.4924 3.8462L16.4938 3.85172L16.5002 3.88419V4.57289L16.4975 4.58523C16.4814 4.65656 16.4662 4.72789 16.451 4.79922L16.451 4.79925C16.4128 4.97943 16.3764 5.14954 16.3263 5.31737C16.1528 5.89814 15.8352 6.41124 15.3561 6.88637C14.972 7.26737 14.6648 7.57221 14.3977 7.83715L14.2102 8.02322L14.195 8.03831L14.1477 8.08529C13.4608 8.76691 12.9865 9.23762 11.8976 10.312C11.1305 11.0693 10.1994 11.4589 9.23805 11.4589C8.67429 11.4589 8.09949 11.3249 7.54079 11.0519C7.17261 10.8717 6.83896 10.5946 6.55547 10.3491C6.41556 10.2279 6.38059 10.0815 6.37552 9.98001C6.3677 9.81904 6.43075 9.65579 6.5481 9.53232C6.66178 9.41296 6.81457 9.34711 6.97794 9.34711C7.12199 9.34711 7.26144 9.40061 7.36959 9.4971C7.83946 9.91599 8.28817 10.146 8.78198 10.2206C9.56527 10.3395 10.2657 10.1446 10.8645 9.64161C10.9151 9.59908 10.9671 9.55106 11.0237 9.49482C11.6187 8.90535 12.032 8.49653 12.3979 8.1348L12.4052 8.12749C13.0201 7.51973 13.5056 7.03957 14.5209 6.02847C15.3649 5.18796 15.5402 3.95416 14.9571 2.95816C14.5646 2.28775 13.8977 1.83731 13.1278 1.72253C12.373 1.61003 11.6206 1.8396 11.0628 2.35177C10.5592 2.81488 10.0698 3.3069 9.5962 3.78293L9.58736 3.79182L9.58276 3.79639C9.55019 3.8291 9.51746 3.862 9.4846 3.89503C9.30567 4.07489 9.12279 4.25872 8.94122 4.43798C8.87403 4.50475 8.80683 4.57197 8.7401 4.63919L8.73274 4.64697C8.59375 4.7869 8.45063 4.93049 8.30612 5.06586C8.04978 5.30594 7.69035 5.31188 7.4515 5.08003C7.33553 4.96754 7.2711 4.82074 7.26972 4.66663C7.2688 4.50658 7.33599 4.35064 7.45933 4.22717C7.61729 4.06883 7.775 3.90997 7.93264 3.75118C7.98488 3.69856 8.03712 3.64594 8.08936 3.59335L8.09411 3.58857C8.77375 2.90364 9.47628 2.19566 10.1944 1.52909C11.0154 0.765854 12.0628 0.407788 13.1434 0.520284C14.2222 0.632322 15.2112 1.22316 15.8578 2.14142C16.1776 2.59552 16.382 3.12507 16.4653 3.71453C16.4719 3.76183 16.4823 3.80451 16.4924 3.8462ZM0.507499 13.1538L0.506204 13.1483L0.5 13.1158L0.5 12.4271L0.502659 12.4148C0.518169 12.3434 0.532793 12.2721 0.547417 12.2008C0.584198 12.0206 0.619207 11.8505 0.66751 11.6826C0.834577 11.1019 1.14035 10.5888 1.60167 10.1136C1.97091 9.73333 2.26634 9.4289 2.52313 9.16429C2.58592 9.09958 2.64641 9.03725 2.7051 8.97678L2.71973 8.96169L2.76538 8.91464C3.42672 8.23305 3.88345 7.76234 4.93192 6.68799C5.67065 5.9307 6.56713 5.54108 7.49287 5.54108C8.03572 5.54108 8.58922 5.67507 9.1272 5.94807C9.48171 6.12825 9.803 6.40537 10.076 6.65095C10.2107 6.77213 10.2444 6.91847 10.2492 7.01999C10.2568 7.18096 10.1961 7.34421 10.0831 7.46769C9.97361 7.58704 9.82648 7.65289 9.66917 7.65289C9.53046 7.65289 9.39619 7.59939 9.29205 7.5029C8.83959 7.08401 8.40753 6.85399 7.93203 6.77945C7.17779 6.66055 6.50332 6.85536 5.92678 7.35839C5.87804 7.40092 5.82796 7.44894 5.77346 7.50518C5.20047 8.09464 4.80252 8.50347 4.45022 8.8652L4.44313 8.87251C3.85108 9.48027 3.38356 9.96043 2.40598 10.9715C1.59324 11.812 1.42441 13.0458 1.98587 14.0418C2.36388 14.7122 3.006 15.1627 3.74738 15.2775C4.47415 15.39 5.19869 15.1604 5.73579 14.6482C6.22067 14.1851 6.69198 13.6931 7.14798 13.2171L7.15652 13.2082L7.16095 13.2036C7.19229 13.1709 7.22379 13.138 7.25542 13.105C7.42773 12.9251 7.60385 12.7413 7.7787 12.562C7.8434 12.4953 7.9081 12.428 7.97235 12.3608L7.97944 12.353C8.11327 12.2131 8.25109 12.0695 8.39024 11.9341C8.63707 11.6941 8.98317 11.6881 9.21317 11.92C9.32484 12.0325 9.38688 12.1793 9.38821 12.3334C9.3891 12.4934 9.3244 12.6494 9.20563 12.7728C9.05352 12.9312 8.90166 13.09 8.74986 13.2488C8.69955 13.3015 8.64926 13.3541 8.59896 13.4067L8.59442 13.4114C7.93997 14.0963 7.26349 14.8043 6.57201 15.4709C5.78143 16.2341 4.77283 16.5922 3.73232 16.4797C2.69358 16.3677 1.74126 15.7768 1.11863 14.8586C0.810647 14.4045 0.613889 13.8749 0.533679 13.2855C0.527313 13.2382 0.517288 13.1955 0.507499 13.1538Z" fill="black"/>
</svg>
