<svg width="22" height="22" viewBox="0 0 22 22" fill="none" xmlns="http://www.w3.org/2000/svg">
<path fill-rule="evenodd" clip-rule="evenodd" d="M4.66665 4.65345H7.05381V3.34043C7.05381 3.15292 7.20673 3 7.39424 3H8.16156C8.34906 3 8.50198 3.15292 8.50198 3.34043V4.65345H13.498V3.34043C13.498 3.15292 13.6509 3 13.8384 3H14.6058C14.7933 3 14.9462 3.15292 14.9462 3.34043V4.65345H17.3333C18.2513 4.65345 19 5.40214 19 6.3201V7.38798H3V6.3201C3 5.40214 3.7487 4.65345 4.66665 4.65345ZM19 8.20504V17.3333C19 18.2513 18.2513 19 17.3333 19H4.66665C3.7487 19 3 18.2513 3 17.3333V8.20504H19ZM5.66474 10.1971V12.2645H7.73214V10.1971H5.66474ZM5.66474 14.532V16.5994H7.73214V14.532H5.66474ZM14.2678 14.532V16.5994H16.3353V14.532H14.2678ZM9.96628 14.532V16.5994H12.0337V14.532H9.96628ZM14.2678 10.1971V12.2645H16.3353V10.1971H14.2678ZM9.96628 10.1971V12.2645H12.0337V10.1971H9.96628Z" fill="#1579AD"/>
</svg>
