<svg width="21" height="21" viewBox="0 0 21 21" fill="none" xmlns="http://www.w3.org/2000/svg">
<path fill-rule="evenodd" clip-rule="evenodd" d="M20.4672 6.34453C20.4385 4.45242 19.5056 3.03866 17.8718 2.09824C17.1484 1.68125 16.3525 1.50468 15.5247 1.48465C15.2833 0.741452 14.9907 0.479111 14.4361 0.501651C13.9397 0.521687 13.6239 0.841004 13.4714 1.47713H7.51339C7.40897 0.874814 7.06571 0.524817 6.56677 0.501651C6.00092 0.475355 5.68142 0.761488 5.47884 1.47901C5.46401 1.48029 5.44889 1.48185 5.43358 1.48343C5.40371 1.48651 5.37312 1.48967 5.34253 1.49091C2.6646 1.59484 0.546268 3.72613 0.521884 6.4084C0.493748 9.48637 0.490621 12.565 0.52501 15.6423C0.553771 18.2682 2.72025 20.4452 5.34504 20.4728C8.77826 20.5091 12.2121 20.5091 15.6453 20.4728C18.2839 20.4452 20.4429 18.2714 20.4722 15.6248C20.506 12.5324 20.5141 9.43753 20.4672 6.34453ZM5.50072 3.51451C5.50072 3.61184 5.49995 3.70941 5.49917 3.80713V3.80716C5.49743 4.02561 5.49569 4.2448 5.5026 4.46369C5.52448 5.18372 6.17536 5.65268 6.82937 5.42603C7.22328 5.28953 7.49026 4.92827 7.49963 4.50063C7.50476 4.2778 7.50347 4.05468 7.50213 3.82448V3.82436V3.82425V3.82413V3.82401V3.82389C7.50151 3.71729 7.50088 3.60917 7.50088 3.49885H13.4957C13.4957 3.60547 13.495 3.71158 13.4942 3.81736V3.81754V3.81771V3.81789V3.81807V3.81825C13.4926 4.04699 13.491 4.27412 13.497 4.50126C13.517 5.23256 14.2654 5.69713 14.9188 5.38345C15.3108 5.19499 15.4872 4.86503 15.4953 4.4399C15.4992 4.22844 15.4983 4.01728 15.4973 3.80727V3.80726V3.80725V3.80724V3.80723V3.80723C15.4969 3.71567 15.4965 3.62434 15.4965 3.53329C16.8527 3.23776 18.6878 5.06601 18.4596 6.47915H2.53393C2.43764 4.89634 3.93385 3.43374 5.50072 3.51451ZM18.4927 15.4119C18.4902 16.785 17.6811 17.9376 16.4219 18.3327C16.0999 18.4335 15.7491 18.4861 15.4109 18.4874C12.1333 18.4986 8.85579 18.4974 5.57825 18.493C3.84507 18.4905 2.51642 17.1913 2.50704 15.4739C2.49811 13.8613 2.50034 12.2487 2.50257 10.6359V10.6358V10.6358C2.50347 9.99053 2.50436 9.34528 2.50454 8.69997C2.50454 8.66017 2.5083 8.62037 2.51247 8.57617L2.51248 8.57615C2.51467 8.55291 2.51698 8.52844 2.51892 8.50212H18.4946V8.75507C18.4944 9.49484 18.4946 10.2346 18.4948 10.9744V10.9769C18.4952 12.4552 18.4956 13.9336 18.4927 15.4119ZM14.5534 10.0773C13.9156 10.0842 13.4004 10.607 13.4048 11.2437C13.4086 11.8786 13.935 12.3983 14.5703 12.3945C15.2005 12.3914 15.7232 11.8605 15.7214 11.2256C15.7195 10.5945 15.1861 10.0704 14.5534 10.0773ZM5.15139 14.9236C5.15577 14.2918 5.68348 13.769 6.3181 13.769C6.9471 13.769 7.47418 14.3037 7.46793 14.9367C7.46231 15.5747 6.93897 16.0925 6.30435 16.0882C5.6691 16.0838 5.14702 15.5566 5.15139 14.9236ZM14.5818 13.7692C13.9628 13.7586 13.4282 14.2651 13.4051 14.8837C13.3819 15.5223 13.8803 16.0633 14.5143 16.0877C15.1608 16.1127 15.6991 15.605 15.7204 14.9501C15.7416 14.3283 15.2127 13.7798 14.5818 13.7692ZM5.15186 11.232C5.15374 10.599 5.67832 10.0781 6.31419 10.0768C6.94819 10.0756 7.47215 10.6021 7.4684 11.237C7.46465 11.8738 6.93881 12.3991 6.30857 12.3947C5.67332 12.3903 5.14998 11.8637 5.15186 11.232ZM10.5046 10.0773C9.86436 10.0823 9.35666 10.5976 9.35791 11.24C9.35979 11.8823 9.87312 12.3958 10.5134 12.3945C11.1492 12.3939 11.6594 11.8761 11.6601 11.2299C11.6607 10.5913 11.1399 10.0723 10.5046 10.0773ZM9.35812 14.9011C9.37 14.2637 9.90396 13.7509 10.538 13.7691C11.1782 13.7879 11.6747 14.3138 11.659 14.9581C11.6446 15.5986 11.1182 16.1026 10.4798 16.0876C9.84268 16.0726 9.34624 15.5473 9.35812 14.9011Z" fill="black" fill-opacity="0.6"/>
</svg>
