<svg width="22" height="22" viewBox="0 0 22 22" fill="none" xmlns="http://www.w3.org/2000/svg">
<path d="M13.6564 7.19467C12.9636 7.19467 12.4 6.63105 12.4 5.93826V1.81006H5.97436C4.8857 1.81006 4 2.69576 4 3.78442V18.2152C4 19.3038 4.8857 20.1895 5.97436 20.1895H16.0256C17.1143 20.1895 18 19.3038 18 18.2152V7.19467H13.6564ZM6.94359 14.7331H9.55405C9.85143 14.7331 10.0925 14.9742 10.0925 15.2716C10.0925 15.569 9.85143 15.8101 9.55405 15.8101H6.94359C6.64622 15.8101 6.40513 15.569 6.40513 15.2716C6.40513 14.9742 6.64622 14.7331 6.94359 14.7331ZM6.40513 12.3998C6.40513 12.1024 6.64622 11.8613 6.94359 11.8613H14.841C15.1384 11.8613 15.3795 12.1024 15.3795 12.3998C15.3795 12.6972 15.1384 12.9383 14.841 12.9383H6.94359C6.64622 12.9383 6.40513 12.6972 6.40513 12.3998ZM14.841 8.98955C15.1384 8.98955 15.3795 9.23063 15.3795 9.52801C15.3795 9.82538 15.1384 10.0665 14.841 10.0665H6.94359C6.64622 10.0665 6.40513 9.82538 6.40513 9.52801C6.40513 9.23063 6.64622 8.98955 6.94359 8.98955H14.841Z" fill="#1579AD"/>
<path d="M13.4768 5.93809C13.4768 6.03706 13.5573 6.11758 13.6563 6.11758H17.7599C17.6609 5.93434 17.5335 5.76796 17.3824 5.62463L13.9211 2.35C13.7883 2.2244 13.6388 2.11779 13.4768 2.0332V5.93809H13.4768Z" fill="#1579AD"/>
</svg>
