<svg width="22" height="22" viewBox="0 0 22 22" fill="none" xmlns="http://www.w3.org/2000/svg">
<g clip-path="url(#clip0_263_2475)">
<path d="M15.8125 0.021326C15.7273 0.021326 7.5625 0 7.5625 0C6.10774 0 4.81251 1.33445 4.81251 2.75002L4.01776 2.76857C2.56369 2.76857 1.375 4.08443 1.375 5.5V19.25C1.375 20.6656 2.67026 22 4.12502 22H14.4375C15.8922 22 17.1875 20.6656 17.1875 19.25H17.875C19.3298 19.25 20.625 17.9156 20.625 16.5V5.51651L15.8125 0.021326ZM14.4375 20.625H4.12502C3.40314 20.625 2.75002 19.9506 2.75002 19.25V5.5C2.75002 4.47701 3.59152 4.12501 4.81251 4.12501V16.5C4.81251 17.9156 6.10774 19.25 7.5625 19.25C7.5625 19.25 15.0164 19.2425 15.8187 19.2425C15.8187 20.0771 15.2715 20.625 14.4375 20.625ZM15.8125 14.4451H9.62502C9.24552 14.4451 8.93752 14.1378 8.93752 13.7582C8.93752 13.3788 9.24552 13.0715 9.62502 13.0715H15.8125C16.192 13.0715 16.5 13.3788 16.5 13.7582C16.5 14.1378 16.192 14.4451 15.8125 14.4451ZM15.8125 11.011H9.62502C9.24552 11.011 8.93752 10.7037 8.93752 10.3242C8.93752 9.94471 9.24552 9.6374 9.62502 9.6374H15.8125C16.192 9.6374 16.5 9.94471 16.5 10.3242C16.5 10.703 16.192 11.011 15.8125 11.011ZM17.1875 5.5C16.4553 5.5 15.8125 4.83933 15.8125 4.12501V1.39493L19.25 5.5H17.1875Z" fill="#0D6EFD"/>
</g>
<defs>
<clipPath id="clip0_263_2475">
<rect width="22" height="22" fill="white"/>
</clipPath>
</defs>
</svg>
