<svg width="22" height="22" viewBox="0 0 22 22" fill="none" xmlns="http://www.w3.org/2000/svg">
<path d="M17.1111 22H4.88887C3.58309 22 2.3554 21.4915 1.43195 20.568C0.50854 19.6447 0 18.417 0 17.1111V15.8888C0 15.2138 0.547179 14.6665 1.22223 14.6665C1.89728 14.6665 2.44446 15.2138 2.44446 15.8888V17.1111C2.44446 17.764 2.69875 18.3778 3.16037 18.8395C3.62211 19.3012 4.23594 19.5555 4.88887 19.5555H17.1111C17.764 19.5555 18.3778 19.3012 18.8395 18.8395C19.3012 18.3778 19.5555 17.7639 19.5555 17.1111V15.8888C19.5555 15.2138 20.1027 14.6665 20.7777 14.6665C21.4527 14.6665 22 15.2138 22 15.8888V17.1111C22 18.4169 21.4915 19.6445 20.568 20.568C19.6446 21.4915 18.4169 22 17.1111 22ZM11 17.111C10.6808 17.1115 10.3743 16.9866 10.1462 16.7634L10.1461 16.7633L10.1436 16.7609L10.143 16.7603C10.1423 16.7597 10.1417 16.759 10.141 16.7584L10.1398 16.7571C10.1394 16.7567 10.1389 16.7562 10.1384 16.7558L10.1358 16.7532L5.24687 11.8642C4.76958 11.3869 4.76958 10.613 5.24687 10.1357C5.72416 9.65842 6.49809 9.65837 6.97538 10.1357L9.77779 12.9381V1.22223C9.77775 0.547179 10.3249 0 11 0C11.675 0 12.2222 0.547179 12.2222 1.22223V12.9381L15.0246 10.1357C15.5019 9.65842 16.2759 9.65842 16.7531 10.1357C17.2304 10.613 17.2304 11.3869 16.7531 11.8642L11.8642 16.7531L11.8616 16.7557L11.8602 16.7571L11.859 16.7583C11.8584 16.759 11.8577 16.7596 11.8571 16.7602L11.8564 16.7609C11.8556 16.7617 11.8548 16.7625 11.854 16.7632L11.8539 16.7633C11.8404 16.7764 11.8268 16.7892 11.8129 16.8015C11.7131 16.8907 11.5993 16.9628 11.476 17.0148L11.4748 17.0153C11.4744 17.0155 11.474 17.0157 11.4735 17.0159C11.3236 17.0789 11.1626 17.1113 11 17.111Z" fill="#0D6EFD"/>
</svg>
