<svg width="22" height="22" viewBox="0 0 22 22" fill="none" xmlns="http://www.w3.org/2000/svg">
<path d="M18.3333 7.88356L10.6516 15.5652C10.3858 15.8311 10.0374 15.9961 9.66159 16.0327L6.97575 16.2802H6.87492C6.57242 16.2802 6.27909 16.1611 6.06825 15.9411C5.82992 15.7027 5.71075 15.3636 5.73825 15.0244L5.98575 12.3386C6.02242 11.9627 6.18742 11.6144 6.45325 11.3486L14.1166 3.66689L18.3333 7.88356ZM20.1116 2.53939L19.4608 1.88856C18.987 1.41735 18.346 1.15283 17.6778 1.15283C17.0097 1.15283 16.3687 1.41735 15.8949 1.88856L15.0883 2.69523L19.3049 6.91189L20.1116 6.10523C20.3464 5.87241 20.5328 5.59539 20.66 5.29017C20.7871 4.98495 20.8526 4.65756 20.8526 4.32689C20.8526 3.99623 20.7871 3.66884 20.66 3.36362C20.5328 3.05839 20.3464 2.78138 20.1116 2.54856V2.53939ZM19.0208 17.4261V12.1002C19.0208 11.7244 18.7091 11.4127 18.3333 11.4127C17.9574 11.4127 17.6458 11.7244 17.6458 12.1002V17.4261C17.6458 18.5627 16.7199 19.4886 15.5833 19.4886H4.58325C3.44659 19.4886 2.52075 18.5627 2.52075 17.4261V6.41689C2.52075 5.28023 3.44659 4.35439 4.58325 4.35439H9.90909C10.2849 4.35439 10.5966 4.04273 10.5966 3.66689C10.5966 3.29106 10.2849 2.97939 9.90909 2.97939H4.58325C2.68575 2.97939 1.14575 4.51939 1.14575 6.41689V17.4169C1.14575 19.3144 2.68575 20.8544 4.58325 20.8544H15.5833C17.4808 20.8544 19.0208 19.3144 19.0208 17.4169V17.4261Z" fill="#0D6EFD"/>
</svg>
