<svg width="20" height="18" viewBox="0 0 20 18" fill="none" xmlns="http://www.w3.org/2000/svg">
<path fill-rule="evenodd" clip-rule="evenodd" d="M4 0C1.79086 0 0 1.79086 0 4V14C0 16.2091 1.79086 18 4 18H16C18.2091 18 20 16.2091 20 14V4C20 1.79086 18.2091 0 16 0H4ZM3.38506 3.35456C2.94742 3.03019 2.35611 3.16166 2.06435 3.64822C1.77259 4.13478 1.89085 4.79218 2.32849 5.11655L9.99964 10.8022L17.6708 5.11655C18.1084 4.79218 18.2267 4.13478 17.9349 3.64822C17.6432 3.16166 17.0519 3.03019 16.6142 3.35456L9.99964 8.25712L3.38506 3.35456Z" fill="black" fill-opacity="0.6"/>
</svg>
