<svg width="22" height="22" viewBox="0 0 22 22" fill="none" xmlns="http://www.w3.org/2000/svg">
<path d="M15.5376 7.10187C15.009 7.10133 14.5022 6.8911 14.1284 6.51732C13.7546 6.14353 13.5444 5.63673 13.5438 5.10812V1.375H4.79883C3.65758 1.375 2.73633 2.29625 2.73633 3.4375V18.5625C2.73633 19.7038 3.65758 20.625 4.79883 20.625H17.2013C18.3426 20.625 19.2638 19.7038 19.2638 18.5625V7.10187H15.5376ZM10.426 16.1212H6.5327C6.3686 16.1212 6.21122 16.056 6.09518 15.94C5.97914 15.8239 5.91395 15.6665 5.91395 15.5024C5.91395 15.3383 5.97914 15.181 6.09518 15.0649C6.21122 14.9489 6.3686 14.8837 6.5327 14.8837H10.426C10.5901 14.8837 10.7475 14.9489 10.8635 15.0649C10.9796 15.181 11.0448 15.3383 11.0448 15.5024C11.0448 15.6665 10.9796 15.8239 10.8635 15.94C10.7475 16.056 10.5901 16.1212 10.426 16.1212ZM10.426 12.6046H6.5327C6.3686 12.6046 6.21122 12.5394 6.09518 12.4234C5.97914 12.3074 5.91395 12.15 5.91395 11.9859C5.91395 11.8218 5.97914 11.6644 6.09518 11.5484C6.21122 11.4323 6.3686 11.3671 6.5327 11.3671H10.426C10.5901 11.3671 10.7475 11.4323 10.8635 11.5484C10.9796 11.6644 11.0448 11.8218 11.0448 11.9859C11.0448 12.15 10.9796 12.3074 10.8635 12.4234C10.7475 12.5394 10.5901 12.6046 10.426 12.6046ZM15.8559 14.9978L13.8773 16.5921C13.8136 16.6437 13.7402 16.682 13.6615 16.7049C13.5828 16.7278 13.5004 16.7348 13.419 16.7255C13.3375 16.7161 13.2588 16.6906 13.1873 16.6505C13.1159 16.6104 13.0531 16.5564 13.0028 16.4918L12.2252 15.4997C12.1722 15.4361 12.1325 15.3625 12.1085 15.2832C12.0845 15.204 12.0766 15.1207 12.0853 15.0384C12.0941 14.9561 12.1193 14.8763 12.1594 14.8039C12.1995 14.7315 12.2538 14.6678 12.3189 14.6167C12.3841 14.5657 12.4588 14.5282 12.5387 14.5065C12.6187 14.4848 12.7021 14.4794 12.7841 14.4906C12.8662 14.5018 12.9452 14.5293 13.0164 14.5716C13.0876 14.6138 13.1496 14.6699 13.1987 14.7366L13.5899 15.235L15.0804 14.0339C15.1434 13.9806 15.2164 13.9404 15.2952 13.9157C15.374 13.8911 15.4569 13.8824 15.5391 13.8903C15.6213 13.8981 15.7011 13.9224 15.7737 13.9615C15.8464 14.0007 15.9105 14.054 15.9622 14.1183C16.014 14.1827 16.0523 14.2567 16.075 14.3361C16.0978 14.4154 16.1043 14.4985 16.0944 14.5805C16.0845 14.6624 16.0583 14.7416 16.0173 14.8133C15.9764 14.8849 15.9215 14.9477 15.8559 14.9978ZM15.8559 11.4819L13.8773 13.0763C13.8136 13.1278 13.7402 13.1662 13.6615 13.1891C13.5828 13.2119 13.5004 13.2189 13.419 13.2096C13.3375 13.2002 13.2588 13.1748 13.1873 13.1346C13.1159 13.0945 13.0531 13.0405 13.0028 12.9759L12.2252 11.9838C12.1722 11.9202 12.1325 11.8466 12.1085 11.7673C12.0845 11.6881 12.0766 11.6049 12.0853 11.5225C12.0941 11.4402 12.1193 11.3604 12.1594 11.288C12.1995 11.2156 12.2538 11.1519 12.3189 11.1009C12.3841 11.0498 12.4588 11.0123 12.5387 10.9906C12.6187 10.969 12.7021 10.9636 12.7841 10.9747C12.8662 10.9859 12.9452 11.0134 13.0164 11.0557C13.0876 11.0979 13.1496 11.154 13.1987 11.2207L13.5899 11.7191L15.0804 10.5181C15.1434 10.4647 15.2164 10.4245 15.2952 10.3999C15.374 10.3752 15.4569 10.3665 15.5391 10.3744C15.6213 10.3823 15.7011 10.4065 15.7737 10.4457C15.8464 10.4848 15.9105 10.5381 15.9622 10.6025C16.014 10.6668 16.0523 10.7408 16.075 10.8202C16.0978 10.8995 16.1043 10.9827 16.0944 11.0646C16.0845 11.1466 16.0583 11.2257 16.0173 11.2974C15.9764 11.3691 15.9215 11.4318 15.8559 11.4819Z" fill="#1579AD"/>
<path d="M14.7812 5.10813C14.7812 5.53231 15.1133 5.86438 15.5375 5.86438H19.2638V5.36938C19.2638 5.005 19.1194 4.66125 18.865 4.4L16.2388 1.78062C15.9844 1.51937 15.6337 1.375 15.2694 1.375H14.7812V5.10813Z" fill="#1579AD"/>
</svg>
