<svg width="22" height="22" viewBox="0 0 22 22" fill="none" xmlns="http://www.w3.org/2000/svg">
<path d="M7.07806 4.93527H12.28C12.8761 4.93527 13.2843 4.3335 13.0633 3.77976L12.4919 2.34879C12.4294 2.19214 12.3213 2.05785 12.1817 1.96328C12.042 1.86872 11.8772 1.81823 11.7086 1.81836H7.64876C7.30408 1.81836 6.99331 2.02884 6.86547 2.34879L6.29477 3.77976C6.2438 3.90769 6.22492 4.04616 6.2398 4.18307C6.25468 4.31997 6.30286 4.45115 6.38013 4.56514C6.4574 4.67913 6.56141 4.77247 6.68308 4.83699C6.80474 4.90151 6.94035 4.93525 7.07806 4.93527ZM19.5817 12.956C19.0238 12.4051 18.1268 12.4051 17.5688 12.956L16.967 13.5621L18.9814 15.5694L19.5817 14.969C20.1397 14.411 20.1397 13.514 19.5817 12.956ZM16.2197 14.3122L12.773 17.7589C12.6953 17.8295 12.6458 17.9284 12.6317 18.0344L12.3633 19.5882C12.3068 19.9343 12.6035 20.231 12.9496 20.1745L14.5105 19.9131C14.6094 19.8919 14.7083 19.8425 14.7789 19.7719L18.2327 16.318L16.2197 14.3122Z" fill="#1579AD"/>
<path d="M15.0259 3.37842H14.0435L14.047 3.3876C14.1623 3.67602 14.2052 3.98831 14.1718 4.29713C14.1384 4.60595 14.0299 4.90188 13.8556 5.15901C13.6815 5.41663 13.4469 5.6276 13.1723 5.77341C12.8977 5.91921 12.5915 5.99539 12.2805 5.99527H7.07791C6.76695 5.99558 6.46068 5.91948 6.18604 5.77366C5.91139 5.62784 5.67679 5.41677 5.50285 5.15901C5.3284 4.90184 5.21966 4.60581 5.18617 4.29687C5.15268 3.98792 5.19545 3.67547 5.31074 3.38689L5.31427 3.37842H4.33251C3.03997 3.37842 2.00171 4.42375 2.00171 5.70922V17.8506C2.00171 19.136 3.03997 20.1814 4.33251 20.1814H11.3892C11.302 19.9366 11.2773 19.6739 11.3171 19.4171L11.5869 17.8541C11.6279 17.5384 11.7981 17.2114 12.0602 16.974L15.7944 13.2384L16.815 12.2093C16.9767 12.054 17.1584 11.921 17.3553 11.8138V5.70922C17.3553 5.0913 17.1099 4.49866 16.6731 4.06159C16.2363 3.62452 15.6439 3.37879 15.0259 3.37842ZM6.35324 15.1249H5.7098C5.54121 15.1249 5.37952 15.058 5.26031 14.9388C5.1411 14.8195 5.07413 14.6579 5.07413 14.4893C5.07413 14.3207 5.1411 14.159 5.26031 14.0398C5.37952 13.9206 5.54121 13.8536 5.7098 13.8536H6.35395C6.52254 13.8537 6.68419 13.9207 6.80333 14.04C6.92248 14.1593 6.98936 14.321 6.98927 14.4896C6.98917 14.6582 6.92211 14.8199 6.80283 14.939C6.68355 15.0581 6.52183 15.125 6.35324 15.1249ZM6.35324 11.2678H5.7098C5.54121 11.2678 5.37952 11.2008 5.26031 11.0816C5.1411 10.9624 5.07413 10.8007 5.07413 10.6321C5.07413 10.4636 5.1411 10.3019 5.26031 10.1827C5.37952 10.0634 5.54121 9.99647 5.7098 9.99647H6.35395C6.43742 9.99652 6.52008 10.013 6.59718 10.045C6.67429 10.077 6.74434 10.1238 6.80333 10.1829C6.86233 10.242 6.90911 10.3121 6.94101 10.3892C6.97292 10.4664 6.98931 10.549 6.98927 10.6325C6.98922 10.716 6.97273 10.7986 6.94074 10.8757C6.90875 10.9528 6.86189 11.0229 6.80283 11.0819C6.74377 11.1409 6.67367 11.1877 6.59653 11.2196C6.51939 11.2515 6.43672 11.2679 6.35324 11.2678ZM12.046 15.1242H8.90299C8.7344 15.1242 8.57272 15.0573 8.4535 14.938C8.33429 14.8188 8.26732 14.6572 8.26732 14.4886C8.26732 14.32 8.33429 14.1583 8.4535 14.0391C8.57272 13.9199 8.7344 13.8529 8.90299 13.8529H12.046C12.2146 13.8529 12.3763 13.9199 12.4955 14.0391C12.6147 14.1583 12.6817 14.32 12.6817 14.4886C12.6817 14.6572 12.6147 14.8188 12.4955 14.938C12.3763 15.0573 12.2146 15.1242 12.046 15.1242ZM13.6486 11.2678H8.90158C8.73299 11.2678 8.5713 11.2008 8.45209 11.0816C8.33288 10.9624 8.26591 10.8007 8.26591 10.6321C8.26591 10.4636 8.33288 10.3019 8.45209 10.1827C8.5713 10.0634 8.73299 9.99647 8.90158 9.99647H13.6486C13.8172 9.99647 13.9789 10.0634 14.0981 10.1827C14.2173 10.3019 14.2843 10.4636 14.2843 10.6321C14.2843 10.8007 14.2173 10.9624 14.0981 11.0816C13.9789 11.2008 13.8172 11.2678 13.6486 11.2678Z" fill="#1579AD"/>
</svg>
