<svg width="17" height="11" viewBox="0 0 17 11" fill="none" xmlns="http://www.w3.org/2000/svg">
<path d="M16.484 5.31892C15.8809 4.27237 15.0487 3.31894 14.0091 2.48178C13.9647 2.446 13.9207 2.41104 13.8762 2.37688C13.8549 2.36021 13.8339 2.34273 13.8121 2.32606L13.7265 2.25979L13.7244 2.26182C12.4117 1.29131 11.204 0.951405 11.204 0.951405L11.1863 0.94612C9.4737 0.375278 7.734 0.351696 6.00457 0.878627C3.81441 1.54624 2.06113 2.91601 0.644762 5.06602C0.450181 5.3612 0.451827 5.64012 0.649287 5.94383C1.04997 6.55981 1.51071 7.13471 2.01876 7.65311C2.43219 8.07473 2.86784 8.44879 3.33598 8.78666L3.33557 8.78747L3.36025 8.80455C3.44129 8.86269 3.52357 8.92043 3.60667 8.97653C3.60667 8.97653 5.50352 10.1207 6.67594 10.2963C7.29712 10.4321 7.91418 10.5 8.52466 10.5C9.23387 10.5 9.93445 10.4085 10.6219 10.2252C11.8823 9.88891 13.0239 9.3205 14.0141 8.5358C14.9499 7.79419 15.7805 6.83547 16.4823 5.68606L16.5 5.65719V5.34738L16.484 5.31892ZM15.133 5.53847C14.6106 6.27967 14.0206 6.92004 13.3793 7.4425C11.6194 8.8753 9.68022 9.4685 7.60647 9.21032C7.60606 9.21032 7.60606 9.21032 7.60565 9.21032C7.58673 9.20788 7.56739 9.20503 7.54806 9.20219C7.23047 9.15502 5.72031 8.88831 4.23607 7.89137C4.0637 7.77142 3.89134 7.64823 3.72514 7.51812C3.02622 6.97249 2.39763 6.3061 1.8575 5.53766C1.84145 5.51448 1.83487 5.5031 1.8324 5.49781C1.83364 5.49456 1.83693 5.48846 1.84351 5.47911C3.02786 3.81659 4.41872 2.72329 6.09631 2.13659C7.47565 1.65439 8.87721 1.59381 10.2738 1.95282C11.7268 2.36713 12.7976 3.10955 13.2641 3.47466C13.9651 4.03737 14.5937 4.7066 15.1342 5.46691C15.1519 5.49171 15.1536 5.50147 15.1536 5.50147C15.1532 5.50188 15.1515 5.51204 15.133 5.53847Z" fill="black"/>
<path d="M8.49948 2.45654C6.80132 2.45654 5.41992 3.82185 5.41992 5.50022C5.41992 7.17859 6.80132 8.5439 8.49948 8.5439C10.1976 8.5439 11.579 7.17859 11.579 5.50022C11.579 3.82185 10.1976 2.45654 8.49948 2.45654ZM8.49948 7.32375C7.48215 7.32375 6.65405 6.5057 6.65405 5.49981C6.65405 4.49393 7.48174 3.67588 8.49948 3.67588C9.51722 3.67588 10.3449 4.49393 10.3449 5.49981C10.3449 6.5057 9.51681 7.32375 8.49948 7.32375Z" fill="black"/>
</svg>
