<svg width="17" height="17" viewBox="0 0 17 17" fill="none" xmlns="http://www.w3.org/2000/svg">
<g clip-path="url(#clip0_644_4140)">
<path d="M16.484 8.31618C15.843 7.19768 14.9442 6.1851 13.8121 5.30585L13.7265 5.23919L12.8301 6.12172L12.9877 6.24399C13.021 6.27017 13.0564 6.29757 13.0914 6.32456C13.8623 6.91754 14.5497 7.63772 15.1342 8.46463C15.1519 8.48957 15.1536 8.49939 15.1536 8.49939C15.1536 8.4998 15.1519 8.51002 15.1334 8.5366C14.611 9.28213 14.0211 9.92624 13.3797 10.4517C11.4376 12.0422 9.27709 12.6041 6.95899 12.1219C6.88865 12.1072 6.78375 12.1117 6.7204 12.1722C6.51923 12.3644 6.32589 12.5562 6.12143 12.7591L5.82812 13.0494L5.98198 13.1259C5.99432 13.132 6.00419 13.1374 6.01242 13.1419C6.03258 13.1525 6.0515 13.1631 6.07618 13.1701C6.89976 13.4085 7.71839 13.5275 8.5251 13.5275C9.23431 13.5275 9.93488 13.4355 10.6223 13.251C11.8827 12.9128 13.0243 12.3411 14.0145 11.5518C14.9504 10.8059 15.7809 9.84158 16.4827 8.68546L16.5004 8.65643V8.3448L16.484 8.31618Z" fill="black"/>
<path d="M14.3077 3.58701C14.4945 3.40216 14.5632 3.19686 14.5118 2.97684C14.4583 2.74783 14.3106 2.59243 14.0852 2.52699C13.8552 2.46033 13.6384 2.51963 13.4583 2.69875C13.3237 2.83248 13.1892 2.96621 13.0543 3.09953C12.7079 3.44305 12.3496 3.79844 12.0012 4.15218C11.9522 4.20208 11.9411 4.20658 11.8617 4.17304C9.93236 3.35922 7.96147 3.25085 6.00456 3.85078C3.8144 4.52188 2.06112 5.89924 0.644762 8.06221C0.450181 8.35912 0.451827 8.63966 0.649287 8.94515C1.04997 9.56472 1.5107 10.143 2.01875 10.6644C2.59714 11.2578 3.21791 11.76 3.91231 12.1959C3.88104 12.2233 3.85101 12.2507 3.82222 12.2794C3.48078 12.6172 3.0764 13.0179 2.6679 13.4269C2.39969 13.6952 2.38817 14.0714 2.64075 14.3213C2.76169 14.4407 2.90938 14.5004 3.06118 14.5004C3.22614 14.5004 3.39562 14.4301 3.54002 14.2902C3.55647 14.2743 3.57251 14.2579 3.58897 14.242L12.8502 5.03389C13.3274 4.5591 13.8211 4.06835 14.3077 3.58701ZM9.25935 6.84025L6.82525 9.26127C6.52042 8.69814 6.56691 7.82093 7.18891 7.20259C7.57149 6.82226 8.05156 6.65827 8.49584 6.65827C8.77558 6.65786 9.04091 6.72288 9.25935 6.84025ZM10.9678 5.14431L10.1788 5.93114C8.74061 5.02531 7.1235 5.47229 6.25097 6.39981C5.45538 7.24553 5.02055 8.77257 5.90665 10.1626L4.78072 11.2811C4.69557 11.2214 4.60918 11.1621 4.51909 11.0999C4.2554 10.9184 3.98307 10.7307 3.72513 10.5282C3.02621 9.97981 2.39763 9.30953 1.85749 8.53619C1.84145 8.51288 1.83487 8.50143 1.8324 8.49612C1.83363 8.49284 1.83692 8.48671 1.84351 8.4773C3.02785 6.80508 4.41871 5.7054 6.0963 5.11528C7.70395 4.5501 9.34204 4.55991 10.9678 5.14431Z" fill="black"/>
<path d="M11.0363 7.87205C10.8294 8.07857 10.6151 8.29205 10.4081 8.50512C10.3464 8.5685 10.3234 8.66011 10.3156 8.72595C10.2127 9.55613 9.55576 10.208 8.71779 10.3111C8.6565 10.3188 8.56805 10.3356 8.50717 10.3945C8.28996 10.6043 8.07852 10.8141 7.85514 11.0366L7.51123 11.3776L7.69882 11.4414C7.94441 11.5248 8.2081 11.5649 8.47796 11.5649C9.34925 11.5649 10.2831 11.149 10.8705 10.446C11.5826 9.59335 11.7167 8.38815 11.4349 7.71501L11.3638 7.5453L11.0363 7.87205Z" fill="black"/>
</g>
<defs>
<clipPath id="clip0_644_4140">
<rect width="16" height="12" fill="white" transform="translate(0.5 2.5)"/>
</clipPath>
</defs>
</svg>
