<svg width="20" height="20" viewBox="0 0 20 20" fill="none" xmlns="http://www.w3.org/2000/svg">
<path d="M8.96852 12.0784L12.083 8.95626L13.4293 7.6063L15.5668 5.46358L15.8047 5.22519C15.8196 5.21025 15.8351 5.19474 15.85 5.17981C16.1596 4.87017 16.4698 4.56054 16.7789 4.24977C17.0695 3.95737 17.0718 3.507 16.7875 3.21977C16.4979 2.92737 16.0427 2.92508 15.7468 3.21862C15.2285 3.73391 14.7107 4.25034 14.1976 4.77079C14.1225 4.8472 14.0657 4.85983 13.9648 4.81905C12.6111 4.27102 11.2041 4.00505 9.74313 4.04124C8.25755 4.078 6.84364 4.42268 5.49739 5.04768C3.82604 5.82549 2.40812 6.93936 1.17596 8.29851C0.909925 8.59206 0.651912 8.89364 0.408233 9.20557C0.255146 9.40146 0.135313 9.62378 0 9.83402C0 9.93915 0 10.0443 0 10.1494C0.152514 10.5688 0.46901 10.8749 0.744797 11.2058C1.79921 12.4702 3.01474 13.5502 4.43381 14.3935C4.45731 14.4072 4.47967 14.4239 4.54962 14.4704C4.47337 14.5262 4.40514 14.5635 4.35181 14.6163C3.98142 14.9823 3.6139 15.3516 3.2458 15.7204C2.93389 16.0329 2.91841 16.4896 3.20968 16.7832C3.50897 17.0853 3.95906 17.071 4.28129 16.7493C4.78814 16.2426 5.29671 15.7377 5.80013 15.227C5.83166 15.1948 5.86033 15.1747 5.89014 15.165L7.60736 13.4433L8.96852 12.0784ZM6.55467 12.4053C5.42687 10.8135 5.51402 8.50359 7.0598 6.9968C8.67324 5.42395 10.9759 5.51816 12.3955 6.55562C12.3817 6.57458 12.3703 6.59526 12.3542 6.61134C11.9259 7.04046 11.4953 7.46785 11.0693 7.90042C11.0062 7.96418 10.9592 7.94465 10.8939 7.91707C9.76951 7.44372 8.48805 7.92282 7.95941 9.02232C7.66699 9.63124 7.65724 10.2557 7.91526 10.8801C7.95367 10.9737 7.94278 11.0283 7.87053 11.099C7.46173 11.5005 7.05808 11.9078 6.65271 12.3128C6.6229 12.3427 6.59136 12.3708 6.55467 12.4053Z" fill="black" fill-opacity="0.6"/>
<path d="M19.8308 9.51865C18.746 8.08022 17.4824 6.83596 15.9716 5.86226L13.7549 8.11239C14.3982 9.34689 14.4888 11.3052 13.1042 12.8229C11.6776 14.3866 9.61641 14.4969 8.16982 13.784L6.59021 15.3878C7.93417 15.8503 9.32285 16.0381 10.7563 15.933C12.5881 15.7986 14.2692 15.204 15.8219 14.2349C17.4061 13.2463 18.7168 11.9624 19.8377 10.478C20.0568 10.1873 20.0539 9.81392 19.8308 9.51865Z" fill="black" fill-opacity="0.6"/>
<path d="M12.1919 10.5607C12.2733 10.2528 12.2877 9.94949 12.2412 9.65077L9.68921 12.2421C10.7998 12.3944 11.8886 11.7102 12.1919 10.5607Z" fill="black" fill-opacity="0.6"/>
</svg>
