<svg width="17" height="11" viewBox="0 0 17 11" fill="none" xmlns="http://www.w3.org/2000/svg">
<path d="M15.6918 4.62938C15.6855 4.62324 15.679 4.6174 15.6721 4.61186L10.3882 0.351015C10.1567 0.124557 9.85162 0 9.52724 0C9.1983 0 8.88906 0.128133 8.65633 0.36072C8.44355 0.573642 8.33581 0.866647 8.33581 1.23134V4.66484C8.32498 4.65316 3.00014 0.351015 3.00014 0.351015C2.76868 0.124557 2.46342 0 2.13918 0C1.81024 0 1.501 0.128133 1.26827 0.36072C1.05564 0.573642 0.947754 0.866647 0.947754 1.23134V9.76866C0.947754 10.1334 1.05564 10.4264 1.26841 10.6393C1.501 10.8719 1.81028 11 2.13918 11C2.46342 11 2.76868 10.8754 3.00014 10.649C3.00014 10.649 8.32498 6.34684 8.33581 6.33516V9.76866C8.33581 10.1334 8.44355 10.4264 8.65647 10.6393C8.88906 10.8719 9.19834 11 9.52724 11C9.85162 11 10.1567 10.8754 10.3882 10.649L15.6721 6.38817C15.679 6.38263 15.6855 6.37675 15.6918 6.37066C15.9241 6.13789 16.0522 5.82865 16.0522 5.5C16.0522 5.17135 15.9241 4.86211 15.6918 4.62938Z" fill="white"/>
</svg>
