<svg width="15" height="15" viewBox="0 0 15 15" fill="none" xmlns="http://www.w3.org/2000/svg">
<path d="M14.9941 1.87925V4.50222C14.9941 4.70098 14.9151 4.89159 14.7746 5.03214C14.6341 5.17268 14.4434 5.25164 14.2447 5.25164C14.0459 5.25164 13.8553 5.17268 13.7148 5.03214C13.5742 4.89159 13.4953 4.70098 13.4953 4.50222V1.87925C13.4953 1.54276 13.4563 1.50453 13.1206 1.50453H10.4976C10.2988 1.50453 10.1082 1.42558 9.96766 1.28503C9.82712 1.14449 9.74816 0.953873 9.74816 0.755114C9.74816 0.556355 9.82712 0.365737 9.96766 0.225194C10.1082 0.0846501 10.2988 0.00569359 10.4976 0.00569359H13.1206C13.3718 -0.014686 13.6244 0.0197926 13.861 0.10674C14.0975 0.193688 14.3123 0.331027 14.4906 0.509241C14.6688 0.687455 14.8061 0.902283 14.8931 1.13884C14.98 1.3754 15.0145 1.62804 14.9941 1.87925ZM4.50222 0.00569359H1.87925C1.62804 -0.014686 1.3754 0.0197926 1.13884 0.10674C0.902283 0.193688 0.687455 0.331027 0.509241 0.509241C0.331027 0.687455 0.193688 0.902283 0.10674 1.13884C0.0197926 1.3754 -0.014686 1.62804 0.00569359 1.87925V4.50222C0.00569359 4.70098 0.0846501 4.89159 0.225194 5.03214C0.365737 5.17268 0.556355 5.25164 0.755114 5.25164C0.953873 5.25164 1.14449 5.17268 1.28503 5.03214C1.42558 4.89159 1.50453 4.70098 1.50453 4.50222V1.87925C1.50453 1.54276 1.5435 1.50453 1.87925 1.50453H4.50222C4.70098 1.50453 4.89159 1.42558 5.03214 1.28503C5.17268 1.14449 5.25164 0.953873 5.25164 0.755114C5.25164 0.556355 5.17268 0.365737 5.03214 0.225194C4.89159 0.0846501 4.70098 0.00569359 4.50222 0.00569359ZM4.50222 13.4953H1.87925C1.5435 13.4953 1.50453 13.457 1.50453 13.1206V10.4976C1.50453 10.2988 1.42558 10.1082 1.28503 9.96766C1.14449 9.82712 0.953873 9.74816 0.755114 9.74816C0.556355 9.74816 0.365737 9.82712 0.225194 9.96766C0.0846501 10.1082 0.00569359 10.2988 0.00569359 10.4976V13.1206C-0.014686 13.3718 0.0197926 13.6244 0.10674 13.861C0.193688 14.0975 0.331027 14.3123 0.509241 14.4906C0.687455 14.6688 0.902283 14.8061 1.13884 14.8931C1.3754 14.98 1.62804 15.0145 1.87925 14.9941H4.50222C4.70098 14.9941 4.89159 14.9151 5.03214 14.7746C5.17268 14.6341 5.25164 14.4434 5.25164 14.2447C5.25164 14.0459 5.17268 13.8553 5.03214 13.7148C4.89159 13.5742 4.70098 13.4953 4.50222 13.4953ZM14.2447 9.74816C14.0459 9.74816 13.8553 9.82712 13.7148 9.96766C13.5742 10.1082 13.4953 10.2988 13.4953 10.4976V13.1206C13.4953 13.457 13.4563 13.4953 13.1206 13.4953H10.4976C10.2988 13.4953 10.1082 13.5742 9.96766 13.7148C9.82712 13.8553 9.74816 14.0459 9.74816 14.2447C9.74816 14.4434 9.82712 14.6341 9.96766 14.7746C10.1082 14.9151 10.2988 14.9941 10.4976 14.9941H13.1206C13.3718 15.0145 13.6244 14.98 13.861 14.8931C14.0975 14.8061 14.3123 14.6688 14.4906 14.4906C14.6688 14.3123 14.8061 14.0975 14.8931 13.861C14.98 13.6244 15.0145 13.3718 14.9941 13.1206V10.4976C14.9941 10.2988 14.9151 10.1082 14.7746 9.96766C14.6341 9.82712 14.4434 9.74816 14.2447 9.74816Z" fill="white"/>
</svg>
