<svg width="25" height="24" viewBox="0 0 25 24" fill="none" xmlns="http://www.w3.org/2000/svg">
<mask id="mask0_643_2209" style="mask-type:luminance" maskUnits="userSpaceOnUse" x="0" y="0" width="25" height="24">
<path d="M24.7657 0H0.537109V24H24.7657V0Z" fill="white"/>
</mask>
<g mask="url(#mask0_643_2209)">
<path d="M24.2811 12.2728C24.2811 11.4218 24.204 10.6037 24.0608 9.81816H12.6514V14.46H19.171C18.8902 15.96 18.0368 17.2309 16.7537 18.0818V21.0928H20.6688C22.9595 19.0037 24.2811 15.9272 24.2811 12.2728Z" fill="#4285F4"/>
<path d="M12.6514 24C15.9222 24 18.6644 22.9254 20.6687 21.0928L16.7536 18.0818C15.6689 18.8018 14.2812 19.2272 12.6514 19.2272C9.49609 19.2272 6.82549 17.1163 5.87282 14.28H1.82556V17.3891C3.81897 21.3109 7.91578 24 12.6514 24Z" fill="#34A853"/>
<path d="M5.87285 14.28C5.63056 13.56 5.49294 12.7909 5.49294 12C5.49294 11.2091 5.63056 10.44 5.87285 9.72V6.61092H1.82558C1.0052 8.23092 0.537109 10.0637 0.537109 12C0.537109 13.9363 1.0052 15.7691 1.82558 17.3891L5.87285 14.28Z" fill="#FBBC04"/>
<path d="M12.6514 4.77276C14.4299 4.77276 16.0268 5.37816 17.2823 6.56724L20.7569 3.1254C18.659 1.18908 15.9167 0 12.6514 0C7.91578 0 3.81897 2.68908 1.82556 6.61092L5.87282 9.72C6.82549 6.88368 9.49609 4.77276 12.6514 4.77276Z" fill="#E94235"/>
</g>
</svg>
