<svg width="25" height="25" viewBox="0 0 25 25" fill="none" xmlns="http://www.w3.org/2000/svg">
<path d="M11.4035 16.338V20.1758C11.4035 21.6898 10.1763 22.917 8.66226 22.917H4.82451C3.31046 22.917 2.08325 21.6898 2.08325 20.1758V16.338C2.08325 14.824 3.31046 13.5968 4.82451 13.5968H8.66226C10.1763 13.5968 11.4035 14.824 11.4035 16.338ZM20.1755 13.5968H16.3378C14.8237 13.5968 13.5965 14.824 13.5965 16.338V20.1758C13.5965 21.6898 14.8237 22.917 16.3378 22.917H20.1755C21.6896 22.917 22.9168 21.6898 22.9168 20.1758V16.338C22.9168 14.824 21.6896 13.5968 20.1755 13.5968ZM8.66226 2.0835H4.82451C3.31046 2.0835 2.08325 3.3107 2.08325 4.82475V8.66251C2.08325 10.1766 3.31046 11.4038 4.82451 11.4038H8.66226C10.1763 11.4038 11.4035 10.1766 11.4035 8.66251V4.82475C11.4035 3.3107 10.1763 2.0835 8.66226 2.0835ZM20.1755 2.0835H16.3378C14.8237 2.0835 13.5965 3.3107 13.5965 4.82475V8.66251C13.5965 10.1766 14.8237 11.4038 16.3378 11.4038H20.1755C21.6896 11.4038 22.9168 10.1766 22.9168 8.66251V4.82475C22.9168 3.3107 21.6896 2.0835 20.1755 2.0835Z" fill="#9CA8BA"/>
</svg>
