<svg width="25" height="25" viewBox="0 0 25 25" fill="none" xmlns="http://www.w3.org/2000/svg">
<g clip-path="url(#clip0_23_133)">
<path fill-rule="evenodd" clip-rule="evenodd" d="M12.8212 2.16813C10.7642 2.09911 8.73732 2.67693 7.0259 3.82027C5.10163 5.10675 3.69238 7.03031 3.04582 9.25288C2.87073 9.2315 2.66107 9.24093 2.41212 9.31134C1.48264 9.57538 0.78388 10.3367 0.469548 11.0075C0.0615438 11.8816 -0.110396 13.0381 0.0709737 14.2313C0.251086 15.421 0.753704 16.4017 1.38237 17.0106C2.01292 17.6198 2.72488 17.8178 3.43213 17.6691C4.48515 17.4444 5.00725 17.2762 4.85983 16.2955L4.1463 11.5396C4.21876 10.2453 4.59118 8.98545 5.23413 7.85971C5.87708 6.73397 6.77296 5.77313 7.85102 5.05308C9.30389 4.08111 11.025 3.58916 12.772 3.64645C14.5191 3.70374 16.2042 4.30738 17.5903 5.37244C18.5473 6.10616 19.3342 7.03819 19.8971 8.10461C20.46 9.17102 20.7856 10.3466 20.8515 11.5507L20.3523 14.8772C19.8108 16.3619 18.8593 17.6626 17.6085 18.6284C16.3576 19.5942 14.8586 20.1857 13.2852 20.334H11.1584C11.0283 20.3338 10.8994 20.3592 10.7791 20.4088C10.6588 20.4585 10.5495 20.5314 10.4574 20.6234C10.3654 20.7154 10.2924 20.8246 10.2427 20.9449C10.1929 21.0652 10.1674 21.1941 10.1677 21.3242V21.8466C10.1674 21.9768 10.1929 22.1057 10.2426 22.226C10.2923 22.3463 10.3653 22.4556 10.4573 22.5476C10.5494 22.6397 10.6587 22.7126 10.779 22.7623C10.8993 22.8119 11.0283 22.8374 11.1584 22.8371H13.84C13.97 22.8373 14.0988 22.8118 14.2189 22.7621C14.3391 22.7124 14.4482 22.6394 14.54 22.5474C14.6319 22.4554 14.7047 22.3462 14.7542 22.226C14.8037 22.1058 14.829 21.9769 14.8286 21.8469V21.5735C17.2379 20.9835 19.3368 19.5083 20.7079 17.4412L21.5669 17.6691C22.266 17.8505 22.9865 17.6195 23.6167 17.0106C24.2454 16.4014 24.7477 15.421 24.9281 14.2313C25.1104 13.0378 24.9331 11.8835 24.5301 11.0075C24.1256 10.1314 23.523 9.57507 22.8274 9.37547C22.536 9.29154 22.2198 9.26074 21.9485 9.25288C21.3646 7.24274 20.1544 5.47144 18.494 4.19684C16.8619 2.94386 14.8778 2.23433 12.8212 2.16813Z" fill="#9CA8BA"/>
<path fill-rule="evenodd" clip-rule="evenodd" d="M15.9606 10.7238C16.3012 10.7242 16.6278 10.8598 16.8686 11.1007C17.1095 11.3416 17.2449 11.6682 17.2453 12.0088C17.2447 12.3494 17.1091 12.6759 16.8682 12.9168C16.6274 13.1577 16.3009 13.2932 15.9603 13.2938C15.6193 13.2939 15.2922 13.1586 15.0509 12.9176C14.8096 12.6767 14.6738 12.3498 14.6734 12.0088C14.6735 11.8399 14.7068 11.6727 14.7715 11.5167C14.8363 11.3607 14.9311 11.2189 15.0506 11.0996C15.1701 10.9802 15.3119 10.8856 15.468 10.8211C15.6241 10.7565 15.7914 10.7234 15.9603 10.7235L15.9606 10.7238ZM12.4998 10.7238C12.7539 10.7239 13.0023 10.7994 13.2135 10.9407C13.4247 11.0819 13.5893 11.2826 13.6865 11.5174C13.7836 11.7522 13.809 12.0106 13.7594 12.2598C13.7098 12.509 13.5874 12.7379 13.4077 12.9175C13.228 13.0972 12.999 13.2196 12.7498 13.2691C12.5006 13.3187 12.2422 13.2932 12.0075 13.196C11.7727 13.0988 11.572 12.9341 11.4308 12.7229C11.2896 12.5116 11.2142 12.2632 11.2142 12.0091C11.214 11.8402 11.2471 11.673 11.3117 11.5169C11.3762 11.3609 11.4709 11.2191 11.5903 11.0997C11.7098 10.9803 11.8515 10.8856 12.0076 10.821C12.1637 10.7565 12.3309 10.7237 12.4998 10.7238ZM9.03992 10.7238C9.21106 10.72 9.38123 10.7505 9.54044 10.8133C9.69966 10.8762 9.84471 10.9703 9.96709 11.09C10.0895 11.2097 10.1867 11.3526 10.2531 11.5104C10.3195 11.6682 10.3536 11.8376 10.3536 12.0088C10.3536 12.18 10.3195 12.3494 10.2531 12.5072C10.1867 12.665 10.0895 12.808 9.96709 12.9277C9.84471 13.0474 9.69966 13.1414 9.54044 13.2043C9.38123 13.2671 9.21106 13.2976 9.03992 13.2938C8.70256 13.2885 8.3808 13.1508 8.14409 12.9104C7.90738 12.6699 7.77471 12.3461 7.77471 12.0087C7.77471 11.6713 7.90738 11.3474 8.14409 11.1069C8.3808 10.8665 8.70256 10.7291 9.03992 10.7238ZM12.4998 5.20288C8.73093 5.20288 5.69385 8.14001 5.69385 12.0085C5.69385 13.8665 6.39638 15.5086 7.54087 16.7134L7.13475 18.534C7.00084 19.1332 7.41639 19.5361 7.95516 19.2363L9.73271 18.2445C10.6061 18.6227 11.548 18.8168 12.4998 18.8147C16.2699 18.8147 19.3051 15.8795 19.3051 12.0094C19.3051 8.14063 16.2699 5.20351 12.4998 5.20351V5.20288Z" fill="#9CA8BA"/>
</g>
<defs>
<clipPath id="clip0_23_133">
<rect width="25" height="25" fill="white"/>
</clipPath>
</defs>
</svg>
