<svg width="17" height="17" viewBox="0 0 17 17" fill="none" xmlns="http://www.w3.org/2000/svg">
<path d="M14.0781 2.125H11.1562V1.59375C11.1562 0.713535 10.4427 0 9.5625 0H7.4375C6.55729 0 5.84375 0.713535 5.84375 1.59375V2.125H2.92188C2.18838 2.125 1.59375 2.71963 1.59375 3.45312V4.51562C1.59375 4.80904 1.83158 5.04688 2.125 5.04688H14.875C15.1684 5.04688 15.4062 4.80904 15.4062 4.51562V3.45312C15.4062 2.71963 14.8116 2.125 14.0781 2.125ZM6.90625 1.59375C6.90625 1.3009 7.14465 1.0625 7.4375 1.0625H9.5625C9.85535 1.0625 10.0938 1.3009 10.0938 1.59375V2.125H6.90625V1.59375ZM2.60193 6.10938C2.57946 6.10938 2.55723 6.11394 2.53658 6.12278C2.51593 6.13163 2.49729 6.14457 2.48178 6.16083C2.46628 6.17709 2.45424 6.19633 2.44639 6.21738C2.43854 6.23843 2.43504 6.26085 2.43611 6.28329L2.87439 15.482C2.9149 16.3333 3.61416 17 4.46615 17H12.5338C13.3858 17 14.0851 16.3333 14.1256 15.482L14.5639 6.28329C14.565 6.26085 14.5615 6.23843 14.5536 6.21738C14.5458 6.19633 14.5337 6.17709 14.5182 6.16083C14.5027 6.14457 14.4841 6.13163 14.4634 6.12278C14.4428 6.11394 14.4205 6.10938 14.3981 6.10938H2.60193ZM10.625 7.4375C10.625 7.14398 10.8627 6.90625 11.1562 6.90625C11.4498 6.90625 11.6875 7.14398 11.6875 7.4375V14.3438C11.6875 14.6373 11.4498 14.875 11.1562 14.875C10.8627 14.875 10.625 14.6373 10.625 14.3438V7.4375ZM7.96875 7.4375C7.96875 7.14398 8.20648 6.90625 8.5 6.90625C8.79352 6.90625 9.03125 7.14398 9.03125 7.4375V14.3438C9.03125 14.6373 8.79352 14.875 8.5 14.875C8.20648 14.875 7.96875 14.6373 7.96875 14.3438V7.4375ZM5.3125 7.4375C5.3125 7.14398 5.55023 6.90625 5.84375 6.90625C6.13727 6.90625 6.375 7.14398 6.375 7.4375V14.3438C6.375 14.6373 6.13727 14.875 5.84375 14.875C5.55023 14.875 5.3125 14.6373 5.3125 14.3438V7.4375Z" fill="#EF5350"/>
</svg>
