<svg width="65" height="64" viewBox="0 0 65 64" fill="none" xmlns="http://www.w3.org/2000/svg">
<g clip-path="url(#clip0_1804_11472)">
<path d="M32.5 64C50.1731 64 64.5 49.6731 64.5 32C64.5 14.3269 50.1731 0 32.5 0C14.8269 0 0.5 14.3269 0.5 32C0.5 49.6731 14.8269 64 32.5 64Z" fill="#E21B1B"/>
<path d="M64.2852 35.6632L46.4892 17.8672L19.2812 46.0762L36.8972 63.6922C51.2942 61.7122 62.6322 50.1612 64.2852 35.6632Z" fill="#C40606"/>
<path d="M44.7971 46.4422C44.4687 46.4426 44.1435 46.3781 43.8401 46.2525C43.5367 46.1269 43.2611 45.9426 43.0291 45.7102L18.8011 21.4812C17.8241 20.5042 17.8241 18.9222 18.8011 17.9462C19.7781 16.9702 21.3601 16.9692 22.3361 17.9462L46.5651 42.1752C47.5421 43.1522 47.5421 44.7342 46.5651 45.7102C46.3331 45.9426 46.0575 46.1269 45.7541 46.2525C45.4507 46.3781 45.1255 46.4426 44.7971 46.4422Z" fill="white"/>
<path d="M20.5681 46.4421C20.2398 46.4425 19.9145 46.378 19.6111 46.2524C19.3077 46.1268 19.0321 45.9425 18.8001 45.7101C17.8231 44.7331 17.8231 43.1511 18.8001 42.1751L43.0291 17.9461C44.0061 16.9691 45.5881 16.9691 46.5641 17.9461C47.5401 18.9231 47.5411 20.5051 46.5641 21.4811L22.3361 45.7101C22.1042 45.9426 21.8286 46.1269 21.5252 46.2526C21.2218 46.3782 20.8965 46.4426 20.5681 46.4421Z" fill="white"/>
</g>
<defs>
<clipPath id="clip0_1804_11472">
<rect width="64" height="64" fill="white" transform="translate(0.5)"/>
</clipPath>
</defs>
</svg>
