<svg width="14" height="14" viewBox="0 0 14 14" fill="none" xmlns="http://www.w3.org/2000/svg">
<path d="M12.2102 4.78354L6.75306 10.2407C6.56421 10.4295 6.31675 10.5468 6.04975 10.5728L4.1417 10.7486H4.07007C3.85517 10.7486 3.64678 10.664 3.497 10.5077C3.32769 10.3384 3.24303 10.0974 3.26257 9.85648L3.4384 7.94843C3.46444 7.68143 3.58166 7.43397 3.77051 7.24512L9.21464 1.78797L12.2102 4.78354ZM13.4736 0.986983L13.0112 0.524623C12.6747 0.189867 12.2193 0.00195312 11.7446 0.00195312C11.2699 0.00195312 10.8145 0.189867 10.478 0.524623L9.90492 1.09769L12.9005 4.09326L13.4736 3.52019C13.6404 3.3548 13.7728 3.158 13.8631 2.94117C13.9535 2.72433 14 2.49175 14 2.25684C14 2.02194 13.9535 1.78936 13.8631 1.57252C13.7728 1.35569 13.6404 1.15889 13.4736 0.993495V0.986983ZM12.6986 11.5627V7.77911C12.6986 7.51212 12.4772 7.29071 12.2102 7.29071C11.9432 7.29071 11.7218 7.51212 11.7218 7.77911V11.5627C11.7218 12.3702 11.0641 13.0279 10.2566 13.0279H2.44204C1.63454 13.0279 0.976817 12.3702 0.976817 11.5627V3.74161C0.976817 2.9341 1.63454 2.27638 2.44204 2.27638H6.22558C6.49258 2.27638 6.71399 2.05497 6.71399 1.78797C6.71399 1.52098 6.49258 1.29956 6.22558 1.29956H2.44204C1.09403 1.29956 0 2.3936 0 3.74161V11.5561C0 12.9041 1.09403 13.9982 2.44204 13.9982H10.2566C11.6046 13.9982 12.6986 12.9041 12.6986 11.5561V11.5627Z" fill="#0D6EFD"/>
</svg>
