<svg width="49" height="48" viewBox="0 0 49 48" fill="none" xmlns="http://www.w3.org/2000/svg">
<path fill-rule="evenodd" clip-rule="evenodd" d="M19.3918 0H29.606C40.0242 0 48.4978 8.47402 48.5001 18.8927V29.1073C48.5001 39.526 40.0242 48 29.6082 48H19.3918C8.97363 48 0.5 39.526 0.5 29.1095V18.8927C0.5 8.47402 8.97363 0 19.3918 0ZM29.606 44.4112C38.0437 44.4112 44.9092 37.5454 44.9092 29.1073V18.8927C44.9092 10.4546 38.0437 3.58878 29.6082 3.58878H19.3918C10.9541 3.58878 4.08862 10.4546 4.08862 18.8927V29.1073C4.08862 37.5454 10.9541 44.4112 19.3918 44.4112H29.606ZM17.1422 23.4062C20.1173 23.4126 22.5294 20.9802 22.5336 17.972C22.5377 14.968 20.1631 12.4953 17.1693 12.4996C14.1046 12.5038 11.8009 14.9764 11.7717 17.9444C11.7446 20.9378 14.1818 23.3999 17.1422 23.4062ZM17.1526 15.7555C18.3139 15.7618 19.3042 16.7589 19.3104 17.9317C19.3188 19.1659 18.3702 20.1334 17.1547 20.1334C15.9685 20.1334 15.0011 19.1744 14.9907 17.9847C14.9803 16.7928 15.9914 15.7491 17.1526 15.7555ZM35.2963 24.5815C34.1788 23.4891 32.7737 23.0848 31.2184 23.2626C29.636 23.4425 28.456 24.2893 27.4782 25.5172C26.0231 27.3441 24.5471 29.1519 23.0711 30.9597L23.071 30.9598L23.0709 30.9599C22.385 31.7983 21.4239 31.8131 20.6733 31.0234C20.5594 30.9036 20.4455 30.7836 20.3317 30.6635L20.3316 30.6635C19.852 30.1577 19.372 29.6515 18.8783 29.1605C17.9652 28.2502 16.8665 27.7718 15.5134 27.776C14.3042 27.7739 13.2055 28.2375 12.3215 29.1457C11.2794 30.2154 10.2677 31.3179 9.256 32.4204L9.25594 32.4205L8.92746 32.7784C8.45629 33.2928 8.39166 33.9152 8.65018 34.5397C9.09216 35.6046 10.4619 35.8332 11.2875 34.978C11.9209 34.3235 12.544 33.6579 13.1669 32.9926L13.1675 32.992C13.5962 32.5341 14.0247 32.0764 14.4564 31.6225C15.2215 30.8202 15.9867 30.8266 16.7601 31.6289C16.9861 31.8629 17.2101 32.0995 17.4342 32.3363L17.4344 32.3365C17.7334 32.6523 18.0324 32.9683 18.3363 33.278C20.5733 35.5622 23.6692 35.3929 25.6602 32.9033C27.1405 31.0531 28.6415 29.2198 30.1447 27.3907C31.0975 26.2306 32.3775 26.1777 33.3574 27.2086C34.7918 28.7159 36.2365 30.2105 37.6834 31.703C38.4048 32.446 39.3263 32.4757 40.0038 31.8067C40.6647 31.1526 40.6731 30.1576 39.983 29.4315C39.6983 29.1314 39.414 28.8307 39.1297 28.5299L39.1283 28.5284C37.8685 27.1953 36.6073 25.8609 35.2963 24.5815Z" fill="#0D6EFD"/>
</svg>
