<svg width="25" height="24" viewBox="0 0 25 24" fill="none" xmlns="http://www.w3.org/2000/svg">
<path fill-rule="evenodd" clip-rule="evenodd" d="M9.94592 0H15.053C20.2621 0 24.4989 4.23701 24.5 9.44635V14.5536C24.5 19.763 20.2621 24 15.0541 24H9.94592C4.73681 24 0.5 19.763 0.5 14.5548V9.44635C0.5 4.23701 4.73681 0 9.94592 0ZM15.053 22.2056C19.2718 22.2056 22.7046 18.7727 22.7046 14.5536V9.44635C22.7046 5.22729 19.2718 1.79439 15.0541 1.79439H9.94592C5.72705 1.79439 2.29431 5.22729 2.29431 9.44635V14.5536C2.29431 18.7727 5.72705 22.2056 9.94592 22.2056H15.053ZM8.82102 11.7033C10.3085 11.7065 11.5146 10.4903 11.5167 8.9862C11.5188 7.4842 10.3315 6.24789 8.83457 6.25C7.30222 6.25212 6.15036 7.48844 6.13577 8.97244C6.12222 10.4691 7.34079 11.7002 8.82102 11.7033ZM8.82623 7.87796C9.40685 7.88113 9.902 8.37968 9.90512 8.96609C9.90929 9.58318 9.435 10.0669 8.82727 10.0669C8.23414 10.0669 7.75046 9.58742 7.74525 8.99255C7.74004 8.39662 8.24561 7.87478 8.82623 7.87796ZM17.8981 12.291C17.3394 11.7448 16.6368 11.5426 15.8592 11.6316C15.068 11.7215 14.478 12.1449 13.9891 12.7588C13.2615 13.6723 12.5235 14.5763 11.7854 15.4802C11.4425 15.8994 10.9619 15.9068 10.5867 15.512L10.4158 15.332C10.176 15.0791 9.93598 14.826 9.68914 14.5805C9.23256 14.1254 8.68321 13.8861 8.00669 13.8883C7.40209 13.8872 6.85274 14.119 6.41076 14.5731C5.88967 15.1079 5.38386 15.6592 4.87801 16.2104L4.71372 16.3895C4.47813 16.6467 4.44582 16.9579 4.57507 17.2701C4.79607 17.8025 5.48093 17.9169 5.89372 17.4892C6.21041 17.162 6.52198 16.8292 6.83341 16.4966L6.83346 16.4965C7.04789 16.2675 7.26226 16.0386 7.47819 15.8115C7.86075 15.4104 8.24332 15.4135 8.63005 15.8147C8.74295 15.9316 8.8549 16.0499 8.96688 16.1682L8.96709 16.1684C9.1166 16.3264 9.26617 16.4844 9.41811 16.6393C10.5366 17.7814 12.0846 17.6967 13.0801 16.4519C13.8202 15.5268 14.5707 14.6101 15.3223 13.6956C15.7987 13.1156 16.4387 13.0891 16.9287 13.6046C17.6459 14.3582 18.3682 15.1055 19.0917 15.8517C19.4524 16.2233 19.9131 16.2381 20.2519 15.9036C20.5823 15.5765 20.5865 15.0791 20.2415 14.716C20.0989 14.5657 19.9565 14.4151 19.8141 14.2645C19.1842 13.5979 18.5537 12.9307 17.8981 12.291Z" fill="#0D6EFD"/>
</svg>
