<svg width="22" height="22" viewBox="0 0 22 22" fill="none" xmlns="http://www.w3.org/2000/svg">
<path d="M20.6041 1.26025H1.39322C0.628779 1.26025 0.0305176 1.85852 0.0305176 2.58972V15.0535C0.0305176 15.7847 0.628779 16.4162 1.39322 16.4162H20.6373C21.3685 16.4162 22 15.8179 22 15.0535V2.58972C21.9668 1.85852 21.3685 1.26025 20.6041 1.26025ZM10.9986 14.3223C7.9741 14.3223 5.48134 11.8628 5.48134 8.80499C5.48134 5.78045 7.94086 3.2877 10.9986 3.2877C14.0232 3.2877 16.5159 5.74721 16.5159 8.80499C16.5159 11.8628 14.0232 14.3223 10.9986 14.3223Z" fill="#1579AD"/>
<path d="M13.4913 8.83859C13.4913 9.17095 13.3252 9.47008 13.026 9.6695L10.2674 11.3313C10.1012 11.4311 9.93501 11.4643 9.76882 11.4643C9.60264 11.4643 9.43646 11.4311 9.30351 11.3313C9.00438 11.1652 8.80496 10.8328 8.80496 10.5004V7.17675C8.80496 6.84438 8.97114 6.51201 9.30351 6.34583C9.60264 6.17965 9.96824 6.17965 10.2674 6.34583L13.026 8.00767C13.3252 8.17385 13.4913 8.47298 13.4913 8.83859ZM21.9667 19.4743C21.9667 19.6405 21.8338 19.8067 21.6343 19.8067H5.71394C5.51452 20.3717 4.91626 20.7706 4.15181 20.7706C3.42061 20.7706 2.78911 20.3717 2.58969 19.8067H0.661957C0.462537 19.8067 0.32959 19.6405 0.32959 19.4743C0.32959 19.2749 0.462537 19.142 0.661957 19.142H2.58969C2.75587 18.577 3.38737 18.1781 4.15181 18.1781C4.91626 18.1781 5.51452 18.577 5.71394 19.142H21.6343C21.8338 19.142 21.9667 19.2749 21.9667 19.4743Z" fill="#1579AD"/>
</svg>
