<svg width="11" height="11" viewBox="0 0 11 11" fill="none" xmlns="http://www.w3.org/2000/svg">
<path d="M6.59881 0.755133L4.363 2.99093C4.35868 2.99523 4.35599 3.00045 4.3517 3.00479C4.90249 2.92456 5.46833 2.97956 5.99284 3.18409L7.51029 1.66665C8.013 1.16394 8.83059 1.16394 9.3333 1.66665C9.83602 2.16932 9.83602 2.98695 9.3333 3.48962C9.24758 3.57539 6.96824 5.85473 7.09751 5.72542C6.59082 6.23215 5.75955 6.21047 5.27449 5.72542C5.02328 5.4742 4.61426 5.4742 4.363 5.72542L3.97168 6.11673C4.08022 6.30116 4.20466 6.47862 4.363 6.63696C5.31776 7.59172 6.96119 7.66799 7.99517 6.64826C7.99949 6.64396 8.00469 6.64126 8.00903 6.63696L10.2448 4.40116C11.2516 3.39432 11.2516 1.76198 10.2448 0.755133C9.23798 -0.251711 7.60566 -0.251711 6.59881 0.755133Z" fill="#0D6EFD"/>
<path d="M5.01197 7.81113L3.48963 9.33347C2.98696 9.83619 2.16933 9.83619 1.66666 9.33347C1.16394 8.83076 1.16394 8.01317 1.66666 7.51046L3.90733 5.26979C4.41402 4.7631 5.24529 4.78473 5.73034 5.26979C5.98156 5.52105 6.3906 5.52105 6.64184 5.26979L7.03316 4.87847C6.92462 4.69405 6.80018 4.51659 6.64184 4.35829C5.6889 3.40531 4.04668 3.32423 3.00967 4.34697C3.00535 4.35127 3.00015 4.35397 2.99581 4.35829L0.755117 6.59898C-0.251684 7.60579 -0.251727 9.23817 0.755117 10.245C1.76196 11.2518 3.39435 11.2518 4.40115 10.245L6.64182 8.0043C6.64614 8 6.64882 7.99482 6.65312 7.99044C6.10232 8.07066 5.53651 8.01566 5.01197 7.81113Z" fill="#0D6EFD"/>
</svg>
