<svg width="25" height="25" viewBox="0 0 25 25" fill="none" xmlns="http://www.w3.org/2000/svg">
<g clip-path="url(#clip0_180_786)">
<path d="M2.58623 3.01709C1.15776 3.01709 0 4.17485 0 5.60328C0 7.03171 1.15776 8.18952 2.58623 8.18952C4.01467 8.18952 5.17243 7.03175 5.17243 5.60328C5.17243 4.17481 4.01467 3.01709 2.58623 3.01709ZM2.58623 9.91362C1.15776 9.91362 0 11.0714 0 12.4999C0 13.9283 1.15776 15.0861 2.58623 15.0861C4.01467 15.0861 5.17243 13.9283 5.17243 12.4999C5.17243 11.0714 4.01467 9.91362 2.58623 9.91362ZM2.58623 16.8102C1.15776 16.8102 0 17.9679 0 19.3964C0 20.8248 1.15776 21.9826 2.58623 21.9826C4.01467 21.9826 5.17243 20.8248 5.17243 19.3964C5.17243 17.9679 4.01467 16.8102 2.58623 16.8102ZM9.48276 7.32742H23.2759C24.2284 7.32742 25 6.55586 25 5.60328C25 4.65071 24.2284 3.87914 23.2759 3.87914H9.48276C8.53019 3.87914 7.75862 4.65071 7.75862 5.60328C7.75862 6.55586 8.53019 7.32742 9.48276 7.32742ZM23.2759 10.7757H9.48276C8.53019 10.7757 7.75862 11.5473 7.75862 12.4999C7.75862 13.4524 8.53019 14.224 9.48276 14.224H23.2759C24.2284 14.224 25 13.4524 25 12.4999C25 11.5473 24.2284 10.7757 23.2759 10.7757ZM23.2759 17.6723H9.48276C8.53019 17.6723 7.75862 18.4438 7.75862 19.3964C7.75862 20.3489 8.53019 21.1205 9.48276 21.1205H23.2759C24.2284 21.1205 25 20.3489 25 19.3964C25 18.4438 24.2284 17.6723 23.2759 17.6723Z" fill="#9CA8BA"/>
</g>
<defs>
<clipPath id="clip0_180_786">
<rect width="25" height="25" fill="white"/>
</clipPath>
</defs>
</svg>
