<svg width="20" height="20" viewBox="0 0 20 20" fill="none" xmlns="http://www.w3.org/2000/svg">
<path fill-rule="evenodd" clip-rule="evenodd" d="M15.5691 6.76466C17.0932 6.84209 17.9989 7.72452 17.9989 9.17722C18.0016 11.3469 17.9994 13.5161 17.9922 15.6849C17.9882 18.1749 16.0046 20 13.2942 20H6.70068C3.98499 19.9963 2 18.1799 2 15.6874V9.28908C2 7.77615 2.7387 6.9711 4.40444 6.7253V5.07841C4.40979 2.16317 6.74209 0.0627544 9.90928 0.00130315C12.7746 -0.054003 14.944 1.69371 15.4596 3.85557C15.5261 4.14673 15.5628 4.44296 15.5691 4.74043V5.07475V6.76466ZM6.02062 5.20674C6.01843 5.29887 6.01625 5.39099 6.01275 5.48277C5.99812 5.8764 6.00013 6.01534 6.0034 6.24231C6.00521 6.36755 6.00741 6.5196 6.00741 6.75602H13.9982V4.87318C13.9221 3.30371 12.8801 2.01445 11.2504 1.62976C8.78187 1.0472 6.74746 2.08696 6.15703 4.02882C6.0397 4.40367 6.03016 4.80534 6.02062 5.20674ZM9.20458 14.2567C9.20562 14.3181 9.20666 14.3797 9.20666 14.4412C9.20666 14.7595 9.20535 15.0779 9.20268 15.3962C9.20669 15.9529 9.53391 16.2946 10.0148 16.2884C10.4957 16.2823 10.803 15.9468 10.803 15.4121C10.803 15.204 10.8045 14.9959 10.8059 14.7878C10.8089 14.3716 10.8119 13.9553 10.803 13.5391C10.7923 13.4264 10.8122 13.3131 10.8609 13.2093C10.9096 13.1054 10.9856 13.0143 11.0821 12.9443C11.2393 12.8158 11.3669 12.6597 11.4573 12.485C11.5477 12.3104 11.5992 12.1209 11.6085 11.9277C11.6178 11.7344 11.5849 11.5415 11.5117 11.3601C11.4385 11.1788 11.3265 11.0129 11.1823 10.8721C10.8996 10.5903 10.5087 10.4208 10.0925 10.3997C9.67626 10.3786 9.26752 10.5075 8.95287 10.7591C8.29833 11.2814 8.17411 12.2302 8.79392 12.7906C9.16928 13.1298 9.23338 13.4703 9.20666 13.8906C9.20043 14.0118 9.2025 14.1341 9.20458 14.2567Z" fill="black" fill-opacity="0.6"/>
</svg>
