<svg width="35" height="35" viewBox="0 0 35 35" fill="none" xmlns="http://www.w3.org/2000/svg">
<rect x="0.5" y="0.5" width="34" height="34" rx="17" fill="white" stroke="black"/>
<g clip-path="url(#clip0_745_4453)">
<path d="M12.7902 22.9999C12.6341 23.0008 12.4814 22.9552 12.3513 22.8689C12.2213 22.7827 12.1199 22.6596 12.0601 22.5155C12.0002 22.3714 11.9847 22.2127 12.0153 22.0597C12.046 21.9067 12.1216 21.7664 12.2324 21.6565L16.3962 17.5006L12.2324 13.3447C12.0845 13.1967 12.0014 12.9961 12.0014 12.7869C12.0014 12.6833 12.0218 12.5807 12.0614 12.485C12.101 12.3893 12.1591 12.3023 12.2324 12.2291C12.3056 12.1558 12.3926 12.0977 12.4883 12.0581C12.584 12.0185 12.6866 11.998 12.7902 11.998C12.9994 11.998 13.2 12.0812 13.348 12.2291L18.0617 16.9428C18.208 17.09 18.2901 17.2891 18.2901 17.4966C18.2901 17.7042 18.208 17.9033 18.0617 18.0505L13.348 22.7642C13.2752 22.8384 13.1884 22.8975 13.0927 22.9379C12.9969 22.9784 12.8941 22.9994 12.7902 22.9999Z" fill="black"/>
<path fill-rule="evenodd" clip-rule="evenodd" d="M22.3125 23C21.9328 23 21.625 22.6482 21.625 22.2143L21.625 12.7857C21.625 12.3518 21.9328 12 22.3125 12C22.6922 12 23 12.3518 23 12.7857L23 22.2143C23 22.6482 22.6922 23 22.3125 23Z" fill="black"/>
</g>
<defs>
<clipPath id="clip0_745_4453">
<rect width="11" height="11" fill="white" transform="translate(12 12)"/>
</clipPath>
</defs>
</svg>
