<svg width="215" height="262" viewBox="0 0 215 262" fill="none" xmlns="http://www.w3.org/2000/svg">
<path d="M22.1689 68.5739C15.7294 126 27.1515 185.09 94.1582 193.385C128.706 197.66 199.843 182.307 201.733 138.062C204.345 77.0889 136.273 99.4107 107.711 78.9582C88.131 64.9452 103.264 27.1328 67.1631 20.7963C38.5873 15.7932 24.8423 44.7057 22.1689 68.5739Z" fill="#F0F0F0"/>
<path d="M163.405 225.073C151.798 217.479 148.849 202.937 148.973 189.797C148.973 187.605 148.698 185.295 149.702 183.351C150.705 181.406 153.138 180.031 155.158 180.904C156.822 181.632 157.591 183.509 158.553 185.027C159.841 187.1 161.687 188.767 163.88 189.838C165.309 190.525 167.068 190.931 168.45 190.134C170.34 189.048 170.512 186.429 170.429 184.251L170.058 172.066C169.989 169.887 169.927 167.661 170.56 165.578C171.192 163.496 172.669 161.537 174.759 160.905C176.848 160.273 179.466 161.407 179.968 163.53C180.071 164.429 180.113 165.334 180.092 166.238C180.174 167.145 180.628 168.135 181.507 168.369C182.387 168.602 183.26 167.963 183.906 167.31C186.133 165.056 187.61 162.183 188.985 159.331C190.359 156.479 191.693 153.558 193.706 151.084C195.72 148.61 198.517 146.665 201.685 146.411C204.853 146.157 208.262 148.005 209.135 151.05C210.008 154.094 208.269 157.235 206.386 159.799C203.529 163.562 200.145 166.895 196.338 169.695C195.594 170.119 195.006 170.772 194.661 171.557C194.222 173.021 195.651 174.43 197.115 174.877C198.778 175.372 200.551 175.165 202.283 175.323C204.015 175.482 205.898 176.183 206.585 177.777C207.547 179.983 205.712 182.361 203.891 183.962C200.239 187.123 196.071 189.634 191.569 191.384C189.961 192.01 188.263 192.56 186.985 193.721C185.707 194.883 184.923 196.855 185.789 198.374C186.655 199.893 188.662 200.332 190.352 199.982C192.043 199.631 193.548 198.683 195.163 198.037C198.166 196.834 202.091 196.951 204.097 199.487C204.712 200.36 205.113 201.366 205.268 202.422C205.423 203.478 205.328 204.556 204.991 205.569C204.303 207.601 203.209 209.472 201.774 211.067C197.085 216.898 190.937 221.384 183.954 224.07C176.972 226.647 170.47 227.458 163.412 225.101" fill="#1579AD"/>
<path d="M205.905 148.157L205.692 148.37L205.046 148.961C204.482 149.477 203.671 150.24 202.599 151.25C199.622 154.098 196.866 157.167 194.352 160.431C192.758 162.493 191.102 164.816 189.37 167.345C187.638 169.874 185.823 172.603 184.016 175.53C182.104 178.583 180.36 181.737 178.793 184.98C177.982 186.664 177.26 188.416 176.532 190.224L174.291 195.687C171.444 202.597 168.989 209.661 166.938 216.848C165.292 222.724 164.21 228.744 163.708 234.826C163.382 238.929 163.416 243.052 163.811 247.148C163.969 248.592 164.106 249.719 164.23 250.475C164.285 250.846 164.326 251.128 164.361 251.341C164.395 251.554 164.395 251.636 164.395 251.636C164.089 250.158 163.859 248.664 163.708 247.162C163.258 243.054 163.187 238.913 163.495 234.792C163.966 228.69 165.029 222.648 166.67 216.751C168.703 209.545 171.153 202.464 174.01 195.543L176.223 190.079C176.951 188.286 177.673 186.513 178.491 184.822C180.066 181.57 181.821 178.409 183.748 175.352C185.569 172.417 187.404 169.702 189.143 167.173C190.882 164.644 192.579 162.321 194.16 160.267C196.683 157.009 199.461 153.957 202.469 151.14C203.534 150.136 204.379 149.387 204.963 148.886L205.651 148.322L205.905 148.157Z" fill="#263238"/>
<path d="M178.573 184.815C178.476 184.512 178.403 184.202 178.353 183.887C178.222 183.283 178.071 182.41 177.893 181.331C177.528 179.166 177.137 176.163 176.704 172.85C176.271 169.538 175.824 166.548 175.425 164.397C175.226 163.318 175.054 162.452 174.924 161.854C174.839 161.547 174.786 161.231 174.766 160.913C174.884 161.207 174.978 161.51 175.047 161.82C175.212 162.411 175.419 163.277 175.652 164.349C176.113 166.493 176.601 169.489 177.027 172.809C177.453 176.128 177.824 179.063 178.113 181.296C178.257 182.334 178.381 183.193 178.47 183.867C178.536 184.179 178.57 184.496 178.573 184.815Z" fill="#263238"/>
<path d="M206.84 178.891C206.744 178.923 206.645 178.942 206.544 178.946L205.706 179.035C204.977 179.111 203.926 179.221 202.627 179.4C200.036 179.73 196.441 180.321 192.558 181.138C188.676 181.956 185.15 182.877 182.641 183.606C181.384 183.963 180.374 184.293 179.673 184.499L178.862 184.74C178.769 184.774 178.672 184.797 178.573 184.808C178.655 184.752 178.746 184.708 178.841 184.678L179.631 184.375C180.319 184.121 181.322 183.771 182.573 183.386C185.074 182.595 188.579 181.654 192.49 180.822C196.4 179.991 199.995 179.448 202.599 179.166C203.905 179.022 204.963 178.946 205.699 178.912L206.544 178.877C206.643 178.867 206.742 178.872 206.84 178.891Z" fill="#263238"/>
<path d="M166.972 216.236C166.892 216.133 166.825 216.02 166.773 215.9L166.271 214.889C165.838 214.017 165.24 212.738 164.519 211.151C163.076 207.969 161.22 203.515 159.234 198.574C157.248 193.633 155.427 189.172 154.038 185.977C153.351 184.41 152.787 183.125 152.382 182.19C152.196 181.771 152.052 181.427 151.935 181.159C151.881 181.041 151.835 180.919 151.798 180.795C151.878 180.899 151.945 181.012 151.997 181.132L152.499 182.135C152.932 183.015 153.53 184.293 154.251 185.881C155.695 189.063 157.55 193.516 159.536 198.457C161.522 203.399 163.344 207.852 164.732 211.054C165.419 212.621 165.976 213.907 166.388 214.841C166.574 215.26 166.718 215.604 166.835 215.872C166.891 215.99 166.936 216.111 166.972 216.236Z" fill="#263238"/>
<path d="M204.407 203.37C204.285 203.43 204.158 203.48 204.029 203.521L202.943 203.906L198.929 205.281C195.541 206.449 190.888 208.119 185.741 209.975C180.593 211.83 175.927 213.466 172.518 214.579C170.814 215.136 169.433 215.576 168.47 215.857L167.364 216.18C167.237 216.226 167.106 216.256 166.972 216.27C167.091 216.207 167.215 216.157 167.343 216.119L168.436 215.734L172.443 214.359C175.831 213.191 180.49 211.521 185.631 209.665C190.772 207.81 195.445 206.174 198.854 205.061C200.558 204.504 201.939 204.071 202.902 203.782L204.008 203.459C204.137 203.413 204.271 203.383 204.407 203.37Z" fill="#263238"/>
<path d="M101.876 96.6963L100.405 262H165.886V98.9505L101.876 96.6963Z" fill="#455A64"/>
<path d="M103.931 124.165V147.339H134.946V125.265L103.931 124.165Z" fill="#263238"/>
<path d="M137.153 97.9399L136.568 262H165.886V98.9502L137.153 97.9399Z" fill="#263238"/>
<path d="M103.931 98.7378V121.912H134.946V99.8305L103.931 98.7378Z" fill="#263238"/>
<path d="M114.625 105.108V108.531H124.115V104.799L114.625 105.108Z" fill="#263238"/>
<path d="M124.425 111.41H114.625V112.812H124.425V111.41Z" fill="#263238"/>
<g opacity="0.4">
<path d="M114.625 105.108V108.531H124.115V104.799L114.625 105.108Z" fill="black"/>
<path d="M124.425 111.41H114.625V112.812H124.425V111.41Z" fill="black"/>
</g>
<path d="M103.931 179.936V203.103H134.946V181.029L103.931 179.936Z" fill="#263238"/>
<path d="M114.625 186.306V189.729H124.115V185.997L114.625 186.306Z" fill="#263238"/>
<path d="M124.425 192.609H114.625V194.011H124.425V192.609Z" fill="#263238"/>
<g opacity="0.4">
<path d="M114.625 186.306V189.729H124.115V185.997L114.625 186.306Z" fill="black"/>
<path d="M124.425 192.609H114.625V194.011H124.425V192.609Z" fill="black"/>
</g>
<path d="M103.931 206.051V229.218H134.946V207.144L103.931 206.051Z" fill="#263238"/>
<path d="M114.625 212.422V215.845H124.115V212.113L114.625 212.422Z" fill="#263238"/>
<path d="M124.425 218.724H114.625V220.126H124.425V218.724Z" fill="#263238"/>
<g opacity="0.4">
<path d="M114.625 212.422V215.845H124.115V212.113L114.625 212.422Z" fill="black"/>
<path d="M124.425 218.724H114.625V220.126H124.425V218.724Z" fill="black"/>
</g>
<path d="M103.601 232.167V255.334H134.617V233.26L103.601 232.167Z" fill="#263238"/>
<path d="M114.288 238.537V241.96H123.779V238.228L114.288 238.537Z" fill="#263238"/>
<path d="M124.088 244.84H114.288V246.242H124.088V244.84Z" fill="#263238"/>
<g opacity="0.4">
<path d="M114.288 238.537V241.96H123.779V238.228L114.288 238.537Z" fill="black"/>
<path d="M124.088 244.84H114.288V246.242H124.088V244.84Z" fill="black"/>
</g>
<path d="M103.34 151.484H72.3242V174.658H103.34V151.484Z" fill="#455A64"/>
<path d="M83.2241 161.923V165.139H92.1446V161.634L83.2241 161.923Z" fill="#263238"/>
<path d="M92.4332 167.847H83.2241V169.159H92.4332V167.847Z" fill="#263238"/>
<g opacity="0.4">
<path d="M83.2241 161.923V165.139H92.1446V161.634L83.2241 161.923Z" fill="black"/>
<path d="M92.4332 167.847H83.2241V169.159H92.4332V167.847Z" fill="black"/>
</g>
<path d="M103.34 151.484L133.915 151.257L133.359 174.651H103.34V151.484Z" fill="#263238"/>
<path opacity="0.4" d="M103.34 151.484L133.915 151.257L133.359 174.651H103.34V151.484Z" fill="black"/>
<path d="M132.83 130.44H102.261V151.25H132.83V130.44Z" fill="#FAFAFA"/>
<path d="M94.8452 133.759L96.3846 151.442L132.809 151.257L130.651 133.959C130.576 133.42 130.291 132.933 129.858 132.604C129.426 132.274 128.881 132.129 128.342 132.199L113.641 133.478L111.14 131.622C110.911 131.462 110.634 131.387 110.356 131.409L95.8417 132.687C95.5689 132.702 95.3123 132.821 95.1263 133.021C94.9403 133.222 94.8395 133.486 94.8452 133.759Z" fill="#263238"/>
<path d="M94.8452 133.759L96.3846 151.442L132.809 151.257L130.651 133.959C130.576 133.42 130.291 132.933 129.858 132.604C129.426 132.274 128.881 132.129 128.342 132.199L113.641 133.478L111.14 131.622C110.911 131.462 110.634 131.387 110.356 131.409L95.8417 132.687C95.5689 132.702 95.3123 132.821 95.1263 133.021C94.9403 133.222 94.8395 133.486 94.8452 133.759Z" fill="#1579AD"/>
<path d="M84.3923 146.838L83.6226 142.233L117.318 140.006L120.28 151.435L85.0589 151.257L84.3923 146.838Z" fill="#FAFAFA"/>
<path d="M80.0902 144.598L80.6881 151.47H116.727L115.875 144.783C115.8 144.246 115.516 143.76 115.085 143.431C114.654 143.102 114.111 142.955 113.573 143.024L98.8727 144.302L96.3643 142.447C96.1388 142.286 95.8636 142.21 95.5877 142.234L81.073 143.519C80.8001 143.533 80.5439 143.654 80.3599 143.856C80.1759 144.058 80.079 144.325 80.0902 144.598Z" fill="#1579AD"/>
<path opacity="0.7" d="M80.0902 144.598L80.6881 151.47H116.727L115.875 144.783C115.8 144.246 115.516 143.76 115.085 143.431C114.654 143.102 114.111 142.955 113.573 143.024L98.8727 144.302L96.3643 142.447C96.1388 142.286 95.8636 142.21 95.5877 142.234L81.073 143.519C80.8001 143.533 80.5439 143.654 80.3599 143.856C80.1759 144.058 80.079 144.325 80.0902 144.598Z" fill="#FAFAFA"/>
<path d="M118.123 143.092H122.933C123.115 143.092 123.295 143.134 123.459 143.213C123.622 143.293 123.766 143.408 123.879 143.551C123.992 143.693 124.071 143.86 124.111 144.037C124.151 144.215 124.15 144.399 124.109 144.576L122.555 151.249H120.308L118.123 143.092Z" fill="#263238"/>
<path d="M181.164 51.028L159.783 55.6119C159.603 55.6497 159.416 55.6506 159.235 55.6146C159.054 55.5787 158.882 55.5066 158.729 55.4027C158.576 55.2988 158.446 55.1651 158.346 55.0098C158.247 54.8545 158.179 54.6806 158.148 54.4986L155.261 40.0664C155.181 39.7001 155.249 39.3171 155.45 39.0006C155.65 38.684 155.968 38.4594 156.333 38.3757L177.707 33.778C177.888 33.7403 178.074 33.7394 178.255 33.7753C178.436 33.8113 178.609 33.8834 178.761 33.9873C178.914 34.0912 179.044 34.2248 179.144 34.3801C179.244 34.5355 179.311 34.7093 179.343 34.8914L182.236 49.3236C182.314 49.6914 182.246 50.0753 182.046 50.3936C181.846 50.712 181.529 50.9396 181.164 51.028Z" fill="#1579AD"/>
<path d="M169.336 43.0358L172.607 44.1698L170.023 46.5408L167.439 48.9118L166.752 45.4068L166.065 41.9019L169.336 43.0358Z" fill="#FAFAFA"/>
<path d="M140.657 43.4685L140.87 43.1867C141.021 43.008 141.234 42.74 141.509 42.3757C142.308 41.3158 142.999 40.1784 143.571 38.9807C143.982 38.1172 144.327 37.2234 144.602 36.3073C144.898 35.304 145.131 34.1837 145.427 32.9948C146.004 30.6032 146.664 27.8885 147.385 24.8853C148.107 21.882 148.918 18.5901 149.77 15.0645C149.966 14.154 150.219 13.2566 150.526 12.3773C150.864 11.4752 151.287 10.6076 151.791 9.78642C152.318 8.9423 152.93 8.15469 153.619 7.43603C153.967 7.06926 154.337 6.72277 154.725 6.39828H154.76C154.904 6.96182 154.76 6.54948 154.815 6.67318H154.725L154.54 6.62507L154.169 6.53573L153.426 6.35705L140.973 3.31941L134.383 1.70437L131.015 0.879677L129.311 0.467329H129.208H129.153C129.118 0.467329 129.331 0.467329 129.228 0.467329L129.029 0.542927L128.623 0.700991C128.369 0.831568 128.094 0.934658 127.847 1.07898C125.803 2.15516 124.158 3.85807 123.153 5.93783C122.676 6.96145 122.334 8.04257 122.136 9.15415C121.882 10.2537 121.627 11.3465 121.38 12.4323C120.377 16.762 119.414 20.9405 118.493 24.9265L117.806 27.8748C117.095 30.6754 115.841 33.3092 114.116 35.627C113.841 35.9912 113.559 36.3142 113.27 36.6853L113.16 36.8159L113.105 36.8846C112.961 36.4104 113.105 36.754 113.05 36.651H113.112L113.435 36.7334L114.074 36.8915L116.576 37.51L121.291 38.6783L135.489 42.2108L139.351 43.1936L140.348 43.4547L140.692 43.5578L140.341 43.4891L139.331 43.2623L135.462 42.3482L121.229 38.912L116.514 37.7712L114.006 37.1595L113.367 37.0083L113.044 36.9259H112.982C112.94 36.8228 113.037 37.1595 112.885 36.6853L112.94 36.6235L113.044 36.4929C113.332 36.1561 113.607 35.8056 113.875 35.4414C114.984 33.9397 115.897 32.3022 116.59 30.5688C117.277 28.7085 117.806 26.7935 118.17 24.844C119.084 20.858 120.047 16.6795 121.036 12.343C121.291 11.2571 121.538 10.1644 121.792 9.0648C121.994 7.92946 122.343 6.8252 122.83 5.77976C123.835 3.58923 125.523 1.78327 127.641 0.632267C127.902 0.481073 128.184 0.371115 128.452 0.24741L128.871 0.0824665L129.077 0H129.201H129.256H129.366L131.063 0.419222L134.431 1.31952L141.021 2.93455L153.468 5.99281L154.21 6.17836L154.581 6.2677L154.766 6.31581H154.856C154.89 6.44639 154.815 6.03404 154.938 6.60446H154.904C154.526 6.92746 154.162 7.2917 153.818 7.62158C152.487 9.00081 151.454 10.6381 150.78 12.4323C150.477 13.2983 150.227 14.1819 150.031 15.0782L147.605 24.8921L145.599 32.9879C145.289 34.1769 145.042 35.2902 144.733 36.3005C144.449 37.2219 144.095 38.1202 143.674 38.9876C143.092 40.1854 142.383 41.3168 141.558 42.362C141.279 42.7481 140.979 43.1176 140.657 43.4685Z" fill="#263238"/>
<path d="M145.214 13.9927C144.953 13.9904 144.694 13.9511 144.444 13.8758C143.956 13.7796 143.248 13.6284 142.382 13.436C140.644 13.0443 138.259 12.4807 135.606 11.8072C132.953 11.1337 130.589 10.4327 128.878 9.95163C128.019 9.69735 127.332 9.47743 126.857 9.31937C126.605 9.25814 126.363 9.16337 126.136 9.0376C126.395 9.06154 126.65 9.1122 126.899 9.18879L128.96 9.7111L135.702 11.4567L142.458 13.1886L144.52 13.7452C144.759 13.8041 144.991 13.887 145.214 13.9927Z" fill="#263238"/>
<path d="M144.74 16.8716C144.48 16.8604 144.222 16.8212 143.97 16.7547C143.475 16.6585 142.774 16.5073 141.908 16.308C140.169 15.9163 137.785 15.3527 135.125 14.6792C132.465 14.0057 130.115 13.3047 128.404 12.8305C127.545 12.5694 126.857 12.3563 126.383 12.1983C126.144 12.1306 125.914 12.0361 125.696 11.9165C125.955 11.9353 126.211 11.9837 126.459 12.0608L128.521 12.5831L135.263 14.3356L141.991 16.0675L144.052 16.6173C144.29 16.6766 144.521 16.7619 144.74 16.8716Z" fill="#263238"/>
<path d="M144.052 19.7446C143.792 19.7429 143.533 19.7059 143.283 19.6346C142.788 19.5384 142.087 19.3803 141.221 19.1879C139.482 18.7962 137.097 18.2326 134.438 17.5591C131.778 16.8856 129.428 16.219 127.717 15.7036C126.857 15.4493 126.17 15.2362 125.696 15.0782C125.446 15.0091 125.205 14.9147 124.974 14.7964C125.234 14.8107 125.49 14.8593 125.737 14.9407L127.799 15.463L134.541 17.2086L141.303 18.9405L143.365 19.4972C143.602 19.5577 143.832 19.6405 144.052 19.7446Z" fill="#263238"/>
<path d="M143.454 22.6245C143.194 22.6177 142.935 22.5784 142.685 22.5077C142.197 22.4114 141.489 22.2603 140.623 22.0678C138.884 21.6761 136.5 21.1125 133.847 20.4322C131.194 19.7518 128.83 19.0989 127.119 18.5835C126.266 18.3292 125.579 18.1093 125.105 17.9512C124.851 17.8889 124.606 17.7942 124.376 17.6694C124.635 17.6927 124.891 17.7434 125.139 17.8206L127.201 18.3361L133.95 20.0885L140.699 21.8204L142.76 22.3771C143 22.4344 143.233 22.5174 143.454 22.6245Z" fill="#263238"/>
<path d="M142.527 25.5043C142.267 25.4931 142.008 25.454 141.757 25.3875C141.262 25.2913 140.561 25.1401 139.695 24.9408C137.956 24.549 135.572 23.9855 132.912 23.312C130.252 22.6385 127.902 21.9375 126.191 21.4564C125.332 21.2021 124.644 20.9891 124.17 20.831C123.915 20.7713 123.668 20.6813 123.435 20.563C123.694 20.5773 123.951 20.6259 124.198 20.7073L126.259 21.2296L133.001 22.9821L139.757 24.7071L141.819 25.2638C142.064 25.3151 142.301 25.3959 142.527 25.5043Z" fill="#263238"/>
<path d="M141.853 28.3769C141.592 28.3747 141.333 28.3354 141.083 28.2601C140.595 28.1639 139.888 28.0127 139.022 27.8203C137.283 27.4285 134.898 26.865 132.245 26.1915C129.593 25.518 127.229 24.817 125.517 24.3359C124.665 24.0816 123.971 23.8617 123.497 23.7036C123.245 23.6424 123.002 23.5476 122.775 23.4219C123.034 23.4458 123.29 23.4965 123.538 23.5731L125.6 24.0954L132.349 25.841L139.097 27.5729L141.159 28.1295C141.398 28.1884 141.631 28.2713 141.853 28.3769Z" fill="#263238"/>
<path d="M141.001 31.3588C140.741 31.3571 140.482 31.3202 140.231 31.2489C139.743 31.1527 139.035 31.0015 138.169 30.8022C136.431 30.4104 134.046 29.8469 131.386 29.1734C128.727 28.4999 126.376 27.7989 124.665 27.3178C123.813 27.0635 123.119 26.8505 122.645 26.6924C122.406 26.6248 122.175 26.5302 121.957 26.4106C122.217 26.425 122.473 26.4735 122.72 26.555L124.782 27.0773L131.524 28.8298L138.279 30.5548L140.341 31.1114C140.569 31.1724 140.789 31.2553 141.001 31.3588Z" fill="#263238"/>
<path d="M140.369 34.2247C139.811 34.1921 139.258 34.1023 138.719 33.9567C137.709 33.7436 136.321 33.4344 134.795 33.0426C133.269 32.6509 131.909 32.2248 130.919 31.9293C130.374 31.7996 129.846 31.6082 129.345 31.3589C129.902 31.4131 130.452 31.5213 130.988 31.6819C131.991 31.9224 133.366 32.3004 134.884 32.699C136.403 33.0976 137.785 33.4344 138.781 33.7093C139.327 33.8238 139.859 33.9966 140.369 34.2247Z" fill="#263238"/>
<path d="M96.0962 102.269L72.6129 111.492C70.7551 100.089 67.114 89.0496 61.8231 78.779L76.2553 72.5938C77.5725 72.0289 78.9913 71.7397 80.4244 71.7442C81.8576 71.7487 83.2746 72.0466 84.5882 72.6197C85.9018 73.1928 87.084 74.0288 88.0621 75.0763C89.0402 76.1238 89.7934 77.3605 90.2752 78.7103C93.0426 86.3354 94.9939 94.2325 96.0962 102.269Z" fill="#FAFAFA"/>
<path d="M96.0961 102.27C96.0961 102.27 96.0961 102.167 96.0411 101.974C95.9861 101.782 95.9586 101.486 95.9036 101.129C95.7799 100.387 95.6012 99.2804 95.3401 97.8647C94.5975 93.8631 93.6525 89.9018 92.5086 85.9959C92.1375 84.7589 91.7458 83.46 91.2991 82.1267C90.8524 80.7934 90.4056 79.3777 89.8146 78.0032C89.1863 76.5866 88.2467 75.3298 87.0656 74.3264C85.7952 73.2743 84.2996 72.5288 82.6947 72.1479C81.0053 71.7656 79.2468 71.8153 77.5816 72.2922C77.1486 72.4021 76.7431 72.5877 76.3239 72.732L75.0731 73.2749L72.5234 74.3677L61.9055 78.9379L61.9948 78.6973C62.1804 79.0684 62.3797 79.4739 62.5858 79.8794C65.2233 85.1977 67.4452 90.7121 69.2315 96.3734C70.7789 101.32 71.9619 106.373 72.7708 111.493L72.5784 111.383L89.6359 104.765L94.4054 102.93L95.67 102.456C95.9517 102.346 96.1098 102.297 96.1098 102.297C96.1098 102.297 95.9792 102.366 95.7043 102.476L94.481 102.978L89.7596 104.847L72.6815 111.63L72.5166 111.699V111.513C71.6855 106.413 70.4912 101.379 68.9429 96.449C67.1398 90.8164 64.9089 85.33 62.2697 80.0375L61.6855 78.8554L61.5962 78.6836L61.7749 78.6149L72.3929 74.0515L74.9426 72.9519L76.1933 72.4159C76.6332 72.2647 77.0524 72.0791 77.4922 71.9623C79.2152 71.4771 81.0324 71.4323 82.7772 71.8317C84.4294 72.2259 85.9678 72.9974 87.2718 74.0859C88.4929 75.1204 89.4614 76.4203 90.1033 77.8864C90.708 79.3021 91.1272 80.7041 91.5808 82.0442C92.0344 83.3844 92.4055 84.6833 92.7698 85.9203C93.9013 89.8399 94.819 93.818 95.5188 97.8372C95.7524 99.2667 95.9174 100.366 96.0136 101.129C96.0548 101.493 96.0892 101.775 96.1167 101.988C96.1188 102.083 96.1119 102.177 96.0961 102.27Z" fill="#263238"/>
<path d="M77.0388 72.2709C77.0388 72.2709 80.5438 79.4595 80.2345 79.7138C79.9253 79.9681 88.9351 76.3531 89.045 76.2776C89.0725 76.2982 84.3855 70.0442 77.0388 72.2709Z" fill="#263238"/>
<path d="M75.7262 81.9609C74.7213 82.5821 73.655 83.098 72.5442 83.5004C71.4821 84.0105 70.3726 84.4156 69.2317 84.7099C70.2327 84.0861 71.297 83.5701 72.4068 83.1705C73.4706 82.6587 74.5825 82.2535 75.7262 81.9609Z" fill="#263238"/>
<path d="M87.3817 80.9301C87.4229 81.0195 83.6156 82.8682 78.8804 85.0536C74.1453 87.2391 70.2692 88.9366 70.228 88.8472C70.1868 88.7579 73.9941 86.9161 78.7293 84.7238C83.4644 82.5314 87.3405 80.8408 87.3817 80.9301Z" fill="#263238"/>
<path d="M88.9625 85.164C89.0038 85.2534 85.1964 87.0952 80.4613 89.2875C75.7261 91.4798 71.85 93.1774 71.8088 93.088C71.7676 92.9987 75.5749 91.1568 80.3101 88.9645C85.0452 86.7722 88.9213 85.0678 88.9625 85.164Z" fill="#263238"/>
<path d="M90.5775 89.3628C90.6188 89.4522 86.8114 91.294 82.0763 93.4863C77.3411 95.6786 73.465 97.3693 73.4238 97.2799C73.3826 97.1906 77.1899 95.3487 81.9251 93.1564C86.6602 90.9641 90.5363 89.2872 90.5775 89.3628Z" fill="#263238"/>
<path d="M86.0349 97.1631C85.5315 97.493 84.9976 97.7738 84.4405 98.0015C83.4371 98.4757 82.042 99.1149 80.4888 99.7952C78.0559 100.867 75.9667 101.74 75.1764 102.008L75.0664 102.049V101.946C75.1214 101.692 75.1626 101.575 75.1832 101.575C75.2039 101.575 75.1832 101.706 75.1832 101.967L75.1008 101.898C75.8293 101.5 77.8498 100.524 80.317 99.4722C81.8702 98.785 83.2859 98.1871 84.3168 97.7679C84.8661 97.5053 85.4422 97.3025 86.0349 97.1631Z" fill="#263238"/>
<path d="M194.812 101.658L168.745 90.3872C171.487 88.1239 173.634 85.2242 174.999 81.9409L182.607 63.6738C183.329 62.0075 184.455 60.5474 185.883 59.4255C187.31 58.3036 188.995 57.5552 190.785 57.248L214.963 67.7217C212.347 69.2398 210.287 71.5572 209.087 74.333L200.407 94.3526C199.164 97.2065 197.244 99.7142 194.812 101.658Z" fill="#1579AD"/>
<path opacity="0.7" d="M194.812 101.658L168.745 90.3872C171.487 88.1239 173.634 85.2242 174.999 81.9409L182.607 63.6738C183.329 62.0075 184.455 60.5474 185.883 59.4255C187.31 58.3036 188.995 57.5552 190.785 57.248L214.963 67.7217C212.347 69.2398 210.287 71.5572 209.087 74.333L200.407 94.3526C199.164 97.2065 197.244 99.7142 194.812 101.658Z" fill="#FAFAFA"/>
<path d="M204.207 75.2881C204.166 75.3774 199.898 73.5974 194.668 71.302C189.438 69.0066 185.232 67.0823 185.273 66.993C185.315 66.9036 189.583 68.6836 194.812 70.979C200.042 73.2744 204.248 75.1987 204.207 75.2881Z" fill="#263238"/>
<path d="M203.156 78.8832C203.114 78.9725 198.702 77.1238 193.294 74.7597C187.885 72.3956 183.542 70.3957 183.583 70.3063C183.624 70.217 188.036 72.0588 193.438 74.4298C198.84 76.8008 203.156 78.7939 203.156 78.8832Z" fill="#263238"/>
<path d="M201.781 82.0575C201.747 82.1468 197.328 80.2981 191.926 77.934C186.524 75.5699 182.174 73.5768 182.208 73.4875C182.243 73.3982 186.662 75.24 192.07 77.611C197.479 79.982 201.781 81.9613 201.781 82.0575Z" fill="#263238"/>
<path d="M200.359 85.2328C200.317 85.3221 195.905 83.4734 190.496 81.1093C185.088 78.7452 180.744 76.7521 180.786 76.6559C180.827 76.5597 185.239 78.4153 190.641 80.7794C196.043 83.1435 200.407 85.1641 200.359 85.2328Z" fill="#263238"/>
<path d="M198.963 88.4012C198.963 88.4975 194.51 86.6488 189.108 84.2778C183.707 81.9067 179.356 79.9206 179.398 79.8244C179.439 79.7282 183.844 81.5837 189.253 83.9479C194.661 86.312 199.032 88.3119 198.963 88.4012Z" fill="#263238"/>
<path d="M188.167 87.4529C187.634 87.3359 187.117 87.1559 186.627 86.9168C185.693 86.5457 184.414 86.0097 183.012 85.3911C181.611 84.7726 180.346 84.2022 179.439 83.7692C178.932 83.5688 178.45 83.3105 178.002 82.9995C178.533 83.1246 179.049 83.3042 179.542 83.5356C180.477 83.9136 181.755 84.4496 183.157 85.0613C184.559 85.6729 185.823 86.2571 186.731 86.69C187.235 86.8919 187.717 87.1477 188.167 87.4529Z" fill="#263238"/>
<path d="M194.73 94.7855C194.695 94.7855 194.805 94.5381 194.867 94.0983C194.943 93.4649 194.813 92.8239 194.496 92.2702C194.24 91.8329 193.868 91.4749 193.421 91.2357C192.974 90.9966 192.47 90.8857 191.964 90.9153C191.458 90.9448 190.97 91.1137 190.554 91.4032C190.138 91.6927 189.81 92.0916 189.607 92.5557C189.403 93.0199 189.332 93.5313 189.401 94.0335C189.47 94.5356 189.676 95.0089 189.997 95.401C190.318 95.7932 190.741 96.089 191.22 96.2557C191.699 96.4224 192.214 96.4535 192.709 96.3456C193.333 96.2061 193.893 95.8656 194.304 95.3766C194.592 95.0261 194.702 94.7855 194.73 94.7993C194.686 95.0518 194.577 95.2886 194.414 95.4865C194.019 96.0465 193.436 96.4464 192.771 96.6136C192.275 96.7435 191.753 96.7455 191.256 96.6193C190.758 96.4931 190.301 96.2429 189.926 95.892C189.463 95.4563 189.147 94.8881 189.02 94.2655C188.893 93.6428 188.962 92.9961 189.217 92.4141C189.472 91.8321 189.902 91.3434 190.446 91.0149C190.99 90.6865 191.622 90.5344 192.256 90.5796C192.768 90.6162 193.262 90.7824 193.693 91.0625C194.123 91.3425 194.475 91.7274 194.716 92.1809C195.039 92.7846 195.139 93.4831 194.998 94.1533C194.958 94.3817 194.866 94.598 194.73 94.7855Z" fill="#263238"/>
<path d="M194.4 66.7305L186.846 63.4209L186.369 64.5099L193.923 67.8195L194.4 66.7305Z" fill="#263238"/>
<path d="M179.728 133.993L151.585 133.333L162.058 119.313H189.514L179.728 133.993Z" fill="#1579AD"/>
<path d="M155.763 131.23L178.023 131.911L174.931 127.361L170.553 129.237L167.089 123.251L155.763 131.23Z" fill="#1579AD"/>
<path d="M174.339 123.21C174.339 123.495 174.255 123.774 174.096 124.012C173.938 124.249 173.712 124.434 173.448 124.543C173.185 124.652 172.895 124.681 172.615 124.625C172.335 124.57 172.077 124.432 171.876 124.23C171.674 124.029 171.536 123.771 171.481 123.491C171.425 123.211 171.454 122.921 171.563 122.658C171.672 122.394 171.857 122.168 172.094 122.01C172.332 121.851 172.611 121.767 172.896 121.767C173.279 121.767 173.646 121.919 173.917 122.189C174.187 122.46 174.339 122.827 174.339 123.21Z" fill="#1579AD"/>
<g opacity="0.7">
<path d="M155.763 131.23L178.023 131.911L174.931 127.361L170.553 129.237L167.089 123.251L155.763 131.23Z" fill="#FAFAFA"/>
<path d="M174.339 123.21C174.339 123.495 174.255 123.774 174.096 124.012C173.938 124.249 173.712 124.434 173.448 124.543C173.185 124.652 172.895 124.681 172.615 124.625C172.335 124.57 172.077 124.432 171.876 124.23C171.674 124.029 171.536 123.771 171.481 123.491C171.425 123.211 171.454 122.921 171.563 122.658C171.672 122.394 171.857 122.168 172.094 122.01C172.332 121.851 172.611 121.767 172.896 121.767C173.279 121.767 173.646 121.919 173.917 122.189C174.187 122.46 174.339 122.827 174.339 123.21Z" fill="#FAFAFA"/>
</g>
<path d="M103.402 51.5851L78.6125 62.5948L78.0215 43.7092L102.783 32.0054L103.402 51.5851Z" fill="#1579AD"/>
<path opacity="0.7" d="M103.402 51.5851L78.6125 62.5948L78.0215 43.7092L102.783 32.0054L103.402 51.5851Z" fill="#FAFAFA"/>
<path d="M79.7122 59.2751L102.206 48.7877L94.8935 44.5405L92.0826 49.4887L83.8288 45.5233L79.7122 59.2751Z" fill="#1579AD"/>
<path d="M92.4536 44.5407C92.4536 44.7815 92.3821 45.017 92.2481 45.2172C92.1141 45.4174 91.9238 45.5733 91.7011 45.6651C91.4784 45.757 91.2335 45.7807 90.9973 45.7332C90.7612 45.6857 90.5444 45.5692 90.3746 45.3984C90.2048 45.2275 90.0895 45.0102 90.0433 44.7737C89.9971 44.5373 90.0222 44.2925 90.1153 44.0704C90.2085 43.8482 90.3654 43.6587 90.5664 43.5259C90.7673 43.3931 91.0032 43.3229 91.2441 43.3242C91.4035 43.3242 91.5613 43.3558 91.7085 43.417C91.8557 43.4782 91.9894 43.5679 92.1018 43.6809C92.2142 43.794 92.3031 43.9281 92.3635 44.0757C92.4239 44.2232 92.4545 44.3813 92.4536 44.5407Z" fill="#1579AD"/>
<path d="M87.5536 43.2898C87.4838 42.5963 87.3713 41.9078 87.2169 41.2281C86.7223 39.3702 85.6189 37.7319 84.083 36.5754C82.9548 35.728 81.6327 35.1759 80.2368 34.9695C78.8409 34.7631 77.4156 34.9087 76.0903 35.3933C75.3256 35.6645 74.607 36.0516 73.9599 36.541C73.2755 37.0411 72.6747 37.6465 72.1799 38.3348C71.1219 39.7767 70.5514 41.5185 70.5514 43.307C70.5514 45.0955 71.1219 46.8373 72.1799 48.2792C72.6747 48.9674 73.2755 49.5729 73.9599 50.073C74.607 50.5624 75.3256 50.9495 76.0903 51.2207C77.5062 51.736 79.0335 51.8665 80.5162 51.5986C81.8113 51.3624 83.033 50.8257 84.083 50.0317C85.6184 48.8777 86.7219 47.2417 87.2169 45.3859C87.372 44.7064 87.4844 44.0178 87.5536 43.3242C87.5656 43.5072 87.5656 43.6909 87.5536 43.874C87.5568 44.104 87.5407 44.3339 87.5055 44.5612C87.4746 44.8652 87.4194 45.1663 87.3406 45.4615C86.9541 47.0777 86.109 48.5478 84.9069 49.6951C83.7047 50.8423 82.1968 51.6179 80.5643 51.9285C79.0357 52.1903 77.4649 52.0385 76.0147 51.4887C74.3826 50.9004 72.9618 49.8408 71.9325 48.4442C70.8211 46.9451 70.2211 45.1284 70.2211 43.2623C70.2211 41.3962 70.8211 39.5795 71.9325 38.0805C72.4516 37.3676 73.0802 36.7414 73.7949 36.2249C74.4701 35.7197 75.2187 35.3211 76.0147 35.0428C77.3896 34.5499 78.8669 34.413 80.3089 34.6449C81.7509 34.8769 83.1108 35.4701 84.2617 36.3692C85.8232 37.5658 86.9231 39.2653 87.375 41.18C87.4544 41.4751 87.5095 41.7762 87.5399 42.0803C87.588 42.4815 87.6018 42.8862 87.5811 43.2898H87.5536Z" fill="#263238"/>
<path d="M73.2657 49.64C73.3344 49.7156 70.7916 52.0729 67.5959 54.9044C64.4002 57.7358 61.7474 59.9763 61.6856 59.9075C61.6237 59.8388 64.1596 57.4747 67.3554 54.6363C70.5511 51.798 73.2107 49.5645 73.2657 49.64Z" fill="#263238"/>
<path d="M19.6193 82.7173C17.2552 81.439 13.7158 82.2225 12.2726 84.4904C11.3899 86.1168 11.0686 87.989 11.3586 89.8166C11.5441 91.6447 12.0046 93.4384 12.0458 95.2733C12.1237 96.2637 11.9901 97.2593 11.6541 98.1942C11.4848 98.6598 11.2236 99.0865 10.8859 99.449C10.5482 99.8115 10.141 100.102 9.68855 100.304C8.27969 100.868 6.52034 100.304 5.26267 101.177C4.9876 101.395 4.75876 101.666 4.58951 101.974C4.42027 102.282 4.31399 102.62 4.27689 102.969C4.23979 103.319 4.27259 103.672 4.37341 104.008C4.47422 104.345 4.64102 104.658 4.86407 104.929C5.35004 105.453 5.99366 105.803 6.69703 105.927C7.40041 106.051 8.12506 105.942 8.76077 105.616C7.43438 106.847 7.68178 109.218 9.02192 110.427C9.72857 110.996 10.5771 111.36 11.4759 111.481C12.3746 111.602 13.2894 111.475 14.1213 111.114C15.7782 110.365 17.1888 109.162 18.1898 107.644C20.7703 103.915 22.1163 99.4706 22.0384 94.9366C22.0416 90.6989 21.1174 86.5118 19.3306 82.6692" fill="#263238"/>
<path d="M96.8042 122.825C96.0138 121.547 90.5296 124.605 90.0416 124.825C89.5537 125.045 89.2238 124.358 89.6705 124.179C90.3097 123.925 96.9966 121.052 96.2269 119.794C95.8008 119.107 94.6118 119.973 94.6118 119.973C94.6118 119.973 88.5572 123.121 88.2135 122.509C87.8699 121.897 91.3611 119.925 92.5844 119.348C93.8078 118.77 94.0139 117.973 93.3129 117.643C92.8387 117.416 89.0451 119.107 87.8493 119.705C86.6535 120.303 83.3959 122.021 84.3169 119.87C85.2378 117.719 85.1347 115.746 84.7292 115.203C84.6248 115.091 84.4877 115.015 84.3373 114.985C84.1869 114.955 84.0309 114.973 83.8915 115.037C83.7522 115.101 83.6366 115.207 83.5611 115.341C83.4857 115.474 83.4544 115.628 83.4715 115.781C83.4112 116.568 83.2424 117.342 82.9698 118.083C82.7772 118.686 82.4819 119.251 82.097 119.753C81.6435 120.344 81.238 120.818 80.8806 121.217C77.3894 122.44 67.4174 125.533 58.0983 124.653C57.7616 124.619 57.2736 123.966 56.7238 122.928L44.0853 126.997C44.5595 127.972 45.075 129.058 45.6316 130.137C52.6828 144.226 85.3683 129.608 85.3683 129.608V129.574C87.8182 129.105 90.2409 128.504 92.6257 127.773C95.897 126.598 95.7939 126.302 95.5946 125.945C95.0517 124.983 89.7599 127.801 90.5433 126.536C91.3268 125.272 97.4158 123.808 96.8042 122.825Z" fill="#EB996E"/>
<path d="M52.3391 128.961L75.2245 120.041L89.3474 128.37L64.3247 137.305L52.3391 128.961Z" fill="#263238"/>
<path d="M75.8706 120.426L78.0492 119.842C82.1655 122.189 85.9628 125.055 89.3475 128.371L88.7084 127.993L75.8706 120.426Z" fill="#FAFAFA"/>
<path d="M89.3476 128.371C88.7657 127.986 88.2143 127.556 87.6982 127.086C86.6879 126.268 85.2791 125.155 83.6915 123.973C82.104 122.791 80.6333 121.76 79.5681 121.038C78.9639 120.675 78.3853 120.271 77.8362 119.829C78.4922 120.09 79.1169 120.425 79.6986 120.825C81.1502 121.707 82.5562 122.661 83.9115 123.684C85.5059 124.873 86.8941 126.028 87.87 126.894C88.4102 127.336 88.9051 127.831 89.3476 128.371Z" fill="#263238"/>
<path d="M48.2982 148.542L47.3016 127.925L47.226 127.059L58.1464 122.008L54.6689 113.493C50.8341 99.1223 37.1441 98.9093 37.1441 98.9093L26.7048 97.8853L21.9972 98.9093C21.9972 98.9093 13.276 100.414 12.9461 112.847C12.7882 120.422 14.4027 127.929 17.6606 134.77L20.8563 133.1C20.8468 135.124 20.2316 137.098 19.0901 138.77C17.7462 140.72 16.7918 142.911 16.2793 145.223L48.2982 148.542Z" fill="#1579AD"/>
<path d="M24.5125 110.193C24.5675 110.193 24.6499 111.21 24.8905 112.846C25.5187 117.107 26.8152 121.243 28.7322 125.1C29.4675 126.577 29.983 127.464 29.9349 127.491C29.7671 127.317 29.6238 127.12 29.5088 126.907C29.2476 126.522 28.904 125.945 28.5054 125.217C26.4428 121.389 25.1317 117.201 24.6431 112.881C24.5469 112.056 24.4987 111.382 24.4919 110.915C24.4636 110.675 24.4706 110.432 24.5125 110.193Z" fill="#263238"/>
<path d="M45.8516 122.88C46.5818 122.565 47.2357 122.096 47.769 121.506C48.3151 120.855 48.6123 120.032 48.6075 119.183C48.6131 118.669 48.4903 118.163 48.2502 117.709C48.0102 117.255 47.6605 116.869 47.233 116.585C46.9107 116.368 46.5482 116.218 46.1669 116.144C45.7856 116.069 45.3933 116.072 45.0132 116.152L44.8414 116.193L44.807 116.021C44.4702 114.365 44.1953 112.936 44.0098 111.898C43.8892 111.362 43.8111 110.817 43.7761 110.269C43.9718 110.782 44.1213 111.311 44.2228 111.85C44.4634 112.853 44.7795 114.276 45.1438 115.925L44.9307 115.795C45.356 115.698 45.7966 115.689 46.2255 115.768C46.6544 115.847 47.0627 116.013 47.4254 116.255C47.8966 116.575 48.2797 117.008 48.5391 117.515C48.7986 118.022 48.9261 118.586 48.9099 119.155C48.9026 120.078 48.5551 120.967 47.934 121.65C47.5225 122.099 47.0184 122.453 46.4564 122.688C46.2709 122.794 46.0647 122.86 45.8516 122.88Z" fill="#263238"/>
<path d="M47.6039 131.416C47.2799 129.985 47.0935 128.526 47.0473 127.059C46.8617 124.647 46.5593 122.715 46.6555 122.695C47.0997 124.098 47.3516 125.554 47.4046 127.024C47.5664 128.482 47.633 129.949 47.6039 131.416Z" fill="#263238"/>
<path d="M58.1807 122.089C57.7085 122.442 57.1992 122.741 56.6619 122.983C55.6997 123.484 54.3527 124.151 52.8339 124.831C51.3151 125.512 49.9337 126.082 48.9166 126.467C48.3825 126.713 47.8222 126.897 47.2466 127.017C47.7434 126.703 48.2707 126.441 48.8204 126.233L52.6896 124.502L56.5519 122.756C57.0733 122.484 57.6186 122.261 58.1807 122.089Z" fill="#263238"/>
<path d="M17.4819 112.297C17.3618 111.663 17.3618 111.013 17.4819 110.379C17.4753 109.732 17.5871 109.089 17.8118 108.482C17.9319 109.118 17.9319 109.771 17.8118 110.407C17.8181 111.052 17.7063 111.692 17.4819 112.297Z" fill="#FAFAFA"/>
<path d="M18.506 116.557C17.9722 116.53 17.4511 116.384 16.9803 116.131C16.4743 115.981 16.0058 115.726 15.6058 115.382C16.1418 115.404 16.6657 115.547 17.1384 115.801C17.9219 116.124 18.5473 116.461 18.506 116.557Z" fill="#FAFAFA"/>
<path d="M22.3272 114.523C22.1235 114.08 22.0727 113.582 22.1828 113.107C22.2653 112.317 22.5333 111.733 22.6227 111.733C22.6699 112.193 22.642 112.657 22.5402 113.107C22.5422 113.587 22.4704 114.065 22.3272 114.523Z" fill="#FAFAFA"/>
<path d="M21.7223 121.622C21.6132 121.07 21.7111 120.498 21.9972 120.014C22.3752 119.175 22.9731 118.694 23.0349 118.763C23.0968 118.832 22.6707 119.388 22.3477 120.137C22.0247 120.886 21.8116 121.629 21.7223 121.622Z" fill="#FAFAFA"/>
<path d="M20.3478 125.533C19.8103 125.306 19.3006 125.018 18.829 124.674C18.0043 124.179 17.3033 123.835 17.3445 123.739C17.9456 123.792 18.5207 124.008 19.0077 124.365C19.8736 124.866 20.4303 125.464 20.3478 125.533Z" fill="#FAFAFA"/>
<path d="M26.1413 124.729C26.017 125.328 25.8256 125.911 25.5709 126.467C25.4245 127.06 25.21 127.635 24.9318 128.178C24.8633 127.553 24.9679 126.921 25.2342 126.35C25.3864 125.738 25.6996 125.178 26.1413 124.729Z" fill="#FAFAFA"/>
<path d="M20.3477 129.897C19.8621 129.938 19.3737 129.861 18.9251 129.67C18.1623 129.45 17.5506 129.196 17.5987 129.1C18.0843 129.058 18.5727 129.136 19.0213 129.327C19.7979 129.546 20.389 129.835 20.3477 129.897Z" fill="#FAFAFA"/>
<path d="M25.3509 105.217C24.9049 105.616 24.3839 105.922 23.8184 106.118C23.3022 106.417 22.7327 106.613 22.1415 106.695C23.1 105.99 24.1919 105.487 25.3509 105.217Z" fill="#FAFAFA"/>
<path d="M21.09 100.421C21.1656 100.496 20.6021 101.108 19.9836 101.933C19.6534 102.464 19.2662 102.957 18.829 103.403C18.9624 102.772 19.264 102.188 19.7018 101.713C20.3478 100.868 21.035 100.345 21.09 100.421Z" fill="#FAFAFA"/>
<path d="M32.0927 111.321C31.4578 111.107 30.8862 110.739 30.4296 110.249C29.8971 109.841 29.4782 109.304 29.2131 108.688C29.74 109.07 30.228 109.503 30.6701 109.981C31.4536 110.702 32.1477 111.231 32.0927 111.321Z" fill="#FAFAFA"/>
<path d="M38.6561 104.757C38.3508 105.371 37.9723 105.946 37.529 106.468C37.1938 107.05 36.7875 107.588 36.3195 108.07C36.4854 107.405 36.8003 106.787 37.2404 106.262C37.907 105.307 38.5874 104.688 38.6561 104.757Z" fill="#FAFAFA"/>
<path d="M34.4845 117.094C33.3723 117.332 32.2223 117.332 31.1101 117.094C32.2223 116.855 33.3723 116.855 34.4845 117.094Z" fill="#FAFAFA"/>
<path d="M40.6904 114.715C40.3577 114.159 40.1863 113.521 40.1955 112.873C40.0895 112.235 40.1657 111.58 40.4155 110.983C40.5213 111.598 40.5673 112.222 40.5529 112.846C40.6614 113.463 40.7075 114.089 40.6904 114.715Z" fill="#FAFAFA"/>
<path d="M42.2986 122.77C41.6703 122.63 41.0721 122.379 40.5324 122.028C39.9416 121.777 39.4014 121.421 38.938 120.977C39.567 121.111 40.1658 121.36 40.7042 121.712C41.2977 121.961 41.8387 122.32 42.2986 122.77Z" fill="#FAFAFA"/>
<path d="M46.7244 118.681C46.7725 118.771 46.3739 119.073 45.8378 119.369C45.3018 119.664 44.8207 119.829 44.7726 119.74C44.7245 119.651 45.1231 119.348 45.666 119.053C46.209 118.757 46.6832 118.592 46.7244 118.681Z" fill="#FAFAFA"/>
<path d="M32.7869 126.234C32.7664 125.518 32.9272 124.809 33.2542 124.172C33.4753 123.495 33.8712 122.888 34.4019 122.413C34.1793 123.065 33.9059 123.699 33.5841 124.309C33.3743 124.973 33.1076 125.616 32.7869 126.234Z" fill="#FAFAFA"/>
<path d="M40.0716 129.698C39.5309 129.088 39.1444 128.357 38.9445 127.567C38.6318 126.814 38.5068 125.995 38.5803 125.183C38.8508 125.928 39.0802 126.687 39.2676 127.457C39.5756 128.189 39.844 128.937 40.0716 129.698Z" fill="#FAFAFA"/>
<path d="M45.1437 127.223C45.2262 127.285 44.965 127.718 44.7589 128.282C44.5527 128.845 44.4633 129.34 44.3603 129.34C44.2572 129.34 44.1884 128.79 44.4221 128.158C44.6558 127.526 45.0887 127.155 45.1437 127.223Z" fill="#FAFAFA"/>
<path d="M52.6896 121.196C51.7146 121.8 50.6234 122.191 49.4871 122.344C49.9443 121.994 50.4682 121.742 51.0265 121.602C51.5481 121.357 52.1137 121.219 52.6896 121.196Z" fill="#FAFAFA"/>
<path d="M52.3393 116.777C52.2205 116.173 52.2778 115.548 52.5042 114.976C52.6144 114.361 52.9037 113.792 53.3358 113.341C53.2217 113.922 53.0513 114.49 52.8272 115.038C52.7253 115.633 52.5618 116.216 52.3393 116.777Z" fill="#FAFAFA"/>
<path d="M50.202 113.012C49.5948 113.182 48.9598 113.229 48.3343 113.149C47.7087 113.07 47.1053 112.867 46.5596 112.551C47.1722 112.581 47.7814 112.661 48.3808 112.792C48.9931 112.811 49.6026 112.885 50.202 113.012Z" fill="#FAFAFA"/>
<path d="M47.7139 108.578C47.8618 108.018 48.1756 107.515 48.6142 107.135C49.2602 106.448 49.9474 106.07 49.9887 106.152C50.0299 106.235 49.487 106.716 48.8684 107.382C48.2499 108.049 47.8376 108.633 47.7139 108.578Z" fill="#FAFAFA"/>
<path d="M43.0682 105.293C42.5932 104.297 42.3422 103.208 42.3329 102.104C42.8079 103.101 43.0589 104.189 43.0682 105.293Z" fill="#FAFAFA"/>
<path d="M20.3478 139.814C20.4028 139.89 20.1554 140.192 19.7911 140.501C19.4269 140.811 19.1039 140.969 19.0145 140.893C18.9252 140.818 19.2001 140.515 19.5643 140.206C19.9286 139.897 20.3066 139.739 20.3478 139.814Z" fill="#FAFAFA"/>
<path d="M46.7313 143.924C46.0541 144.07 45.3569 144.1 44.6695 144.013C43.9717 144.038 43.2746 143.945 42.6078 143.738C43.9989 143.566 45.4091 143.628 46.7794 143.924H46.7313Z" fill="#FAFAFA"/>
<path d="M30.1134 127.292C30.1616 127.381 27.3644 129.127 23.8182 131.196C20.272 133.264 17.3925 134.866 17.3444 134.783C17.2963 134.701 20.0934 132.955 23.6396 130.886C27.1858 128.818 30.0585 127.21 30.1134 127.292Z" fill="#263238"/>
<path d="M16.6848 143.772C16.3549 143.772 12.7125 154.521 16.1968 161.64C16.5473 162.328 17.7637 163.963 19.2826 166.293C26.4987 177.365 44.7932 202.161 45.343 205.975C46.0303 210.593 57.8166 258.893 57.8166 258.893H67.4381L59.3491 203.783L47.2948 151.504L16.6848 143.772Z" fill="#FFBE9D"/>
<path d="M47.6866 216.709C48.3672 216.085 48.9008 215.317 49.249 214.461C49.5972 213.606 49.7513 212.684 49.7002 211.761C49.6177 208.449 47.6797 200.545 47.6797 200.545L44.5802 202.442C44.5802 202.442 47.0199 208.93 47.1368 210.964C47.2742 213.239 46.8481 213.981 46.8481 213.981L47.6866 216.709Z" fill="#EB996E"/>
<path d="M22.5814 170.61L32.7596 208.408L0.960571 241.472L7.6475 249.416C7.6475 249.416 46.7107 217.391 47.4186 212.786C48.2295 207.529 38.7043 170.177 38.7043 170.177L22.5814 170.61Z" fill="#FFBE9D"/>
<path d="M9.52357 248.44L2.38306 239.994L0.5 241.774L2.91224 245.052C4.57538 247.237 10.3002 254.488 11.9152 255.525C13.7158 256.68 9.52357 248.44 9.52357 248.44Z" fill="#1579AD"/>
<path d="M12.4377 255.389C12.5064 255.327 9.91548 252.207 6.65105 248.413C3.38662 244.62 0.67199 241.603 0.603265 241.665C0.53454 241.726 3.12547 244.846 6.3899 248.64C9.65433 252.434 12.369 255.451 12.4377 255.389Z" fill="#263238"/>
<path d="M2.40366 243.863C2.44489 243.863 2.53424 243.691 2.63733 243.382C2.76731 242.964 2.82086 242.527 2.79539 242.09C2.76787 241.635 2.58603 241.204 2.27995 240.867C2.03254 240.619 1.81263 240.564 1.79888 240.599C1.78514 240.633 1.92946 240.77 2.0944 241.018C2.30257 241.35 2.42753 241.727 2.45864 242.117C2.47609 242.524 2.45538 242.931 2.39678 243.334C2.36242 243.65 2.35555 243.856 2.40366 243.863Z" fill="#263238"/>
<path d="M9.83281 249.1C9.83281 249.203 9.46857 249.21 9.05622 249.203C8.64387 249.196 8.30712 249.168 8.29337 249.072C8.27963 248.976 8.61638 248.832 9.06309 248.839C9.50981 248.845 9.85343 249.004 9.83281 249.1Z" fill="#263238"/>
<path d="M10.2383 249.891C10.2383 249.994 9.89468 250.062 9.49608 250.055C9.09747 250.049 8.80883 249.952 8.7676 249.849C8.72636 249.746 9.0906 249.677 9.50983 249.691C9.92905 249.705 10.2452 249.794 10.2383 249.891Z" fill="#263238"/>
<path d="M10.5545 250.592C10.5545 250.695 10.3002 250.777 9.99095 250.825C9.68169 250.873 9.41366 250.866 9.38617 250.77C9.35868 250.674 9.59922 250.523 9.93597 250.475C10.2727 250.427 10.5545 250.495 10.5545 250.592Z" fill="#263238"/>
<path d="M9.75711 249.169C9.84033 248.79 10.0123 248.437 10.2588 248.138C10.4975 247.783 10.8005 247.475 11.1522 247.231C11.3636 247.084 11.5951 246.968 11.8395 246.887C11.9797 246.842 12.1254 246.817 12.2724 246.812C12.3629 246.811 12.4525 246.828 12.5363 246.863C12.62 246.897 12.6962 246.947 12.7604 247.011C12.8605 247.159 12.8992 247.339 12.8684 247.515C12.8376 247.691 12.7398 247.848 12.5955 247.952C12.3959 248.108 12.1819 248.244 11.9563 248.358C11.587 248.555 11.2006 248.718 10.8017 248.846C10.4483 248.998 10.0663 249.073 9.68152 249.066C10.0082 248.877 10.3537 248.722 10.7124 248.605C11.0827 248.449 11.4431 248.27 11.7914 248.069C11.9894 247.953 12.1799 247.824 12.3618 247.684C12.5267 247.554 12.5748 247.341 12.4924 247.251C12.4099 247.162 12.1694 247.155 11.9426 247.251C11.7274 247.319 11.5218 247.413 11.3309 247.533C11.0041 247.752 10.7122 248.018 10.465 248.323C10.0389 248.825 9.80522 249.196 9.75711 249.169Z" fill="#263238"/>
<path d="M9.83289 248.969C10.1836 248.796 10.5689 248.705 10.96 248.701C11.386 248.658 11.8159 248.672 12.2383 248.743C12.4934 248.783 12.7426 248.855 12.9805 248.956C13.1172 249.003 13.245 249.072 13.3585 249.162C13.4367 249.215 13.4985 249.289 13.5372 249.375C13.5643 249.428 13.5785 249.487 13.5785 249.547C13.5785 249.606 13.5643 249.665 13.5372 249.718C13.4476 249.852 13.3285 249.964 13.1892 250.045C13.0498 250.126 12.8938 250.174 12.7331 250.186C12.4719 250.234 12.204 250.234 11.9427 250.186C11.5231 250.099 11.1165 249.958 10.7332 249.767C10.0459 249.45 9.79852 249.045 9.83976 249.017C10.161 249.21 10.4938 249.382 10.8363 249.533C11.2131 249.676 11.6017 249.787 11.9977 249.863C12.2257 249.895 12.457 249.895 12.685 249.863C12.8904 249.842 13.0811 249.747 13.221 249.595C13.2897 249.595 13.0698 249.375 12.8499 249.299C12.6286 249.205 12.3983 249.134 12.1627 249.086C11.7669 249.006 11.3637 248.969 10.96 248.976C10.5848 249.007 10.2077 249.004 9.83289 248.969Z" fill="#263238"/>
<path d="M9.38619 248.268C9.28998 248.344 7.54436 246.619 5.62694 244.324C3.70952 242.028 2.29379 240.063 2.39 239.994C2.48622 239.925 4.06001 241.774 5.97743 244.063C7.89486 246.351 9.48241 248.193 9.38619 248.268Z" fill="#263238"/>
<path d="M67.8092 258.9L57.6792 258.79L57.796 261.972H58.4833C61.4247 262.02 73.4378 262.013 75.3758 261.388C77.5132 260.701 67.8092 258.9 67.8092 258.9Z" fill="#1579AD"/>
<path d="M75.5819 260.908C75.5819 260.812 71.5958 260.908 66.6889 261.107C61.7819 261.306 57.8165 261.561 57.8165 261.65C57.8165 261.739 61.8026 261.65 66.7095 261.451C71.6165 261.251 75.5819 260.997 75.5819 260.908Z" fill="#263238"/>
<path d="M61.0191 261.484C61.0603 261.45 60.9641 261.271 60.7648 260.996C60.5012 260.63 60.17 260.317 59.7889 260.076C59.38 259.815 58.8983 259.692 58.4144 259.725C58.0433 259.759 57.8509 259.904 57.8715 259.938C57.8921 259.972 58.0983 259.938 58.4213 259.938C58.836 259.975 59.2362 260.11 59.5896 260.33C59.9419 260.561 60.269 260.828 60.5655 261.127C60.8129 261.381 60.9778 261.512 61.0191 261.484Z" fill="#263238"/>
<path d="M68.5652 259.038C68.6339 259.12 68.414 259.388 68.1391 259.725C67.8642 260.062 67.6168 260.295 67.5205 260.247C67.4243 260.199 67.5205 259.842 67.8436 259.491C68.1666 259.141 68.5033 258.989 68.5652 259.038Z" fill="#263238"/>
<path d="M69.4998 259.236C69.5754 259.305 69.4173 259.607 69.1493 259.924C68.8812 260.24 68.5857 260.425 68.4964 260.37C68.407 260.315 68.5651 260.013 68.8537 259.683C69.1424 259.353 69.4242 259.168 69.4998 259.236Z" fill="#263238"/>
<path d="M70.2969 259.423C70.3862 259.478 70.2969 259.732 70.1251 260.007C69.9533 260.282 69.7746 260.488 69.6784 260.447C69.5822 260.405 69.6097 260.124 69.7883 259.828C69.967 259.533 70.2144 259.361 70.2969 259.423Z" fill="#263238"/>
<path d="M68.5721 259.169C68.3196 258.87 68.1386 258.517 68.043 258.138C67.9061 257.731 67.8456 257.302 67.8643 256.873C67.8835 256.614 67.9414 256.359 68.0361 256.117C68.0897 255.979 68.1639 255.849 68.256 255.732C68.3156 255.657 68.3904 255.594 68.4756 255.549C68.5609 255.504 68.6546 255.478 68.7508 255.471C68.9331 255.471 69.1079 255.544 69.2368 255.672C69.3657 255.801 69.4381 255.976 69.4381 256.158C69.4339 256.412 69.4063 256.666 69.3556 256.914C69.2757 257.327 69.1583 257.732 69.0051 258.124C68.8956 258.499 68.7056 258.846 68.4484 259.141C68.4992 258.763 68.5985 258.394 68.744 258.041C68.8565 257.656 68.9437 257.263 69.0051 256.866C69.0402 256.639 69.0586 256.409 69.0601 256.179C69.0601 255.973 68.9089 255.801 68.7783 255.815C68.6477 255.829 68.4897 256 68.4003 256.227C68.3112 256.435 68.2533 256.655 68.2285 256.88C68.1924 257.272 68.2226 257.667 68.3179 258.048C68.4432 258.411 68.5285 258.787 68.5721 259.169Z" fill="#263238"/>
<path d="M68.4552 258.99C68.5441 258.601 68.723 258.238 68.9775 257.931C69.2198 257.578 69.5062 257.257 69.8297 256.976C70.043 256.804 70.2732 256.654 70.5169 256.529C70.6531 256.453 70.7987 256.395 70.9499 256.357C71.0469 256.333 71.1485 256.333 71.2454 256.357C71.3068 256.368 71.365 256.392 71.4161 256.428C71.4671 256.463 71.5097 256.51 71.5409 256.564C71.5936 256.718 71.6086 256.883 71.5847 257.044C71.5608 257.206 71.4987 257.359 71.4035 257.491C71.2558 257.721 71.0726 257.925 70.8606 258.096C70.5031 258.368 70.1158 258.599 69.706 258.783C69.3397 259.006 68.9061 259.091 68.4827 259.024C68.8603 258.896 69.2278 258.739 69.5823 258.557C69.9499 258.362 70.2975 258.132 70.62 257.869C70.7959 257.718 70.9467 257.539 71.0667 257.34C71.1264 257.256 71.1687 257.162 71.1911 257.061C71.2136 256.961 71.2157 256.857 71.1973 256.756C71.1973 256.687 70.9087 256.756 70.7025 256.866C70.4832 256.975 70.2759 257.106 70.084 257.258C69.7567 257.517 69.4573 257.809 69.1906 258.131C68.9697 258.437 68.7237 258.724 68.4552 258.99Z" fill="#263238"/>
<path d="M67.5685 258.9C65.9584 259.139 64.3291 259.225 62.7028 259.154C61.0759 259.204 59.4479 259.112 57.837 258.879C59.4556 258.75 61.0807 258.722 62.7028 258.796C64.3254 258.747 65.9494 258.781 67.5685 258.9Z" fill="#263238"/>
<path d="M37.5291 98.5517C37.481 96.3869 37.4535 94.4282 37.4535 94.4282C37.4535 94.4282 41.6938 93.9815 41.9481 89.7824C42.2024 85.5834 41.9481 75.8863 41.9481 75.8863L34.2303 72.1133L25.7428 78.5459L26.2376 98.7854C26.277 100.256 26.8886 101.653 27.9423 102.68C28.996 103.707 30.4087 104.282 31.8799 104.283C32.6288 104.283 33.3702 104.135 34.061 103.846C34.7518 103.557 35.3783 103.133 35.9039 102.6C36.4296 102.066 36.844 101.434 37.123 100.739C37.402 100.044 37.54 99.3005 37.5291 98.5517Z" fill="#FFBE9D"/>
<path d="M26.3062 81.8102C26.3062 81.8102 33.2405 81.123 34.4638 74.869L42.0236 81.8102C42.6537 80.298 42.8111 78.6305 42.4749 77.0271C42.1388 75.4237 41.3249 73.9597 40.1405 72.8279C35.9689 68.4983 33.11 69.3917 31.4743 69.3917C29.9555 69.3917 22.2514 71.0273 19.956 79.7897C19.7911 80.4289 19.6536 82.0027 19.5505 82.7174L26.3062 81.8102Z" fill="#263238"/>
<path d="M41.0271 82.9784C41.0271 83.0845 40.9956 83.1881 40.9367 83.2763C40.8778 83.3644 40.7941 83.4331 40.6961 83.4737C40.5982 83.5143 40.4904 83.5249 40.3864 83.5042C40.2825 83.4835 40.1869 83.4325 40.112 83.3575C40.037 83.2825 39.9859 83.187 39.9653 83.083C39.9446 82.979 39.9552 82.8712 39.9958 82.7733C40.0363 82.6753 40.105 82.5916 40.1932 82.5327C40.2813 82.4738 40.385 82.4424 40.491 82.4424C40.6332 82.4424 40.7695 82.4989 40.8701 82.5994C40.9706 82.6999 41.0271 82.8363 41.0271 82.9784Z" fill="#263238"/>
<path d="M41.5492 82.4152C41.4805 82.4839 41.0819 82.1471 40.5046 82.1128C39.9273 82.0784 39.4875 82.3602 39.4325 82.2846C39.3775 82.209 39.4737 82.1197 39.6593 81.9891C39.9166 81.8236 40.2198 81.7442 40.5252 81.7623C40.8306 81.7804 41.122 81.8961 41.3568 82.0922C41.5286 82.2227 41.5836 82.3602 41.5492 82.4152Z" fill="#263238"/>
<path d="M34.7801 82.9784C34.7801 83.0845 34.7487 83.1881 34.6898 83.2763C34.6309 83.3644 34.5472 83.4331 34.4492 83.4737C34.3513 83.5143 34.2435 83.5249 34.1395 83.5042C34.0355 83.4835 33.94 83.4325 33.865 83.3575C33.79 83.2825 33.739 83.187 33.7183 83.083C33.6976 82.979 33.7082 82.8712 33.7488 82.7733C33.7894 82.6753 33.8581 82.5916 33.9462 82.5327C34.0344 82.4738 34.138 82.4424 34.2441 82.4424C34.3862 82.4424 34.5226 82.4989 34.6231 82.5994C34.7236 82.6999 34.7801 82.8363 34.7801 82.9784Z" fill="#263238"/>
<path d="M35.1304 82.4152C35.0617 82.4839 34.6631 82.1472 34.0858 82.1128C33.5085 82.0784 33.0687 82.3602 33.0068 82.2846C32.945 82.209 33.0549 82.1197 33.2405 81.9891C33.4975 81.8233 33.8008 81.7439 34.1061 81.7624C34.4115 81.7809 34.7029 81.8965 34.938 82.0922C35.1098 82.2228 35.1648 82.3602 35.1304 82.4152Z" fill="#263238"/>
<path d="M37.2197 87.2813C37.5302 87.2057 37.8485 87.1665 38.1681 87.1644C38.3124 87.1644 38.4567 87.1644 38.4911 87.027C38.5088 86.8665 38.4802 86.7044 38.4086 86.5596L38.01 85.357C37.7351 84.5048 37.5015 83.7282 37.3228 83.1646C37.2168 82.8621 37.1453 82.5486 37.1097 82.23C37.2865 82.5017 37.4274 82.795 37.529 83.1028C37.7283 83.6595 37.9894 84.4292 38.2643 85.2814C38.4018 85.7006 38.5255 86.1061 38.6492 86.484C38.7338 86.674 38.7531 86.8867 38.7042 87.0888C38.6838 87.1421 38.6506 87.1894 38.6074 87.2266C38.5642 87.2638 38.5124 87.2897 38.4568 87.3019C38.3745 87.311 38.2916 87.311 38.2093 87.3019C37.88 87.3386 37.5472 87.3316 37.2197 87.2813Z" fill="#263238"/>
<path d="M35.309 87.8306C36.2197 88.2112 37.154 88.5326 38.1061 88.7927C37.8959 89.0878 37.5917 89.3028 37.2435 89.4026C36.8952 89.5025 36.5234 89.4813 36.1887 89.3425C34.9517 88.8202 35.309 87.8306 35.309 87.8306Z" fill="#FAFAFA"/>
<path d="M37.4465 94.4553C35.4499 94.3737 33.5184 93.7227 31.8798 92.5791C31.8798 92.5791 33.2543 95.6717 37.4465 95.4999V94.4553Z" fill="#EB996E"/>
<path d="M34.2577 74.3671C34.2577 74.3671 35.7971 77.3429 35.1374 79.5834L41.8793 81.3221C41.8793 81.3221 43.4118 72.7933 34.2577 74.3671Z" fill="#263238"/>
<path d="M19.5161 82.7173C19.5161 82.7173 18.3272 91.7408 26.5055 93.4864L26.3062 81.8032L19.5161 82.7173Z" fill="#263238"/>
<path d="M34.8556 71.6183C35.5527 71.5497 36.2563 71.6342 36.9174 71.8658C38.57 72.3255 40.0634 73.2332 41.2325 74.4885C42.4017 75.7437 43.2011 77.2977 43.5425 78.9788C43.7233 79.651 43.7561 80.3544 43.6387 81.0405C43.5562 81.0405 43.5493 80.2433 43.2194 79.0269C42.8106 77.4398 42.0119 75.9798 40.8957 74.7797C39.7796 73.5795 38.3814 72.6771 36.828 72.1544C35.6391 71.7627 34.8488 71.6939 34.8556 71.6183Z" fill="#263238"/>
<path d="M36.8417 82.7175C36.8417 82.7175 36.8417 82.422 36.6905 81.9203C36.4962 81.2165 36.0731 80.5975 35.4878 80.161C35.0145 79.8089 34.4527 79.5954 33.8651 79.5442C33.2774 79.493 32.6871 79.6061 32.1601 79.8709C31.633 80.1358 31.19 80.5419 30.8804 81.0439C30.5708 81.546 30.4068 82.1243 30.4068 82.7141C30.4068 83.304 30.5708 83.8822 30.8804 84.3843C31.19 84.8863 31.633 85.2925 32.1601 85.5573C32.6871 85.8222 33.2774 85.9353 33.8651 85.8841C34.4527 85.8328 35.0145 85.6193 35.4878 85.2672C36.0731 84.8307 36.4962 84.2117 36.6905 83.5079C36.8279 83.0062 36.8142 82.7107 36.8417 82.7175C36.8493 82.7861 36.8493 82.8552 36.8417 82.9237C36.8434 83.1274 36.8203 83.3304 36.773 83.5285C36.6285 84.1558 36.3047 84.7276 35.841 85.1742C35.3773 85.6208 34.7938 85.923 34.1614 86.0438C33.5335 86.1635 32.8845 86.1039 32.2889 85.8717C31.6933 85.6396 31.1752 85.2443 30.7939 84.7312C30.3615 84.1476 30.1281 83.4405 30.1281 82.7141C30.1281 81.9878 30.3615 81.2806 30.7939 80.697C31.1752 80.1839 31.6933 79.7887 32.2889 79.5565C32.8845 79.3243 33.5335 79.2647 34.1614 79.3844C34.6799 79.4847 35.1673 79.7061 35.584 80.0304C36.1848 80.4971 36.605 81.1577 36.773 81.8997C36.82 82.0978 36.8431 82.3009 36.8417 82.5045C36.849 82.5753 36.849 82.6467 36.8417 82.7175Z" fill="#263238"/>
<path d="M44.4496 82.7179C44.4496 82.7179 44.4496 82.4224 44.3053 81.9207C44.111 81.2169 43.6879 80.5978 43.1026 80.1613C42.7622 79.9085 42.375 79.7256 41.9635 79.6232C41.552 79.5209 41.1243 79.501 40.7051 79.565C40.2859 79.6289 39.8835 79.7752 39.5212 79.9955C39.1589 80.2158 38.8439 80.5058 38.5942 80.8486C38.2176 81.3641 38.0044 81.9807 37.9822 82.6187C37.9599 83.2567 38.1297 83.8867 38.4695 84.4272C38.8093 84.9676 39.3035 85.3936 39.8882 85.6501C40.4728 85.9065 41.121 85.9815 41.7487 85.8655C42.2466 85.7821 42.7176 85.5819 43.1232 85.2813C43.7085 84.8448 44.1317 84.2258 44.3259 83.522C44.4565 83.0203 44.4427 82.7248 44.4702 82.7316C44.4806 82.8 44.4806 82.8695 44.4702 82.9378C44.472 83.1414 44.4489 83.3445 44.4015 83.5426C44.2496 84.1643 43.9237 84.7298 43.4619 85.1729C43.0002 85.6161 42.4217 85.9184 41.7943 86.0447C41.1669 86.1709 40.5165 86.1157 39.9193 85.8855C39.3221 85.6554 38.8029 85.2599 38.4224 84.7453C37.99 84.1617 37.7566 83.4546 37.7566 82.7282C37.7566 82.0019 37.99 81.2947 38.4224 80.7111C38.8182 80.1655 39.3726 79.7551 40.01 79.5359C40.5796 79.3284 41.1952 79.2809 41.7899 79.3985C42.3059 79.5001 42.7908 79.7214 43.2057 80.0445C43.8082 80.5108 44.2307 81.1713 44.4015 81.9138C44.4485 82.1119 44.4716 82.315 44.4702 82.5186C44.4723 82.5856 44.4654 82.6527 44.4496 82.7179Z" fill="#263238"/>
<path d="M37.8657 82.8204C37.8657 82.8823 37.5908 82.9373 37.2609 82.9373C36.931 82.9373 36.6561 82.8823 36.6561 82.8204C36.6561 82.7586 36.931 82.7036 37.2609 82.7036C37.5908 82.7036 37.8657 82.7517 37.8657 82.8204Z" fill="#263238"/>
<path d="M30.3885 83.4048C29.441 83.7087 28.4714 83.9385 27.4883 84.092C26.524 84.324 25.5427 84.4779 24.5537 84.5525C25.4987 84.248 26.4661 84.0182 27.447 83.8652C28.4142 83.6366 29.3976 83.4826 30.3885 83.4048Z" fill="#263238"/>
<path d="M25.8458 88.3529C25.5021 88.5632 25.0964 88.6486 24.6971 88.5948C24.2978 88.5409 23.9292 88.3512 23.6534 88.0574C23.3885 87.7513 23.1994 87.387 23.1015 86.9942C23.0036 86.6014 22.9996 86.191 23.0899 85.7963C23.1542 85.3119 23.3998 84.8698 23.7771 84.5593C24.0762 84.4217 24.4048 84.3604 24.7334 84.3808C25.062 84.4012 25.3804 84.5026 25.6602 84.6761L25.8458 88.3529Z" fill="#FFBE9D"/>
<path d="M24.9043 87.6724C24.9043 87.6174 24.6913 87.583 24.4438 87.4043C24.2875 87.2922 24.163 87.1414 24.0823 86.9668C24.0016 86.7921 23.9675 86.5996 23.9834 86.4078C24.0002 86.2153 24.0683 86.0309 24.1807 85.8737C24.2932 85.7165 24.4458 85.5924 24.6225 85.5144C24.8974 85.377 25.1173 85.3838 25.1173 85.3289C25.1173 85.2739 24.9043 85.1777 24.5332 85.2739C24.2896 85.3459 24.0731 85.4893 23.9118 85.6855C23.7504 85.8817 23.6515 86.1217 23.6278 86.3746C23.6042 86.6276 23.6568 86.8818 23.779 87.1045C23.9012 87.3273 24.0872 87.5083 24.3133 87.6243C24.6638 87.7823 24.9043 87.7205 24.9043 87.6724Z" fill="#EB996E"/>
<path d="M17.475 141.648C17.475 141.648 10.1008 149.304 11.6197 165.702C13.1385 182.1 15.1315 204.057 15.1315 204.057C15.1315 204.057 24.6155 195.501 29.4331 199.157C34.2508 202.814 39.0546 205.803 45.3429 201.838C53.9198 196.408 63.3214 199.996 63.3214 199.996L48.2019 145.779L17.475 141.648Z" fill="#263238"/>
<path d="M27.0552 143.58C27.0759 144.137 26.9702 144.691 26.7459 145.201C26.2801 146.473 25.4508 147.58 24.3612 148.383C23.2658 149.176 21.9599 149.626 20.6088 149.675C20.055 149.734 19.4952 149.663 18.9731 149.469C18.9731 149.407 19.5985 149.524 20.5882 149.428C21.8756 149.315 23.1077 148.853 24.1516 148.091C25.1956 147.329 26.0118 146.297 26.5123 145.105C26.904 144.212 26.9933 143.58 27.0552 143.58Z" fill="#455A64"/>
<path d="M20.4715 143.807C20.3752 143.772 20.4234 143.387 20.5814 142.934C20.7395 142.48 20.9319 142.15 21.0281 142.178C21.1243 142.205 21.0694 142.604 20.9182 143.051C20.767 143.497 20.5608 143.834 20.4715 143.807Z" fill="#455A64"/>
<path d="M18.8428 150.274C18.7831 149.711 18.844 149.142 19.0215 148.604C19.0848 148.044 19.2651 147.503 19.5507 147.017C19.6065 147.577 19.5457 148.144 19.372 148.68C19.31 149.243 19.1297 149.786 18.8428 150.274Z" fill="#455A64"/>
<path d="M17.9974 156.892C17.868 155.775 17.9805 154.643 18.3272 153.573C18.4421 154.126 18.4421 154.697 18.3272 155.25C18.3359 155.814 18.2235 156.375 17.9974 156.892Z" fill="#455A64"/>
<path d="M17.8326 163.566C17.6585 163.027 17.5999 162.458 17.6608 161.896C17.6 161.333 17.6609 160.763 17.8395 160.226C18.013 160.764 18.0738 161.333 18.0182 161.896C18.0781 162.459 18.0147 163.029 17.8326 163.566Z" fill="#455A64"/>
<path d="M18.2448 170.232C18.0298 169.709 17.9245 169.147 17.9356 168.582C17.8285 168.027 17.8426 167.455 17.9768 166.905C18.1944 167.425 18.2998 167.985 18.2861 168.548C18.3883 169.106 18.3743 169.679 18.2448 170.232Z" fill="#455A64"/>
<path d="M19.0902 176.856C18.8375 176.347 18.6969 175.789 18.6779 175.221C18.542 174.672 18.5233 174.101 18.6229 173.544C18.8707 174.053 19.011 174.607 19.0353 175.173C19.1668 175.725 19.1855 176.297 19.0902 176.856Z" fill="#455A64"/>
<path d="M20.3066 183.44C20.0239 182.949 19.8504 182.403 19.798 181.838C19.6338 181.298 19.5823 180.73 19.6469 180.168C20.1028 181.199 20.3369 182.313 20.3341 183.44H20.3066Z" fill="#455A64"/>
<path d="M21.8185 189.914C21.5223 189.432 21.3304 188.894 21.255 188.333C21.0649 187.8 20.99 187.234 21.0351 186.67C21.3313 187.152 21.5232 187.69 21.5986 188.251C21.7891 188.783 21.864 189.35 21.8185 189.914Z" fill="#455A64"/>
<path d="M23.0555 194.814C22.9593 194.814 22.7875 194.485 22.6707 194.024C22.5538 193.564 22.5332 193.172 22.6294 193.151C22.7256 193.131 22.8975 193.481 23.0143 193.942C23.1311 194.402 23.1517 194.794 23.0555 194.814Z" fill="#455A64"/>
<path d="M40.1475 158.7C40.0004 158.021 39.9084 157.331 39.8726 156.638C39.742 155.36 39.5702 153.6 39.4327 151.648C39.2953 149.697 39.2266 147.93 39.2266 146.645C39.1954 145.956 39.2276 145.266 39.3228 144.583C39.4323 145.265 39.4852 145.955 39.4808 146.645C39.5427 147.924 39.6458 149.683 39.7901 151.635C39.9344 153.586 40.0581 155.346 40.12 156.624C40.1926 157.314 40.2018 158.008 40.1475 158.7Z" fill="#455A64"/>
<path d="M41.2883 144.906C41.4272 145.609 41.5077 146.321 41.5288 147.037C41.6388 148.349 41.7556 150.164 41.8656 152.177C41.9137 153.174 41.9618 154.129 42.003 155.009C42.0887 155.799 42.0019 156.599 41.7488 157.352C41.5577 157.868 41.19 158.299 40.711 158.569C40.3674 158.741 40.1475 158.734 40.1475 158.713C40.1475 158.692 40.3468 158.644 40.6423 158.452C41.0502 158.156 41.3554 157.741 41.5151 157.263C41.7141 156.536 41.7678 155.777 41.6732 155.029C41.625 154.143 41.5632 153.194 41.5082 152.198C41.3982 150.184 41.3158 148.363 41.2814 147.05C41.2245 146.337 41.2268 145.62 41.2883 144.906Z" fill="#455A64"/>
<path d="M49.817 151.552C49.4049 151.557 48.9982 151.458 48.6349 151.264C47.7229 150.869 46.9208 150.258 46.2983 149.484C45.6752 148.708 45.2485 147.793 45.0544 146.817C44.9586 146.417 44.9586 146 45.0544 145.601C45.1715 145.982 45.2656 146.37 45.3361 146.762C45.5848 147.672 46.0182 148.522 46.6093 149.257C47.2005 149.992 47.9368 150.598 48.7724 151.037C49.1289 151.191 49.4775 151.363 49.817 151.552Z" fill="#455A64"/>
<path d="M63.074 196.354C62.9008 196.348 62.7284 196.327 62.5586 196.292L61.081 196.066C59.2598 195.795 57.4236 195.637 55.583 195.591C52.8754 195.516 50.1725 195.859 47.5697 196.608C46.1058 197.028 44.6626 197.729 43.0957 198.347C42.2954 198.664 41.4637 198.894 40.6147 199.034C39.724 199.181 38.8123 199.134 37.9413 198.897C36.1751 198.409 34.7525 197.337 33.3093 196.54C31.9169 195.776 30.4111 195.24 28.849 194.952C27.4307 194.691 25.9844 194.617 24.5469 194.732C23.2965 194.855 22.0621 195.106 20.8632 195.481C19.1274 196.048 17.5007 196.905 16.0525 198.017C15.6541 198.313 15.2754 198.635 14.9185 198.979C14.7946 199.104 14.6614 199.219 14.5199 199.323C14.6225 199.18 14.74 199.049 14.8704 198.931C15.2069 198.562 15.5723 198.219 15.9631 197.907C17.3952 196.739 19.0244 195.836 20.7739 195.241C21.986 194.842 23.2368 194.573 24.5056 194.437C25.9691 194.309 27.4428 194.372 28.8903 194.622C30.4934 194.909 32.0392 195.455 33.4673 196.237C34.938 197.041 36.3469 198.093 38.0238 198.553C39.7007 199.014 41.46 198.588 42.9582 197.997C44.4564 197.406 45.9684 196.691 47.4666 196.272C50.1023 195.527 52.8394 195.204 55.5761 195.316C57.4203 195.386 59.2574 195.583 61.0741 195.908C61.7132 196.024 62.2081 196.121 62.5448 196.203C62.7269 196.231 62.9048 196.281 63.074 196.354Z" fill="#455A64"/>
<path d="M66.8539 134.776C68.4965 134.419 71.6234 133.134 71.6647 132.714C71.7952 131.931 68.9157 132.852 68.1116 133.01C67.3075 133.168 63.0191 132.391 63.0191 132.391C61.9676 131.807 60.9573 131.196 60.1189 130.701C59.7419 130.332 59.4772 129.863 59.3556 129.35C59.2339 128.837 59.2603 128.299 59.4316 127.801C59.844 126.584 59.8715 125.567 59.6584 125.182C59.5709 125.059 59.4473 124.965 59.3047 124.914C59.162 124.864 59.0072 124.858 58.8613 124.899C58.7155 124.94 58.5857 125.024 58.4898 125.141C58.3938 125.258 58.3363 125.402 58.3252 125.553C58.1424 126.323 57.8533 127.063 57.4661 127.752C57.168 128.329 56.7754 128.852 56.3047 129.299C55.7824 129.787 55.315 130.185 54.9302 130.515C51.2878 131.168 40.9515 132.646 31.8799 130.33C30.746 129.825 29.7631 129.034 29.0278 128.034L18.8221 134.178C23.5573 149.201 57.9953 139.498 57.9953 139.498L67.4312 136.302C67.4312 136.302 72.6818 135.017 72.6818 134.57C72.7093 133.862 68.8263 134.749 66.8539 134.776Z" fill="#FFBE9D"/>
<path d="M37.4602 98.8606C37.4987 99.0881 37.4987 99.3204 37.4602 99.5478C37.3679 100.204 37.1731 100.842 36.8829 101.438C36.4587 102.332 35.8216 103.108 35.0274 103.699C34.037 104.43 32.8192 104.785 31.5911 104.702C30.3679 104.638 29.2047 104.153 28.2992 103.328C27.5738 102.652 27.0201 101.814 26.6842 100.881C26.4552 100.261 26.3231 99.61 26.2924 98.9499C26.2723 98.7198 26.2885 98.4878 26.3406 98.2627C26.4257 99.1363 26.622 99.9954 26.9247 100.819C27.276 101.695 27.8211 102.48 28.5191 103.115C29.3762 103.884 30.469 104.339 31.6186 104.407C32.7651 104.482 33.9028 104.162 34.8418 103.5C35.6035 102.943 36.2267 102.219 36.663 101.383C37.0451 100.583 37.3134 99.7344 37.4602 98.8606Z" fill="#263238"/>
</svg>
