<svg width="292" height="229" viewBox="0 0 292 229" fill="none" xmlns="http://www.w3.org/2000/svg">
<path fill-rule="evenodd" clip-rule="evenodd" d="M201.026 34.6508C201.026 34.6508 239.147 34.3701 254.194 49.3868L254.195 49.3937L254.195 49.3868C254.195 49.3461 254.212 49.304 254.249 49.2661C254.51 49.6801 254.792 50.0829 255.096 50.4703C268.517 67.5332 256.81 88.9946 244.761 102.592C230.877 118.262 213.083 130.585 194.826 140.704C190.577 135.732 186.658 130.503 183.061 125.017C182.347 123.929 181.639 122.826 180.927 121.718C178.028 117.209 175.08 112.622 171.563 108.651C168.027 104.658 163.738 103.606 158.479 103.408C152.234 103.171 145.695 103.374 139.493 103.565L139.492 103.565C136.493 103.658 133.572 103.748 130.802 103.785C128.436 103.816 125.456 102.63 123.693 101.527C123.291 101.277 123.09 100.796 123.084 100.086C123.053 95.8209 123.829 91.7018 125.412 87.7301C125.429 87.6936 125.452 87.6599 125.48 87.6333C125.723 87.4273 125.993 87.2218 126.27 87.0115C126.902 86.5313 127.567 86.0261 128.014 85.4327C129.891 82.9444 130.805 80.1207 130.758 76.9615C130.751 76.5377 130.814 76.1349 130.946 75.7602C132.311 71.8586 132.927 67.8322 132.789 63.6794C132.669 60.1343 131.522 57.5899 129.936 54.2469C128.962 52.1965 127.489 50.6246 125.516 49.5314C125.37 49.4514 125.346 49.2535 125.47 49.1412C126.278 48.4072 126.894 47.6971 127.32 47.0094C127.602 46.5519 127.96 45.7828 128.396 44.705C132.271 43.464 136.17 42.2897 140.093 41.182L140.079 40.9774L140.095 40.9736C140.258 40.9329 141.714 40.5701 144.245 40.0367C144.889 39.8634 145.533 39.6918 146.178 39.5221L146.174 39.6407C156.028 37.6676 176.818 34.2488 201.026 34.6508ZM58.6184 81.0091C58.868 79.8077 59.0979 78.6204 59.3094 77.45C45.2585 86.6607 32.247 97.4644 21.9302 110.769C12.2354 123.265 5.13097 140.505 14.259 155.44C15.0543 156.747 16.1288 158.178 17.4798 159.742C17.8591 160.18 17.9705 160.122 17.8154 159.562C16.1881 153.769 16.0033 147.956 17.2598 142.122C18.1623 137.914 20.0787 134.069 22.2673 130.246C25.921 123.856 29.9893 118.05 34.4694 112.833L34.5162 112.779C35.1534 112.033 36.4153 110.557 37.3109 111.966C37.6662 112.529 37.4984 112.996 37.1332 113.49C31.2923 121.406 27.6484 130.209 25.6517 139.882C25.0453 142.823 24.6772 144.731 24.5489 145.601C23.2417 154.392 25.952 162.341 32.2695 168.564C33.5627 160.526 37.583 153.911 41.8333 147.143C42.6215 145.89 43.3182 144.649 43.9217 143.421C49.0477 132.99 54.2751 122.611 59.6041 112.282C60.4079 110.724 61.2216 109.197 62.0465 107.7C62.0691 107.66 62.079 107.617 62.0761 107.573C61.9859 105.152 61.7377 102.757 61.3358 100.379C60.9784 98.2728 60.4438 96.2664 59.919 94.2967C58.7523 89.9177 57.6341 85.7205 58.6184 81.0091ZM49.09 101.313C48.4624 102.875 44.6818 108.77 42.5947 105.996C41.6598 104.754 42.9628 102.928 43.9415 102.024C44.7255 101.303 46.7167 99.5723 47.9167 99.4951C48.9151 99.432 49.4284 100.475 49.09 101.313ZM79.5918 105.252C79.6411 104.889 79.7835 104.848 80.0204 105.131C82.2964 107.847 85.0773 109.876 88.3615 111.221C88.7635 111.385 88.7592 111.535 88.3475 111.674C88.0288 111.784 87.7481 111.857 87.5126 111.892C87.1906 111.943 86.8635 111.993 86.5328 112.043C82.7552 112.62 78.5175 113.267 76.0551 116.415C76.041 116.435 76.0226 116.444 76.0015 116.442C75.9747 116.439 75.9606 116.408 75.9719 116.376C76.1333 115.936 76.2259 115.474 76.3176 115.016L76.3176 115.016C76.4318 114.446 76.5445 113.884 76.7869 113.381C77.705 111.48 78.3156 110.115 78.6202 109.278C79.0742 108.036 79.3971 106.693 79.5918 105.252ZM72.7638 175.95L84.5372 175.366C84.54 175.206 84.5302 175.013 84.5048 174.782C83.8632 169.12 83.2864 163.45 82.7731 157.773C82.7308 157.319 82.6095 157.296 82.405 157.703C79.321 163.854 76.1073 169.936 72.7638 175.95Z" fill="#C5DCFF"/>
<path d="M201.026 34.6508H146.548V85.5029H201.026V34.6508Z" fill="#3D1505"/>
<path d="M128.79 0.267965C136.069 -1.24354 142.204 3.82989 143.799 10.7067C144.657 14.402 143.685 17.4404 140.883 19.8277C140.842 19.8613 140.815 19.9105 140.803 19.961C140.291 22.3019 138.855 24.3523 136.888 25.767C134.523 27.4652 131.322 28.5177 128.517 27.4315C126.866 26.7943 125.415 26.0884 124.164 25.3137C123.778 25.0737 123.594 25.1804 123.618 25.6365C123.686 26.8603 123.675 27.8904 122.6 28.6342C122.142 28.9514 121.655 29.2181 121.137 29.4342C121.022 29.4819 120.888 29.437 120.829 29.3275C120.712 29.1114 120.681 28.8882 120.735 28.6595C120.98 27.5999 122.368 27.496 122.059 25.9354C121.921 25.2253 121.801 24.5222 121.706 23.8218C121.696 23.7461 121.65 23.6815 121.585 23.6422C115.284 20.0634 113.478 12.1424 117.634 6.27608C118.715 4.74773 120.589 2.92186 122.265 2.11348C122.72 1.89314 123.008 2.15278 123.453 2.01945C125.261 1.47913 127.182 0.601983 128.79 0.267965ZM124.999 17.5008C124.948 17.5934 125.012 17.7043 125.116 17.7071L127.24 17.7899C127.341 17.7927 127.415 17.686 127.371 17.5934L126.388 15.4924C126.341 15.3914 126.198 15.383 126.143 15.4826L124.999 17.5008ZM133.475 9.66397C133.429 9.838 133.56 10.0078 133.741 10.0078L134.876 10.005C135.056 10.005 135.187 9.83519 135.138 9.66117L134.568 7.55741C134.495 7.28655 134.111 7.28655 134.038 7.55741L133.475 9.66397ZM131.441 9.32996C131.472 9.41697 131.551 9.48012 131.645 9.48995L132.356 9.56994C132.473 9.58257 132.58 9.5124 132.614 9.40293L133.059 8.00792C133.167 7.6739 133.057 7.57425 132.734 7.71039L131.504 8.22685C131.427 8.26054 131.37 8.33071 131.357 8.41351C131.307 8.72507 131.336 9.03243 131.441 9.32996ZM139.376 16.5506C138.757 17.7814 137.988 18.9084 137.064 19.9329C136.765 20.2641 136.83 20.3708 137.262 20.2501C138.082 20.0199 138.869 19.6999 139.618 19.2901C139.696 19.2494 139.745 19.1666 139.745 19.0796L139.742 16.6348C139.744 16.0875 139.621 16.0594 139.376 16.5506ZM123.149 16.9029C123.267 17.0053 123.451 16.9703 123.524 16.8299C124.208 15.4953 125.099 14.2644 126.195 13.1375C126.329 12.9999 126.387 12.7796 126.368 12.4807C126.361 12.3768 126.288 12.2898 126.188 12.2631C124.881 11.9165 123.892 11.1656 123.228 10.012C123.135 9.85203 122.906 9.84782 122.809 10.005C122.064 11.2092 121.696 12.5172 121.703 13.9304C121.709 15.0854 122.191 16.0763 123.149 16.9029ZM130.472 7.03534C130.54 7.09147 130.635 7.10551 130.717 7.07463L133.069 6.15678C133.206 6.10345 133.264 5.94627 133.196 5.81715C132.435 4.38705 128.957 2.22435 127.336 2.89941C125.536 3.65025 124.35 4.98351 123.776 6.8978C123.638 7.35813 123.762 7.44795 124.151 7.16445C125.88 5.90697 128.678 5.55752 130.472 7.03534ZM128.864 17.338C129.108 17.3548 129.351 17.3253 129.592 17.2538C130.692 16.924 130.668 16.7976 129.521 16.8762C129.276 16.8931 129.025 16.8889 128.77 16.8664C128.646 16.8566 128.543 16.9632 128.561 17.0867C128.582 17.2439 128.682 17.3267 128.864 17.338ZM131.233 14.3585C131.253 13.6006 130.734 13.0912 129.967 13.4911C129.894 13.5304 129.806 13.5276 129.736 13.4883C129.457 13.3312 129.383 13.1122 129.517 12.8315C129.547 12.7712 129.602 12.7221 129.668 12.7024C130.153 12.5593 130.569 12.3052 130.915 11.9389C130.934 11.9193 130.941 11.8954 130.937 11.8688C130.84 11.3846 128.008 13.5739 127.777 13.7859C127.728 13.8322 127.699 13.8953 127.697 13.9599C127.653 16.5408 131.18 16.6405 131.233 14.3585ZM123.869 22.4731C124.978 23.1538 126.265 23.7839 127.609 23.6548C129.55 23.4682 131.362 22.8577 133.038 21.8276C133.37 21.6241 133.346 21.4767 132.968 21.3841C131.166 20.9532 129.626 20.0662 128.347 18.726C128.293 18.6698 128.216 18.6432 128.138 18.653C127.016 18.8158 125.889 18.8326 124.761 18.7063C124.637 18.6923 124.525 18.7737 124.498 18.8958L123.761 22.2135C123.735 22.3131 123.781 22.417 123.869 22.4731ZM129.684 9.45626C129.362 9.68923 129.399 9.78046 129.794 9.73555C130.045 9.70467 130.279 9.58959 130.494 9.39171C130.618 9.27803 130.65 9.04506 130.47 8.97488C130.422 8.95243 130.363 8.96085 130.322 8.99173L129.684 9.45626ZM119.929 5.8368C120.63 4.8165 120.55 4.75335 119.688 5.64313C118.595 6.77009 117.996 8.22405 117.892 10.0022C117.879 10.2029 117.965 10.1159 117.989 10.0289C118.387 8.53842 119.034 7.13919 119.929 5.8368ZM116.638 12.287C116.601 12.774 116.604 13.2652 116.648 13.7648C116.845 16.037 117.62 18.0846 118.966 19.9091C118.99 19.9399 119.219 20.1196 119.134 19.9231C118.423 18.3021 117.857 16.6306 117.435 14.9128C117.23 14.082 117.094 13.2048 117.026 12.2856C116.899 10.5495 116.769 10.5495 116.638 12.287ZM136.186 10.266C137.389 10.5664 138.381 11.1839 139.168 12.1172C139.407 12.4007 139.521 12.3572 139.511 11.9867C139.498 11.5502 139.455 11.1165 139.38 10.6857C139.283 10.1355 139.118 9.66117 138.883 9.25838C138.214 8.10475 137.174 7.45356 135.764 7.30059C135.586 7.28094 135.45 7.45356 135.509 7.62057C135.781 8.40369 135.947 9.21207 136.004 10.0485C136.011 10.1524 136.084 10.2408 136.186 10.266ZM134.362 11.7383C132.882 10.5046 132.346 11.4674 131.494 12.5579C131.428 12.6421 131.427 12.7571 131.484 12.8442C132.366 14.1353 132.218 15.2889 131.036 16.3092C130.846 16.472 130.871 16.517 131.112 16.4454C131.16 16.4313 131.214 16.4061 131.27 16.3724C132.878 15.4195 133.985 14.1844 134.595 12.6645C134.745 12.2982 134.667 11.9909 134.362 11.7383ZM124.668 3.47341C125.629 2.76327 125.605 2.6089 124.6 3.01309C124.496 3.05379 124.393 3.10712 124.295 3.16746C120.08 5.81294 118.157 9.67801 118.521 14.7641C118.581 15.6117 118.799 16.4173 119.171 17.1794C119.834 18.5337 120.678 19.7336 121.703 20.782C121.835 20.9153 122.062 20.8592 122.112 20.6824L122.84 18.2151C122.87 18.1155 122.833 18.0116 122.75 17.9513C119.416 15.543 120.424 11.1783 122.667 8.41211C122.703 8.3686 122.723 8.31246 122.723 8.25492C122.686 6.67185 123.334 4.46284 124.668 3.47341ZM126.43 11.3804C126.547 11.4141 126.669 11.3579 126.721 11.2499C127.378 9.8366 128.357 8.6956 129.654 7.83108C129.805 7.73004 129.795 7.50689 129.637 7.41847C127.738 6.35748 125.328 7.2248 123.91 8.63806C123.853 8.6956 123.83 8.78121 123.847 8.86121C124.139 10.1692 125.174 11.0197 126.43 11.3804ZM136.12 11.6947C136.002 11.6456 135.871 11.7186 135.852 11.8449C135.839 11.9207 135.852 11.9881 135.888 12.0442C136.95 13.6778 137.379 15.4503 137.176 17.3674C137.115 17.9218 137.234 17.9639 137.534 17.4909C138.14 16.531 138.63 15.5135 139.005 14.4399C139.024 14.3795 139.022 14.3136 138.992 14.256C138.407 13.0589 137.291 12.1817 136.12 11.6947ZM128.468 1.37808C128.344 1.40475 128.3 1.45527 128.338 1.53527C128.362 1.58439 128.414 1.61105 128.468 1.60263C130.673 1.31352 132.402 2.13734 133.435 4.04742C133.777 4.68037 134.175 5.28806 134.63 5.86768C134.677 5.93083 134.752 5.96451 134.832 5.96171C139.621 5.79189 141.498 9.80011 140.361 13.9122C140.349 13.9599 140.351 14.0146 140.368 14.0623C140.794 15.1893 141.028 16.3542 141.068 17.5541C141.082 18.0271 141.229 18.072 141.509 17.6874C142.987 15.6538 143.382 13.3522 142.692 10.7797C140.955 4.27758 135.436 -0.049212 128.468 1.37808ZM129.88 18.4888C131.29 19.6971 132.933 20.3497 134.805 20.4424C134.862 20.4452 134.915 20.4283 134.959 20.3961C136.812 19.0796 136.403 15.303 135.663 13.5389C135.531 13.2245 135.385 13.2161 135.224 13.5178C134.055 15.6917 132.298 17.2131 129.953 18.0804C129.781 18.1449 129.739 18.3709 129.88 18.4888ZM126.034 25.2856C127.347 26.087 128.746 26.5726 130.229 26.7396C131.844 26.922 133.346 26.7227 134.736 26.1487C136.851 25.2716 138.345 23.6268 139.211 21.2129C139.335 20.8662 139.225 20.7652 138.886 20.9069C137.844 21.3448 136.753 21.5932 135.616 21.6507C135.548 21.6535 135.485 21.6844 135.441 21.7377C133.497 24.1081 131.222 24.8253 128.256 24.8323C127.529 24.8351 126.829 24.8379 126.16 24.8379C125.588 24.8379 125.543 24.9881 126.034 25.2856Z" fill="#3D1505"/>
<path d="M119.827 31.8158C119.557 31.6895 119.492 31.2657 119.678 30.8671C119.866 30.4685 120.237 30.2468 120.505 30.3717C120.774 30.498 120.839 30.9218 120.653 31.3204C120.465 31.719 120.096 31.9421 119.827 31.8158Z" fill="#3D1505"/>
<path d="M197.267 37.3818C197.337 37.6653 197.294 37.9292 197.136 38.179C195.662 38.1748 194.193 38.1958 192.719 38.245C184.69 38.5088 176.743 38.7348 168.879 38.9256C168.808 38.9284 168.741 38.9579 168.697 39.0098C162.567 46.2909 156.288 53.447 149.86 60.4712C149.819 60.5175 149.794 60.5778 149.797 60.641L150.34 80.4519L148.949 80.4014C148.98 66.5972 148.722 52.8 148.179 39.0056C148.136 37.8913 148.377 37.4618 149.533 37.4183C165.41 36.8499 181.381 37.2008 197.267 37.3818Z" fill="white"/>
<path d="M148.949 80.4014L150.34 80.4519C158.299 80.4224 166.258 80.2456 174.214 80.2287C181.613 80.2091 189.15 79.9579 196.529 80.4715C196.669 80.4814 196.788 80.3719 196.79 80.2344C197.07 68.0174 196.927 55.7935 196.978 43.5738C196.985 41.8602 197.099 39.981 197.136 38.1804C197.294 37.9306 197.337 37.6667 197.267 37.3832C198.082 37.1769 198.506 37.4604 198.535 38.2365C198.584 39.48 198.559 41.7886 198.461 45.1625C198.129 56.6763 197.955 68.1929 197.945 79.7123C197.945 80.2301 198.006 80.8589 197.999 81.4357C197.996 81.5718 197.882 81.6799 197.745 81.6757C184.143 81.1648 170.535 81.0063 156.925 81.2083C155.223 81.2322 152.649 81.381 149.21 81.6518C149.069 81.6617 148.948 81.5508 148.948 81.409V80.4014H148.949Z" fill="#E37B28"/>
<path d="M197.136 38.179C197.099 39.9796 196.985 41.8602 196.978 43.5724C196.927 55.7921 197.071 68.016 196.79 80.2329C196.787 80.3705 196.669 80.4799 196.529 80.4701C189.15 79.9565 181.613 80.2091 174.214 80.2273C166.257 80.2442 158.299 80.421 150.34 80.4505L149.797 60.6396C149.794 60.5764 149.819 60.5161 149.86 60.4697C156.288 53.4455 162.567 46.2894 168.697 39.0084C168.741 38.9551 168.808 38.9256 168.879 38.9242C176.743 38.7333 184.69 38.5074 192.719 38.2435C194.193 38.1972 195.662 38.1748 197.136 38.179Z" fill="#9AD9ED"/>
<path d="M159.545 39.6329C159.915 39.1459 160.407 38.9523 161.023 39.0519C161.32 39.0982 161.366 39.233 161.161 39.4547C157.345 43.5794 153.644 47.7995 150.052 52.1179C149.825 52.3888 149.684 52.3509 149.623 52.0042C149.557 51.6169 149.57 51.2408 149.664 50.8773C149.754 50.5236 150.015 50.1236 150.441 49.6759C153.433 46.5336 156.358 43.3324 159.214 40.068C159.225 40.0526 159.338 39.9066 159.545 39.6329Z" fill="#FFC559"/>
<path d="M151.755 39.0856C153.511 39.153 155.268 39.1614 157.027 39.1053C157.399 39.0926 157.462 39.2288 157.218 39.508L149.873 47.9188C149.651 48.1729 149.537 48.1322 149.532 47.7953L149.398 39.3438C149.395 39.2161 149.498 39.1067 149.626 39.0996C150.29 39.0618 150.998 39.0561 151.755 39.0856Z" fill="#FFC559"/>
<path d="M152.947 40.9788C152.947 41.4293 152.582 41.7928 152.129 41.7928C151.676 41.7928 151.311 41.4293 151.311 40.9788C151.311 40.5283 151.676 40.1648 152.129 40.1648C152.582 40.1634 152.947 40.5269 152.947 40.9788Z" fill="#3D1505"/>
<path d="M182.89 45.5288C184.372 47.314 185.244 49.304 185.51 51.4962C186.419 58.9877 179.823 62.349 173.963 64.2422C173.916 64.2562 173.875 64.2829 173.846 64.3222C172.82 65.6358 171.97 66.9396 169.999 66.1761C168.916 65.4492 168.453 64.4148 168.608 63.0745C168.866 60.8571 169.966 59.1926 171.909 58.0853C174.077 56.8503 176.313 55.91 178.196 54.2104C178.244 54.1669 178.273 54.1066 178.276 54.0434C178.405 51.151 177.023 49.3517 174.13 48.65C171.722 48.9279 169.915 50.118 168.713 52.2246C168.301 52.9445 167.46 54.1894 166.19 55.9605C162.632 56.6215 161.831 51.5243 162.49 49.1833C163.836 44.4074 169.144 41.5458 173.867 41.4869C177.388 41.4462 180.394 42.7935 182.89 45.5288Z" fill="#3D1505"/>
<path d="M195.239 43.6271C194.72 43.7843 194.163 43.4559 193.993 42.8987C193.825 42.3402 194.107 41.7605 194.624 41.6048C195.143 41.4476 195.7 41.7746 195.871 42.3345C196.04 42.8917 195.758 43.4713 195.239 43.6271Z" fill="#3D1505"/>
<path d="M124.714 45.8628C124.603 46.0003 124.56 46.1337 124.593 46.2628C124.624 46.3933 124.78 46.4536 124.892 46.3765C125.147 46.2024 125.291 45.9498 125.323 45.62C126.691 43.8348 126.378 42.2518 126.932 40.2813C126.952 40.2154 126.996 40.162 127.056 40.1312C128.547 39.3845 128.467 43.8503 128.396 44.7036C127.96 45.7814 127.602 46.5505 127.32 47.008C126.894 47.6957 126.278 48.4058 125.47 49.1398C125.346 49.2521 125.37 49.45 125.517 49.53C127.488 50.6233 128.962 52.1951 129.936 54.2455C131.524 57.5899 132.67 60.1329 132.789 63.678C132.927 67.8308 132.312 71.8587 130.946 75.7588C130.814 76.1349 130.751 76.5363 130.758 76.9601C130.805 80.1193 129.891 82.943 128.014 85.4313C127.371 86.2846 126.278 86.9554 125.48 87.6319C125.45 87.6585 125.429 87.6922 125.412 87.7287C123.83 91.7004 123.053 95.8195 123.084 100.085C123.088 100.795 123.291 101.276 123.693 101.526C125.456 102.629 128.436 103.816 130.802 103.784C139.301 103.67 149.213 103.054 158.479 103.407C163.738 103.606 168.027 104.657 171.563 108.65C175.945 113.595 179.444 119.498 183.061 125.015C186.657 130.501 190.577 135.73 194.826 140.703C194.83 140.877 194.911 141.054 195.064 141.231C197.438 143.952 199.814 146.67 202.195 149.386C202.755 150.023 203.231 150.721 203.7 151.401C203.731 151.448 203.747 151.501 203.744 151.557C203.573 153.861 202.668 154.986 201.371 156.74C201.314 156.816 201.31 156.917 201.356 157C201.832 157.856 202.155 158.388 202.322 158.599C204.065 160.768 205.746 162.985 207.362 165.25C207.467 165.398 207.694 165.381 207.775 165.221C208.067 164.664 208.392 164.224 208.75 163.904C210.875 162.014 212.762 162.116 216.105 161.99C226.828 161.58 237.55 161.791 248.275 162.036C259.311 162.286 270.35 162.536 281.387 162.783C282.994 162.82 284.205 162.827 285.02 162.807C286.126 162.78 287.075 163.201 288.096 163.517C292.609 164.911 292.382 168.784 291.457 172.589C288.371 185.3 285.807 197.129 284.126 203.429C283.204 206.887 282.29 210.344 281.387 213.808C280.526 217.106 279.819 221.261 279.159 223.863C278.807 225.261 277.835 226.044 276.25 226.211C273.043 226.195 269.665 226.061 266.623 226.084C248.779 226.217 230.936 226.481 213.095 226.877C209.352 226.959 204.731 226.871 199.229 226.614C198.35 226.573 198.106 226.348 197.593 225.703C191.722 218.32 186.537 211.306 182.036 204.664C181.8 203.773 181.782 202.857 181.985 201.917C182.056 201.577 182.326 201.337 182.793 201.199C182.897 201.167 182.913 201.096 182.841 200.982C186.239 200.722 189.641 200.498 193.042 200.305C195.301 200.179 198.119 199.838 200.675 199.752C200.79 199.748 200.887 199.663 200.907 199.549L200.98 199.125C201.004 198.982 200.897 198.849 200.751 198.842C192.89 198.458 184.953 195.82 177.367 193.149C174.518 192.146 171.255 190.7 168.132 189.563C168.105 189.551 168.075 189.547 168.044 189.549L152.774 189.803C151.48 189.826 151.471 189.951 152.743 190.187C156.604 190.901 160.249 192.045 163.674 193.618C165.966 194.669 168.141 196.087 170.199 197.873C171.258 198.791 172.032 198.384 173.088 198.924C173.93 199.354 174.634 199.952 175.202 200.719C175.304 200.86 175.507 200.969 175.662 201.017L175.628 201.074C175.614 201.098 175.614 201.128 175.631 201.147C179.266 205.786 183.164 210.159 186.964 214.656C187.279 215.026 187.621 215.627 187.994 216.463C188.028 216.54 188.021 216.627 187.973 216.699L187.291 217.69C186.561 217.643 185.719 217.733 185.097 217.73C179.692 217.714 174.293 217.573 168.889 217.554C157.602 217.514 146.236 217.493 134.959 216.991C133.189 216.911 131.414 216.834 129.634 216.758C129.493 216.751 129.376 216.862 129.379 217.002C129.392 217.75 129.024 218.245 128.28 218.483C127.864 218.616 127.489 218.686 127.155 218.696C120.054 218.892 112.949 219.123 105.832 218.907C104.726 218.873 102.927 218.923 101.506 218.78C101.09 218.74 100.719 218.563 100.39 218.25C99.8516 217.739 99.7303 217.182 100.022 216.575C100.1 216.413 99.9785 216.225 99.7952 216.229C92.3227 216.408 84.8488 216.507 77.375 216.526C64.5298 216.563 51.6776 216.773 38.831 216.904C37.7861 216.98 37.1416 216.523 36.8935 215.533C36.8737 215.46 36.8906 215.382 36.94 215.322C39.9366 211.62 42.9783 208.097 46.0623 204.75C46.6461 204.117 47.3484 203.759 48.1677 203.674C48.6895 203.617 49.2944 203.891 49.8867 203.9C49.9346 203.902 49.9812 203.887 50.0235 203.86C53.5418 201.568 57.0263 199.225 60.4728 196.829C61.0157 196.452 61.6559 196.073 62.3906 195.692C63.0534 195.351 63.7049 194.989 64.3507 194.605C66.2418 193.878 68.2442 193.057 70.0478 192.47C74.6266 190.987 79.3196 189.979 84.117 189.446C85.0477 189.342 85.9798 189.295 86.9147 189.308C86.9458 189.308 87.2757 189.172 86.9147 189.178C84.3581 189.218 81.8015 189.211 79.2435 189.156C72.2434 189.004 65.242 188.82 58.232 188.602C57.8936 188.592 57.5594 188.662 57.2266 188.811C52.7127 190.829 48.1621 190.401 43.4733 189.276C42.9811 189.156 42.3945 189.079 41.7106 189.039C40.3202 188.954 38.9833 188.632 37.6958 188.069C37.5182 187.992 37.2277 187.999 36.8215 188.093C36.8427 188.02 36.8244 187.983 36.7609 187.986C25.7997 188.386 14.8442 188.282 3.89285 187.679C2.68293 187.613 1.48288 187.478 0.291291 187.272C0.220783 187.259 0.160146 187.218 0.123482 187.158C-0.138808 186.714 0.0163098 186.455 0.593066 186.378C1.68171 186.228 3.17366 186.098 5.0661 185.99C14.8146 185.43 24.5531 185.099 34.2818 184.992C34.4525 184.99 34.5695 184.818 34.5061 184.66C34.2353 183.976 34.0337 183.276 33.8997 182.562C33.2961 179.344 32.4613 176.301 32.1172 173.023C32.0411 172.293 32.0905 170.805 32.2681 168.56C33.5612 160.522 37.5802 153.908 41.8318 147.139C42.6201 145.886 43.3167 144.645 43.9203 143.417C49.0448 132.985 54.2723 122.608 59.6027 112.278C60.4065 110.72 61.2188 109.193 62.0451 107.695C62.0677 107.656 62.0761 107.613 62.0747 107.569C61.9845 105.148 61.7363 102.753 61.3344 100.375C60.1823 93.5853 57.1899 87.8354 58.617 81.0049C58.868 79.8035 59.0965 78.6162 59.308 77.4457C59.7578 75.4655 60.4248 73.3435 61.0538 71.4053C61.5798 69.7844 62.2298 68.2167 63.0068 66.7024C63.09 66.5424 62.973 66.3516 62.7925 66.3488C60.5771 66.3221 58.5733 65.6513 56.781 64.3306C56.7415 64.304 56.7133 64.2647 56.6964 64.2197C56.1492 62.7391 57.032 62.5763 58.1573 62.6718C59.48 62.7854 60.704 62.4725 61.8308 61.7385C62.1255 61.5476 62.0113 61.3624 61.7165 61.3792C60.2613 61.469 58.9385 61.1083 57.7483 60.2985C57.4198 60.0726 57.4057 59.5309 57.9401 59.8116C59.0358 60.3813 60.2048 60.655 61.4458 60.6284C61.9083 60.6185 61.9408 60.4978 61.5389 60.2677C59.8424 59.2881 58.8849 57.8425 58.6635 55.9254C58.4295 53.8876 58.6974 51.8092 59.4673 49.6914C59.8721 48.5714 60.6138 49.0837 60.8578 49.9412C61.2963 51.492 62.0719 52.7467 63.6386 53.2C63.9502 53.2898 64.0475 53.1831 63.9333 52.88C63.4933 51.7236 62.9208 50.6359 62.2172 49.6142C61.8378 49.064 61.9817 48.7904 62.6501 48.7932C63.5709 48.7974 64.4339 49.0233 65.2405 49.471C65.2941 49.5019 65.3646 49.4879 65.4013 49.4374C65.4521 49.3714 65.438 49.2198 65.3844 49.1468C63.5751 46.6122 62.801 43.731 63.3735 40.7753C63.5117 40.0582 64.1984 40.0456 64.0532 40.9227C63.6978 43.0615 63.9855 45.1049 64.9176 47.0557C64.9444 47.1119 65.0008 47.1455 65.0614 47.1427H65.1291C65.1559 47.1427 65.1757 47.1217 65.1785 47.095C65.359 44.3204 66.7395 41.6455 68.5163 39.5515C69.4372 38.4667 70.0718 38.6211 70.4497 39.9782C70.5935 40.489 70.7881 40.9845 71.0363 41.4616C71.2098 41.7928 71.3578 41.7816 71.4819 41.4307C71.9882 40.0063 72.8188 38.7263 73.9723 37.5923C75.2724 36.318 75.7251 37.7088 76.7503 37.699C78.6766 37.6822 80.6846 37.612 82.7759 37.4927C83.1482 37.4702 83.199 37.3327 82.9296 37.0759C81.989 36.1819 81.2064 35.1644 80.5746 34.0234C80.5507 33.9771 80.5408 33.9238 80.5479 33.8732C80.6508 33.1519 81.205 33.5757 81.456 33.8634C83.4739 36.1903 84.7769 37.299 87.9681 36.798C90.4444 36.4107 92.9079 36.071 95.3602 35.7833C95.6549 35.7468 95.7085 35.6163 95.521 35.389C93.5975 33.048 94.335 30.6622 95.9623 28.4756C96.0061 28.4153 96.0723 28.3788 96.1442 28.376C96.4249 28.3634 96.446 28.6763 96.3713 28.8798C96.0639 29.6966 95.631 30.6748 95.6281 31.4846C95.6253 33.1561 97.0834 34.8121 98.5232 35.4128C98.5599 35.4297 98.5979 35.4353 98.6374 35.4325C102.783 35.1097 106.718 35.0184 110.44 35.1518C111.845 35.2023 114.076 33.9813 115.349 33.3582C115.393 33.3385 115.439 33.3287 115.486 33.3343C116.238 33.4241 115.885 33.9518 115.557 34.2016C115 34.6255 114.414 34.9918 113.804 35.3047C113.509 35.4577 113.522 35.5756 113.84 35.6654C114.909 35.9616 115.954 36.318 116.979 36.732C121.155 38.4288 123.854 41.2932 124.714 45.8628ZM84.5372 175.366L72.7638 175.95L67.9213 184.345C67.8282 184.508 67.9452 184.709 68.1314 184.709L85.6005 184.796C85.7485 184.799 85.8628 184.668 85.8444 184.52L84.5372 175.366Z" fill="#3D1505"/>
<path d="M182.89 45.5288C184.63 47.1904 186.496 49.6886 186.506 52.2835C186.519 55.1143 185.939 58.0741 183.876 60.168C182.126 61.942 180.177 63.2121 178.028 63.9769C176.564 64.4976 175.122 64.798 174.184 65.7902C172.984 67.0617 171.328 68.4118 169.999 66.1747C171.97 66.9382 172.82 65.6344 173.846 64.3208C173.875 64.2815 173.916 64.2548 173.963 64.2408C179.823 62.349 186.419 58.9877 185.51 51.4948C185.245 49.304 184.374 47.3139 182.89 45.5288Z" fill="#E37B28"/>
<path d="M125.323 45.6214C125.292 45.9512 125.148 46.2024 124.892 46.3778C124.78 46.455 124.624 46.3947 124.593 46.2642C124.562 46.1351 124.603 46.0031 124.714 45.8642L125.323 45.6214Z" fill="#8A0917"/>
<path d="M174.13 48.65C172.321 49.3995 170.921 50.5334 169.931 52.0477C169.076 53.3543 168.209 56.0363 166.191 55.9605C167.462 54.1894 168.302 52.9445 168.714 52.2246C169.917 50.118 171.723 48.9279 174.13 48.65Z" fill="#E37B28"/>
<path d="M106.139 60.9568C104.428 61.2108 102.882 60.8094 101.504 59.7498C101.31 59.1898 101.236 58.5597 101.283 57.858C101.305 57.5338 101.438 57.4776 101.685 57.691C102.953 58.7814 104.433 59.406 106.128 59.5659C106.272 59.5786 106.372 59.7119 106.345 59.8522L106.139 60.9568Z" fill="#E08D6F"/>
<path d="M92.3848 60.8347C92.0294 61.1252 91.7911 61.4844 91.3836 61.7048C91.1692 61.8185 91.0649 61.9293 91.0691 62.0388C89.8451 61.4227 88.8706 60.5582 88.1529 59.4466C87.5662 58.5386 87.6847 58.432 88.5153 59.1323L90.1581 60.5161C90.4768 60.7855 90.7476 60.7266 90.9732 60.3392C91.22 59.9154 91.392 59.4719 91.4964 59.0046C91.6106 58.4979 91.7375 58.4951 91.8757 58.9976L92.3848 60.8347Z" fill="#E08D6F"/>
<path d="M101.149 61.5181C101.236 61.8353 101.303 62.2353 101.346 62.7181C101.4 63.3019 101.011 63.598 100.479 63.3258C99.3298 62.7419 98.3751 61.9588 97.6178 60.9806C97.4444 60.7603 97.3062 60.7771 97.199 61.0368C96.6688 62.3237 95.999 63.525 95.1924 64.6422L94.0967 64.8232C93.6511 64.2324 93.3662 63.5728 93.2449 62.843C93.7343 62.8402 94.146 62.6395 94.4774 62.2367C95.3884 61.1336 96.1767 60.0179 96.8408 58.8881C96.9255 58.7421 97.1328 58.7253 97.2399 58.8572C98.2863 60.1343 99.5879 61.0213 101.149 61.5181Z" fill="#E08D6F"/>
<path d="M106.139 60.9568C105.753 62.6451 105.886 64.2647 106.536 65.807C106.774 66.7066 107.373 67.1487 108.331 67.1347C108.723 70.4159 109.518 73.5975 112.299 75.422C113.797 76.4086 114.765 75.7321 115.6 74.3722C116.377 73.1049 117.191 71.9106 118.043 70.7906C118.079 70.7443 118.13 70.7107 118.189 70.698C125.689 69.1739 128.015 78.219 124.543 83.0314C122.751 85.5155 119.409 86.6509 116.682 84.8783C116.624 84.8419 116.551 84.8306 116.484 84.8489C116.293 84.8994 116.214 85.0327 116.249 85.2488C116.641 87.7371 116.926 90.1342 116.563 92.513C115.762 97.7591 112.74 102.915 108.383 106.063C103.46 109.615 96.7111 110.052 91.031 108.355C82.4755 105.801 78.5919 98.0328 75.4811 90.4528C75.0115 89.309 73.8383 86.3435 71.9585 81.555C71.9416 81.5115 71.936 81.4624 71.9487 81.4147C72.8808 77.2619 74.0794 73.5765 74.1302 69.4391C74.1739 69.4083 74.2247 69.3914 74.2811 69.3928C74.3657 69.3956 74.439 69.4532 74.463 69.536L74.996 71.4938L74.8691 72.6109C74.8592 72.6951 74.8959 72.7807 74.9664 72.8312C75.5333 73.2509 76.0889 72.5014 76.4443 72.1408C77.0069 71.571 77.4455 71.4503 78.2126 71.4278C78.6794 71.4138 80.8341 71.2454 80.9201 70.5408C81.0005 69.8742 80.0261 69.5626 79.51 69.4237C78.1703 69.0602 76.9872 69.2272 75.9606 69.9275L75.7462 68.9493C75.7251 68.8525 75.7801 68.7529 75.8774 68.7234L75.9606 68.6967C76.9731 69.4742 76.0071 67.1361 75.9634 67.0084C78.1209 67.842 80.3504 68.1999 82.6546 68.0862C83.6022 68.0399 84.2255 67.8996 84.5287 67.6652C85.5299 66.8947 83.9731 66.3207 83.2553 65.9811C83.5134 65.8449 83.794 65.7846 84.0958 65.7986C84.1621 65.8014 84.2255 65.779 84.2735 65.7327C84.6965 65.3355 84.3003 65.0394 83.928 64.8653C82.9127 64.3882 82.0045 63.7272 81.2078 62.8809C83.5867 63.9222 85.427 64.5692 86.7342 64.8218C87.5112 64.9692 88.2826 64.9987 89.0539 64.9088C90.2004 64.7727 90.474 63.9756 89.6504 63.2416C89.477 63.0872 89.3388 62.9118 89.2288 62.7181C89.979 62.7447 90.8871 63.1419 91.069 62.0346C91.0634 61.9251 91.1692 61.8143 91.3835 61.7006C91.7911 61.4803 92.0294 61.121 92.3847 60.8305C92.5596 61.5069 92.5793 62.4248 93.2463 62.8388C93.3676 63.5686 93.6525 64.2268 94.0981 64.819C92.678 65.2429 91.6317 66.0835 90.9548 67.341C90.3047 68.548 91.3934 68.7753 92.2451 68.2518C94.4605 66.8821 95.4998 65.88 98.2905 66.2211C98.6317 66.2618 98.8898 66.1369 99.0647 65.8435C99.5667 65.0001 95.6055 64.6436 95.1938 64.6366C95.999 63.5194 96.6688 62.3181 97.2004 61.0312C97.3076 60.7715 97.4458 60.7547 97.6193 60.975C98.3765 61.9532 99.3312 62.7363 100.48 63.3202C101.011 63.591 101.401 63.2963 101.348 62.7125C101.304 62.2311 101.238 61.8311 101.15 61.5125C101.841 60.9189 101.494 60.5049 101.506 59.7442C102.882 60.808 104.429 61.2108 106.139 60.9568Z" fill="#FFCEAA"/>
<path d="M89.2288 62.7223C89.3388 62.9159 89.477 63.09 89.6505 63.2458C90.4726 63.9798 90.2004 64.7769 89.054 64.913C88.2826 65.0029 87.5098 64.9734 86.7342 64.826C85.427 64.5734 83.5868 63.9264 81.2078 62.8851C80.4703 62.3883 79.7765 61.8269 79.1236 61.1981C78.678 60.7687 78.7457 60.662 79.3252 60.8782C81.5138 61.6823 83.7757 62.203 86.1081 62.4416C87.1474 62.5454 88.1867 62.6409 89.2288 62.7223Z" fill="#E08D6F"/>
<path d="M70.4299 65.0155C70.2664 66.1466 69.9646 67.2441 69.5246 68.3079C69.4132 67.2497 69.0691 66.294 68.4924 65.4463C68.4388 65.3663 68.436 65.2625 68.4882 65.1825L69.2116 64.0415C69.2877 63.9208 69.4499 63.8913 69.5641 63.9755C69.9223 64.2422 70.2085 64.5888 70.4299 65.0155Z" fill="#FFCEAA"/>
<path d="M108.331 67.1347C107.373 67.1487 106.775 66.7052 106.536 65.807C107.088 65.7509 107.417 65.64 107.52 65.4702C107.63 65.2892 107.747 65.1109 107.871 64.9439C108.16 64.5538 108.307 64.6001 108.313 65.0843L108.331 67.1347Z" fill="#E08D6F"/>
<path d="M95.1938 64.6422C95.6055 64.6492 99.5667 65.0057 99.0647 65.8491C98.8898 66.1425 98.6318 66.2688 98.2905 66.2267C95.4998 65.8856 94.4605 66.8877 92.2451 68.2574C91.3934 68.7809 90.3047 68.5536 90.9548 67.3466C91.6317 66.0891 92.6781 65.2485 94.0981 64.8246L95.1938 64.6422Z" fill="#3D1505"/>
<path d="M70.4299 65.0155C72.9668 68.8511 71.4015 74.9883 70.444 79.1467C70.0647 80.7985 69.6092 82.856 69.7136 84.5092C69.9209 87.7975 70.8403 91.177 71.7879 94.3277C72.0798 95.3045 72.9048 95.3592 72.7807 94.1775C72.5635 92.1523 72.2406 90.1454 71.8063 88.161C71.7668 87.9841 71.7964 87.921 71.8937 87.9673C71.9134 87.9743 71.9247 87.9912 71.9304 88.0136C72.0065 88.4529 72.0573 88.7167 72.0841 88.8066C72.9725 91.6373 74.0611 94.6926 75.3444 97.9724C76.0184 99.693 76.2553 101.474 76.0579 103.312C75.1667 103.085 74.346 102.733 73.5958 102.261C72.0206 101.268 71.3268 98.872 70.6471 97.2482C70.1169 95.9837 69.7319 94.6841 69.4936 93.3495C69.0141 90.4051 68.35 87.5028 67.4996 84.6454C67.3262 84.0615 67.3092 83.1914 67.4221 82.5949C68.0425 79.28 68.6588 75.9651 69.2651 72.6488C69.4738 71.5022 69.5599 70.0566 69.5232 68.3094C69.966 67.2442 70.2678 66.1467 70.4299 65.0155Z" fill="#E08D6F"/>
<path d="M83.254 65.9838C83.9717 66.3235 85.5285 66.8975 84.5273 67.668C84.2227 67.9037 83.5994 68.0441 82.6532 68.089C80.3504 68.2027 78.1196 67.8448 75.962 67.0112L75.0243 65.6498C74.8423 65.386 74.91 65.2863 75.2245 65.3495C77.8714 65.8842 80.5493 66.0975 83.254 65.9838Z" fill="#E08D6F"/>
<path d="M75.9592 68.7009L75.876 68.7276C75.7787 68.7571 75.7223 68.8553 75.7448 68.9535L75.9592 69.9317C75.5136 70.3752 75.192 70.8959 74.9946 71.4966L74.4616 69.5388C74.4376 69.456 74.3643 69.3984 74.2797 69.3956C74.2233 69.3928 74.1725 69.4096 74.1288 69.4419C74.0385 68.1704 73.7368 66.8975 73.2178 65.6232C73.1671 65.4969 73.2982 65.4758 73.3758 65.546C74.3925 66.4709 75.2513 67.5234 75.9592 68.7009Z" fill="#E08D6F"/>
<path d="M69.495 93.3481C69.7333 94.6828 70.1183 95.9823 70.6485 97.2468C71.3282 98.8706 72.022 101.266 73.5972 102.26C74.3474 102.733 75.1681 103.084 76.0593 103.311C75.6461 106.185 74.7084 108.358 74.0682 110.972C69.0057 131.665 62.3483 151.915 57.6384 172.707C56.9714 175.644 56.1831 178.016 54.7602 180.337C52.5547 183.938 47.4782 186.046 43.4437 186.404C41.045 186.62 37.8947 185.884 36.9696 183.426C36.6185 182.493 36.1348 180.4 35.5129 177.149C34.9827 174.367 35.0363 171.599 35.6737 168.845C36.1926 166.613 36.7468 164.069 37.8623 162.053C47.0072 145.507 55.6007 128.615 64.0208 111.692C65.5282 108.664 65.9781 106.672 65.2448 103.461C64.3169 99.4025 63.2142 94.3838 61.9365 88.4094C61.3133 85.5043 61.4373 82.6623 62.3074 79.8821C63.5582 75.8907 64.6159 71.8517 65.4803 67.7648C65.5649 67.3607 65.7073 66.9214 65.8991 66.4484C65.9329 66.3656 66.0105 66.3081 66.0993 66.2983C68.6123 66.0414 67.2994 72.7821 67.0202 74.1856C66.3504 77.5468 65.8638 80.3312 65.5621 82.5332C65.3971 83.7402 65.5593 84.9948 66.0542 86.3014C67.3445 89.7202 68.2329 92.012 68.7222 93.1741C68.8012 93.3621 69.0593 93.4211 69.495 93.3481Z" fill="#FFCEAA"/>
<path d="M174.961 71.5471C175.725 76.643 169.188 78.4941 167.452 73.6775C166.51 68.9114 173.188 66.4301 174.961 71.5471Z" fill="#3D1505"/>
<path d="M74.9961 71.4966C75.1935 70.8959 75.515 70.3752 75.9606 69.9317C76.9872 69.2314 78.1717 69.0644 79.51 69.4279C80.0261 69.5654 81.0005 69.8784 80.9202 70.545C80.8355 71.2496 78.6808 71.4166 78.2126 71.432C77.4455 71.4545 77.007 71.5751 76.4443 72.1449C76.0889 72.5056 75.5333 73.2551 74.9664 72.8354C74.8959 72.7849 74.8593 72.6993 74.8691 72.6151L74.9961 71.4966Z" fill="#3D1505"/>
<path d="M98.2567 76.1896C98.722 75.7069 99.1789 75.2227 99.633 74.7315C99.8149 74.535 100.18 74.3638 100.242 74.775C100.252 74.8381 100.235 74.9041 100.196 74.956C99.241 76.2205 98.6543 77.0303 98.4329 77.384C98.0578 77.9875 97.7927 78.6288 97.639 79.3095C97.5756 79.593 97.4388 79.6337 97.2301 79.4288C96.9085 79.1116 96.6138 78.772 96.3445 78.4155C95.3489 77.0878 94.7524 74.9097 94.3477 73.3154C94.0925 72.312 94.4182 71.6243 95.3235 71.2481C95.3842 71.2215 95.4533 71.2215 95.5139 71.2481C96.1964 71.5415 96.6505 72.0509 96.8775 72.7695C96.9043 72.8537 96.8818 72.9491 96.8183 73.0123C96.4319 73.4122 96.2289 73.8852 96.2176 74.4339C96.2133 74.5701 96.3219 74.681 96.4587 74.6838L97.3795 74.6936C97.4938 74.6936 97.5939 74.7764 97.6164 74.8901L97.8449 76.0675C97.9041 76.3763 98.0395 76.4156 98.2567 76.1896Z" fill="#3D1505"/>
<path d="M174.961 71.5471C175.886 72.6614 176.013 73.9315 175.339 75.356C173.221 79.8344 167.293 78.8113 167.453 73.6775C169.188 78.4941 175.725 76.643 174.961 71.5471Z" fill="#E37B28"/>
<path d="M122.335 74.9841C121.765 74.8901 121.23 74.7132 120.728 74.448C118.703 73.3842 118.237 76.3482 118.579 77.5692C118.963 78.9404 120.271 79.1593 119.095 80.9908C118.79 81.468 118.442 81.9943 118.053 82.5711C117.734 82.5753 117.532 82.477 117.45 82.2707C117.339 81.9774 118.016 80.3494 118.127 79.9088C118.147 79.833 118.127 79.7558 118.078 79.6954C116.623 77.9369 116.844 75.5932 118.387 74.0227C119.553 72.8411 120.867 73.161 122.335 74.9841Z" fill="#3D1505"/>
<path d="M122.335 74.9841C122.849 75.8444 123.09 76.5644 123.053 77.1412C122.861 80.3228 121.196 82.1332 118.053 82.5711C118.442 81.9943 118.79 81.468 119.095 80.9908C120.271 79.1593 118.964 78.9404 118.579 77.5692C118.237 76.3482 118.703 73.3842 120.728 74.448C121.23 74.7118 121.766 74.8887 122.335 74.9841Z" fill="#E08D6F"/>
<path d="M79.5311 82.6623C79.7991 82.7255 79.8724 82.6328 79.7525 82.3886C78.8246 80.5052 78.2549 78.5306 78.0378 76.4619C77.877 74.9153 79.0489 74.4747 80.0444 75.6016C80.3321 75.9244 80.5605 76.2879 80.7284 76.6921C80.765 76.7763 80.7481 76.8731 80.6875 76.9433C80.2729 77.4163 79.4846 78.3032 80.2179 78.8941C80.5098 79.1299 81.0146 79.0948 81.4137 79.1467C81.5152 79.1593 81.5984 79.2337 81.621 79.3334C81.8382 80.2933 82.1301 82.2343 81.5998 83.0061C81.5434 83.0904 81.5434 83.2026 81.6041 83.284L81.8226 83.5872C81.8565 83.6335 81.8706 83.6882 81.8692 83.7444C81.8523 83.9703 81.7141 84.0419 81.4504 83.9675C80.0261 83.5535 78.6921 83.3374 77.4483 83.3205C77.3877 83.3177 77.3285 83.2939 77.2833 83.2532C77.1056 83.0861 77.1522 82.95 77.4201 82.8462C78.1492 82.5655 78.8528 82.5051 79.5311 82.6623Z" fill="#3D1505"/>
<path d="M195.212 76.7159C195.212 77.3391 194.703 77.8457 194.077 77.8457C193.451 77.8457 192.942 77.3391 192.942 76.7159C192.942 76.0928 193.451 75.5862 194.077 75.5862C194.703 75.5862 195.212 76.0928 195.212 76.7159Z" fill="#3D1505"/>
<path d="M153.669 76.7819C153.669 77.3461 153.211 77.8022 152.644 77.8022C152.077 77.8022 151.619 77.3461 151.619 76.7819C151.619 76.2177 152.077 75.7616 152.644 75.7616C153.212 75.7616 153.669 76.2163 153.669 76.7819Z" fill="#3D1505"/>
<path d="M114.607 77.7755C114.503 77.9776 113.833 77.8401 113.114 77.4668C112.395 77.0935 111.899 76.6289 112.003 76.4268C112.107 76.2247 112.777 76.3623 113.496 76.7356C114.215 77.1089 114.712 77.5734 114.607 77.7755Z" fill="#3D1505"/>
<path d="M90.5064 88.4066C89.5941 88.8739 88.6422 89.2374 87.6452 89.497C85.3001 89.7244 84.8305 87.2684 84.7262 85.3878C84.5654 82.4658 84.6726 79.7389 85.0477 77.2071C85.2663 75.7321 87.0388 76.6008 87.4238 77.4878C88.6972 80.4168 89.8056 83.4075 90.7518 86.4558C90.969 87.1617 90.8886 87.8115 90.5064 88.4066Z" fill="#E08D6F"/>
<path d="M114.383 79.7375C114.275 79.9368 113.752 79.8638 113.213 79.5747C112.676 79.287 112.324 78.8898 112.433 78.692C112.542 78.4927 113.065 78.5656 113.603 78.8534C114.141 79.1411 114.49 79.5382 114.383 79.7375Z" fill="#3D1505"/>
<path d="M84.9391 94.3894C84.9052 94.3586 84.8827 94.3193 84.8714 94.2757C84.6627 93.5249 84.234 90.9777 84.7713 90.3826C85.1802 89.9349 85.3917 90.5286 85.4383 90.8528C85.5581 91.6892 85.7894 92.4611 86.1321 93.1698C86.1927 93.2961 86.3464 93.3439 86.4677 93.2793C87.8793 92.5257 89.2894 91.7692 90.6982 91.0142C94.6819 88.8753 98.9378 87.7049 103.469 87.5028C103.545 87.5 103.615 87.5322 103.663 87.5898C103.978 87.9561 103.556 88.1175 103.261 88.1806C100.534 88.7602 98.7234 89.2009 97.8252 89.5013C93.8132 90.8415 90.9393 92.7656 87.5704 94.7305C86.6383 95.2736 85.7612 95.1599 84.9391 94.3894Z" fill="#3D1505"/>
<path d="M90.5064 88.4066C90.7955 89.4297 90.536 90.2535 89.7294 90.878C89.666 90.9285 89.5842 90.944 89.508 90.9187C88.5801 90.6296 87.9597 90.1581 87.6452 89.4956C88.6422 89.2388 89.594 88.8753 90.5064 88.4066Z" fill="#E08D6F"/>
<path d="M95.1839 94.5761L92.028 95.8378C91.4893 95.7704 91.2609 95.4813 91.3441 94.9732C91.3511 94.9199 91.3779 94.8708 91.4174 94.8357C92.1944 94.1129 93.7061 93.8758 94.7214 93.7509C95.3306 93.6751 95.607 94.0596 95.1839 94.5761Z" fill="#3D1505"/>
<path d="M95.1839 94.5761C95.5224 96.6111 93.0927 97.5149 92.028 95.8378L95.1839 94.5761Z" fill="#E08D6F"/>
<path d="M119.859 102.917C119.289 106.258 118.512 109.857 117.527 113.716C116.472 117.855 113.492 126.83 107.878 126.43C104.828 126.214 102.892 123.505 101.521 121.053C101.482 120.983 101.365 120.964 101.17 120.996C101.377 119.67 101.449 118.362 101.389 117.075C101.372 116.711 101.506 116.645 101.788 116.875C102.944 117.82 104.232 118.312 105.654 118.35C109.497 118.454 112.126 114.925 113.65 111.871C115.832 107.507 117.491 102.949 118.631 98.2026C118.775 97.6019 118.901 97.6061 119.01 98.2152L119.859 102.917Z" fill="#FFCEAA"/>
<path d="M119.859 102.917C120.811 106.779 121.833 109.643 120.701 112.676C118.808 117.755 116.939 123.262 114.49 127.885C111.387 133.739 105.592 134.542 102.872 127.515C102.195 125.763 101.628 123.589 101.17 120.994C101.365 120.963 101.482 120.982 101.521 121.052C102.892 123.504 104.828 126.214 107.878 126.428C113.492 126.828 116.473 117.853 117.527 113.715C118.514 109.857 119.289 106.258 119.859 102.917Z" fill="#FFCEAA"/>
<path d="M174.754 165.722C167.459 155.019 160.591 144.05 154.148 132.82C154.088 132.713 153.998 132.646 153.878 132.619C152.324 129.11 151.275 125.405 152.527 121.796C153.26 119.678 153.656 117.81 155.147 115.842C155.354 115.569 155.079 115.486 154.784 115.595C154.744 115.609 154.708 115.635 154.683 115.666C152.46 118.263 150.507 120.688 149.84 124.016C149.502 124.516 149.372 125.073 149.455 125.687C149.468 125.78 149.429 125.87 149.351 125.92C149.193 126.027 149.02 126.1 148.828 126.138C148.46 123.72 148.04 121.118 148.336 118.677C148.346 118.604 148.319 118.53 148.268 118.478C148.041 118.251 147.798 118.248 147.538 118.471C147.497 118.507 147.467 118.558 147.457 118.614C146.739 122.853 147.48 127.55 148.492 131.689C149.058 133.993 149.656 136.288 150.289 138.572C150.469 139.226 150.355 139.283 149.945 138.739C149.62 138.313 149.329 137.865 149.066 137.392C148.112 135.681 147.186 133.949 146.291 132.192C146.27 132.153 146.24 132.119 146.201 132.096C145.61 131.738 145.436 131.926 145.68 132.665C146.106 133.954 146.966 135.885 148.258 138.462C148.815 139.572 149.653 140.916 151.009 140.969L151.375 141.939C143.63 142.683 135.895 143.538 128.172 144.503C128.072 144.516 127.974 144.534 127.88 144.564C127.8 144.517 127.709 144.496 127.609 144.501C127.568 144.503 127.532 144.496 127.495 144.479L120.753 141.375C120.615 141.312 120.568 141.138 120.656 141.014C121.256 140.174 121.856 139.326 122.449 138.476C123.133 137.495 124.075 135.958 122.949 134.989C122.885 134.936 122.832 134.876 122.785 134.807C122.724 134.714 122.731 134.596 122.805 134.514C123.167 134.102 123.335 133.747 123.147 133.183C122.521 131.291 121.207 130.319 119.198 130.271C119.114 130.268 119.037 130.308 118.99 130.378L111.856 140.896C111.832 140.936 111.796 140.964 111.755 140.984C109.493 141.994 107.238 142.992 104.993 143.983C103.189 144.78 101.82 145.86 102.067 147.922C96.384 148.235 90.505 148.722 84.9053 149.754C84.4131 147.319 83.921 144.884 83.4302 142.449C83.292 141.762 82.9099 141.458 82.288 141.535L81.7479 137.062C82.5728 136.805 82.1808 136.215 82.1371 135.679C81.7394 130.976 82.3359 125.853 83.1722 121.337C83.292 120.69 82.6955 120.729 82.5686 121.281C82.4248 121.898 82.2866 122.538 82.1498 123.199C81.7888 122.816 81.3925 122.503 80.9596 122.259C80.5338 122.019 80.0557 121.916 79.5227 121.949C76.519 122.135 75.2795 124.052 73.6141 126.347C73.4829 126.527 73.3518 126.51 73.2178 126.299C74.4475 122.767 76.4189 119.87 79.1335 117.611C79.871 116.995 80.8863 116.68 81.9425 116.499C85.9304 115.821 89.9212 115.156 93.9134 114.505C94.7045 114.376 95.7156 114.129 96.9452 113.764C97.0552 113.733 97.1708 113.781 97.2272 113.88C97.8731 115.031 98.2327 115.908 98.306 116.508C98.8391 120.883 99.2805 125.182 100.602 128.988C102.281 133.834 107.034 137.147 112.099 134.434C114.914 132.924 116.947 129.418 118.244 126.489C120.474 121.452 122.868 115.55 124.089 110.62C124.281 109.845 124.391 108.932 124.421 107.882C124.426 107.736 124.555 107.628 124.699 107.649C126.961 107.972 129.235 108.153 131.518 108.195C133.16 108.226 134.544 108.288 135.677 108.379C142.18 108.915 147.487 108.836 154.964 108.818C158.331 108.811 162.774 108.845 165.606 110.699C166.377 111.205 167.372 112.076 168.586 113.311C170.865 115.632 173.338 118.816 175.624 121.935C179.973 127.871 184.457 133.704 189.075 139.434C192.587 143.79 195.912 148.235 199.592 152.441C199.677 152.541 199.67 152.691 199.573 152.781C193.393 158.434 186.175 162.153 178.454 165.214C177.169 165.718 175.934 165.889 174.754 165.722Z" fill="#A4F1FB"/>
<path d="M148.826 126.137C149.557 130.449 150.857 134.425 151.617 137.949C151.851 139.023 152.243 140.471 151.008 140.968C149.651 140.915 148.814 139.57 148.257 138.46C146.964 135.885 146.105 133.954 145.679 132.664C145.435 131.924 145.609 131.736 146.199 132.094C146.239 132.118 146.267 132.153 146.29 132.191C147.185 133.948 148.112 135.68 149.065 137.391C149.327 137.864 149.62 138.311 149.943 138.738C150.352 139.281 150.467 139.225 150.287 138.571C149.654 136.286 149.055 133.992 148.491 131.687C147.478 127.548 146.738 122.85 147.456 118.613C147.466 118.557 147.495 118.506 147.536 118.47C147.797 118.246 148.04 118.249 148.267 118.477C148.317 118.527 148.344 118.603 148.334 118.676C148.038 121.116 148.46 123.718 148.826 126.137Z" fill="#3D1505"/>
<path d="M81.7493 137.059C81.2134 135.415 81.016 133.575 81.1598 131.543C81.3911 128.233 81.7197 125.452 82.1512 123.198C82.288 122.537 82.4262 121.897 82.57 121.279C82.6969 120.726 83.2934 120.688 83.1736 121.335C82.3387 125.852 81.7422 130.974 82.1385 135.677C82.1822 136.212 82.5742 136.803 81.7493 137.059Z" fill="#3D1505"/>
<path d="M82.1512 123.198C81.7197 125.452 81.3911 128.233 81.1599 131.543C81.016 133.576 81.2134 135.415 81.7493 137.059L82.2894 141.532C81.9566 141.699 81.793 141.962 81.8043 142.313C81.8311 143.207 81.9185 145.094 82.0666 147.975C82.1202 149.035 81.5533 149.248 81.1683 150.072C78.0208 156.845 74.7577 164.027 71.252 170.16C69.1312 173.869 67.0131 177.56 64.895 181.231C64.8273 181.348 64.6765 181.388 64.5594 181.318C62.7657 180.257 61.034 179.098 59.3686 177.843C59.284 177.777 59.2487 177.667 59.2854 177.57C60.0257 175.472 60.7435 173.427 61.285 171.219C64.9571 156.177 68.8759 143.278 73.2178 126.298C73.3518 126.508 73.4829 126.525 73.6141 126.346C75.2795 124.051 76.519 122.134 79.5226 121.947C80.0557 121.916 80.5323 122.017 80.9596 122.257C81.3939 122.502 81.7902 122.815 82.1512 123.198Z" fill="#A4F1FB"/>
<path d="M149.84 124.015C149.666 127.431 150.514 130.409 151.771 133.627C152.843 136.372 153.945 139.106 155.078 141.827C153.995 142.023 152.903 142.108 151.801 142.08L151.375 141.939L151.009 140.969C152.243 140.473 151.851 139.024 151.619 137.951C150.859 134.428 149.558 130.451 148.828 126.138C149.02 126.099 149.193 126.027 149.351 125.92C149.429 125.87 149.468 125.78 149.455 125.687C149.372 125.07 149.502 124.513 149.84 124.015Z" fill="#A4F1FB"/>
<path d="M80.2052 145.95C80.2997 146.645 79.4479 146.354 79.1335 146.277C79.0531 146.26 78.9868 146.2 78.9614 146.12C78.2436 143.998 74.1965 132.912 75.4727 131.594C77.8446 129.145 80.0162 144.55 80.2052 145.95Z" fill="#3D1505"/>
<path d="M117.213 137.297C116.855 137.036 116.596 136.752 116.436 136.446C116.4 136.376 116.403 136.289 116.442 136.219C117.364 134.549 118.226 133.221 119.03 132.233C119.663 131.453 120.936 132.153 121.459 132.734C121.71 133.013 121.722 133.318 121.49 133.648L118.569 137.826C118.502 137.918 118.381 137.955 118.277 137.913C117.951 137.782 117.596 137.576 117.213 137.297Z" fill="#8A0917"/>
<path d="M153.879 132.619C153.999 132.646 154.088 132.713 154.15 132.82C160.591 144.05 167.46 155.019 174.755 165.722C173.549 165.899 172.41 165.852 171.337 165.579C171.271 165.562 171.213 165.516 171.182 165.455C169.295 161.906 167.207 158.458 164.918 155.111C163.942 153.686 163.159 152.436 162.571 151.358C159.265 145.303 156.367 139.057 153.879 132.619Z" fill="#A4F1FB"/>
<path d="M76.0748 133.58C76.0621 133.444 76.0946 132.657 76.3202 133.364C77.5174 137.106 78.5285 140.895 79.3534 144.736C79.3605 144.783 79.3436 144.799 79.2999 144.792C79.2759 144.788 79.2561 144.771 79.2519 144.746C78.231 140.944 76.4175 137.189 76.0748 133.58Z" fill="#E37B28"/>
<path d="M119.095 140.508C119.075 140.539 119.034 140.548 119.004 140.529L118.667 140.317C118.636 140.297 118.628 140.257 118.648 140.227L121.507 135.726C121.527 135.695 121.568 135.686 121.598 135.705L121.935 135.917C121.967 135.937 121.974 135.977 121.956 136.007L119.095 140.508Z" fill="#8A0917"/>
<path d="M117.566 138.824C117.697 138.877 117.754 139.03 117.69 139.155C117.347 139.833 116.86 140.372 116.225 140.772C115.612 141.156 115.222 141.419 115.055 141.556C113.991 142.447 112.907 143.291 111.808 144.084C111.202 144.523 111.11 144.433 111.533 143.817L115.572 137.944C115.652 137.83 115.81 137.803 115.92 137.885C116.429 138.266 116.979 138.579 117.566 138.824Z" fill="#8A0917"/>
<path d="M155.076 141.826C158.081 148.37 161.366 154.816 164.881 161.103C165.936 162.988 167.067 164.828 168.275 166.623C168.483 166.929 168.402 167.052 168.037 166.996L159.774 165.732C157.19 157.815 154.533 149.93 151.801 142.078C152.903 142.108 153.993 142.022 155.076 141.826Z" fill="#1EAEC1"/>
<path d="M151.373 141.938L151.799 142.078C154.533 149.932 157.189 157.816 159.772 165.732C153.419 164.918 149.417 164.309 143.681 162.946C143.61 162.929 143.551 162.883 143.52 162.822C142.006 159.898 140.498 156.969 138.996 154.038C137.317 150.765 136.382 148.916 133.404 147.472C131.556 146.575 129.724 145.644 127.911 144.683C127.888 144.673 127.877 144.652 127.877 144.627V144.561C127.972 144.531 128.069 144.512 128.169 144.501C135.894 143.536 143.629 142.682 151.373 141.938Z" fill="#1EAEC1"/>
<path d="M77.681 148.611C77.6499 148.594 77.6232 148.57 77.6006 148.541C77.3834 148.251 73.528 142.505 74.7817 142.75C74.8423 142.76 74.8959 142.794 74.9326 142.844C76.2863 144.682 78.5623 147.724 78.4509 148.517C78.4044 148.833 78.1491 148.865 77.681 148.611Z" fill="#3D1505"/>
<path d="M108.499 156.035C108.16 155.912 108.026 155.638 108.097 155.214L109.226 148.364C109.294 147.954 109.501 147.65 109.847 147.451C112.051 146.186 114.276 144.823 116.528 143.368C117.302 142.867 118.422 142.634 119.323 143.097C119.783 143.333 120.245 143.56 120.711 143.778C121.303 144.056 121.271 144.178 120.618 144.145C120.192 144.124 119.891 144.119 119.724 144.129C118.889 144.172 118.065 144.533 117.298 145.037C115.469 146.237 113.663 147.465 111.873 148.719C110.198 149.897 109.195 150.443 109.46 152.482C109.618 153.703 109.731 154.927 109.799 156.15C109.809 156.324 109.635 156.451 109.473 156.39L108.499 156.035Z" fill="#FFCEAA"/>
<path d="M106.802 148.186C105.667 149.768 103.82 148.85 104.034 147.015C104.044 146.931 104.098 146.858 104.175 146.825L108.73 144.774C109.146 144.588 109.226 144.684 108.971 145.06C108.263 146.114 107.54 147.157 106.802 148.186Z" fill="#FFCEAA"/>
<path d="M186.798 171.438C187.16 171.242 187.789 171.061 188.682 170.891C193.403 170.004 197.123 167.486 199.848 163.34L206.071 172.058C206.107 172.112 206.121 172.179 206.11 172.245L201.954 193.958C201.933 194.069 201.834 194.151 201.72 194.157C197.16 194.278 192.544 193.333 188.162 192.175C182.559 190.695 177.009 189.05 171.506 187.235C170.719 186.978 169.473 186.605 168.536 186.239C160.779 183.207 152.996 180.249 145.183 177.363C144.61 177.153 143.44 176.646 141.667 175.849C141.601 175.82 141.526 175.82 141.46 175.852C139.432 176.823 137.472 177.272 135.451 176.288C132.187 174.698 131.466 169.531 133.367 166.81C133.591 166.492 133.602 166.186 133.406 165.899L131.466 163.061C131.422 162.998 131.349 162.957 131.274 162.954C128.114 162.831 124.961 162.921 121.818 163.224C121.734 163.231 121.664 163.28 121.626 163.351C121.007 164.518 120.496 165.782 120.089 167.149C119.738 168.331 118.896 169.901 117.415 169.281C117.311 169.237 117.25 169.128 117.268 169.017C117.684 166.54 118.062 164.328 118.401 162.38C118.545 161.556 118.997 160.759 119.762 159.989C119.81 159.941 119.876 159.916 119.946 159.919C123.542 160.081 127.011 159.516 130.355 158.225C130.518 158.162 130.837 158.148 131.312 158.184C131.383 158.191 131.453 158.164 131.503 158.114C131.685 157.934 131.666 157.764 131.445 157.607C130.208 156.723 129.025 157.241 127.708 157.513C127.62 157.53 127.53 157.501 127.474 157.433C127.13 157.039 126.841 156.74 126.607 156.543C124.975 155.157 123.343 153.772 121.713 152.385C121.012 151.791 118.916 152.504 117.943 152.949C115.985 153.843 114.49 154.326 114.953 156.664C115.339 158.632 115.775 163.051 112.377 162.516C111.714 162.413 111.401 162.017 111.437 161.336C111.586 158.528 111.571 155.72 111.388 152.914C111.342 152.191 111.418 151.657 112.011 151.153C114.634 148.924 116.177 147.514 118.801 146.346C121.114 145.316 124.565 146.586 126.87 147.237C128.764 147.771 133.208 150.472 134.001 152.088C135.935 156.033 137.906 159.836 140.405 163.464C141.078 164.442 141.99 165.078 143.144 165.371C151.561 167.501 160.704 169.256 172.437 171.501C180.496 173.042 187.888 175.625 197.205 178.92C198.127 179.244 199.32 179.223 198.875 177.803C198.858 177.747 198.821 177.702 198.773 177.669C194.74 175.136 190.749 173.059 186.798 171.438Z" fill="#FFCEAA"/>
<path d="M102.07 147.919C102.116 149.72 103.005 150.627 104.734 150.638C105.048 150.641 105.113 150.768 104.931 151.022C102.914 153.814 100.99 156.666 99.1563 159.576C97.9267 161.527 97.4233 163.909 97.0073 166.146C96.8423 167.033 96.4418 167.699 96.0512 168.481C95.8735 168.838 95.7804 169.416 96.4037 169.309C96.4601 169.299 96.5081 169.273 96.5447 169.232C97.0439 168.669 97.333 167.979 97.938 167.544C99.9912 166.053 101.975 164.485 103.507 162.414C104.683 160.822 105.812 159.196 106.894 157.536C106.967 157.425 107.115 157.392 107.227 157.46C108.021 157.95 108.882 158.136 109.814 158.017C109.969 157.997 110.102 158.127 110.087 158.281C109.895 160.279 109.814 161.559 109.851 162.116C109.938 163.471 111.158 164.154 112.432 164.268C114.073 164.414 115.283 163.694 116.064 162.109C116.222 161.792 116.349 161.263 116.449 160.526C116.469 160.366 116.641 160.272 116.79 160.337C116.929 160.397 117.032 160.5 117.099 160.637C117.167 160.775 117.167 160.954 117.099 161.175C116.355 163.573 115.813 166.017 115.48 168.499C115.262 170.137 116.181 171.198 117.842 171.207C120.825 171.223 121.575 168.141 121.682 165.798C121.685 165.771 121.706 165.749 121.733 165.749H121.797C121.816 165.749 121.833 165.758 121.843 165.775C123.138 168.2 124.29 171.162 126.179 173.432C113.656 173.692 101.139 173.912 88.614 174.109C87.5155 165.967 86.2816 157.847 84.9109 149.748C90.5064 148.719 96.3868 148.232 102.07 147.919Z" fill="#1EAEC1"/>
<path d="M105.284 155.652C104.353 155.009 104.288 154.535 104.948 153.607C105.52 152.806 106.065 151.991 106.581 151.165C106.88 150.683 107 150.725 106.939 151.289C106.791 152.646 106.56 153.988 106.245 155.318C106.108 155.889 105.787 156 105.284 155.652Z" fill="#8A0917"/>
<path d="M118.189 158.368C117.627 157.83 116.312 157.19 116.843 156.243C117.205 155.593 119.265 154.649 119.993 154.252C120.09 154.198 120.214 154.218 120.29 154.302C121.31 155.423 122.438 156.424 123.668 157.304C124.053 157.578 124.009 157.725 123.534 157.745C121.338 157.828 119.945 157.908 119.358 157.982C119.185 158.004 118.893 158.145 118.487 158.399C118.391 158.461 118.27 158.445 118.189 158.368Z" fill="#E08D6F"/>
<path d="M100.545 160.236C100.458 160.153 100.445 160.018 100.516 159.921L103.067 156.343C103.154 156.219 103.332 156.205 103.438 156.312C103.868 156.741 104.38 157.042 104.966 157.216C105.121 157.265 105.19 157.446 105.1 157.582L102.631 161.374C102.565 161.475 102.431 161.514 102.322 161.461C101.662 161.149 101.071 160.742 100.545 160.236Z" fill="#EBEBEB"/>
<path d="M199.848 163.34C197.123 167.486 193.403 170.004 188.682 170.891C187.788 171.061 187.16 171.243 186.798 171.438C184.488 170.581 182.129 169.848 179.72 169.243C179.217 169.117 179.218 168.99 179.723 168.867C186.225 167.266 192.089 164.38 197.309 160.206C197.419 160.119 197.58 160.14 197.662 160.254L199.848 163.34Z" fill="#E08D6F"/>
<path d="M100.177 161.715C100.165 161.698 100.153 161.681 100.143 161.665C100.107 161.597 99.3834 160.121 100.214 160.938C100.703 161.42 101.256 161.818 101.867 162.125C101.988 162.185 102.034 162.335 101.971 162.455C101.903 162.581 101.793 162.634 101.642 162.615C101.146 162.546 100.657 162.246 100.177 161.715Z" fill="#8A0917"/>
<path d="M98.6262 164.777C98.5824 164.721 98.5655 164.647 98.5796 164.578L99.0083 162.627C99.0746 162.334 99.21 162.293 99.4215 162.508C99.7642 162.857 100.159 163.134 100.61 163.335C100.774 163.41 100.805 163.628 100.667 163.742C100.131 164.189 99.5935 164.645 99.0506 165.11C98.9843 165.168 98.8433 165.055 98.6262 164.777Z" fill="#8A0917"/>
<path d="M124.704 164.944C124.469 164.724 124.512 164.612 124.835 164.61C126.299 164.594 127.752 164.474 129.196 164.25C129.29 164.236 129.386 164.279 129.44 164.359L130.932 166.64C130.978 166.71 130.982 166.8 130.946 166.876C129.997 168.88 129.803 170.948 130.369 173.089C130.453 173.418 130.342 173.512 130.033 173.369C128.073 172.478 126.8 170.941 126.209 168.763C125.968 167.876 125.79 166.231 125.254 165.535C125.106 165.342 124.923 165.145 124.704 164.944Z" fill="#E08D6F"/>
<path d="M202.368 223.469C201.251 222.885 200.876 222.285 201.08 220.995C202.125 214.434 203.167 208.781 204.201 204.039C204.472 202.798 204.697 201.397 204.868 200.606C207.127 190.014 209.277 179.404 211.315 168.769C211.496 167.831 213.365 167.092 214.22 166.878C214.739 166.748 215.451 166.701 216.361 166.741C220.901 166.93 225.486 166.717 229.909 166.721C247.895 166.748 265.88 166.721 283.864 166.637C285 166.631 286.159 166.898 287.335 167.434C288.575 167.998 288.404 169.145 288.244 170.245C288.046 171.609 287.908 172.45 287.828 172.767C284.711 184.887 281.655 195.973 278.797 209.185C277.916 213.256 276.844 217.196 275.781 221.174C275.525 222.136 274.822 222.788 273.897 222.943C273.132 223.072 271.363 223.152 268.589 223.187C250.399 223.413 236.998 223.466 228.385 223.344C219.722 223.223 211.089 223.274 202.487 223.497C202.447 223.5 202.404 223.49 202.368 223.469Z" fill="#EBEBEB"/>
<path d="M126.175 173.438C127.969 174.823 129.184 176.002 131.614 176.19C131.694 176.197 131.765 176.241 131.806 176.309C133.525 179.222 138.343 179.29 141.172 178.335C141.23 178.315 141.293 178.318 141.353 178.344C146.614 180.746 152.628 183.314 159.398 186.045C159.5 186.086 159.52 186.132 159.455 186.188C159.431 186.208 159.398 186.219 159.367 186.218C137.311 185.261 115.2 185.053 93.1251 184.884C92.09 184.877 91.0578 184.851 90.0227 184.807C89.9029 184.803 89.8056 184.71 89.7915 184.591L88.6111 174.113C101.135 173.917 113.651 173.696 126.175 173.438Z" fill="#A4F1FB"/>
<path d="M52.2332 186.779C51.7735 186.435 52.2501 186.055 52.5956 185.878C53.4135 185.458 54.2977 184.882 55.2439 184.148C56.4679 183.196 57.3845 182.01 57.9909 180.589C58.0614 180.426 58.2757 180.389 58.3956 180.518C59.119 181.303 59.9172 182.006 60.7915 182.623C60.9085 182.706 60.9282 182.87 60.8352 182.98C60.1992 183.724 59.4645 184.347 58.6297 184.848C56.9065 185.888 55.0436 186.595 53.0426 186.969C52.7451 187.023 52.4743 186.96 52.2332 186.779Z" fill="#E08D6F"/>
<path d="M63.6457 184.792L63.1902 184.772C62.9152 184.759 62.8687 184.653 63.0534 184.448L63.1211 184.374C63.1817 184.306 63.2748 184.28 63.3622 184.301C63.4863 184.331 63.6076 184.371 63.7274 184.42C64.4212 184.698 64.393 184.823 63.6457 184.792Z" fill="white"/>
<path d="M64.3507 194.61C60.4629 194.651 35.6356 194.741 34.7303 190.362C34.4694 189.105 35.692 188.595 36.8215 188.097C37.2277 188.003 37.5182 187.994 37.6958 188.073C38.9833 188.636 40.3201 188.957 41.7106 189.043C42.3945 189.083 42.9811 189.162 43.4733 189.28C48.1621 190.404 52.7127 190.834 57.2266 188.815C57.5608 188.668 57.8936 188.598 58.232 188.606C65.2419 188.824 72.2434 189.009 79.2435 189.161C81.8029 189.217 84.3581 189.224 86.9147 189.182C87.2757 189.178 86.9458 189.312 86.9147 189.312C85.9798 189.3 85.0477 189.346 84.117 189.45C79.3182 189.983 74.6266 190.991 70.0478 192.474C68.2442 193.062 66.2432 193.883 64.3507 194.61Z" fill="#C5DCFF"/>
<path d="M130.669 189.854L130.548 190.348L130.393 190.464C130.362 190.487 130.329 190.501 130.293 190.508C125.249 191.455 119.543 193.304 115.437 196.459C115.346 196.529 115.22 196.526 115.132 196.453C110.632 192.72 104.777 190.415 99.0026 189.722C98.9082 189.709 98.9025 189.679 98.9829 189.628C99.0125 189.611 99.0675 189.601 99.1507 189.601C109.654 189.601 120.169 189.688 130.669 189.854Z" fill="#C5DCFF"/>
<path d="M182.84 200.983C180.449 201.104 178.055 201.117 175.659 201.02C175.504 200.971 175.301 200.863 175.199 200.722C174.632 199.954 173.929 199.355 173.085 198.927C172.029 198.387 171.255 198.794 170.196 197.876C168.139 196.091 165.963 194.673 163.671 193.621C160.246 192.048 156.601 190.905 152.74 190.189C151.469 189.955 151.479 189.829 152.771 189.806L168.041 189.552C168.072 189.549 168.102 189.555 168.129 189.566C171.252 190.703 174.515 192.149 177.364 193.152C184.951 195.823 192.887 198.461 200.749 198.844C200.895 198.851 201.002 198.985 200.977 199.128L200.904 199.552C200.884 199.665 200.787 199.751 200.672 199.755C198.116 199.841 195.3 200.182 193.039 200.308C189.639 200.498 186.238 200.724 182.84 200.983Z" fill="#C5DCFF"/>
<path d="M250.171 192.738C252.648 196.171 251.682 201.08 248.01 203.706C244.34 206.33 239.356 205.676 236.876 202.245C234.398 198.812 235.364 193.903 239.036 191.277C242.708 188.651 247.692 189.305 250.171 192.738Z" fill="white"/>
<path d="M249.497 194.026C251.114 196.908 249.831 200.684 246.633 202.465C243.433 204.245 239.528 203.352 237.911 200.472C236.293 197.591 237.576 193.813 240.775 192.034C243.974 190.254 247.879 191.145 249.497 194.026Z" fill="#EBEBEB"/>
<path d="M32.866 216.083C32.773 216.083 32.6855 216.102 32.6122 216.167C27.2508 221.045 20.0223 220.763 14.6693 216.097C14.6016 216.039 14.5015 215.997 14.3718 215.971L14.4014 215.9C14.4183 215.86 14.4084 215.813 14.3746 215.787C13.7245 215.232 13.1449 214.609 12.6387 213.919C12.5752 213.832 12.461 213.798 12.3609 213.833C7.84272 215.443 1.18111 213.096 0.141825 208.073C-0.451853 205.202 1.13035 201.943 4.19745 201.333C5.64428 201.046 6.98534 201.223 8.22487 201.866C8.38281 201.949 8.57318 201.837 8.58023 201.66C8.59293 201.337 8.58729 201.018 8.56613 200.698C8.53511 200.241 8.57318 199.887 8.68318 199.632C10.3726 195.711 23.8509 195.602 27.4087 195.786C30.5759 195.951 34.7881 196.409 37.2531 198.574C37.294 198.613 37.3236 198.661 37.3334 198.717C38.3755 205.091 37.3997 211.124 32.8872 215.926C32.8632 215.949 32.8562 216.003 32.866 216.083ZM5.35237 208.339C6.56229 209.359 8.04296 209.812 9.79298 209.7C9.95091 209.69 10.0581 209.537 10.0115 209.387L9.12315 206.532C9.10059 206.459 9.04559 206.403 8.97508 206.377C8.01617 206.023 6.74279 205.33 5.82901 205.505C4.2313 205.814 4.32155 207.471 5.35237 208.339Z" fill="#3D1505"/>
<path d="M155.069 202.596C144.413 201.895 133.37 203.806 123.428 207.648C120.684 208.708 118.057 210.002 115.545 211.53C115.389 211.624 115.187 211.52 115.176 211.339C115.153 211.012 115.159 210.682 115.19 210.355C115.452 207.53 115.623 204.598 115.485 201.73C115.435 200.726 115.414 199.722 115.417 198.715C115.417 198.618 115.476 198.531 115.564 198.492C118.265 197.344 121.203 195.977 123.703 195.113C134.496 191.37 146.686 191.184 157.661 194.015C161.457 194.993 165.063 196.52 168.483 198.592C169.05 198.933 169.585 199.369 170.092 199.896C173.382 203.312 175.487 205.435 176.405 206.263C177.024 206.823 177.54 207.327 177.951 207.774C178.367 208.222 178.292 208.327 177.729 208.082C170.487 204.942 162.934 203.112 155.069 202.596Z" fill="white"/>
<path d="M81.7888 201.401C72.211 201.261 62.9194 202.775 53.9198 205.944C53.4178 206.121 53.3501 206.015 53.7125 205.63L61.1116 197.755C61.1313 197.736 61.1525 197.719 61.1751 197.706C62.2736 197.115 63.4299 196.478 64.6511 196.082C80.2475 191.057 100.287 189.455 114.396 199.62C114.462 199.667 114.498 199.744 114.496 199.827L114.094 211.79C114.084 212.103 113.973 212.146 113.759 211.916C111.91 209.941 109.768 208.332 107.334 207.087C99.6175 203.142 90.4021 201.531 81.7888 201.401Z" fill="white"/>
<path d="M34.3749 200.27C26.8644 198.136 19.1297 198.586 11.7587 201.247C11.347 201.394 10.9578 201.296 10.5954 200.944C10.522 200.874 10.5009 200.767 10.539 200.674C10.7096 200.281 10.9141 199.917 11.1552 199.577C11.8462 198.599 13.8965 198.307 15.1361 198.077C20.2973 197.12 25.4768 197.009 30.6747 197.743C31.8916 197.915 33.0733 198.217 34.2198 198.646C34.9841 198.933 35.6342 199.724 34.5512 200.255C34.4948 200.283 34.4341 200.287 34.3749 200.27Z" fill="#C8001A"/>
<path d="M56.5525 201.131L56.4961 200.833C56.6738 200.617 56.8783 200.447 57.1053 200.324C57.6073 200.05 57.6722 200.13 57.2999 200.561C57.1321 200.754 56.9643 200.948 56.7979 201.145C56.7302 201.227 56.6484 201.222 56.5525 201.131Z" fill="white"/>
<path d="M56.4976 200.832L56.554 201.129L56.5441 201.212C56.5399 201.265 56.5173 201.316 56.4778 201.355C55.1198 202.753 53.7604 204.151 52.3996 205.547C51.9568 206.001 51.813 206.57 51.2306 206.977C48.7036 208.741 46.1512 210.472 43.5776 212.166L43.4338 212.072C45.5208 209.801 47.6728 207.593 49.8853 205.448C49.9248 205.408 49.9756 205.384 50.032 205.38L50.2125 205.363L50.3323 205.429C50.4353 205.485 50.5636 205.46 50.6397 205.369L51.3801 204.465C52.9933 203.122 54.6982 201.911 56.4976 200.832Z" fill="#EBEBEB"/>
<path d="M35.5947 202.645C34.1578 203.248 32.7025 203.905 31.2486 204.29C27.0238 205.407 22.7326 205.666 18.3696 205.063C18.2018 205.039 18.0608 205.189 18.0974 205.354C18.6474 207.884 19.3906 210.355 20.3227 212.768C20.6978 213.745 20.1887 214.74 19.0817 213.948C16.1627 211.857 14.6115 207.811 14.4127 204.387C14.4085 204.294 14.3492 204.215 14.2618 204.179L10.742 202.738C10.6278 202.406 10.7124 202.281 10.993 202.367C16.1204 203.939 21.7709 204.095 27.3298 203.615C30.2488 203.362 32.9098 202.768 35.3113 201.834C35.4791 201.768 35.6568 201.901 35.6427 202.078L35.5947 202.645Z" fill="#F1B189"/>
<path d="M78.881 202.109L78.9416 202.272C78.912 202.293 78.8881 202.312 78.8669 202.335C78.6046 202.594 78.6568 202.732 79.0277 202.749C80.0021 202.789 80.9751 202.823 81.9467 202.853C90.4697 203.114 99.4003 205.811 106.808 209.734C108.252 210.497 109.795 211.502 111.433 212.745C111.574 212.852 111.557 213.068 111.402 213.15C111.254 213.23 111.095 213.273 110.933 213.28C110.745 213.287 110.543 213.203 110.326 213.026C102.033 206.246 89.7266 203.457 79.1405 203.254C77.468 203.223 75.8435 203.215 74.2684 203.234C66.5703 203.327 59.1387 204.792 51.9793 207.633C50.7229 208.13 50.6862 208.054 51.8722 207.407C52.2247 207.216 52.6266 207.04 53.0779 206.886C59.6422 204.615 66.1966 203.157 72.7398 202.507C74.5476 202.329 76.8306 202.272 78.881 202.109Z" fill="#EBEBEB"/>
<path d="M78.881 202.109C79.713 202.126 80.6578 202.026 80.8623 202.099C81.071 202.175 81.064 202.215 80.8398 202.222L78.9403 202.272L78.881 202.109Z" fill="#8A0917"/>
<path d="M83.1877 202.356C83.0325 202.346 82.9127 202.325 82.8295 202.288C82.7223 202.242 82.7294 202.221 82.852 202.225C92.0477 202.642 100.832 205.057 108.709 209.849C109.432 210.288 110.761 211.136 112.697 212.39C113.069 212.633 113.035 212.781 112.592 212.834C112.566 212.837 112.539 212.838 112.512 212.837C112.408 212.834 112.291 212.781 112.157 212.681C104.182 206.56 93.1801 203.013 83.1877 202.356Z" fill="#EBEBEB"/>
<path d="M35.5947 202.645C35.6483 204.802 35.6243 207.13 34.8671 209.109C33.4231 212.882 30.136 216.243 26.0775 217.113C20.8924 218.226 16.1246 215.185 13.2803 211.073C11.6346 208.694 10.9888 205.623 10.7392 202.738L14.259 204.179C14.3464 204.215 14.4056 204.295 14.4098 204.387C14.6101 207.811 16.1599 211.857 19.0789 213.948C20.1873 214.741 20.6949 213.745 20.3198 212.768C19.3877 210.354 18.6446 207.883 18.0946 205.354C18.0579 205.189 18.199 205.039 18.3668 205.063C22.7298 205.666 27.0223 205.407 31.2458 204.29C32.7025 203.905 34.1592 203.248 35.5947 202.645Z" fill="#FE4C00"/>
<path d="M7.95973 204.746C5.56387 203.439 2.19499 204.867 3.33158 207.984C4.24678 210.494 7.39567 211.303 9.77179 211.398C10.388 211.422 10.7645 211.769 11.1284 212.199C11.3272 212.439 11.2722 212.573 10.9606 212.597C7.61565 212.86 3.26953 211.686 2.06385 208.224C0.608559 204.041 5.1098 201.867 8.46175 203.392C8.50829 203.414 8.54918 203.45 8.57315 203.495C8.88057 204.055 8.75083 204.472 8.18536 204.75C8.11485 204.784 8.03024 204.784 7.95973 204.746Z" fill="#FE4C00"/>
<path d="M186.321 204.159L186.049 203.438C187.554 203.335 189.056 203.21 190.563 203.195C193.701 203.164 196.84 203.128 199.977 203.091C200.131 203.088 200.245 203.225 200.221 203.375L200.013 204.622C199.993 204.739 199.891 204.823 199.771 204.823C197.108 204.826 194.449 204.833 191.793 204.84C190.875 204.843 189.982 204.907 189.109 205.034C188.934 205.06 188.844 205.26 188.941 205.407C189.548 206.335 190.181 207.245 190.841 208.135C193.129 211.224 195.428 214.306 197.738 217.381C197.777 217.434 197.794 217.5 197.784 217.562L197.624 218.596C197.566 218.977 197.419 219.013 197.188 218.706C193.699 214.084 190.201 209.474 186.692 204.869C186.6 204.753 186.479 204.516 186.321 204.159Z" fill="#EBEBEB"/>
<path d="M183.938 205.156L183.563 204.402C183.509 204.221 183.275 203.341 183.663 203.379C183.704 203.382 183.744 203.403 183.77 203.435C188.167 208.817 192.409 214.317 196.491 219.938C197.04 220.692 197.597 221.405 196.951 222.143C196.85 222.259 196.666 222.252 196.573 222.13C192.173 216.415 187.746 210.983 183.938 205.156Z" fill="#EBEBEB"/>
<path d="M186.048 203.436L186.32 204.158C185.95 204.322 185.46 203.553 186.048 203.436Z" fill="white"/>
<path d="M48.2044 210.348L48.1437 210.288C53.6363 207.172 59.4702 205.389 65.72 204.509C76.966 202.927 88.6619 203.697 99.389 207.561C103.132 208.911 106.591 210.803 109.768 213.238C110.016 213.429 109.992 213.571 109.692 213.662L108.798 213.938C108.72 213.962 108.634 213.945 108.572 213.892C104.365 210.42 99.279 208.218 93.9641 206.814C83.9619 204.176 73.7607 203.716 63.358 205.434C57.9289 206.333 52.8762 207.971 48.2044 210.348Z" fill="#EBEBEB"/>
<path d="M119.128 213.454C118.841 213.38 118.807 213.244 119.024 213.043C120.767 211.432 122.717 210.157 124.878 209.219C134.032 205.243 144.669 203.925 154.707 203.832C157.364 203.808 159.386 204.038 162.281 204.447C167.937 205.25 173.49 206.805 178.939 209.116C178.963 209.129 178.986 209.143 179.007 209.16C179.194 209.327 179.221 209.383 179.084 209.329C160.264 201.738 137.248 202.649 119.879 213.565C119.821 213.602 119.752 213.611 119.687 213.596L119.128 213.454Z" fill="#EBEBEB"/>
<path d="M142.56 204.089C142.565 204.133 142.405 204.187 142.2 204.214C141.996 204.241 141.828 204.227 141.821 204.184C141.815 204.141 141.976 204.086 142.18 204.06C142.385 204.033 142.553 204.048 142.56 204.089Z" fill="#8A0917"/>
<path d="M141.286 204.213C141.295 204.25 141.11 204.321 140.873 204.368C140.638 204.416 140.44 204.42 140.432 204.381C140.423 204.343 140.608 204.273 140.845 204.225C141.08 204.179 141.276 204.173 141.286 204.213Z" fill="#8A0917"/>
<path d="M51.3786 204.462L50.6383 205.366C50.5622 205.459 50.4338 205.483 50.3309 205.427L50.211 205.361C50.228 205.181 50.3224 205.067 50.4959 205.021C50.5466 205.008 50.5932 204.977 50.627 204.934C50.8188 204.685 51.0698 204.527 51.3786 204.462Z" fill="white"/>
<path d="M140.079 204.447C140.088 204.481 140.062 204.513 140.028 204.52L134.684 205.525C134.65 205.532 134.616 205.508 134.611 205.474L134.606 205.455C134.599 205.419 134.623 205.389 134.657 205.382L140.002 204.377C140.036 204.368 140.069 204.394 140.075 204.427L140.079 204.447Z" fill="#8A0917"/>
<path d="M183.563 204.402L183.938 205.156C183.531 205.07 183.404 204.82 183.563 204.402Z" fill="white"/>
<path d="M182.033 204.666C186.534 211.307 191.721 218.323 197.59 225.705C198.103 226.349 198.347 226.575 199.226 226.616C204.728 226.872 209.349 226.959 213.092 226.878C230.933 226.484 248.777 226.218 266.62 226.085C269.66 226.063 273.041 226.196 276.247 226.213C276.471 227.526 275.806 228.034 274.545 228.023C273.187 228.006 271.831 228.019 270.474 228.057C252.898 228.547 235.317 228.777 217.734 228.75C211.952 228.74 206.061 228.597 200.309 227.963C198.908 227.81 197.658 227.437 196.72 226.319C193.279 222.22 189.92 218.057 186.639 213.829C184.896 211.582 183.344 209.349 181.988 207.122C181.747 206.727 181.566 206.302 181.452 205.852C181.322 205.337 181.515 204.94 182.033 204.666Z" fill="#C5DCFF"/>
<path d="M78.1365 205.429C66.3715 205.136 55.3285 207.724 45.0075 213.19C44.4717 213.474 44.4421 213.427 44.9201 213.057C44.9596 213.026 45.0033 212.994 45.0498 212.963C49.654 209.767 55.3017 207.753 60.7562 206.593C72.3604 204.124 84.5189 204.472 95.8735 207.971C100.16 209.292 104.112 211.269 107.727 213.898C107.875 214.007 107.854 214.232 107.688 214.312C107.252 214.518 106.819 214.466 106.385 214.159C98.0889 208.245 88.2473 205.683 78.1365 205.429Z" fill="#EBEBEB"/>
<path d="M120.901 213.999C120.499 213.916 120.475 213.769 120.823 213.555C127.193 209.686 134.068 207.154 141.45 205.958C153.983 203.93 166.162 205.084 177.987 209.423C179.19 209.864 179.86 210.124 179.994 210.201C180.473 210.475 180.872 210.845 181.191 211.315C181.53 211.812 181.425 211.931 180.882 211.669C172.081 207.41 162.753 205.316 152.896 205.391C141.738 205.476 131.284 208.37 121.533 214.066C121.479 214.097 121.419 214.107 121.361 214.096L120.901 213.999Z" fill="#EBEBEB"/>
<path d="M191.704 207.911L190.089 206.023C190.045 205.972 190.082 205.892 190.153 205.892L193.156 205.929C193.183 205.929 193.207 205.942 193.223 205.96L194.519 207.728C194.558 207.781 194.521 207.854 194.455 207.856L191.767 207.939C191.743 207.939 191.718 207.929 191.704 207.911Z" fill="#EBEBEB"/>
<path d="M195.346 207.76L193.966 206.047C193.925 205.993 193.962 205.916 194.029 205.916H197.122C197.148 205.916 197.172 205.929 197.188 205.95L198.32 207.591C198.354 207.644 198.318 207.714 198.254 207.717L195.41 207.793C195.386 207.791 195.36 207.779 195.346 207.76Z" fill="#EBEBEB"/>
<path d="M198.148 205.909L199.597 205.975C199.711 205.981 199.794 206.086 199.769 206.196L199.481 207.61C199.451 207.763 199.252 207.811 199.155 207.687L197.993 206.207C197.897 206.083 197.993 205.904 198.148 205.909Z" fill="#EBEBEB"/>
<path d="M122.53 214.531C122.184 214.417 122.17 214.271 122.483 214.09C130.241 209.624 138.586 207 147.523 206.218C159.689 205.154 171.182 207.339 181.996 212.778C182.388 212.974 183.294 214.239 182.904 214.045C180.146 212.671 177.87 211.624 176.078 210.904C158.748 203.944 139.474 205.091 123.18 214.462C123.005 214.561 122.844 214.599 122.7 214.573C122.644 214.561 122.586 214.547 122.53 214.531Z" fill="#EBEBEB"/>
<path d="M104.842 214.814C90.4782 206.099 71.4706 204.904 55.5837 210.305C55.54 210.322 55.5034 210.348 55.4738 210.382C55.2862 210.612 55.0987 210.746 54.9167 210.786C53.0102 211.199 51.184 211.661 49.4411 212.177C47.1453 212.855 47.1016 212.734 49.3099 211.814C51.6931 210.817 54.1313 209.975 56.616 209.283C69.7164 205.641 84.0112 205.275 96.8832 210.044C99.8459 211.141 102.627 212.646 105.227 214.563C105.991 215.126 105.107 214.973 104.842 214.814Z" fill="#EBEBEB"/>
<path d="M126.114 208.148L125.993 208.087L128.859 207.031C129.227 206.894 129.241 206.927 128.902 207.123C128.774 207.199 128.64 207.259 128.496 207.31C127.704 207.588 126.91 207.867 126.114 208.148Z" fill="#8A0917"/>
<path d="M180.843 213.67L180.712 213.74C177.951 212.674 175.102 211.959 172.338 210.932C167.411 209.101 162.016 208.191 156.532 207.817C152.655 207.553 146.69 207.724 141.826 208.793C139.662 209.268 137.554 210.208 135.333 210.664C131.74 211.404 128.423 212.602 125.387 214.267C124.771 214.606 124.24 214.827 123.796 214.931C123.689 214.957 123.659 214.918 123.706 214.82C123.723 214.786 123.759 214.752 123.816 214.72C141.499 204.639 162.766 204.687 180.843 213.67Z" fill="#EBEBEB"/>
<path d="M89.2486 209.269C79.1574 207.515 68.2879 208.138 58.2715 210.096C58.2546 210.099 58.2349 210.093 58.2208 210.083C58.1813 210.054 58.1968 210.03 58.2673 210.01C69.0339 207.132 79.9626 206.826 90.8068 209.506C90.9802 209.55 91.0268 209.596 90.9506 209.642C90.9111 209.666 90.8646 209.673 90.8209 209.659C90.3019 209.492 89.776 209.362 89.2486 209.269Z" fill="#EBEBEB"/>
<path d="M125.992 208.087L126.113 208.148C123.215 209.329 120.501 210.8 118.308 213.06C118.254 213.117 118.171 213.144 118.093 213.13L117.745 213.077C117.407 213.02 117.366 212.88 117.624 212.656C119.034 211.408 119.934 210.691 120.321 210.501C122.17 209.595 124.06 208.789 125.992 208.087Z" fill="#EBEBEB"/>
<path d="M193.935 208.261C194.222 208.274 194.514 208.284 194.809 208.288C194.885 208.291 194.956 208.325 194.999 208.385L196.176 209.943C196.363 210.19 196.3 210.319 195.988 210.33L193.833 210.4C193.756 210.403 193.685 210.369 193.636 210.308L192.329 208.684C192.137 208.447 192.192 208.316 192.496 208.291C192.983 208.252 193.462 208.242 193.935 208.261Z" fill="#EBEBEB"/>
<path d="M197.263 210.186L195.994 208.569C195.829 208.358 195.879 208.254 196.15 208.256L198.487 208.282C199.037 208.29 199.281 208.532 199.217 209.009L199.079 210.066C199.065 210.187 198.959 210.277 198.838 210.277H197.453C197.38 210.277 197.309 210.243 197.263 210.186Z" fill="#EBEBEB"/>
<path d="M167.807 210.166L167.686 210.226C158.588 208.612 149.455 208.442 140.288 209.72C140.062 209.75 140.098 209.662 140.232 209.63C148.79 207.701 157.417 208.031 165.857 209.683C166.516 209.812 167.166 209.975 167.807 210.166Z" fill="#EBEBEB"/>
<path d="M167.807 210.166C169.047 210.449 169.004 210.47 167.686 210.226L167.807 210.166Z" fill="#8A0917"/>
<path d="M48.1437 210.287L48.2044 210.347C47.1792 210.89 47.1594 210.87 48.1437 210.287Z" fill="#8A0917"/>
<path d="M195.327 212.378L194.2 210.984C194.156 210.934 194.196 210.855 194.263 210.858L196.941 210.979C196.965 210.981 196.985 210.991 197 211.009L197.95 212.25C197.989 212.301 197.955 212.374 197.889 212.376L195.391 212.406C195.366 212.407 195.342 212.397 195.327 212.378Z" fill="#EBEBEB"/>
<path d="M198.121 210.91L198.774 211.007C198.842 211.016 198.891 211.08 198.882 211.15L198.801 211.8C198.787 211.913 198.64 211.954 198.57 211.863L198 211.116C197.93 211.023 198.007 210.893 198.121 210.91Z" fill="#EBEBEB"/>
<path d="M116.531 212.737C115.915 212.67 115.891 212.514 116.463 212.271C117.08 212.011 117.69 211.707 118.297 211.355C118.391 211.301 118.39 211.314 118.291 211.388C117.943 211.665 116.998 212.752 116.606 212.74C116.582 212.74 116.558 212.74 116.531 212.737Z" fill="white"/>
<path d="M43.4352 212.07L43.579 212.164C43.4916 212.399 43.3449 212.567 43.1433 212.661C42.9022 212.778 42.8486 212.719 42.9825 212.487C43.0968 212.291 43.2476 212.153 43.4352 212.07Z" fill="white"/>
<path d="M196.04 213.05L198.473 213.159C198.521 213.162 198.557 213.206 198.549 213.253L198.16 215.645C198.15 215.712 198.062 215.738 198.019 215.684L195.975 213.18C195.93 213.127 195.97 213.047 196.04 213.05Z" fill="#EBEBEB"/>
<path d="M180.843 213.67C181.831 214.114 181.788 214.138 180.712 213.74L180.843 213.67Z" fill="#8A0917"/>
<path d="M21.8964 215.541C21.8202 215.813 21.5114 215.965 21.2026 215.881C20.8952 215.795 20.7062 215.506 20.7838 215.235C20.8599 214.961 21.1702 214.811 21.4776 214.895C21.7864 214.981 21.9739 215.269 21.8964 215.541Z" fill="#F1B189"/>
<path d="M14.3718 215.972C14.5001 215.999 14.6002 216.039 14.6693 216.098C20.0237 220.765 27.2522 221.047 32.6122 216.168C32.6855 216.102 32.773 216.084 32.866 216.084C33.8813 216.271 35.9924 216.959 36.2067 218.161C36.4958 219.789 33.5429 220.459 32.3132 220.682C27.3438 221.581 22.3504 221.739 17.3275 221.155C16.157 221.019 15.0021 220.794 13.8697 220.477C10.0919 219.42 11.7277 216.692 14.3718 215.972Z" fill="#C5DCFF"/>
<path d="M187.287 217.693C187.244 220.142 185.157 219.469 183.533 219.476C166.372 219.549 149.211 219.57 132.05 219.539C130.991 219.537 129.372 219.377 128.011 219.605C120.296 220.902 112.615 220.56 104.309 220.179C102.998 220.119 101.816 219.906 100.77 219.539C100.338 219.386 99.9348 219.312 99.5569 219.309C87.1277 219.215 79.0037 219.123 75.1836 219.038C63.6062 218.779 53.0215 219.113 41.9362 219.116C40.4076 219.116 38.6252 219.059 38.8324 216.911C51.6776 216.78 64.5298 216.57 77.3764 216.533C84.8503 216.514 92.3255 216.414 99.7966 216.236C99.9799 216.23 100.101 216.42 100.024 216.582C99.7317 217.189 99.853 217.746 100.392 218.257C100.72 218.57 101.091 218.747 101.507 218.787C102.929 218.93 104.728 218.88 105.833 218.914C112.951 219.13 120.055 218.899 127.157 218.703C127.489 218.693 127.864 218.623 128.282 218.49C129.025 218.253 129.392 217.759 129.38 217.009C129.378 216.869 129.495 216.756 129.636 216.765C131.415 216.841 133.191 216.918 134.96 216.998C146.237 217.499 157.603 217.521 168.89 217.561C174.293 217.58 179.694 217.721 185.099 217.737C185.715 217.736 186.557 217.646 187.287 217.693Z" fill="#C5DCFF"/>
</svg>
