<svg width="17" height="17" viewBox="0 0 17 17" fill="none" xmlns="http://www.w3.org/2000/svg">
<g clip-path="url(#clip0_644_4153)">
<path d="M15.8351 5.77676C16.722 4.88762 16.7199 3.58126 15.8363 2.68961C15.3852 2.2348 14.9319 1.78209 14.4778 1.33063C14.3451 1.19865 14.2153 1.06083 14.0688 0.945566C13.2249 0.280692 11.9953 0.362548 11.1907 1.17234C7.9198 4.4633 4.63432 7.74048 1.35427 11.0227C1.3213 11.0557 1.28833 11.0895 1.25619 11.1237C0.931482 11.467 0.707776 11.8671 0.590079 12.3253C0.55669 12.4552 0.529562 12.5867 0.499512 12.7174C0.499512 13.7699 0.499512 14.8223 0.499512 15.8748C0.598427 16.1926 0.807525 16.4006 1.1243 16.5C2.17606 16.5 3.22781 16.5 4.27956 16.5C4.31838 16.4895 4.35677 16.4753 4.39601 16.469C4.98365 16.3726 5.49325 16.1199 5.91604 15.7002C6.15227 15.4655 6.22113 15.1802 6.10719 14.8678C5.99534 14.5617 5.76245 14.3905 5.43816 14.3583C5.20277 14.3349 4.99868 14.4168 4.82714 14.5805C4.58716 14.8098 4.30293 14.9342 3.96946 14.9355C3.38641 14.9376 2.80335 14.9372 2.2203 14.9367C2.17021 14.9367 2.12013 14.9322 2.06253 14.9296C2.06253 14.3341 2.07547 13.7507 2.05836 13.1685C2.04584 12.7325 2.194 12.3854 2.50035 12.0793C5.19108 9.39348 7.87722 6.70308 10.5646 4.01393C10.6047 3.97383 10.6464 3.93583 10.6798 3.90409C11.4841 4.70971 12.2812 5.50822 13.113 6.34141C13.0713 6.36897 13.0112 6.3957 12.9678 6.43955C10.9757 8.43083 8.98449 10.4242 6.99283 12.4172C6.9415 12.4685 6.88766 12.5186 6.84133 12.5746C6.67773 12.7705 6.61637 12.9956 6.67313 13.2453C6.74116 13.5448 6.92856 13.7465 7.22071 13.8304C7.54125 13.9227 7.80878 13.8154 8.04125 13.5824C10.6381 10.9797 13.2382 8.37988 15.8351 5.77676ZM11.8246 2.76061C12.0024 2.58144 12.1827 2.38641 12.3772 2.20724C12.5993 2.0026 12.9261 1.99425 13.1431 2.20557C13.6986 2.74641 14.247 3.2956 14.7875 3.85189C14.9899 4.06029 14.992 4.37936 14.8 4.5936C14.6168 4.79783 14.4081 4.9795 14.222 5.16033C13.4286 4.36599 12.6314 3.56789 11.8246 2.76061Z" fill="black"/>
<path d="M15.6769 14.9376C13.3551 14.9364 11.0333 14.9372 8.71152 14.9372C8.68021 14.9372 8.64891 14.9368 8.61803 14.9389C8.27913 14.9602 7.97738 15.2179 7.90809 15.5445C7.83422 15.8919 7.99282 16.2427 8.30041 16.4044C8.37345 16.4428 8.45275 16.4687 8.52913 16.5C10.9765 16.5 13.4235 16.5 15.8709 16.5C15.9081 16.4837 15.9444 16.4658 15.9824 16.4516C16.2821 16.338 16.4836 16.0623 16.4949 15.7499C16.5108 15.2897 16.1593 14.9376 15.6769 14.9376Z" fill="black"/>
</g>
<defs>
<clipPath id="clip0_644_4153">
<rect width="16" height="16" fill="white" transform="translate(0.5 0.5)"/>
</clipPath>
</defs>
</svg>
