<svg width="19" height="19" viewBox="0 0 19 19" fill="none" xmlns="http://www.w3.org/2000/svg">
<g clip-path="url(#clip0_330_3480)">
<path d="M10.3054 0.715328C10.6908 0.331924 11.2124 0.116699 11.756 0.116699C12.2997 0.116699 12.8212 0.331924 13.2067 0.715328L18.2849 5.79357C18.6696 6.17834 18.8856 6.70013 18.8856 7.2442C18.8856 7.78827 18.6696 8.31006 18.2849 8.69483C18.0946 8.8858 17.8685 9.03732 17.6195 9.14071C17.3705 9.2441 17.1036 9.29732 16.834 9.29732C16.5644 9.29732 16.2975 9.2441 16.0485 9.14071C15.7995 9.03732 15.5734 8.8858 15.3831 8.69483L15.0205 8.33217L11.9925 11.3601C12.9056 13.8326 12.2946 16.8831 10.3049 18.8508C10.2084 18.9463 10.078 18.9999 9.94223 18.9999C9.80642 18.9999 9.67609 18.9463 9.57957 18.8508L5.22716 14.4984L1.96273 17.7628C1.86598 17.8563 1.73641 17.908 1.60191 17.9068C1.46742 17.9056 1.33876 17.8517 1.24366 17.7566C1.14855 17.6615 1.0946 17.5328 1.09344 17.3983C1.09227 17.2638 1.14397 17.1343 1.23741 17.0375L4.50184 13.7731L0.149435 9.42066C0.101121 9.37337 0.0627362 9.31691 0.0365306 9.25459C0.010325 9.19228 -0.00317383 9.12535 -0.00317383 9.05775C-0.00317383 8.99014 0.010325 8.92322 0.0365306 8.8609C0.0627362 8.79858 0.101121 8.74212 0.149435 8.69483C2.08994 6.75433 5.03788 6.05979 7.63958 7.00722L10.6675 3.97925L10.3054 3.61711C9.92084 3.23218 9.70483 2.71033 9.70483 2.16622C9.70483 1.62211 9.92084 1.10025 10.3054 0.715328Z" fill="#9CA8BA"/>
</g>
<defs>
<clipPath id="clip0_330_3480">
<rect width="19" height="19" fill="white"/>
</clipPath>
</defs>
</svg>
