<svg width="15" height="15" viewBox="0 0 15 15" fill="none" xmlns="http://www.w3.org/2000/svg">
<path d="M13.4305 5.55548L3.41622 0.241077C3.12996 0.0855129 2.80397 0.00233588 2.47137 0C1.94853 0 1.4471 0.190775 1.0774 0.530358C0.707697 0.869941 0.5 1.33051 0.5 1.81076V13.2164C0.500066 13.5351 0.593075 13.8479 0.769355 14.1224C0.945635 14.3969 1.19875 14.623 1.50238 14.7772C1.80602 14.9314 2.14908 15.0081 2.49591 14.9993C2.84274 14.9905 3.18066 14.8965 3.47455 14.7271L13.5005 8.90913C13.8123 8.72993 14.0682 8.4796 14.2432 8.18254C14.4183 7.88549 14.5067 7.55184 14.4996 7.2141C14.4926 6.87636 14.3904 6.54607 14.203 6.25539C14.0157 5.96472 13.7495 5.72358 13.4305 5.55548Z" fill="white"/>
</svg>
