<svg width="9" height="10" viewBox="0 0 9 10" fill="none" xmlns="http://www.w3.org/2000/svg">
<path d="M8.13079 4.35077H5.44722C5.40535 4.35077 5.3652 4.33508 5.3356 4.30716C5.30599 4.27923 5.28936 4.24135 5.28936 4.20186V1.67034C5.28936 1.25916 4.93596 0.925781 4.50008 0.925781C4.06419 0.925781 3.71079 1.25916 3.71079 1.67034V4.20186C3.71079 4.24135 3.69416 4.27923 3.66456 4.30716C3.63495 4.33508 3.5948 4.35077 3.55294 4.35077H0.869364C0.433481 4.35077 0.0800781 4.68415 0.0800781 5.09534C0.0800781 5.50652 0.433481 5.8399 0.869364 5.8399H3.55294C3.5948 5.8399 3.63495 5.85559 3.66456 5.88351C3.69416 5.91144 3.71079 5.94932 3.71079 5.98881V8.52033C3.71079 8.93151 4.06419 9.26489 4.50008 9.26489C4.93596 9.26489 5.28936 8.93151 5.28936 8.52033V5.98881C5.28936 5.94932 5.30599 5.91144 5.3356 5.88351C5.3652 5.85559 5.40535 5.8399 5.44722 5.8399H8.13079C8.56668 5.8399 8.92008 5.50652 8.92008 5.09534C8.92008 4.68415 8.56668 4.35077 8.13079 4.35077Z" fill="white"/>
</svg>
