<svg width="35" height="35" viewBox="0 0 35 35" fill="none" xmlns="http://www.w3.org/2000/svg">
<rect x="0.5" y="0.5" width="34" height="34" rx="17" fill="white" stroke="black"/>
<g clip-path="url(#clip0_745_4419)">
<path d="M22.2098 12.0001C22.3659 11.9992 22.5186 12.0448 22.6487 12.1311C22.7787 12.2173 22.8801 12.3404 22.9399 12.4845C22.9998 12.6286 23.0153 12.7873 22.9847 12.9403C22.954 13.0933 22.8784 13.2336 22.7676 13.3435L18.6038 17.4994L22.7676 21.6553C22.9155 21.8033 22.9986 22.0039 22.9986 22.2131C22.9986 22.3167 22.9782 22.4193 22.9386 22.515C22.899 22.6107 22.8409 22.6977 22.7676 22.7709C22.6944 22.8442 22.6074 22.9023 22.5117 22.9419C22.416 22.9815 22.3134 23.002 22.2098 23.002C22.0006 23.002 21.8 22.9188 21.652 22.7709L16.9383 18.0572C16.792 17.91 16.7099 17.7109 16.7099 17.5034C16.7099 17.2958 16.792 17.0967 16.9383 16.9495L21.652 12.2358C21.7248 12.1616 21.8116 12.1025 21.9073 12.0621C22.0031 12.0216 22.1059 12.0006 22.2098 12.0001Z" fill="black"/>
<path fill-rule="evenodd" clip-rule="evenodd" d="M12.6875 12C13.0672 12 13.375 12.3518 13.375 12.7857L13.375 22.2143C13.375 22.6482 13.0672 23 12.6875 23C12.3078 23 12 22.6482 12 22.2143L12 12.7857C12 12.3518 12.3078 12 12.6875 12Z" fill="black"/>
</g>
<defs>
<clipPath id="clip0_745_4419">
<rect width="11" height="11" fill="white" transform="matrix(-1 0 0 -1 23 23)"/>
</clipPath>
</defs>
</svg>
