<svg width="251" height="139" viewBox="0 0 251 139" fill="none" xmlns="http://www.w3.org/2000/svg">
<path d="M245.863 26.3909L245.134 25.1945C239.003 15.0977 227.919 9.00965 216.234 9.75013C214.729 9.84345 213.234 10.0483 211.76 10.3629C201.136 12.6355 191.892 20.6677 188.06 30.9505C185.809 36.9984 185.177 43.9618 180.9 48.7659C175.335 55.0144 165.887 55.2077 157.577 54.9487C149.267 54.6897 139.815 54.9122 134.275 61.1863C130.809 65.1148 129.706 70.6994 129.987 75.9631C130.717 89.8899 140.436 102.347 152.785 108.537C165.135 114.727 179.678 115.282 193.192 112.549C212.132 108.745 230.127 98.2687 240.962 82.0985C251.797 65.9283 254.523 43.8561 245.863 26.3909Z" fill="#EBEBEB"/>
<path d="M37.0114 40.7155C48.26 40.7155 57.3788 31.6011 57.3788 20.3578C57.3788 9.11448 48.26 0 37.0114 0C25.7628 0 16.644 9.11448 16.644 20.3578C16.644 31.6011 25.7628 40.7155 37.0114 40.7155Z" fill="#EBEBEB"/>
<path d="M140.644 118.711L143.34 136.435H159.018L162.657 118.966L140.644 118.711Z" fill="#1579AD"/>
<path d="M160.463 130.072C160.463 130.123 156.449 130.163 151.493 130.163C146.537 130.163 142.519 130.123 142.519 130.072C142.519 130.021 146.533 129.98 151.493 129.98C156.452 129.98 160.463 130.021 160.463 130.072Z" fill="#FAFAFA"/>
<path d="M160.526 129.199C160.526 129.25 156.478 129.29 151.493 129.29C146.508 129.29 142.461 129.25 142.461 129.199C142.461 129.148 146.504 129.107 151.493 129.107C156.482 129.107 160.526 129.151 160.526 129.199Z" fill="#FAFAFA"/>
<path d="M160.492 128.211C160.492 128.262 156.449 128.302 151.46 128.302C146.471 128.302 142.427 128.262 142.427 128.211C142.427 128.159 146.471 128.119 151.46 128.119C156.449 128.119 160.492 128.159 160.492 128.211Z" fill="#FAFAFA"/>
<path d="M145.144 135.425C144.763 133.95 144.503 132.445 144.365 130.928C144.581 131.66 144.74 132.407 144.84 133.164C145.002 133.908 145.103 134.665 145.144 135.425Z" fill="#FAFAFA"/>
<path d="M146.209 135.239C146.095 134.514 146.029 133.783 146.012 133.05C145.932 132.323 145.898 131.592 145.909 130.861C146.082 131.579 146.179 132.312 146.198 133.05C146.275 133.777 146.279 134.51 146.209 135.239Z" fill="#FAFAFA"/>
<path d="M148.15 135.238C147.939 134.509 147.803 133.761 147.745 133.005C147.624 132.255 147.583 131.495 147.624 130.736C147.853 132.23 148.029 133.731 148.15 135.238Z" fill="#FAFAFA"/>
<path d="M149.515 135.328C149.367 134.582 149.295 133.823 149.3 133.063C149.243 132.303 149.266 131.539 149.369 130.783C149.472 132.296 149.52 133.812 149.515 135.328Z" fill="#FAFAFA"/>
<path d="M151.931 135.237C151.761 133.807 151.712 132.365 151.785 130.926C151.956 132.356 152.004 133.799 151.931 135.237Z" fill="#FAFAFA"/>
<path d="M153.694 135.331C153.608 134.591 153.584 133.846 153.621 133.102C153.597 132.359 153.633 131.614 153.73 130.877C153.817 131.615 153.842 132.359 153.807 133.102C153.831 133.847 153.793 134.592 153.694 135.331Z" fill="#FAFAFA"/>
<path d="M155.35 135.093C155.376 133.537 155.526 131.985 155.8 130.453C155.821 131.237 155.781 132.021 155.679 132.799C155.627 133.571 155.517 134.337 155.35 135.093Z" fill="#FAFAFA"/>
<path d="M157.482 134.859C157.487 134.191 157.575 133.525 157.745 132.878C157.857 132.22 158.053 131.579 158.329 130.971C158.232 131.627 158.098 132.277 157.927 132.919C157.814 133.573 157.665 134.221 157.482 134.859Z" fill="#FAFAFA"/>
<path d="M155.971 83.7383C155.969 83.7682 155.962 83.7976 155.952 83.8258L155.879 84.0739C155.806 84.3073 155.708 84.6283 155.58 85.0296C155.453 85.4308 155.288 85.9524 155.12 86.547C154.953 87.1416 154.755 87.8128 154.555 88.5678C154.354 89.3229 154.142 90.1436 153.945 91.0373C153.748 91.931 153.544 92.883 153.34 93.8898C152.975 95.9106 152.61 98.1467 152.38 100.503C152.15 102.859 152.044 105.125 152.015 107.178C152.015 108.207 152.015 109.185 152.044 110.097C152.073 111.008 152.106 111.862 152.153 112.65C152.201 113.438 152.259 114.109 152.307 114.744C152.354 115.378 152.409 115.889 152.46 116.319C152.511 116.75 152.537 117.075 152.562 117.319C152.562 117.421 152.58 117.509 152.584 117.578C152.588 117.647 152.584 117.665 152.584 117.665C152.573 117.639 152.565 117.61 152.562 117.582C152.562 117.512 152.537 117.425 152.522 117.323C152.489 117.082 152.442 116.75 152.383 116.33C152.325 115.911 152.256 115.371 152.201 114.755C152.146 114.138 152.062 113.438 152.018 112.661C151.975 111.884 151.909 111.03 151.887 110.107C151.865 109.185 151.847 108.214 151.84 107.189C151.861 105.128 151.964 102.863 152.205 100.496C152.445 98.1284 152.796 95.8924 153.183 93.8679C153.391 92.8612 153.58 91.9018 153.803 91.0118C154.026 90.1217 154.23 89.2974 154.438 88.5459C154.646 87.7945 154.85 87.1197 155.029 86.5288C155.208 85.9378 155.376 85.4345 155.522 85.0186L155.85 84.0739C155.89 83.9754 155.92 83.8951 155.942 83.8295C155.948 83.7981 155.958 83.7675 155.971 83.7383Z" fill="#455A64"/>
<path d="M153.142 94.7114C153.576 93.4359 154.437 92.3495 155.58 91.6364C155.967 91.3956 156.46 91.1986 156.868 91.3993C157.416 91.6619 157.46 92.4316 157.295 93.0152C157.015 94.0086 156.385 94.8675 155.522 95.4336C154.758 95.9998 153.802 96.2411 152.861 96.1048" fill="#455A64"/>
<path d="M152.189 102.125C152.594 100.593 153.817 98.419 155.083 97.4742C155.275 97.3096 155.499 97.1855 155.74 97.1095C155.861 97.0751 155.988 97.0708 156.111 97.0969C156.234 97.1229 156.348 97.1786 156.445 97.259C156.552 97.4028 156.623 97.5708 156.65 97.7483C156.678 97.9257 156.661 98.1072 156.602 98.2767C156.344 99.3943 155.779 100.418 154.972 101.232C154.164 102.047 153.145 102.62 152.029 102.887" fill="#455A64"/>
<path d="M151.927 108.648C152.557 107.187 153.564 105.921 154.847 104.978C154.983 104.852 155.143 104.755 155.318 104.692C155.493 104.629 155.679 104.603 155.865 104.614C156.419 104.712 156.671 105.387 156.62 105.949C156.522 107.101 155.638 108.028 154.73 108.747C153.893 109.322 152.985 109.788 152.029 110.133" fill="#455A64"/>
<path d="M152.077 113.336C152.687 112.224 153.534 111.26 154.559 110.513C154.773 110.346 155.023 110.231 155.289 110.177C155.424 110.154 155.563 110.167 155.692 110.216C155.82 110.265 155.933 110.347 156.019 110.454C156.267 110.819 156.019 111.315 155.763 111.669C154.887 112.889 153.646 113.798 152.219 114.266" fill="#455A64"/>
<path d="M151.953 111.431C150.882 110.12 149.694 108.91 148.402 107.816C148.201 107.645 147.946 107.452 147.694 107.55C147.599 107.589 147.518 107.654 147.46 107.738C147.403 107.823 147.371 107.922 147.369 108.024C147.367 108.23 147.413 108.434 147.504 108.619C147.927 109.563 148.559 110.399 149.35 111.064C150.142 111.73 151.074 112.208 152.077 112.464" fill="#455A64"/>
<path d="M152.066 105.328L149.274 101.928C149.033 101.587 148.729 101.294 148.38 101.064C148.201 100.954 147.995 100.896 147.785 100.896C147.576 100.896 147.37 100.954 147.191 101.064C147.032 101.199 146.913 101.375 146.849 101.574C146.785 101.772 146.777 101.984 146.826 102.187C146.924 102.594 147.109 102.975 147.369 103.303C147.91 104.141 148.599 104.873 149.402 105.463C150.22 106.024 150.964 106.393 151.957 106.247" fill="#455A64"/>
<path d="M152.453 98.4584C151.906 96.8309 150.938 95.3773 149.646 94.2454C149.445 94.0414 149.193 93.8942 148.916 93.8186C148.358 93.7092 147.821 94.1834 147.639 94.7159C147.55 95.0243 147.526 95.3479 147.57 95.6659C147.614 95.9839 147.725 96.2891 147.894 96.5616C148.234 97.1068 148.679 97.5782 149.205 97.9478C150.144 98.668 151.193 99.2344 152.31 99.6257" fill="#455A64"/>
<path d="M153.57 92.3337C153.299 90.3603 152.27 88.7225 151.084 87.1248C150.832 86.7892 150.482 86.4354 150.066 86.4974C149.935 86.5251 149.813 86.5855 149.712 86.6728C149.61 86.7602 149.533 86.8717 149.486 86.9971C149.393 87.2489 149.355 87.5173 149.373 87.785C149.425 88.9796 149.828 90.1322 150.532 91.0993C151.235 92.0665 152.208 92.8053 153.329 93.2237" fill="#455A64"/>
<path d="M154.351 89.2047C154.22 88.195 154.186 87.1751 154.248 86.1589C154.311 85.1366 154.661 84.1528 155.259 83.321C155.513 82.9598 155.865 82.6788 156.274 82.5112C156.477 82.4298 156.698 82.4022 156.916 82.431C157.133 82.4597 157.339 82.5439 157.515 82.6753C157.664 82.814 157.779 82.9843 157.853 83.1738C157.927 83.3632 157.957 83.5669 157.942 83.7697C157.908 84.1745 157.802 84.57 157.628 84.9369C156.898 86.7243 155.643 88.705 154.343 89.2047" fill="#455A64"/>
<path d="M142.194 91.5527C142.203 91.6364 142.203 91.7207 142.194 91.8044C142.194 91.9832 142.194 92.2239 142.194 92.534C142.194 92.844 142.194 93.2234 142.212 93.6648C142.231 94.1061 142.212 94.6059 142.267 95.1603C142.315 96.2546 142.424 97.586 142.592 99.0451C142.76 100.504 143.019 102.095 143.362 103.751C143.705 105.407 144.128 106.968 144.548 108.372C144.968 109.777 145.413 111.024 145.814 112.06C146.001 112.582 146.201 113.041 146.365 113.45C146.53 113.858 146.679 114.209 146.803 114.493C146.927 114.778 147.011 114.986 147.084 115.153C147.12 115.229 147.149 115.307 147.172 115.387C147.124 115.319 147.083 115.245 147.052 115.168C146.971 115.004 146.869 114.803 146.738 114.522C146.606 114.241 146.442 113.899 146.271 113.49C146.099 113.081 145.906 112.625 145.69 112.107C145.274 111.075 144.829 109.824 144.387 108.423C143.946 107.023 143.537 105.45 143.183 103.787C142.829 102.124 142.596 100.526 142.424 99.0633C142.253 97.6006 142.169 96.2801 142.136 95.1676C142.11 94.6095 142.114 94.1061 142.11 93.6648C142.107 93.2234 142.11 92.844 142.11 92.534C142.11 92.2239 142.129 91.9978 142.136 91.8044C142.146 91.7186 142.165 91.6341 142.194 91.5527Z" fill="#263238"/>
<path d="M142.632 99.6349C142.652 98.6718 143.006 97.7456 143.636 97.0158C143.727 96.8811 143.85 96.7707 143.994 96.6944C144.137 96.6181 144.298 96.5782 144.46 96.5781C144.891 96.6401 145.088 97.1545 145.103 97.5885C145.124 98.3255 144.88 99.0456 144.413 99.6166C144.014 100.165 143.415 100.535 142.745 100.645" fill="#263238"/>
<path d="M143.577 104.883C143.526 103.752 143.887 102.009 144.548 101.093C144.643 100.948 144.768 100.824 144.913 100.728C144.987 100.678 145.073 100.647 145.162 100.639C145.252 100.631 145.342 100.645 145.424 100.681C145.529 100.754 145.614 100.853 145.67 100.968C145.727 101.082 145.754 101.21 145.749 101.337C145.81 102.149 145.645 102.962 145.272 103.686C144.899 104.41 144.333 105.016 143.636 105.437" fill="#263238"/>
<path d="M144.803 109.382C144.919 108.253 145.332 107.174 146 106.256C146.067 106.141 146.156 106.041 146.261 105.96C146.367 105.88 146.488 105.822 146.617 105.789C147.015 105.738 147.347 106.154 147.42 106.537C147.599 107.343 147.197 108.164 146.734 108.846C146.289 109.419 145.772 109.932 145.194 110.371" fill="#263238"/>
<path d="M145.917 112.543C146.096 111.653 146.47 110.813 147.011 110.084C147.125 109.924 147.273 109.792 147.446 109.698C147.533 109.651 147.631 109.63 147.729 109.636C147.828 109.641 147.923 109.674 148.004 109.731C148.252 109.924 148.197 110.311 148.092 110.61C147.759 111.629 147.11 112.516 146.238 113.141" fill="#263238"/>
<path d="M145.421 111.277C144.41 110.613 143.339 110.044 142.224 109.577C142.143 109.528 142.051 109.5 141.957 109.495C141.863 109.49 141.769 109.508 141.684 109.548C141.627 109.594 141.585 109.657 141.564 109.727C141.544 109.797 141.544 109.872 141.567 109.942C141.611 110.079 141.686 110.204 141.786 110.307C142.277 110.858 142.887 111.291 143.569 111.574C144.252 111.857 144.989 111.983 145.727 111.941" fill="#263238"/>
<path d="M144.183 107.091L141.552 105.376C141.312 105.198 141.041 105.066 140.753 104.986C140.608 104.949 140.455 104.953 140.311 104.997C140.168 105.04 140.039 105.123 139.939 105.234C139.857 105.359 139.811 105.505 139.808 105.655C139.805 105.804 139.844 105.952 139.921 106.08C140.076 106.336 140.284 106.555 140.53 106.722C141.079 107.176 141.706 107.526 142.381 107.755C143.059 107.963 143.643 108.054 144.282 107.755" fill="#263238"/>
<path d="M142.968 102.335C142.246 101.344 141.273 100.563 140.15 100.07C139.968 99.9747 139.764 99.9294 139.559 99.9387C139.361 99.985 139.185 100.099 139.061 100.26C138.937 100.422 138.873 100.622 138.88 100.825C138.887 101.054 138.942 101.28 139.041 101.487C139.139 101.694 139.28 101.879 139.453 102.029C139.803 102.324 140.207 102.548 140.643 102.689C141.438 102.974 142.273 103.133 143.117 103.16" fill="#263238"/>
<path d="M142.41 97.9242C141.8 96.6403 140.749 95.7356 139.596 94.9149C139.488 94.8103 139.355 94.7357 139.21 94.6986C139.065 94.6614 138.912 94.6631 138.767 94.7033C138.684 94.7508 138.614 94.8184 138.564 94.9C138.513 94.9816 138.484 95.0745 138.479 95.1702C138.471 95.3609 138.503 95.5512 138.574 95.7283C138.866 96.5303 139.388 97.2285 140.075 97.7358C140.761 98.2431 141.582 98.537 142.435 98.5808" fill="#263238"/>
<path d="M142.267 95.6226C141.959 94.9628 141.715 94.2751 141.537 93.569C141.362 92.8597 141.388 92.1154 141.614 91.4205C141.712 91.1208 141.891 90.8544 142.132 90.6508C142.253 90.5518 142.398 90.4856 142.552 90.4588C142.706 90.432 142.864 90.4453 143.012 90.4976C143.143 90.5594 143.259 90.6503 143.35 90.7634C143.441 90.8766 143.505 91.0089 143.537 91.1505C143.6 91.4331 143.614 91.7243 143.577 92.0114C143.453 93.3902 143.037 95.0025 142.264 95.6226" fill="#263238"/>
<path d="M162.014 91.3809C162.031 91.4624 162.038 91.5457 162.036 91.6289C162.036 91.8113 162.036 92.0484 162.061 92.3584C162.087 92.6685 162.083 93.0515 162.061 93.4929C162.04 93.9342 162.061 94.4376 162.032 94.9957C162.003 96.09 161.908 97.4287 161.748 98.8915C161.587 100.354 161.332 101.952 160.989 103.615C160.646 105.279 160.215 106.843 159.784 108.251C159.354 109.659 158.897 110.903 158.478 111.932C158.281 112.454 158.073 112.913 157.901 113.318C157.73 113.723 157.569 114.07 157.434 114.35C157.299 114.631 157.2 114.832 157.12 114.996C157.089 115.073 157.048 115.147 157 115.215C157.023 115.135 157.052 115.057 157.087 114.981L157.368 114.321C157.492 114.037 157.642 113.69 157.806 113.278C157.97 112.866 158.171 112.41 158.357 111.888C158.759 110.852 159.189 109.601 159.624 108.2C160.058 106.8 160.456 105.235 160.806 103.579C161.156 101.923 161.397 100.329 161.58 98.8732C161.762 97.4178 161.857 96.0973 161.905 94.9884C161.941 94.434 161.945 93.9342 161.959 93.4929C161.974 93.0515 161.978 92.6721 161.959 92.3621C161.941 92.052 161.959 91.8259 161.959 91.6326C161.969 91.5469 161.987 91.4626 162.014 91.3809Z" fill="#455A64"/>
<path d="M161.576 99.4611C161.557 98.4992 161.205 97.5737 160.58 96.842C160.489 96.7063 160.365 96.5953 160.221 96.5189C160.076 96.4425 159.915 96.4031 159.751 96.4043C159.324 96.4663 159.127 96.9807 159.113 97.4147C159.09 98.1513 159.333 98.8714 159.799 99.4428C160.2 99.9916 160.8 100.361 161.47 100.471" fill="#455A64"/>
<path d="M160.627 104.71C160.682 103.583 160.321 101.839 159.66 100.924C159.564 100.779 159.44 100.655 159.295 100.559C159.221 100.509 159.135 100.478 159.046 100.469C158.957 100.461 158.867 100.474 158.784 100.508C158.68 100.583 158.595 100.682 158.537 100.797C158.48 100.912 158.452 101.04 158.456 101.168C158.393 101.984 158.558 102.8 158.933 103.527C159.308 104.254 159.879 104.862 160.58 105.283" fill="#455A64"/>
<path d="M159.401 109.214C159.288 108.083 158.875 107.003 158.204 106.085C158.138 105.971 158.05 105.871 157.944 105.791C157.839 105.712 157.719 105.654 157.591 105.621C157.193 105.57 156.861 105.986 156.788 106.369C156.61 107.175 157.007 107.996 157.474 108.678C157.919 109.251 158.437 109.764 159.014 110.203" fill="#455A64"/>
<path d="M158.292 112.369C158.113 111.479 157.739 110.639 157.197 109.91C157.082 109.75 156.932 109.618 156.759 109.524C156.673 109.478 156.575 109.457 156.478 109.462C156.38 109.467 156.286 109.498 156.204 109.553C155.956 109.75 156.011 110.137 156.117 110.436C156.45 111.454 157.098 112.341 157.967 112.967" fill="#455A64"/>
<path d="M158.788 111.099C159.799 110.435 160.869 109.866 161.985 109.4C162.065 109.351 162.156 109.322 162.25 109.317C162.343 109.312 162.437 109.33 162.522 109.37C162.579 109.416 162.621 109.478 162.643 109.549C162.664 109.619 162.664 109.694 162.642 109.764C162.598 109.901 162.523 110.026 162.423 110.129C161.931 110.68 161.321 111.113 160.639 111.396C159.957 111.678 159.219 111.804 158.482 111.763" fill="#455A64"/>
<path d="M160.025 106.923L162.656 105.209C162.896 105.03 163.167 104.897 163.456 104.818C163.601 104.781 163.754 104.785 163.897 104.829C164.041 104.872 164.169 104.955 164.269 105.066C164.348 105.193 164.39 105.34 164.39 105.489C164.39 105.639 164.348 105.785 164.269 105.913C164.114 106.167 163.906 106.386 163.66 106.555C163.11 107.007 162.484 107.357 161.81 107.587C161.131 107.795 160.543 107.886 159.905 107.587" fill="#455A64"/>
<path d="M161.24 102.162C161.967 101.17 162.944 100.39 164.072 99.9001C164.254 99.8048 164.458 99.7595 164.664 99.7688C164.862 99.8146 165.038 99.9282 165.161 100.09C165.285 100.252 165.347 100.452 165.339 100.655C165.333 100.884 165.28 101.109 165.182 101.316C165.084 101.523 164.943 101.706 164.769 101.855C164.416 102.157 164.005 102.386 163.561 102.526C162.768 102.812 161.934 102.97 161.091 102.997" fill="#455A64"/>
<path d="M161.799 97.7504C162.408 96.4664 163.459 95.5618 164.613 94.7411C164.72 94.6365 164.853 94.5619 164.999 94.5247C165.144 94.4876 165.297 94.4892 165.441 94.5295C165.524 94.577 165.594 94.6446 165.645 94.7262C165.695 94.8078 165.724 94.9007 165.729 94.9964C165.738 95.1871 165.706 95.3774 165.634 95.5545C165.342 96.357 164.82 97.0556 164.132 97.563C163.445 98.0703 162.623 98.3639 161.77 98.407" fill="#455A64"/>
<path d="M161.941 95.4512C162.247 94.7907 162.492 94.1032 162.671 93.3975C162.847 92.6881 162.819 91.9433 162.59 91.249C162.496 90.9485 162.317 90.6814 162.076 90.4793C161.954 90.38 161.809 90.3137 161.654 90.2869C161.5 90.26 161.341 90.2736 161.193 90.3262C161.062 90.3886 160.947 90.4798 160.857 90.5928C160.766 90.7059 160.703 90.838 160.671 90.9791C160.606 91.2614 160.593 91.5529 160.631 91.8399C160.751 93.2188 161.171 94.831 161.944 95.4512" fill="#455A64"/>
<path d="M138.844 115.203V118.519C138.844 118.865 138.982 119.197 139.227 119.442C139.472 119.687 139.804 119.825 140.151 119.825H162.85C163.197 119.825 163.529 119.687 163.774 119.442C164.019 119.197 164.157 118.865 164.157 118.519V115.203H138.844Z" fill="#1579AD"/>
<g opacity="0.4">
<path d="M140.811 119.824L141.001 120.878L161.945 122.374L162.478 119.824H140.811Z" fill="black"/>
</g>
<path d="M104.755 77.0059L110.594 86.6905C110.594 86.6905 116.817 97.0171 117.798 99.8003C118.78 102.583 122.867 126.607 122.875 128.438C122.893 132.564 118.495 136.27 115.868 136.27C113.24 136.27 107.978 134.001 103.394 131.546C98.8103 129.091 90.278 119.173 90.278 119.173L88.7452 97.8707L86.7454 78.3263L104.755 77.0059Z" fill="#455A64"/>
<path d="M103.248 122.089C103.233 122.054 103.222 122.017 103.215 121.979C103.197 121.899 103.171 121.793 103.142 121.662C103.08 121.367 102.989 120.954 102.88 120.426C102.653 119.331 102.332 117.792 101.938 115.881L100.573 109.132C100.321 107.863 100.051 106.528 99.7775 105.145C99.4804 103.717 99.2587 102.274 99.1133 100.823C99.0513 100.075 99.0258 99.3309 99.0367 98.5977C99.0477 97.8645 99.0951 97.1387 99.1316 96.4456C99.1681 95.7525 99.2009 95.0522 99.19 94.3774L99.1462 93.8813C99.1476 93.7202 99.1366 93.5592 99.1133 93.3998C99.059 93.0802 98.9834 92.7646 98.8871 92.455C98.5163 91.2907 98.0271 90.1675 97.4273 89.1028C96.8836 88.0887 96.3325 87.1768 95.807 86.3415C94.7705 84.6781 93.9275 83.3321 93.4093 82.3655C93.1539 81.8767 92.9568 81.501 92.8473 81.2347L92.7159 80.932C92.6867 80.8627 92.6758 80.8262 92.6758 80.8262C92.6981 80.8572 92.7177 80.8902 92.7342 80.9247C92.7707 80.9976 92.8218 81.0961 92.8802 81.2165C93.0042 81.4791 93.2086 81.8512 93.4714 82.329C94.0078 83.2847 94.8691 84.6161 95.9201 86.2722C96.4383 87.1038 97.0149 88.0121 97.566 89.0262C98.1755 90.0983 98.6732 91.2302 99.0513 92.4039C99.1484 92.7212 99.2264 93.044 99.2849 93.3706C99.321 93.5351 99.3442 93.7022 99.3542 93.8703C99.3542 94.0418 99.3871 94.2132 99.398 94.381C99.398 95.0631 99.398 95.7598 99.3433 96.4638C99.2885 97.1678 99.263 97.8828 99.2484 98.6087C99.2338 99.3346 99.2666 100.068 99.3287 100.797C99.4682 102.243 99.6813 103.681 99.9673 105.105C100.237 106.488 100.504 107.819 100.752 109.092C101.252 111.646 101.704 113.922 102.08 115.848C102.456 117.774 102.752 119.317 102.96 120.404C103.058 120.933 103.135 121.348 103.19 121.648C103.215 121.779 103.234 121.888 103.244 121.969C103.252 122.008 103.254 122.049 103.248 122.089Z" fill="#263238"/>
<path d="M110.109 88.3954C110.024 88.5263 109.926 88.6485 109.817 88.7602C109.718 88.8769 109.594 89.0156 109.452 89.1688C109.31 89.322 109.127 89.5043 108.923 89.6831C108.449 90.1151 107.945 90.5136 107.416 90.8759C106.764 91.3162 106.08 91.7053 105.368 92.0395C104.654 92.3633 103.916 92.6328 103.16 92.8456C102.541 93.0136 101.911 93.1355 101.274 93.2104C101.004 93.2542 100.755 93.2651 100.544 93.2834C100.359 93.3004 100.174 93.3077 99.9891 93.3053C99.8313 93.3209 99.6724 93.3209 99.5146 93.3053C99.5146 93.2688 100.186 93.2615 101.259 93.0937C101.885 92.9946 102.504 92.8569 103.113 92.6815C103.861 92.4632 104.593 92.1926 105.303 91.8717C106.004 91.5386 106.682 91.1584 107.332 90.7336C107.86 90.3832 108.366 89.9994 108.846 89.5846C109.642 88.8806 110.083 88.3699 110.109 88.3954Z" fill="#263238"/>
<g opacity="0.3">
<path d="M93.322 81.9372C95.1003 85.918 96.5408 90.041 97.6283 94.2628C98.6684 98.4795 98.9896 102.955 97.8692 107.15C97.1393 109.882 96.1613 113.275 97.5261 115.751C97.4094 113.245 98.0188 107.325 99.3508 106.224C100.537 110.236 101.705 116.211 102.891 120.242C102.004 113.913 100.307 108.434 99.5114 102.054C99.2925 100.325 99.5808 96.4222 99.3399 94.7005C98.61 89.4843 97.9677 89.9585 93.333 81.9336" fill="black"/>
</g>
<path d="M99.843 105.279C99.8722 105.279 99.551 105.867 99.1387 106.837C98.6035 108.101 98.2035 109.418 97.9453 110.765C97.6916 112.114 97.5827 113.486 97.6205 114.858C97.6497 115.909 97.7373 116.558 97.7008 116.565C97.6569 116.418 97.6276 116.266 97.6132 116.113C97.5474 115.699 97.5047 115.281 97.4855 114.862C97.3332 112.085 97.8579 109.312 99.0146 106.782C99.2408 106.301 99.4379 105.921 99.5912 105.666C99.6601 105.528 99.7446 105.398 99.843 105.279Z" fill="#263238"/>
<path d="M39.8835 101.617C39.9273 101.646 37.4567 105.582 34.3693 110.412C31.2819 115.241 28.7382 119.13 28.6944 119.104C28.6506 119.079 31.1176 115.139 34.2087 110.31C37.2997 105.48 39.8397 101.592 39.8835 101.617Z" fill="#263238"/>
<path d="M32.771 77.3843L53.1311 73.6309L75.0677 74.0686H80.5017L92.125 81.7689C92.125 81.7689 94.3147 112.895 89.7055 122.824C88.1837 126.107 82.1621 136.276 82.1621 136.276L36.6722 136.444L24.9941 126.373L29.3479 107.729L32.771 77.3843Z" fill="#455A64"/>
<g opacity="0.3">
<path d="M65.6118 124.628L65.371 124.591C63.1477 126.324 61.5366 128.722 60.7727 131.434C63.7944 131.303 66.4621 129.224 68.0715 126.663C69.6809 124.102 70.3743 121.093 70.9911 118.135C69.3853 120.458 67.7686 122.818 65.6118 124.628Z" fill="black"/>
</g>
<path d="M1.3092 136.267C-1.36947 135.322 -0.106774 120.104 6.67018 112.863C7.55699 111.915 22.6145 83.6636 29.0703 79.0639C33.7415 75.7335 38.0077 77.043 39.1098 83.66C40.2119 90.2769 39.8981 101.614 39.8981 101.614L28.6798 119.101L32.1467 120.99L43.9671 121.778L41.7593 136.267H1.3092Z" fill="#455A64"/>
<path d="M41.7741 136.269C41.7741 136.269 41.7741 136.247 41.7741 136.204L41.796 136.01C41.8215 135.828 41.8543 135.576 41.8981 135.255C41.993 134.584 42.1317 133.625 42.3032 132.421C42.6682 129.981 43.1791 126.541 43.763 122.499L43.8396 122.598L34.7854 121.43L32.1323 121.084H32.1141L30.2638 120.03C29.6507 119.701 29.0997 119.3 28.5012 118.99C27.3762 118.379 26.1973 117.872 24.9795 117.476C23.8809 117.131 22.7588 116.865 21.622 116.681C20.6358 116.536 19.6409 116.456 18.6441 116.444C17.2087 116.42 15.7748 116.549 14.367 116.831C13.867 116.911 13.4911 117.024 13.232 117.079L12.9364 117.144L12.8379 117.163C12.8379 117.163 12.8671 117.163 12.9328 117.13L13.2247 117.046C13.4802 116.977 13.8561 116.856 14.3524 116.761C15.7615 116.451 17.2011 116.299 18.6441 116.309C19.6479 116.313 20.6502 116.386 21.6439 116.528C22.791 116.702 23.9231 116.963 25.0306 117.309C26.2602 117.704 27.4502 118.213 28.5851 118.83C29.1945 119.129 29.7456 119.559 30.3587 119.869L32.209 120.909H32.1725L34.8256 121.252L43.8798 122.437H43.9674V122.525C43.336 126.563 42.8032 129.999 42.4237 132.436C42.2302 133.639 42.0587 134.595 41.9675 135.262C41.9127 135.583 41.8689 135.832 41.8398 136.014C41.8398 136.091 41.8106 136.156 41.8033 136.207C41.796 136.258 41.7777 136.273 41.7741 136.269Z" fill="#263238"/>
<path d="M32.4971 121.127C31.8626 121.329 31.2421 121.573 30.6396 121.856C29.1922 122.559 27.965 123.644 27.0913 124.995C26.2176 126.345 25.7308 127.909 25.6837 129.517C25.6752 130.182 25.7118 130.848 25.7932 131.508C25.7932 131.508 25.7713 131.465 25.7494 131.373C25.7144 131.245 25.6864 131.115 25.6654 130.983C25.5807 130.501 25.5416 130.013 25.5487 129.524C25.5612 127.884 26.0413 126.282 26.9327 124.905C27.824 123.528 29.0897 122.434 30.5812 121.751C31.0266 121.541 31.4909 121.373 31.968 121.251C32.1359 121.204 32.2709 121.185 32.3585 121.167C32.4461 121.149 32.4971 121.127 32.4971 121.127Z" fill="#263238"/>
<g opacity="0.3">
<path d="M28.7678 118.988C25.0964 115.03 19.2501 113.374 14.1701 115.169C13.692 115.337 13.1337 115.676 13.2067 116.176C13.2943 116.807 14.1884 116.836 14.8124 116.723C19.5577 115.823 24.4684 116.625 28.6802 118.988" fill="black"/>
</g>
<path d="M40.464 94.0405C40.464 94.0405 40.4968 93.7888 40.5589 93.3475C40.6475 92.7216 40.6877 92.0899 40.6793 91.458C40.6677 89.3682 40.0977 87.3194 39.0281 85.5237C37.9585 83.728 36.4283 82.2506 34.5957 81.2444C34.0437 80.9363 33.4691 80.6704 32.8769 80.4492C32.6547 80.3788 32.4366 80.2959 32.2236 80.2012C32.2834 80.2051 32.3424 80.2173 32.3988 80.2377C32.5681 80.2754 32.735 80.3229 32.8988 80.3799C33.5072 80.5737 34.0961 80.824 34.6578 81.1277C36.5377 82.117 38.1075 83.6063 39.1939 85.4312C40.2803 87.2561 40.8411 89.3455 40.8143 91.4689C40.8101 92.1065 40.749 92.7425 40.6319 93.3693C40.5954 93.5919 40.5443 93.7596 40.5187 93.8764C40.5082 93.9334 40.4898 93.9886 40.464 94.0405Z" fill="#263238"/>
<path d="M90.3987 87.9688C90.4133 88.0025 90.4231 88.0381 90.4279 88.0745L90.4863 88.3955C90.5374 88.691 90.6067 89.1032 90.698 89.6321C90.8731 90.7045 91.1249 92.2548 91.4023 94.1808C91.6797 96.1068 91.9789 98.4012 92.1942 100.965C92.4407 103.745 92.5175 106.537 92.4241 109.326C92.3161 112.119 91.9558 114.896 91.3476 117.624C90.8517 119.852 90.1392 122.025 89.22 124.114C88.6027 125.524 87.8703 126.88 87.0303 128.17C86.7457 128.637 86.4829 128.965 86.3223 129.202C86.242 129.312 86.18 129.399 86.1289 129.465C86.1094 129.497 86.0861 129.526 86.0596 129.552C86.0596 129.552 86.0596 129.516 86.1143 129.454L86.2895 129.18C86.4391 128.94 86.6946 128.6 86.9683 128.134C87.7762 126.83 88.485 125.468 89.0886 124.059C89.9869 121.972 90.6834 119.804 91.1687 117.584C91.7658 114.866 92.1188 112.1 92.2234 109.319C92.446 103.395 91.7672 98.0437 91.26 94.199C90.9899 92.284 90.771 90.7301 90.614 89.6431C90.541 89.1141 90.4826 88.6983 90.4425 88.4028L90.3987 88.0782C90.3947 88.0418 90.3947 88.0051 90.3987 87.9688Z" fill="#263238"/>
<path d="M102.296 135.049H51.5105V138.653H102.296V135.049Z" fill="#EBEBEB"/>
<path d="M114.456 129.881L62.2398 131.176L53.6418 133.7L51.5105 135.05H102.296L106.828 136.531L113.313 134.601L114.456 129.881Z" fill="white"/>
<path d="M102.296 135.05C102.296 135.05 107.934 135.918 110.146 135.05C112.357 134.181 114.441 129.881 114.441 129.881L114.689 136.531L102.281 138.654L102.296 135.05Z" fill="#E0E0E0"/>
<path d="M102.292 135.027C102.394 135.63 102.431 136.241 102.402 136.851C102.442 137.46 102.415 138.072 102.322 138.675C102.224 138.072 102.188 137.461 102.212 136.851C102.177 136.242 102.204 135.631 102.292 135.027Z" fill="#263238"/>
<path d="M114.211 130.605C114.208 130.653 114.197 130.7 114.178 130.744C114.142 130.868 114.099 130.989 114.05 131.109C113.865 131.567 113.619 131.999 113.321 132.393C112.312 133.695 110.915 134.643 109.332 135.099C107.757 135.531 106.112 135.644 104.493 135.431C103.872 135.358 103.376 135.271 103.033 135.198C102.854 135.17 102.678 135.125 102.507 135.063C102.687 135.071 102.867 135.092 103.044 135.125C103.387 135.172 103.887 135.242 104.504 135.296C106.104 135.473 107.722 135.349 109.277 134.932C110.824 134.483 112.198 133.576 113.218 132.331C113.617 131.797 113.95 131.218 114.211 130.605Z" fill="#263238"/>
<path d="M109.66 135.795C109.345 135.943 109.014 136.057 108.675 136.134C107.055 136.583 105.388 136.836 103.708 136.886C103.36 136.913 103.01 136.903 102.664 136.856C103.006 136.794 103.353 136.76 103.7 136.754C104.339 136.703 105.219 136.619 106.186 136.473C107.153 136.327 108.01 136.145 108.642 136.003C108.976 135.91 109.316 135.841 109.66 135.795Z" fill="#263238"/>
<path d="M109.449 137.233C109.119 137.316 108.781 137.366 108.441 137.383C107.814 137.445 106.945 137.507 105.982 137.537C105.018 137.566 104.157 137.555 103.522 137.537C103.18 137.542 102.839 137.511 102.504 137.445C102.842 137.405 103.182 137.391 103.522 137.405C104.153 137.405 105.018 137.387 105.978 137.358C106.938 137.328 107.803 137.288 108.431 137.259C108.768 137.219 109.109 137.21 109.449 137.233Z" fill="#263238"/>
<path d="M99.909 138.84C99.6444 138.787 99.404 138.65 99.2229 138.45C98.9797 138.229 98.7922 137.954 98.6756 137.648C98.5591 137.341 98.5169 137.011 98.5525 136.684C98.5881 136.358 98.7005 136.045 98.8805 135.77C99.0604 135.496 99.3028 135.268 99.5878 135.105C99.8099 134.952 100.074 134.872 100.343 134.875C100.11 134.977 99.882 135.091 99.6608 135.218C99.4116 135.387 99.2006 135.607 99.0416 135.862C98.8825 136.118 98.7789 136.404 98.7375 136.703C98.7106 137.003 98.7478 137.305 98.8465 137.59C98.9453 137.875 99.1034 138.136 99.3105 138.355C99.4976 138.531 99.6977 138.694 99.909 138.84Z" fill="#263238"/>
<path d="M99.4162 138.998C99.1675 138.943 98.9404 138.816 98.7629 138.633C98.2869 138.241 97.9826 137.679 97.9144 137.066C97.8463 136.453 98.0197 135.838 98.398 135.35C98.5349 135.141 98.7268 134.973 98.9527 134.865C98.9746 134.891 98.7483 135.059 98.5075 135.427C98.1874 135.903 98.0482 136.477 98.1152 137.047C98.1821 137.616 98.4507 138.143 98.8724 138.531C99.168 138.859 99.4308 138.973 99.4162 138.998Z" fill="#263238"/>
<path d="M96.7372 138.84C96.4726 138.787 96.2322 138.65 96.0511 138.45C95.8072 138.23 95.619 137.955 95.502 137.648C95.385 137.341 95.3426 137.011 95.3782 136.684C95.4138 136.358 95.5265 136.044 95.7069 135.77C95.8873 135.495 96.1304 135.267 96.416 135.105C96.6379 134.952 96.9019 134.872 97.1715 134.875C96.9361 134.976 96.707 135.09 96.4854 135.218C96.2296 135.38 96.0132 135.597 95.8522 135.853C95.6911 136.11 95.5893 136.399 95.5543 136.699C95.5194 137 95.552 137.305 95.65 137.591C95.7479 137.878 95.9087 138.139 96.1204 138.355C96.3134 138.532 96.5196 138.694 96.7372 138.84Z" fill="#263238"/>
<path d="M96.2448 138.998C95.9961 138.943 95.7691 138.816 95.5915 138.633C95.1155 138.241 94.8112 137.679 94.743 137.066C94.6749 136.453 94.8484 135.838 95.2266 135.35C95.3633 135.139 95.5569 134.971 95.785 134.865C95.8032 134.891 95.5769 135.059 95.3361 135.427C95.016 135.903 94.8768 136.477 94.9438 137.047C95.0107 137.616 95.2793 138.143 95.701 138.531C96.0003 138.859 96.2594 138.973 96.2448 138.998Z" fill="#263238"/>
<path d="M93.5663 138.84C93.3017 138.787 93.0613 138.65 92.8802 138.45C92.6363 138.23 92.4481 137.955 92.3311 137.648C92.2141 137.341 92.1717 137.011 92.2073 136.684C92.2429 136.358 92.3556 136.044 92.536 135.77C92.7164 135.495 92.9595 135.267 93.2452 135.105C93.467 134.952 93.731 134.872 94.0006 134.875C93.7652 134.976 93.5361 135.09 93.3145 135.218C93.0587 135.38 92.8423 135.597 92.6813 135.853C92.5202 136.11 92.4184 136.399 92.3835 136.699C92.3485 137 92.3811 137.305 92.4791 137.591C92.577 137.878 92.7378 138.139 92.9495 138.355C93.1425 138.532 93.3487 138.694 93.5663 138.84Z" fill="#263238"/>
<path d="M93.0734 138.998C92.825 138.942 92.5982 138.815 92.4202 138.633C91.9441 138.241 91.6398 137.679 91.5716 137.066C91.5035 136.453 91.677 135.838 92.0552 135.35C92.1919 135.139 92.3855 134.971 92.6136 134.865C92.6318 134.891 92.4056 135.059 92.1647 135.427C91.8446 135.903 91.7054 136.477 91.7724 137.047C91.8393 137.616 92.1079 138.143 92.5296 138.531C92.8289 138.859 93.088 138.973 93.0734 138.998Z" fill="#263238"/>
<path d="M90.3988 138.84C90.1327 138.788 89.8906 138.651 89.7091 138.45C89.4651 138.23 89.2769 137.955 89.1599 137.648C89.043 137.341 89.0005 137.011 89.0362 136.684C89.0718 136.358 89.1845 136.044 89.3649 135.77C89.5453 135.495 89.7883 135.267 90.074 135.105C90.2959 134.952 90.5599 134.872 90.8294 134.875C90.5951 134.975 90.3672 135.09 90.147 135.218C89.8901 135.379 89.6727 135.596 89.5108 135.852C89.3489 136.109 89.2467 136.398 89.2117 136.699C89.1766 137 89.2097 137.305 89.3084 137.592C89.4071 137.878 89.569 138.139 89.782 138.355C89.9731 138.534 90.1795 138.697 90.3988 138.84Z" fill="#263238"/>
<path d="M89.9027 138.998C89.6553 138.942 89.4295 138.816 89.2531 138.633C88.7763 138.242 88.4713 137.679 88.4032 137.066C88.335 136.453 88.509 135.837 88.8882 135.35C89.0249 135.139 89.2184 134.971 89.4465 134.865C89.4684 134.891 89.2385 135.059 88.9977 135.427C88.6776 135.903 88.5384 136.477 88.6053 137.047C88.6723 137.616 88.9409 138.143 89.3626 138.531C89.6582 138.859 89.9173 138.973 89.9027 138.998Z" fill="#263238"/>
<path d="M87.2273 138.84C86.9621 138.788 86.7212 138.651 86.5412 138.45C86.298 138.229 86.1105 137.954 85.994 137.648C85.8775 137.341 85.8353 137.011 85.8709 136.684C85.9065 136.358 86.0189 136.045 86.1988 135.77C86.3788 135.496 86.6211 135.268 86.9062 135.105C87.1283 134.952 87.3921 134.872 87.6616 134.875C87.4273 134.975 87.1994 135.09 86.9792 135.218C86.7223 135.379 86.5049 135.596 86.343 135.852C86.1811 136.108 86.0789 136.398 86.0438 136.699C86.0088 137 86.0419 137.305 86.1406 137.592C86.2393 137.878 86.4012 138.139 86.6142 138.355C86.8041 138.534 87.0093 138.697 87.2273 138.84Z" fill="#263238"/>
<path d="M86.7308 139C86.4833 138.944 86.2575 138.818 86.0812 138.636C85.6082 138.242 85.305 137.682 85.2345 137.071C85.1715 136.459 85.3423 135.847 85.7126 135.356C85.8503 135.146 86.0436 134.978 86.2709 134.871C86.2928 134.897 86.0629 135.064 85.822 135.433C85.4997 135.906 85.3575 136.48 85.4211 137.049C85.4847 137.618 85.7499 138.146 86.1687 138.537C86.4862 138.862 86.7453 138.975 86.7308 139Z" fill="#263238"/>
<path d="M84.0555 138.84C83.7905 138.788 83.5498 138.651 83.3694 138.45C83.1262 138.229 82.9386 137.954 82.8221 137.648C82.7056 137.341 82.6634 137.011 82.699 136.684C82.7346 136.358 82.847 136.045 83.0269 135.77C83.2069 135.496 83.4493 135.268 83.7343 135.105C83.9564 134.952 84.2202 134.872 84.4897 134.875C84.2558 134.976 84.028 135.091 83.8073 135.218C83.5504 135.379 83.333 135.596 83.1711 135.852C83.0092 136.108 82.907 136.398 82.872 136.699C82.8369 137 82.87 137.305 82.9687 137.592C83.0674 137.878 83.2293 138.139 83.4424 138.355C83.6322 138.534 83.8374 138.697 84.0555 138.84Z" fill="#263238"/>
<path d="M83.5598 138.998C83.3124 138.942 83.0866 138.816 82.9102 138.633C82.435 138.24 82.1312 137.678 82.0631 137.066C81.995 136.453 82.1679 135.838 82.5453 135.35C82.683 135.14 82.8763 134.972 83.1036 134.865C83.1255 134.891 82.8956 135.059 82.6547 135.427C82.3324 135.901 82.1902 136.474 82.2538 137.043C82.3174 137.612 82.5826 138.14 83.0014 138.531C83.3153 138.859 83.5744 138.973 83.5598 138.998Z" fill="#263238"/>
<path d="M80.8846 138.84C80.6196 138.788 80.3789 138.651 80.1985 138.45C79.9553 138.229 79.7677 137.954 79.6512 137.648C79.5347 137.341 79.4925 137.011 79.5281 136.684C79.5637 136.358 79.6761 136.045 79.856 135.77C80.036 135.496 80.2784 135.268 80.5634 135.105C80.7855 134.952 81.0493 134.872 81.3188 134.875C81.0849 134.976 80.8571 135.091 80.6364 135.218C80.3806 135.38 80.1643 135.597 80.0032 135.853C79.8421 136.11 79.7403 136.399 79.7054 136.699C79.6704 137 79.7031 137.305 79.801 137.591C79.8989 137.878 80.0597 138.139 80.2715 138.355C80.4623 138.533 80.6674 138.695 80.8846 138.84Z" fill="#263238"/>
<path d="M80.3884 138.998C80.141 138.942 79.9152 138.816 79.7388 138.633C79.2636 138.24 78.9598 137.678 78.8917 137.066C78.8236 136.453 78.9965 135.838 79.3739 135.35C79.5116 135.14 79.7049 134.972 79.9322 134.865C79.9541 134.891 79.7242 135.059 79.4834 135.427C79.1702 135.904 79.0299 136.475 79.0856 137.043C79.1501 137.608 79.4079 138.134 79.8155 138.531C80.1366 138.859 80.4067 138.973 80.3884 138.998Z" fill="#263238"/>
<path d="M77.7132 138.84C77.4486 138.787 77.2082 138.65 77.0271 138.45C76.7839 138.229 76.5964 137.954 76.4798 137.648C76.3633 137.341 76.3211 137.011 76.3567 136.684C76.3923 136.358 76.5047 136.045 76.6846 135.77C76.8646 135.496 77.107 135.268 77.392 135.105C77.6141 134.952 77.878 134.872 78.1475 134.875C77.9136 134.976 77.6857 135.091 77.465 135.218C77.2092 135.38 76.9929 135.597 76.8318 135.853C76.6707 136.11 76.569 136.399 76.534 136.699C76.499 137 76.5317 137.305 76.6296 137.591C76.7276 137.878 76.8883 138.139 77.1001 138.355C77.2909 138.533 77.496 138.695 77.7132 138.84Z" fill="#263238"/>
<path d="M77.2165 138.998C76.9679 138.943 76.7408 138.816 76.5633 138.633C76.0881 138.24 75.7843 137.678 75.7162 137.066C75.6481 136.453 75.821 135.838 76.1984 135.35C76.3361 135.14 76.5294 134.972 76.7567 134.865C76.7786 134.891 76.5487 135.059 76.3078 135.427C75.9885 135.903 75.8497 136.477 75.9167 137.046C75.9836 137.616 76.2517 138.142 76.6728 138.531C76.972 138.859 77.2348 138.973 77.2165 138.998Z" fill="#263238"/>
<path d="M74.5418 138.84C74.2772 138.787 74.0368 138.65 73.8557 138.45C73.6125 138.229 73.425 137.954 73.3084 137.648C73.1919 137.341 73.1498 137.011 73.1854 136.684C73.221 136.358 73.3333 136.045 73.5133 135.77C73.6932 135.496 73.9356 135.268 74.2206 135.105C74.4428 134.952 74.7066 134.872 74.9761 134.875C74.7426 134.977 74.5148 135.091 74.2936 135.218C74.0378 135.38 73.8215 135.597 73.6604 135.853C73.4993 136.11 73.3976 136.399 73.3626 136.699C73.3276 137 73.3603 137.305 73.4582 137.591C73.5562 137.878 73.7169 138.139 73.9287 138.355C74.1205 138.532 74.3254 138.694 74.5418 138.84Z" fill="#263238"/>
<path d="M74.0495 138.998C73.8008 138.943 73.5737 138.816 73.3962 138.633C72.9202 138.241 72.6159 137.679 72.5477 137.066C72.4796 136.453 72.653 135.838 73.0313 135.35C73.1682 135.141 73.3601 134.973 73.586 134.865C73.6079 134.891 73.3816 135.059 73.1408 135.427C72.8185 135.901 72.6763 136.474 72.7398 137.043C72.8034 137.612 73.0686 138.14 73.4875 138.531C73.805 138.859 74.0641 138.973 74.0495 138.998Z" fill="#263238"/>
<path d="M71.3776 138.84C71.113 138.787 70.8726 138.65 70.6915 138.45C70.4475 138.23 70.2593 137.955 70.1424 137.648C70.0254 137.341 69.983 137.011 70.0186 136.684C70.0542 136.358 70.1669 136.044 70.3473 135.77C70.5277 135.495 70.7708 135.267 71.0564 135.105C71.2783 134.952 71.5423 134.872 71.8119 134.875C71.5765 134.976 71.3474 135.09 71.1258 135.218C70.87 135.38 70.6536 135.597 70.4925 135.853C70.3315 136.11 70.2297 136.399 70.1947 136.699C70.1598 137 70.1924 137.305 70.2904 137.591C70.3883 137.878 70.549 138.139 70.7608 138.355C70.9538 138.532 71.16 138.694 71.3776 138.84Z" fill="#263238"/>
<path d="M70.8779 138.998C70.6295 138.942 70.4026 138.815 70.2246 138.633C69.7486 138.241 69.4442 137.679 69.3761 137.066C69.308 136.453 69.4814 135.838 69.8597 135.35C69.9964 135.139 70.1899 134.971 70.418 134.865C70.418 134.891 70.21 135.059 69.9691 135.427C69.6491 135.903 69.5099 136.477 69.5768 137.047C69.6438 137.616 69.9124 138.143 70.3341 138.531C70.6479 138.859 70.8924 138.973 70.8779 138.998Z" fill="#263238"/>
<path d="M68.1996 138.84C67.935 138.787 67.6946 138.65 67.5135 138.45C67.2696 138.23 67.0814 137.955 66.9644 137.648C66.8474 137.341 66.805 137.011 66.8406 136.684C66.8762 136.358 66.9889 136.044 67.1693 135.77C67.3497 135.495 67.5928 135.267 67.8784 135.105C68.1003 134.952 68.3643 134.872 68.6339 134.875C68.3996 134.975 68.1717 135.09 67.9514 135.218C67.6951 135.38 67.4782 135.596 67.3167 135.853C67.1552 136.109 67.0533 136.398 67.0183 136.699C66.9833 137 67.0161 137.305 67.1145 137.592C67.2128 137.878 67.3741 138.139 67.5865 138.355C67.7783 138.532 67.9832 138.694 68.1996 138.84Z" fill="#263238"/>
<path d="M67.7065 138.998C67.4581 138.942 67.2312 138.815 67.0532 138.633C66.5772 138.241 66.2728 137.679 66.2047 137.066C66.1366 136.453 66.31 135.838 66.6883 135.35C66.825 135.139 67.0185 134.971 67.2466 134.865C67.2685 134.891 67.0386 135.059 66.7978 135.427C66.4777 135.903 66.3385 136.477 66.4054 137.047C66.4724 137.616 66.741 138.143 67.1627 138.531C67.462 138.859 67.7284 138.973 67.7065 138.998Z" fill="#263238"/>
<path d="M65.0316 138.84C64.7655 138.788 64.5234 138.651 64.3419 138.45C64.0979 138.23 63.9097 137.955 63.7927 137.648C63.6758 137.341 63.6334 137.011 63.669 136.684C63.7046 136.358 63.8173 136.044 63.9977 135.77C64.1781 135.495 64.4211 135.267 64.7068 135.105C64.9287 134.952 65.1927 134.872 65.4622 134.875C65.2279 134.975 65 135.09 64.7798 135.218C64.5229 135.379 64.3055 135.596 64.1436 135.852C63.9817 136.109 63.8795 136.398 63.8445 136.699C63.8094 137 63.8425 137.305 63.9412 137.592C64.04 137.878 64.2018 138.139 64.4149 138.355C64.6059 138.534 64.8123 138.697 65.0316 138.84Z" fill="#263238"/>
<path d="M64.5351 139C64.2877 138.944 64.0619 138.818 63.8855 138.636C63.4127 138.241 63.1085 137.682 63.0352 137.071C62.9751 136.459 63.147 135.847 63.5169 135.356C63.6536 135.145 63.8472 134.977 64.0753 134.871C64.0972 134.897 63.8673 135.064 63.6264 135.433C63.3063 135.909 63.1671 136.483 63.2341 137.052C63.301 137.622 63.5696 138.148 63.9913 138.537C64.2906 138.862 64.5497 138.975 64.5351 139Z" fill="#263238"/>
<path d="M61.8601 138.84C61.5896 138.791 61.3431 138.654 61.1594 138.45C60.9162 138.229 60.7287 137.954 60.6122 137.648C60.4957 137.341 60.4535 137.011 60.4891 136.684C60.5247 136.358 60.637 136.045 60.817 135.77C60.9969 135.496 61.2393 135.268 61.5244 135.105C61.7464 134.952 62.0103 134.872 62.2798 134.875C62.0455 134.975 61.8176 135.09 61.5973 135.218C61.3404 135.379 61.123 135.596 60.9611 135.852C60.7993 136.108 60.697 136.398 60.662 136.699C60.627 137 60.66 137.305 60.7588 137.592C60.8575 137.878 61.0193 138.139 61.2324 138.355C61.4269 138.535 61.637 138.697 61.8601 138.84Z" fill="#263238"/>
<path d="M61.3643 139C61.1168 138.944 60.8911 138.818 60.7147 138.636C60.2418 138.242 59.9386 137.682 59.868 137.071C59.8051 136.459 59.9758 135.847 60.3461 135.356C60.4838 135.146 60.6771 134.978 60.9045 134.871C60.9264 134.897 60.6965 135.064 60.4556 135.433C60.1355 135.909 59.9963 136.483 60.0633 137.052C60.1302 137.622 60.3988 138.148 60.8205 138.537C61.1198 138.862 61.3789 138.975 61.3643 139Z" fill="#263238"/>
<path d="M58.6892 138.84C58.4243 138.788 58.1836 138.651 58.0032 138.45C57.76 138.229 57.5724 137.954 57.4559 137.648C57.3394 137.341 57.2972 137.011 57.3328 136.684C57.3684 136.358 57.4808 136.045 57.6607 135.77C57.8407 135.496 58.0831 135.268 58.3681 135.105C58.5902 134.952 58.854 134.872 59.1235 134.875C58.8896 134.976 58.6618 135.091 58.4411 135.218C58.1853 135.38 57.9689 135.597 57.8079 135.853C57.6468 136.11 57.545 136.399 57.5101 136.699C57.4751 137 57.5078 137.305 57.6057 137.591C57.7036 137.878 57.8644 138.139 58.0761 138.355C58.267 138.533 58.472 138.695 58.6892 138.84Z" fill="#263238"/>
<path d="M58.1929 138.998C57.9454 138.942 57.7197 138.816 57.5433 138.633C57.068 138.24 56.7643 137.678 56.6962 137.066C56.6281 136.453 56.801 135.838 57.1783 135.35C57.3161 135.14 57.5093 134.972 57.7367 134.865C57.7586 134.891 57.5287 135.059 57.2878 135.427C56.9699 135.903 56.8321 136.477 56.8989 137.046C56.9658 137.615 57.233 138.141 57.6528 138.531C57.9484 138.859 58.2075 138.973 58.1929 138.998Z" fill="#263238"/>
<path d="M55.5174 138.84C55.2524 138.788 55.0117 138.651 54.8313 138.45C54.5881 138.229 54.4005 137.954 54.284 137.648C54.1675 137.341 54.1253 137.011 54.1609 136.684C54.1965 136.358 54.3089 136.045 54.4888 135.77C54.6688 135.496 54.9112 135.268 55.1962 135.105C55.4183 134.952 55.6822 134.872 55.9517 134.875C55.7178 134.976 55.4899 135.091 55.2692 135.218C55.0134 135.38 54.7971 135.597 54.636 135.853C54.4749 136.11 54.3732 136.399 54.3382 136.699C54.3032 137 54.3359 137.305 54.4338 137.591C54.5318 137.878 54.6925 138.139 54.9043 138.355C55.0951 138.533 55.3002 138.695 55.5174 138.84Z" fill="#263238"/>
<path d="M55.0217 138.998C54.7743 138.942 54.5485 138.816 54.3721 138.633C53.8969 138.24 53.5931 137.678 53.525 137.066C53.4569 136.453 53.6298 135.838 54.0072 135.35C54.1449 135.14 54.3382 134.972 54.5655 134.865C54.5874 134.891 54.3575 135.059 54.1167 135.427C53.8035 135.904 53.6632 136.475 53.7189 137.043C53.7883 137.611 54.0527 138.137 54.467 138.531C54.7772 138.859 55.04 138.973 55.0217 138.998Z" fill="#263238"/>
<path d="M52.3468 138.84C52.0861 138.784 51.8498 138.648 51.6716 138.45C51.4284 138.229 51.2409 137.954 51.1244 137.648C51.0079 137.341 50.9657 137.011 51.0013 136.684C51.0369 136.358 51.1492 136.045 51.3292 135.77C51.5091 135.496 51.7515 135.268 52.0366 135.105C52.2586 134.952 52.5225 134.872 52.792 134.875C52.5581 134.976 52.3302 135.091 52.1095 135.218C51.8537 135.38 51.6374 135.597 51.4763 135.853C51.3152 136.11 51.2135 136.399 51.1785 136.699C51.1435 137 51.1762 137.305 51.2741 137.591C51.3721 137.878 51.5328 138.139 51.7446 138.355C51.932 138.533 52.1333 138.695 52.3468 138.84Z" fill="#263238"/>
<path d="M51.8537 138.998C51.6051 138.943 51.378 138.816 51.2005 138.633C50.7253 138.24 50.4215 137.678 50.3534 137.066C50.2853 136.453 50.4582 135.838 50.8356 135.35C50.9733 135.14 51.1666 134.972 51.3939 134.865C51.4158 134.891 51.1896 135.059 50.9487 135.427C50.6286 135.903 50.4894 136.477 50.5564 137.047C50.6233 137.616 50.8919 138.143 51.3136 138.531C51.6056 138.859 51.8683 138.973 51.8537 138.998Z" fill="#263238"/>
<path d="M44.2295 110.797C48.7036 115.101 64.5129 130.228 64.5129 130.228L67.7061 131.403L66.7171 128.102L46.4958 108.455C46.3411 108.305 46.1581 108.186 45.9574 108.107C45.7566 108.027 45.542 107.988 45.3261 107.992C45.1102 107.997 44.8972 108.043 44.6996 108.13C44.5019 108.217 44.3235 108.343 44.1747 108.499C43.8775 108.811 43.7163 109.229 43.7265 109.659C43.7368 110.09 43.9177 110.499 44.2295 110.797Z" fill="#1579AD"/>
<path d="M66.4039 126.055L61.6597 120.029L52.434 117.578L43.8542 123.104L42.0952 134.438C42.0952 134.438 43.9856 134.438 44.9053 134.372C45.5074 134.328 50.1385 133.726 50.1385 133.726C50.1385 133.726 53.9813 133.679 55.7148 133.307C57.4483 132.935 58.0869 132.162 59.3131 132.162C60.5393 132.162 60.8605 130.746 60.8605 130.746C61.6422 130.491 62.3936 130.151 63.1012 129.732C64.0063 129.149 64.0063 127.762 64.0063 127.762C64.0063 127.762 64.488 127.974 65.7142 127.762C66.9404 127.551 66.4039 126.055 66.4039 126.055Z" fill="#FFBE9D"/>
<path d="M64.1229 127.455C64.0154 127.363 63.9198 127.259 63.8383 127.144L63.1084 126.269C62.3268 125.295 61.3623 124.484 60.2691 123.88C59.1391 123.342 57.9407 122.961 56.7073 122.749L55.5869 122.534C55.4464 122.515 55.3082 122.482 55.1746 122.435C55.3162 122.426 55.4584 122.435 55.5979 122.461C55.8643 122.49 56.2548 122.541 56.7329 122.618C57.9902 122.793 59.2127 123.162 60.3567 123.712C61.4736 124.325 62.4475 125.168 63.2142 126.185C63.5171 126.55 63.747 126.878 63.9039 127.101C63.9882 127.211 64.0615 127.33 64.1229 127.455Z" fill="#EB996E"/>
<path d="M61.4551 129.986C61.3158 129.629 61.0916 129.311 60.8018 129.059C60.2654 128.589 59.2873 128.308 58.2691 127.892C57.2509 127.476 56.313 127.111 55.6452 126.831C55.2758 126.698 54.9181 126.534 54.5759 126.342C54.9579 126.431 55.3315 126.553 55.6926 126.707C56.3714 126.955 57.3093 127.308 58.3385 127.713C58.8494 127.918 59.3384 128.107 59.7982 128.293C60.1993 128.45 60.5699 128.676 60.8931 128.961C61.1132 129.156 61.2844 129.399 61.393 129.672C61.4423 129.769 61.4638 129.878 61.4551 129.986Z" fill="#EB996E"/>
<path d="M58.8018 131.845C58.5251 131.839 58.2504 131.797 57.9843 131.721C57.4844 131.619 56.7983 131.448 56.0501 131.225C55.302 131.003 54.6378 130.766 54.1634 130.58C53.8968 130.491 53.6429 130.369 53.408 130.215C53.6815 130.259 53.9494 130.332 54.2072 130.434C54.6926 130.591 55.3604 130.798 56.1049 131.025C56.8494 131.251 57.5245 131.437 58.0172 131.575C58.2878 131.636 58.551 131.727 58.8018 131.845Z" fill="#EB996E"/>
<path d="M70.2358 131.398C70.0451 131.564 69.8342 131.705 69.6081 131.818C69.2066 132.051 68.6446 132.365 68.0096 132.686C67.3746 133.007 66.7944 133.284 66.3674 133.47C66.1448 133.589 65.9064 133.677 65.6594 133.729C66.3912 133.285 67.1465 132.881 67.9221 132.518C68.6712 132.101 69.4437 131.727 70.2358 131.398Z" fill="#263238"/>
<path d="M72.7901 131.18C72.023 131.721 71.2194 132.208 70.3851 132.639C69.5828 133.127 68.7475 133.558 67.8853 133.93C68.6539 133.391 69.4573 132.904 70.2902 132.471C71.0945 131.987 71.9296 131.555 72.7901 131.18Z" fill="#263238"/>
<path d="M73.6991 131.336C73.1413 131.825 72.5431 132.265 71.9109 132.653C71.3119 133.091 70.6771 133.478 70.0132 133.809C70.5718 133.32 71.1713 132.879 71.805 132.492C72.4025 132.054 73.0361 131.667 73.6991 131.336Z" fill="#263238"/>
<path d="M78.3115 131.18C77.5562 131.754 76.7638 132.278 75.9394 132.748C75.1483 133.271 74.3229 133.74 73.4688 134.153C74.2245 133.579 75.0169 133.055 75.8409 132.584C76.633 132.063 77.4583 131.594 78.3115 131.18Z" fill="#263238"/>
<path d="M79.9285 131.254C79.9504 131.305 78.8884 131.827 77.6513 132.6C76.4141 133.373 75.4799 134.092 75.4434 134.059C75.6083 133.856 75.8012 133.678 76.0163 133.53C76.5069 133.136 77.0199 132.771 77.5527 132.436C78.0841 132.104 78.6349 131.804 79.2023 131.538C79.4302 131.411 79.6746 131.315 79.9285 131.254Z" fill="#263238"/>
<path d="M81.6546 131.047C80.9761 131.606 80.259 132.117 79.5088 132.575C78.7924 133.086 78.0398 133.545 77.2571 133.947C77.9367 133.392 78.655 132.886 79.4066 132.433C80.1213 131.917 80.8727 131.454 81.6546 131.047Z" fill="#263238"/>
<path d="M84.0084 130.746C83.2862 131.342 82.5242 131.888 81.7275 132.38C80.9658 132.92 80.1684 133.407 79.3408 133.839C80.0641 133.245 80.826 132.699 81.6217 132.205C82.3835 131.666 83.1808 131.178 84.0084 130.746Z" fill="#263238"/>
<path d="M86.9978 130.658C87.0269 130.706 86.0781 131.304 84.9942 132.154C83.9104 133.004 83.0965 133.773 83.0564 133.733C83.1918 133.527 83.3552 133.34 83.5418 133.179C83.9623 132.76 84.4084 132.368 84.8774 132.004C85.3436 131.639 85.831 131.301 86.3372 130.994C86.5388 130.849 86.7616 130.735 86.9978 130.658Z" fill="#263238"/>
<path d="M88.322 130.92C88.3549 130.964 87.4936 131.595 86.4973 132.434C85.501 133.273 84.7128 134.002 84.6726 133.966C85.7091 132.753 86.9429 131.723 88.322 130.92Z" fill="#263238"/>
<path d="M91.1611 130.92C91.194 130.964 90.3327 131.595 89.3364 132.434C88.3401 133.273 87.5519 134.002 87.5117 133.966C88.0092 133.34 88.5802 132.777 89.2123 132.288C89.8033 131.754 90.4579 131.294 91.1611 130.92Z" fill="#263238"/>
<path d="M93.2996 130.92C93.3324 130.964 92.4711 131.595 91.4749 132.434C90.4786 133.273 89.6903 134.002 89.6501 133.966C90.1476 133.34 90.7186 132.777 91.3508 132.288C91.9418 131.754 92.5963 131.294 93.2996 130.92Z" fill="#263238"/>
<path d="M94.4016 130.92C94.4308 130.964 93.5732 131.595 92.5769 132.434C91.5806 133.273 90.796 134.002 90.7522 133.966C91.7887 132.753 93.0225 131.723 94.4016 130.92Z" fill="#263238"/>
<path d="M98.2961 130.811C98.329 130.854 97.4677 131.485 96.4714 132.324C95.4751 133.163 94.6905 133.896 94.6467 133.856C95.1429 133.23 95.714 132.666 96.3474 132.178C96.9376 131.643 97.5923 131.184 98.2961 130.811Z" fill="#263238"/>
<path d="M102.19 130.701C102.223 130.749 101.362 131.376 100.365 132.219C99.3692 133.061 98.5809 133.787 98.5408 133.747C99.0388 133.123 99.6097 132.561 100.241 132.073C100.833 131.538 101.487 131.078 102.19 130.701Z" fill="#263238"/>
<path d="M106.083 130.605C106.116 130.649 105.255 131.28 104.259 132.119C103.262 132.958 102.474 133.688 102.434 133.651C102.932 133.026 103.503 132.462 104.135 131.973C104.726 131.439 105.38 130.98 106.083 130.605Z" fill="#263238"/>
<path d="M109.978 130.484C110.011 130.528 109.149 131.159 108.153 131.998C107.157 132.837 106.369 133.57 106.328 133.53C107.364 132.316 108.598 131.286 109.978 130.484Z" fill="#263238"/>
<path d="M89.2157 53.6278C93.7669 50.5513 94.9613 44.3696 91.8833 39.8205C88.8054 35.2714 82.6208 34.0777 78.0696 37.1541C73.5183 40.2306 72.324 46.4124 75.4019 50.9614C78.4799 55.5105 84.6645 56.7043 89.2157 53.6278Z" fill="#1579AD"/>
<path d="M86.921 36.457C86.921 36.457 88.5742 52.9191 88.7786 64.1029L89.5085 77.3039C89.5085 77.3039 81.7608 74.8417 73.9292 75.2065L67.6011 58.9925L86.921 36.457Z" fill="#263238"/>
<path d="M43.1415 39.3296C44.6378 32.399 46.1706 25.1985 51.8089 20.9088C56.8341 17.0823 62.509 16.0719 68.8224 16.4367C71.9281 16.6081 75.4133 18.0928 78.0992 19.6613C81.7778 21.8134 83.2887 26.0921 85.0331 29.9879C88.5074 37.7866 87.9052 48.2701 85.4345 51.1445L52.7979 67.7816C47.1085 64.7176 43.2912 63.2694 41.8497 56.9699C40.8753 52.6802 42.211 43.6303 43.1415 39.3296Z" fill="#263238"/>
<path d="M52.4193 27.3105L72.8888 21.5873C79.4578 20.7265 84.0597 28.7368 84.6436 35.3428C85.2932 42.6856 85.7931 51.6735 85.0596 57.1815C83.5998 68.2559 75.1588 69.8718 75.1588 69.8718C75.1588 69.8718 75.1369 70.0396 75.1588 73.3189L75.3522 80.6945C72.7976 89.697 63.7069 88.7851 51.6712 74.3074L49.2042 33.942C49.0399 30.7722 50.4194 27.5732 52.4193 27.3105Z" fill="#FFBE9D"/>
<path d="M82.7934 44.4212C82.8046 44.7897 82.6717 45.1481 82.4231 45.4205C82.1745 45.6928 81.8296 45.8577 81.4614 45.8803C81.2817 45.8994 81.0999 45.8822 80.9269 45.8297C80.754 45.7773 80.5933 45.6907 80.4544 45.575C80.3156 45.4594 80.2014 45.317 80.1186 45.1564C80.0358 44.9958 79.9861 44.8202 79.9724 44.6401C79.9604 44.2719 80.0923 43.9135 80.3404 43.6411C80.5884 43.3686 80.933 43.2036 81.3008 43.181C81.4807 43.1624 81.6624 43.18 81.8354 43.2326C82.0084 43.2852 82.1691 43.3718 82.3081 43.4873C82.4472 43.6028 82.5617 43.7449 82.6451 43.9053C82.7284 44.0657 82.7788 44.2411 82.7934 44.4212Z" fill="#263238"/>
<path d="M82.8441 41.9667C82.6726 42.1564 81.5814 41.3904 80.0559 41.4305C78.5305 41.4707 77.4357 42.2622 77.2678 42.0798C77.1838 41.9996 77.3554 41.664 77.8334 41.2956C78.483 40.8298 79.2602 40.575 80.0596 40.566C80.8514 40.5429 81.63 40.773 82.2821 41.2226C82.7601 41.5509 82.928 41.8829 82.8441 41.9667Z" fill="#263238"/>
<path d="M68.3929 44.4216C68.406 44.79 68.2743 45.1489 68.026 45.4215C67.7778 45.6942 67.4327 45.859 67.0645 45.8807C66.8848 45.8997 66.7031 45.8825 66.5301 45.8301C66.3571 45.7777 66.1964 45.691 66.0576 45.5754C65.9187 45.4597 65.8045 45.3174 65.7217 45.1568C65.6389 44.9962 65.5892 44.8206 65.5756 44.6404C65.5626 44.272 65.6942 43.9131 65.9425 43.6405C66.1907 43.3678 66.5358 43.203 66.904 43.1814C67.0837 43.1623 67.2655 43.1795 67.4384 43.2319C67.6114 43.2844 67.7721 43.371 67.9109 43.4866C68.0498 43.6023 68.164 43.7447 68.2468 43.9053C68.3296 44.0659 68.3793 44.2414 68.3929 44.4216Z" fill="#263238"/>
<path d="M67.867 41.9355C67.6955 42.1252 66.6007 41.3592 65.0789 41.3993C63.5571 41.4394 62.4586 42.231 62.2907 42.0486C62.2068 41.9683 62.3747 41.6327 62.8564 41.2643C63.5049 40.7966 64.2828 40.5417 65.0825 40.5348C65.8744 40.5117 66.653 40.7417 67.305 41.1914C67.7831 41.5197 67.951 41.8516 67.867 41.9355Z" fill="#263238"/>
<path d="M73.655 51.8861C73.655 51.7986 74.5892 51.6125 76.1183 51.3754C76.5052 51.328 76.8738 51.2405 76.9322 50.9742C76.9905 50.7079 76.8446 50.2738 76.6439 49.8288L75.4177 46.9107C73.7134 42.7341 72.4726 39.2979 72.6405 39.2505C72.8083 39.2031 74.3265 42.5115 76.0308 46.6881C76.4395 47.7168 76.8336 48.698 77.2059 49.6391C77.3664 50.0769 77.6292 50.5693 77.4467 51.1566C77.3944 51.2955 77.3109 51.4207 77.2028 51.5225C77.0946 51.6243 76.9646 51.7 76.8227 51.7439C76.6078 51.8069 76.3859 51.8424 76.1621 51.8496C74.6221 51.9408 73.6623 51.97 73.655 51.8861Z" fill="#263238"/>
<path d="M75.1584 69.8741C69.964 70.0853 64.813 68.8503 60.2798 66.3066C60.2798 66.3066 64.1263 73.934 75.1475 72.6244L75.1584 69.8741Z" fill="#EB996E"/>
<path d="M68.6955 54.8525C68.9081 54.5087 69.2028 54.2231 69.5531 54.0212C69.9034 53.8194 70.2984 53.7077 70.7026 53.6962C71.2665 53.6421 71.8345 53.7397 72.3479 53.9789C72.8612 54.2182 73.3012 54.5903 73.6222 55.0568C73.8886 55.3632 73.8886 56.2386 73.7864 56.483C73.6842 56.7274 73.7864 56.607 73.582 56.7785C72.9178 57.3949 72.2135 58.0151 71.3413 58.2376C70.8779 58.3672 70.3861 58.3541 69.9304 58.1998C69.4746 58.0456 69.076 57.7574 68.7867 57.3731C68.5425 57.0014 68.4049 56.5699 68.3888 56.1255C68.3727 55.6811 68.4788 55.2409 68.6955 54.8525Z" fill="#EB996E"/>
<path d="M68.926 53.1135C69.1742 53.0916 69.2289 54.744 70.6777 55.8748C72.1266 57.0056 73.8819 56.7648 73.9038 56.9983C73.9294 57.1004 73.5389 57.3302 72.7798 57.3631C71.8114 57.4072 70.8587 57.1074 70.0902 56.5168C69.3516 55.9511 68.8622 55.1204 68.7253 54.2005C68.6414 53.522 68.8238 53.1062 68.926 53.1135Z" fill="#263238"/>
<path d="M68.5205 36.3753C68.4074 36.8021 66.8746 36.7401 65.112 37.1049C63.3493 37.4696 61.9479 38.0715 61.6779 37.7213C61.5574 37.5535 61.7764 37.1413 62.3238 36.6963C63.059 36.1427 63.9106 35.7634 64.814 35.5871C65.7175 35.4108 66.6492 35.4421 67.5388 35.6786C68.214 35.8792 68.5716 36.1747 68.5205 36.3753Z" fill="#263238"/>
<path d="M82.775 37.8702C82.41 38.1621 81.3152 37.6258 79.9357 37.3851C78.5562 37.1443 77.3264 37.2064 77.1111 36.8051C77.0198 36.6154 77.2607 36.3017 77.8409 36.0756C78.6083 35.7858 79.4421 35.7187 80.2459 35.8822C81.0521 36.0175 81.8022 36.3823 82.4064 36.9328C82.8297 37.345 82.9319 37.7243 82.775 37.8702Z" fill="#263238"/>
<path d="M72.6226 20.4004C72.6408 20.4808 72.6518 20.5613 72.67 20.6417H72.6299C72.6299 20.5722 72.6262 20.4881 72.6226 20.4004Z" fill="#263238"/>
<path d="M51.0943 74.0128C51.2804 74.1076 51.6819 85.4118 53.1489 90.2596C53.6708 91.985 59.1705 91.9594 59.1705 91.9594C59.8164 91.9594 58.5282 70.2666 58.2399 65.4042C58.0538 62.3256 54.5467 57.8535 53.773 54.8661C52.5395 50.0876 54.3751 47.122 55.1014 42.2122C57.8676 41.9095 61.9221 40.0455 63.7906 37.9298C66.0387 35.3764 67.4218 32.2066 68.7721 29.0878C68.643 32.186 67.5511 35.167 65.6482 37.6161C66.8671 37.8897 68.1699 37.3827 69.1005 36.5473C69.9986 35.6691 70.7012 34.6113 71.1624 33.4432C72.3972 30.6678 73.1027 27.6864 73.2426 24.6522C73.5941 29.0043 73.0411 33.3821 71.6186 37.5103C72.3959 37.2842 73.217 37.5103 74.0163 37.638C74.8155 37.7657 75.7315 37.7547 76.3045 37.1857C76.6532 36.77 76.8772 36.2642 76.9504 35.7266C77.7641 32.0451 77.943 28.2517 77.4796 24.51C78.4321 26.5381 79.3809 28.5881 79.921 30.7658C80.4611 32.9434 80.5743 35.2707 79.8736 37.4009C80.1838 37.8094 80.8589 37.7657 81.2421 37.4009C81.5962 37.0242 81.8145 36.5403 81.8625 36.0257C82.18 34.1763 81.8625 32.2832 81.5778 30.4338C82.6544 32.4036 82.9865 34.6761 83.5668 36.8465C84.147 39.0168 85.0849 41.2419 86.9461 42.5004C87.3039 39.6844 87.2523 36.8316 86.7929 34.0304C86.4535 31.7141 85.3878 29.4052 84.4061 27.2786C83.3113 24.9003 81.7603 22.5621 80.0268 20.9936C76.819 18.101 75.4395 19.3083 73.3484 20.3625L73.1039 20.461C73.1039 20.4099 73.1039 20.3589 73.1039 20.3078L73.0163 19.8664C67.5933 18.5705 61.9216 18.7544 56.594 20.399C52.6636 21.6173 47.7916 25.5714 45.7479 29.1535C45.7115 29.2191 45.6677 29.2848 45.6312 29.3577C41.2519 38.0684 35.9164 59.4293 36.2631 76.7486L41.5219 75.7783L51.0943 74.0128Z" fill="#263238"/>
<path d="M53.9951 54.9335C57.8802 51.0503 57.8802 44.7544 53.9951 40.8711C50.1101 36.9879 43.8112 36.9879 39.9261 40.8712C36.0411 44.7544 36.0411 51.0503 39.9261 54.9335C43.8112 58.8168 50.1101 58.8168 53.9951 54.9335Z" fill="#1579AD"/>
<path d="M46.781 37.9569C46.781 37.9569 47.27 17.4423 65.331 14.7722C65.331 14.7722 74.5019 14.0426 75.75 18.4199C75.75 18.4199 71.0459 15.8665 66.3674 17.0921C63.2836 17.8982 52.0252 22.8956 51.496 39.602L46.8467 41.6046L46.781 37.9569Z" fill="#1579AD"/>
<path d="M54.0137 47.8485C54.0137 47.8485 54.0137 47.8084 54.0137 47.7318C54.0137 47.6552 54.0137 47.5275 53.9881 47.3853C53.9806 47.1978 53.9586 47.0113 53.9224 46.8272C53.8871 46.5735 53.8347 46.3224 53.7655 46.0758C53.5917 45.3968 53.3174 44.7477 52.9517 44.1498C52.473 43.3557 51.8461 42.661 51.1051 42.1034C50.2113 41.4236 49.1698 40.9638 48.0651 40.7611C46.7955 40.5278 45.4865 40.6373 44.2734 41.0784C43.6185 41.3103 43.0031 41.6412 42.4487 42.0597C42.1613 42.2739 41.8883 42.5066 41.6312 42.7564C41.3759 43.0178 41.1393 43.297 40.9232 43.5917C40.0175 44.8268 39.5269 46.3172 39.5219 47.8485C39.5298 48.62 39.6528 49.3859 39.8868 50.1211C40.1217 50.8332 40.4691 51.5031 40.9159 52.1054C41.3382 52.6952 41.8533 53.2126 42.4414 53.6374C42.9958 54.0559 43.6112 54.3868 44.2661 54.6187C45.3997 55.0329 46.6191 55.1561 47.8127 54.9771C49.0063 54.798 50.1358 54.3223 51.0978 53.5937C51.8404 53.0379 52.4677 52.3428 52.9444 51.5473C53.3066 50.9524 53.5784 50.307 53.7509 49.6323C53.8201 49.3856 53.8725 49.1346 53.9078 48.8808C53.944 48.6968 53.966 48.5102 53.9735 48.3227C53.9735 48.1805 53.9918 48.0674 53.9991 47.9762C54.0064 47.885 53.9991 47.8595 53.9991 47.8595C54.0047 47.8994 54.0047 47.9399 53.9991 47.9799C53.9991 48.0674 53.9991 48.1805 53.9991 48.3264C54.0006 48.5147 53.9847 48.7028 53.9516 48.8881C53.9251 49.1455 53.8788 49.4003 53.8129 49.6505C53.6511 50.3419 53.3827 51.0039 53.0174 51.613C52.4886 52.5112 51.775 53.2869 50.9238 53.8887C50.0726 54.4905 49.1032 54.9047 48.0797 55.1038C46.7822 55.3504 45.4422 55.2433 44.2004 54.7937C43.529 54.5579 42.8977 54.2209 42.3282 53.7943C42.0335 53.5754 41.7531 53.3378 41.4889 53.083C41.2264 52.8142 40.9825 52.5278 40.759 52.2258C40.2983 51.6091 39.9408 50.9216 39.7007 50.1904C39.1906 48.6783 39.1906 47.0407 39.7007 45.5286C39.9408 44.7973 40.2983 44.1099 40.759 43.4932C40.9834 43.1919 41.2273 42.9056 41.4889 42.636C41.7531 42.3812 42.0335 42.1436 42.3282 41.9247C42.8981 41.4988 43.5294 41.1618 44.2004 40.9252C45.4417 40.4793 46.7796 40.3723 48.0761 40.6152C49.2041 40.8296 50.2657 41.307 51.1744 42.0086C51.9236 42.5799 52.5535 43.2925 53.0283 44.106C53.3936 44.715 53.662 45.3771 53.8239 46.0685C53.8897 46.3186 53.9361 46.5735 53.9626 46.8308C53.9957 47.0162 54.0115 47.2043 54.01 47.3926C54.01 47.5385 54.01 47.6516 54.01 47.7574C54.0146 47.7875 54.0158 47.8181 54.0137 47.8485Z" fill="#263238"/>
<path d="M49.0654 44.8504C49.1019 44.8868 47.7991 46.2474 46.1459 47.8925C44.4927 49.5376 43.1388 50.8362 43.1023 50.8107C43.0658 50.7852 44.365 49.41 46.0218 47.7685C47.6787 46.127 49.029 44.8139 49.0654 44.8504Z" fill="#263238"/>
<path d="M47.9189 47.4395C47.6025 47.8823 47.235 48.2863 46.8241 48.6432C46.4564 49.0453 46.0438 49.4039 45.5942 49.712C46.2774 48.8673 47.0563 48.1047 47.9153 47.4395H47.9189Z" fill="#263238"/>
<path d="M71.9728 44.2095C71.9355 43.6863 71.8574 43.1667 71.7393 42.6556C71.5817 42.0605 71.3357 41.4925 71.0094 40.9704C70.5894 40.2738 70.0393 39.6645 69.3891 39.1757C68.6056 38.5805 67.693 38.1782 66.725 38.0012C65.6139 37.7991 64.469 37.8961 63.4077 38.282C62.8334 38.4843 62.2941 38.7747 61.8092 39.1429C61.295 39.5134 60.8451 39.9656 60.4772 40.4816C59.6805 41.5614 59.2507 42.8679 59.2507 44.2095C59.2507 45.5512 59.6805 46.8576 60.4772 47.9375C60.8451 48.4534 61.295 48.9057 61.8092 49.2762C62.2941 49.6444 62.8334 49.9348 63.4077 50.137C64.469 50.523 65.6139 50.62 66.725 50.4179C67.693 50.2409 68.6056 49.8385 69.3891 49.2434C70.0414 48.7528 70.5928 48.1409 71.013 47.4414C71.3393 46.9193 71.5854 46.3513 71.7429 45.7562C71.8608 45.245 71.9389 44.7255 71.9765 44.2022C71.9818 44.2361 71.9818 44.2705 71.9765 44.3044C71.9765 44.3846 71.9765 44.4868 71.9765 44.6108C71.9771 44.777 71.9637 44.9429 71.9363 45.1069C71.9114 45.3321 71.8699 45.5552 71.8123 45.7744C71.6703 46.3803 71.4365 46.9609 71.1189 47.4961C70.6548 48.2874 70.027 48.9705 69.2774 49.4995C68.5278 50.0286 67.6737 50.3915 66.7724 50.5638C65.6326 50.7806 64.4554 50.6874 63.3639 50.2939C62.7744 50.0871 62.2205 49.7906 61.7216 49.4148C61.1885 49.0375 60.7233 48.5725 60.3458 48.0396C59.5267 46.9305 59.0847 45.5881 59.0847 44.2095C59.0847 42.8309 59.5267 41.4886 60.3458 40.3795C60.5406 40.1152 60.7528 39.8642 60.9808 39.628C61.2095 39.4036 61.4534 39.1952 61.7107 39.0043C62.2087 38.6271 62.7628 38.3305 63.3529 38.1252C64.372 37.7564 65.4677 37.6503 66.5386 37.8167C67.6096 37.9831 68.6213 38.4167 69.4803 39.0772C70.138 39.5806 70.6909 40.2076 71.1079 40.923C71.4261 41.4579 71.66 42.0386 71.8013 42.6447C71.8589 42.8639 71.9004 43.087 71.9254 43.3122C71.9529 43.4761 71.9663 43.6421 71.9655 43.8083C71.9655 43.9323 71.9655 44.0344 71.9655 44.1111C71.9727 44.1434 71.9752 44.1765 71.9728 44.2095Z" fill="#455A64"/>
<path d="M88.5295 44.2091C88.4895 43.6859 88.4102 43.1665 88.2923 42.6551C88.1348 42.0601 87.8888 41.492 87.5625 40.9699C87.1429 40.2742 86.5941 39.6651 85.9458 39.1752C85.1606 38.5807 84.2469 38.1784 83.278 38.0007C82.1669 37.7986 81.022 37.8956 79.9607 38.2816C79.3864 38.4838 78.8471 38.7742 78.3623 39.1424C77.8481 39.5129 77.3981 39.9652 77.0303 40.4811C76.2336 41.5609 75.8038 42.8674 75.8038 44.2091C75.8038 45.5507 76.2336 46.8572 77.0303 47.937C77.219 48.1939 77.425 48.4377 77.647 48.6665C77.877 48.8849 78.1208 49.0884 78.3769 49.2757C78.8617 49.6439 79.401 49.9343 79.9753 50.1366C81.0366 50.5225 82.1815 50.6195 83.2926 50.4174C84.2615 50.2397 85.1752 49.8374 85.9604 49.2429C86.6087 48.7531 87.1575 48.1439 87.5771 47.4482C87.9034 46.9261 88.1494 46.3581 88.3069 45.763C88.4245 45.2516 88.5038 44.7322 88.5441 44.2091C88.548 44.243 88.548 44.2773 88.5441 44.3112C88.5441 44.3914 88.5441 44.4936 88.5441 44.6176C88.5447 44.7838 88.5313 44.9497 88.504 45.1137C88.4804 45.3389 88.4402 45.562 88.3836 45.7812C88.2418 46.3877 88.0067 46.9686 87.6865 47.5029C86.9253 48.8012 85.7331 49.7919 84.3171 50.303C82.9011 50.8141 81.3507 50.8133 79.9352 50.3007C79.3446 50.094 78.7894 49.7975 78.2893 49.4216C78.0312 49.2317 77.7873 49.0232 77.5594 48.7979C77.3302 48.5617 77.1168 48.3107 76.9208 48.0464C76.1016 46.9373 75.6597 45.595 75.6597 44.2164C75.6597 42.8378 76.1016 41.4954 76.9208 40.3863C77.1168 40.122 77.3302 39.871 77.5594 39.6349C77.7873 39.4095 78.0312 39.201 78.2893 39.0111C78.7886 38.6338 79.3439 38.3372 79.9352 38.132C81.0254 37.7386 82.2014 37.6454 83.3401 37.8621C84.2414 38.0344 85.0954 38.3973 85.845 38.9264C86.5946 39.4554 87.2225 40.1385 87.6865 40.9298C88.0072 41.4639 88.2424 42.0448 88.3836 42.6515C88.4402 42.8707 88.4804 43.0938 88.504 43.319C88.5254 43.4761 88.5339 43.6347 88.5295 43.7932C88.5295 43.9172 88.5295 44.0194 88.5295 44.096C88.5341 44.1335 88.5341 44.1715 88.5295 44.2091Z" fill="#455A64"/>
<path d="M76.0532 42.2707C75.8332 42.2125 75.6164 42.1431 75.4036 42.0627C74.3551 41.7663 73.2317 41.8974 72.2797 42.4275C71.9148 42.6281 71.7214 42.7923 71.6995 42.7923C71.8314 42.5993 72.0063 42.4395 72.2104 42.3254C72.6857 42.0202 73.2249 41.8286 73.7863 41.7653C74.3477 41.7021 74.916 41.7689 75.4474 41.9606C75.6701 42.017 75.8772 42.123 76.0532 42.2707Z" fill="#455A64"/>
<path d="M51.6706 39.2166C50.8295 38.8813 49.9661 38.6047 49.0868 38.3885C48.1939 38.236 47.2916 38.1446 46.3862 38.115C46.6469 38.0399 46.9181 38.0079 47.1891 38.0201C48.4941 37.9958 49.7878 38.2664 50.9735 38.8117C51.2263 38.908 51.4617 39.0448 51.6706 39.2166Z" fill="#263238"/>
<path d="M75.3594 18.307C75.1256 17.8491 74.806 17.4405 74.4179 17.1032C73.9564 16.7175 73.4265 16.4218 72.8559 16.2314C72.0966 15.992 71.3012 15.8871 70.5057 15.9214C69.5384 15.9596 68.5762 16.0816 67.63 16.2861C66.5465 16.4948 65.4812 16.7888 64.444 17.1652C62.0455 18.0334 59.8101 19.2985 57.8313 20.9078C55.8462 22.5172 54.1568 24.4601 52.8389 26.6492C51.7753 28.4384 50.9566 30.3621 50.4048 32.3688C50.0357 33.7237 49.7914 35.1095 49.6749 36.5089C49.6274 37.005 49.6165 37.388 49.6019 37.6507V37.9498C49.6041 37.9838 49.6041 38.0179 49.6019 38.0519C49.5966 38.0181 49.5966 37.9836 49.6019 37.9498C49.6019 37.8695 49.6019 37.7747 49.6019 37.6507C49.6019 37.388 49.6019 37.0014 49.6384 36.5016C49.7248 35.0944 49.9497 33.6991 50.3099 32.336C50.8445 30.3084 51.6563 28.3641 52.7221 26.558C54.0363 24.3472 55.73 22.3851 57.7255 20.7619C59.7212 19.1423 61.9768 17.872 64.3966 17.0047C65.4502 16.6232 66.5326 16.3268 67.6336 16.1183C68.5891 15.9214 69.5598 15.8079 70.5349 15.7791C71.3459 15.7524 72.1553 15.8697 72.9253 16.1256C73.5047 16.3244 74.0392 16.6356 74.4982 17.0412C74.7891 17.2969 75.0357 17.5988 75.2281 17.9349C75.2857 18.0536 75.3297 18.1784 75.3594 18.307Z" fill="#263238"/>
<path d="M85.5485 69.4961L73.1405 70.1636L69.7867 76.3136C69.729 76.4171 69.6993 76.5338 69.7005 76.6522C69.7016 76.7706 69.7336 76.8867 69.7932 76.989C69.8529 77.0913 69.9382 77.1764 70.0407 77.2358C70.1432 77.2951 70.2594 77.3268 70.3779 77.3277C70.9728 77.3277 71.6662 77.2438 72.0493 76.9009C72.8121 76.2152 74.2609 74.1542 74.2609 74.1542L73.4982 78.7321L77.0125 82.5475L77.7789 83.3172C77.8569 83.3952 77.9506 83.4558 78.0538 83.4948C78.157 83.5338 78.2674 83.5504 78.3775 83.5435C78.4876 83.5366 78.595 83.5064 78.6925 83.4548C78.79 83.4032 78.8754 83.3314 78.9431 83.2442C79.3263 82.7445 79.7605 82.0952 79.7605 81.7086C79.7605 81.7086 81.4393 81.249 81.5159 80.1802C81.5377 79.2365 81.4864 78.2926 81.3626 77.3569C81.3626 77.3569 82.5086 76.6711 82.6618 75.9853L84.4865 77.8931L92.6722 80.8112L97.5332 79.3522L104.182 76.9155C104.182 76.9155 100.139 73.3918 99.2958 72.7827C98.4528 72.1735 85.5485 69.4961 85.5485 69.4961Z" fill="#FFBE9D"/>
<path d="M85.5483 69.4961C85.5483 69.4961 85.6723 69.5143 85.9132 69.5618L86.9825 69.777C87.9204 69.9667 89.2962 70.2512 91.0479 70.6305C92.7996 71.0099 94.9309 71.4695 97.3614 72.0896C97.9977 72.2382 98.6222 72.4332 99.2299 72.6732C99.5158 72.8587 99.7878 73.0647 100.044 73.2897L100.847 73.9572C101.941 74.8655 103.036 75.8358 104.222 76.8498L104.324 76.9374L104.222 76.9885L98.7482 78.9947C98.2701 79.1625 97.792 79.3595 97.2884 79.5127L95.7849 79.9686L92.6938 80.9097H92.6646H92.6354L84.4461 77.9916H84.4243L82.5995 76.0838L82.7601 76.0364C82.6769 76.3155 82.5206 76.5673 82.3076 76.766C82.1062 76.9731 81.885 77.1601 81.6471 77.3241L81.4171 77.4736L81.4646 77.3788C81.5853 78.2659 81.639 79.1609 81.6252 80.0562C81.6294 80.2924 81.5702 80.5254 81.4536 80.731C81.333 80.9291 81.1757 81.1024 80.9902 81.2417C80.6276 81.5074 80.2212 81.7074 79.7895 81.8326L79.8625 81.7414C79.8426 81.9583 79.7767 82.1685 79.6691 82.3579C79.5732 82.5388 79.4672 82.7142 79.3516 82.8831C79.2348 83.0509 79.1217 83.2114 78.9866 83.3756C78.8368 83.5447 78.6272 83.6492 78.4018 83.6669C78.1765 83.6846 77.9531 83.6141 77.7787 83.4704C77.6218 83.3245 77.494 83.1895 77.3517 83.0473C77.067 82.7737 76.797 82.4892 76.5379 82.1974L73.4359 78.8269L73.4067 78.7941V78.7503L74.1731 74.1724L74.33 74.2345C73.9504 74.767 73.5636 75.2838 73.1695 75.7847C72.9724 76.0328 72.7717 76.2772 72.5637 76.5143C72.3664 76.7658 72.1298 76.9838 71.863 77.1599C71.5807 77.3028 71.2733 77.3896 70.9579 77.4152C70.8047 77.4335 70.6514 77.4408 70.5018 77.4444C70.3385 77.4602 70.1742 77.4299 70.0273 77.3569C69.8817 77.2793 69.7651 77.1568 69.6947 77.0076C69.6244 76.8584 69.6041 76.6905 69.6368 76.5288C69.6767 76.3813 69.7395 76.241 69.823 76.113L70.031 75.7482L73.0782 70.1819L73.0965 70.149H73.133L82.2565 69.6894L84.7126 69.5763L85.3512 69.5508H85.5665L85.3476 69.5727L84.7126 69.6165L82.2528 69.766L73.1476 70.284L73.1987 70.2475L70.1733 75.8248L69.9689 76.1896C69.8931 76.3015 69.8352 76.4246 69.7974 76.5544C69.7703 76.6832 69.7859 76.8173 69.8419 76.9364C69.8979 77.0556 69.9912 77.1532 70.1076 77.2146C70.2314 77.2734 70.3693 77.2961 70.5054 77.2803C70.6514 77.2803 70.801 77.2803 70.947 77.2511C71.2417 77.2265 71.5291 77.1461 71.7936 77.014C72.0415 76.8443 72.2618 76.6376 72.4469 76.4012C72.6513 76.1714 72.8483 75.927 73.0454 75.6716C73.4359 75.1756 73.8191 74.6576 74.195 74.1287L74.4103 73.8259L74.3519 74.1907C74.1086 75.6716 73.8543 77.1976 73.5892 78.7685L73.5673 78.6919L76.6693 82.0588C76.932 82.3506 77.2021 82.6351 77.4831 82.9087C77.6218 83.0436 77.7677 83.1932 77.8991 83.3172C78.0353 83.4286 78.209 83.4834 78.3845 83.4704C78.4725 83.4644 78.5585 83.4409 78.6374 83.4015C78.7163 83.3621 78.7867 83.3074 78.8443 83.2406C78.9611 83.0984 79.0815 82.9269 79.2092 82.7664C79.3218 82.6039 79.4242 82.4345 79.5158 82.2594C79.6103 82.0974 79.6688 81.917 79.6873 81.7305V81.6612L79.7567 81.6393C80.1642 81.5198 80.5482 81.331 80.8916 81.0812C81.0627 80.9651 81.203 80.8091 81.3003 80.6267C81.3976 80.4443 81.4489 80.241 81.45 80.0343C81.4634 79.1512 81.4097 78.2683 81.2894 77.3933V77.3313L81.3441 77.2985L81.5595 77.1562C81.7886 77.0007 82.0014 76.8222 82.1945 76.6237C82.3806 76.4487 82.5188 76.2289 82.5959 75.9853L82.6397 75.8176L82.7565 75.9416C83.3878 76.5945 84.0119 77.2438 84.5812 77.8493L84.5483 77.8238L92.734 80.7419H92.6756L95.7666 79.8081L97.2702 79.3522C97.7665 79.2063 98.2409 79.0056 98.7299 78.8415L104.204 76.8462L104.179 76.9812C103.011 75.9635 101.887 74.9895 100.814 74.063L100.015 73.3955C99.7644 73.1719 99.4972 72.9682 99.2153 72.7863C98.6216 72.551 98.0118 72.3584 97.3906 72.21C94.9674 71.5753 92.8361 71.1157 91.0881 70.7108L87.0336 69.8134L85.968 69.58C85.6687 69.5326 85.5483 69.4961 85.5483 69.4961Z" fill="#EB996E"/>
<path d="M82.8987 70.9219C82.8461 70.9531 82.7897 70.9777 82.7309 70.9948L82.2455 71.1736L80.439 71.7864L77.7604 72.6801C77.5144 72.7597 77.294 72.9032 77.1217 73.0959C76.9565 73.3118 76.8395 73.5605 76.7787 73.8254C76.6257 74.3984 76.5039 74.9793 76.4137 75.5654C76.2228 76.6959 76.1897 77.8473 76.3152 78.9869C76.4549 79.9126 76.7175 80.8154 77.0962 81.6716C77.3441 82.2537 77.6408 82.8137 77.983 83.3459C78.2312 83.7107 78.3917 83.9113 78.3771 83.9223C78.3294 83.8838 78.2865 83.8397 78.2494 83.7909C78.1314 83.664 78.0229 83.5287 77.9246 83.386C77.5526 82.8665 77.2347 82.3104 76.9758 81.7263C76.5714 80.8656 76.2913 79.9519 76.1437 79.0125C76.0041 77.8558 76.0311 76.6852 76.224 75.5362C76.3192 74.9423 76.4471 74.3542 76.6072 73.7744C76.6761 73.4848 76.8068 73.2135 76.9904 72.9792C77.1874 72.7618 77.4396 72.6017 77.7202 72.5159C78.7384 72.184 79.6508 71.9031 80.4208 71.6587L82.2455 71.1006L82.7455 70.9584C82.7948 70.9398 82.8463 70.9276 82.8987 70.9219Z" fill="#EB996E"/>
<path d="M86.1508 72.0645C85.9831 72.1493 85.8085 72.2201 85.629 72.276L84.1692 72.7867L82.0124 73.5162C81.5867 73.6398 81.1708 73.7947 80.768 73.9795C80.3672 74.217 80.0527 74.5761 79.8702 75.0045C79.4681 75.8353 79.1538 76.7057 78.9323 77.6016C78.7562 78.3322 78.7166 79.0891 78.8155 79.834C78.9177 80.521 79.1666 81.1778 79.5454 81.76C79.5454 81.76 79.5053 81.7272 79.4432 81.6542C79.3541 81.5464 79.2736 81.4318 79.2024 81.3114C78.9389 80.8618 78.7619 80.3669 78.6805 79.8523C78.5572 79.091 78.5832 78.3129 78.7571 77.5615C78.9719 76.6483 79.2865 75.7615 79.695 74.917C79.8972 74.4569 80.2411 74.0735 80.6767 73.8226C81.0927 73.6312 81.522 73.4703 81.9613 73.3411L84.1291 72.6481L85.5888 72.1921C85.7715 72.1311 85.9597 72.0884 86.1508 72.0645Z" fill="#EB996E"/>
<path d="M85.7087 74.7188C85.3576 75.1869 84.8689 75.5338 84.311 75.7109C83.7769 75.9468 83.1833 76.013 82.6104 75.9006C83.1647 75.8256 83.7117 75.7036 84.2453 75.5358C84.7557 75.306 85.2453 75.0327 85.7087 74.7188Z" fill="#EB996E"/>
<path d="M93.5662 79.4908C93.2723 79.5882 92.9634 79.6327 92.6539 79.6221C91.9036 79.6303 91.1592 79.489 90.4642 79.2063C89.7692 78.9278 89.1374 78.5122 88.6067 77.9843C88.3785 77.7755 88.1883 77.5286 88.0447 77.2548C88.0702 77.2365 88.2855 77.5101 88.7016 77.8858C89.7904 78.864 91.1873 79.4305 92.6502 79.4872C93.2122 79.5054 93.5589 79.458 93.5662 79.4908Z" fill="#EB996E"/>
<path d="M79.5199 70.2638C79.5199 70.2857 79.1003 70.3185 78.4251 70.4499C78.0894 70.5119 77.6952 70.5921 77.25 70.6906C76.7733 70.7684 76.3101 70.9133 75.8742 71.1211C75.4472 71.3319 75.0899 71.6612 74.845 72.0694C74.6505 72.4101 74.5113 72.7795 74.4327 73.1638C74.2867 73.824 74.2429 74.2581 74.21 74.2581C74.1924 74.1591 74.1924 74.0579 74.21 73.959C74.2248 73.6875 74.2553 73.4171 74.3013 73.1492C74.3682 72.7442 74.5026 72.3533 74.6991 71.9928C74.9533 71.5476 75.3344 71.1882 75.7939 70.9606C76.2459 70.7481 76.7267 70.6031 77.2208 70.5301C77.666 70.4426 78.0711 70.3733 78.4105 70.3295C78.7744 70.2484 79.149 70.2263 79.5199 70.2638Z" fill="#EB996E"/>
<path d="M38.5333 103.729C38.5771 103.758 36.2524 107.216 33.3475 111.444C30.4426 115.671 28.0449 119.082 28.0011 119.053C27.9573 119.023 30.282 115.569 33.1906 111.338C36.0991 107.106 38.4822 103.7 38.5333 103.729Z" fill="#263238"/>
</svg>
