<svg width="16" height="17" viewBox="0 0 16 17" fill="none" xmlns="http://www.w3.org/2000/svg">
<path fill-rule="evenodd" clip-rule="evenodd" d="M1.78173 0.5C1.42881 0.5 1.14271 0.780496 1.14271 1.12651C1.14271 1.47252 1.42881 1.75301 1.78173 1.75301H12.4115C13.6875 1.75301 14.7218 2.76711 14.7218 4.01807V14.7306C14.7218 15.0766 15.0079 15.3571 15.3608 15.3571C15.7138 15.3571 15.9999 15.0766 15.9999 14.7306V4.01807C15.9999 2.0751 14.3933 0.5 12.4115 0.5H1.78173ZM0 4.78594C0 3.68137 0.895431 2.78594 2 2.78594H11.7143C12.8189 2.78594 13.7143 3.68137 13.7143 4.78594V14.5002C13.7143 15.6048 12.8189 16.5002 11.7143 16.5002H2C0.895429 16.5002 0 15.6048 0 14.5002V4.78594ZM3.74072 7.92852C3.74072 7.61293 3.99656 7.3571 4.31215 7.3571H9.40306C9.71865 7.3571 9.97449 7.61293 9.97449 7.92852C9.97449 8.24412 9.71865 8.49995 9.40306 8.49995H4.31215C3.99656 8.49995 3.74072 8.24412 3.74072 7.92852ZM3.74072 10.2138C3.74072 9.89822 3.99656 9.64238 4.31215 9.64238H9.40306C9.71865 9.64238 9.97449 9.89822 9.97449 10.2138C9.97449 10.5294 9.71865 10.7852 9.40306 10.7852H4.31215C3.99656 10.7852 3.74072 10.5294 3.74072 10.2138ZM4.31215 11.9283C3.99656 11.9283 3.74072 12.1842 3.74072 12.4997C3.74072 12.8153 3.99656 13.0712 4.31215 13.0712H6.90955C7.22515 13.0712 7.48098 12.8153 7.48098 12.4997C7.48098 12.1842 7.22515 11.9283 6.90955 11.9283H4.31215Z" fill="#747C87"/>
</svg>
