<svg width="22" height="22" viewBox="0 0 22 22" fill="none" xmlns="http://www.w3.org/2000/svg">
<path d="M18.2188 2.75H14.4375V2.0625C14.4375 0.923398 13.5141 0 12.375 0H9.625C8.4859 0 7.5625 0.923398 7.5625 2.0625V2.75H3.78125C2.83203 2.75 2.0625 3.51953 2.0625 4.46875V5.84375C2.0625 6.22346 2.37029 6.53125 2.75 6.53125H19.25C19.6297 6.53125 19.9375 6.22346 19.9375 5.84375V4.46875C19.9375 3.51953 19.168 2.75 18.2188 2.75ZM8.9375 2.0625C8.9375 1.68352 9.24602 1.375 9.625 1.375H12.375C12.754 1.375 13.0625 1.68352 13.0625 2.0625V2.75H8.9375V2.0625ZM3.3672 7.90625C3.33813 7.90625 3.30936 7.91215 3.28263 7.9236C3.25591 7.93505 3.23178 7.9518 3.21172 7.97284C3.19166 7.99388 3.17608 8.01878 3.16592 8.04602C3.15576 8.07326 3.15123 8.10228 3.15262 8.13132L3.7198 20.0355C3.77223 21.1372 4.67715 22 5.77973 22H16.2203C17.3229 22 18.2278 21.1372 18.2802 20.0355L18.8474 8.13132C18.8488 8.10228 18.8442 8.07326 18.8341 8.04602C18.8239 8.01878 18.8083 7.99388 18.7883 7.97284C18.7682 7.9518 18.7441 7.93505 18.7174 7.9236C18.6906 7.91215 18.6619 7.90625 18.6328 7.90625H3.3672ZM13.75 9.625C13.75 9.24516 14.0577 8.9375 14.4375 8.9375C14.8173 8.9375 15.125 9.24516 15.125 9.625V18.5625C15.125 18.9423 14.8173 19.25 14.4375 19.25C14.0577 19.25 13.75 18.9423 13.75 18.5625V9.625ZM10.3125 9.625C10.3125 9.24516 10.6202 8.9375 11 8.9375C11.3798 8.9375 11.6875 9.24516 11.6875 9.625V18.5625C11.6875 18.9423 11.3798 19.25 11 19.25C10.6202 19.25 10.3125 18.9423 10.3125 18.5625V9.625ZM6.875 9.625C6.875 9.24516 7.18266 8.9375 7.5625 8.9375C7.94234 8.9375 8.25 9.24516 8.25 9.625V18.5625C8.25 18.9423 7.94234 19.25 7.5625 19.25C7.18266 19.25 6.875 18.9423 6.875 18.5625V9.625Z" fill="#EF5350"/>
</svg>
