<svg width="25" height="25" viewBox="0 0 25 25" fill="none" xmlns="http://www.w3.org/2000/svg">
<path fill-rule="evenodd" clip-rule="evenodd" d="M21.5653 14.4079C20.8844 14.0156 20.4616 13.2849 20.4616 12.5C20.4616 11.7155 20.8844 10.9847 21.5633 10.5929C22.2601 10.1923 22.5499 9.35993 22.2522 8.61391C21.8789 7.67155 21.3707 6.79138 20.7454 5.99749C20.2472 5.36541 19.3817 5.19987 18.6849 5.60304C18.006 5.99749 17.1603 5.99867 16.4794 5.60601C15.8005 5.21334 15.3797 4.48142 15.3817 3.69511C15.3817 2.89072 14.806 2.22314 14.01 2.10801C13.008 1.96301 11.9903 1.96401 10.9886 2.11098C10.1945 2.22691 9.61888 2.89411 9.62083 3.69689C9.62083 4.48223 9.19995 5.21372 8.52106 5.60601C7.84015 5.99825 6.99649 5.99745 6.31561 5.60342C5.61885 5.20025 4.75333 5.36659 4.25506 5.99867C3.94304 6.39534 3.65977 6.81382 3.40742 7.25089C3.1553 7.68744 2.93495 8.145 2.74836 8.6101C2.44859 9.35731 2.73845 10.1908 3.43521 10.5924C4.11613 10.9843 4.53895 11.7154 4.53895 12.5C4.53895 13.2845 4.11613 14.015 3.4372 14.4075C2.74044 14.8081 2.45062 15.64 2.74836 16.3858C3.12095 17.3265 3.62851 18.208 4.25506 19.0024C4.75333 19.6345 5.61885 19.8 6.31561 19.3969C6.99454 19.0024 7.84019 19.0016 8.52106 19.3939C9.19995 19.7866 9.62083 20.5185 9.62083 21.3048C9.61884 22.109 10.1965 22.7765 10.9905 22.8919C11.4869 22.9638 11.9878 22.9999 12.4893 22.9999C12.9975 22.9999 13.5057 22.963 14.0119 22.8889C14.8059 22.7728 15.3816 22.1062 15.3816 21.3034C15.3796 20.5177 15.8004 19.7861 16.4794 19.3939C17.1602 19.0017 18.0039 19.0025 18.6848 19.3965C19.3816 19.7997 20.2471 19.6337 20.7454 19.0012C21.0572 18.6046 21.3405 18.1862 21.593 17.7494C21.8431 17.3129 22.0675 16.8553 22.2521 16.3898C22.5519 15.6426 22.2621 14.8088 21.5653 14.4079ZM15.201 14.0597C14.7861 14.7811 14.1132 15.2974 13.3072 15.513C12.5033 15.7286 11.6615 15.618 10.9409 15.2011C9.45211 14.3412 8.93995 12.4301 9.7995 10.9403C10.3752 9.94093 11.4273 9.38154 12.5052 9.38154C13.0352 9.38154 13.5693 9.51573 14.0596 9.79881C15.5484 10.6586 16.0606 12.5702 15.201 14.0597Z" fill="#9CA8BA"/>
</svg>
