<svg width="15" height="15" viewBox="0 0 15 15" fill="none" xmlns="http://www.w3.org/2000/svg">
<path d="M12.2693 13.0201C12.1207 13.0202 11.9754 12.9762 11.8518 12.8936C11.7283 12.8109 11.6321 12.6935 11.5754 12.5561C11.5188 12.4186 11.5042 12.2675 11.5336 12.1218C11.563 11.9761 11.6351 11.8425 11.7406 11.7378C12.8745 10.6115 13.4991 9.10719 13.4991 7.50092C13.4991 5.89465 12.8745 4.39037 11.7406 3.26403C11.5995 3.12382 11.5199 2.93329 11.5192 2.73437C11.5186 2.53544 11.597 2.34442 11.7372 2.20331C11.8775 2.0622 12.068 1.98257 12.2669 1.98194C12.4658 1.9813 12.6569 2.05972 12.798 2.19993C14.2175 3.61048 14.9989 5.49271 14.9989 7.50092C14.9989 9.50913 14.2175 11.3914 12.798 12.8019C12.6576 12.9418 12.4675 13.0203 12.2693 13.0201Z" fill="white"/>
<path d="M10.147 10.8979C9.99819 10.8982 9.85265 10.8542 9.72894 10.7715C9.60522 10.6888 9.50895 10.5711 9.45239 10.4335C9.39584 10.2958 9.38156 10.1444 9.41138 9.99865C9.4412 9.85285 9.51377 9.71923 9.61984 9.61484C10.1785 9.06217 10.4995 8.29129 10.4995 7.5009C10.4995 6.71051 10.1785 5.93962 9.61984 5.38695C9.54793 5.31816 9.49044 5.23574 9.45071 5.1445C9.41098 5.05326 9.38981 4.95503 9.38843 4.85552C9.38705 4.75602 9.40549 4.65723 9.44267 4.56493C9.47985 4.47262 9.53504 4.38864 9.60501 4.31787C9.67497 4.24711 9.75833 4.19098 9.85021 4.15275C9.94209 4.11453 10.0407 4.09497 10.1402 4.09523C10.2397 4.09548 10.3382 4.11554 10.4298 4.15424C10.5215 4.19293 10.6046 4.24949 10.6742 4.32061C11.0932 4.73767 11.4258 5.23321 11.6532 5.7789C11.8805 6.32459 11.9981 6.90974 11.9992 7.5009C11.9981 8.09206 11.8805 8.67721 11.6532 9.2229C11.4258 9.76859 11.0932 10.2641 10.6742 10.6812C10.534 10.8203 10.3445 10.8982 10.147 10.8979ZM7.49989 14.9998C7.30103 14.9998 7.11032 14.9207 6.96972 14.7801L3.43998 11.2504H1.50076C0.673629 11.2504 0.000976562 10.5777 0.000976562 9.75058V5.25122C0.000976562 4.42409 0.673629 3.75144 1.50076 3.75144H3.43998L6.96972 0.221699C7.07431 0.116119 7.20797 0.0440679 7.35366 0.0147289C7.49935 -0.0146101 7.65047 9.12211e-05 7.78778 0.0569594C7.92508 0.113828 8.04235 0.210287 8.12463 0.334046C8.20691 0.457806 8.25048 0.60326 8.24979 0.751873V14.2499C8.24979 14.4488 8.17078 14.6395 8.03015 14.7802C7.88952 14.9208 7.69878 14.9998 7.49989 14.9998Z" fill="white"/>
</svg>
