<svg width="53" height="53" viewBox="0 0 53 53" fill="none" xmlns="http://www.w3.org/2000/svg">
<rect width="53" height="53" rx="26.5" fill="white"/>
<g clip-path="url(#clip0_821_9471)">
<path d="M9.62789 19.7868L27.5226 9.38762L26.6679 8.89478L8.77393 19.2925L9.62789 19.7868Z" fill="#FE91AB"/>
<path d="M28.9154 24.9314C28.1265 24.4755 27.4872 23.367 27.4901 22.4627L27.5175 9.39136L21.4303 12.9286L9.62802 19.7861L9.59546 32.8597C9.59398 33.7662 10.2333 34.8747 11.0222 35.3291C11.4196 35.5592 11.7792 35.58 12.0397 35.429L29.9329 25.0298C29.6724 25.1807 29.3113 25.16 28.9146 24.9321L28.9154 24.9314Z" fill="#ED5D71"/>
<path d="M10.3428 20.2812L12.7597 21.6762L12.9358 21.7783V35.6318C12.7019 35.6177 12.4444 35.5378 12.1736 35.3817C11.1465 34.7867 10.3125 33.3445 10.3162 32.1649L10.3428 20.2812Z" fill="#E3E7F0"/>
<path d="M31.2383 11.5337L31.2057 24.6073C31.2027 25.3251 30.9489 25.8335 30.5375 26.071L12.6443 36.4702C13.055 36.2304 13.3088 35.7243 13.3125 35.005L13.3443 21.9307L31.2383 11.5337Z" fill="#ED5D71"/>
<path d="M12.6434 21.6102L29.4414 11.8481L27.1415 10.519L10.3435 20.2819L12.6434 21.6102Z" fill="white"/>
<path d="M8.77403 19.2925L8.74147 32.3668C8.73777 33.8142 9.75897 35.5843 11.0192 36.3117C12.2794 37.0392 13.3073 36.4523 13.3117 35.0056L13.3443 21.9313L12.4896 21.4385L12.457 34.5121C12.4548 35.4178 11.811 35.7849 11.0214 35.3298C10.2333 34.8747 9.59321 33.7661 9.59617 32.8604L9.62799 19.7868L8.77403 19.2925Z" fill="#D3374E"/>
<path d="M13.3442 21.9314L31.2374 11.5329L30.3827 11.04L12.4895 21.4385L13.3442 21.9314Z" fill="#FE91AB"/>
<path d="M31.2426 9.38916L26.9876 11.8622L25.1501 15.0709L31.2381 11.5337L31.2426 9.38916Z" fill="#ED5D71"/>
<path d="M26.9885 11.8622L25.1511 15.0701L24.2971 14.5773L26.1338 11.3687L26.9885 11.8622Z" fill="#D3374E"/>
<path d="M26.9885 11.8622L31.2427 9.39055L30.388 8.89697L26.1338 11.3686L26.9885 11.8622Z" fill="#FE91AB"/>
<path d="M16.1362 23.5276L34.0294 13.1283L33.1754 12.6355L15.2815 23.034L16.1362 23.5276Z" fill="#FFDD94"/>
<path d="M35.4229 28.6728C34.6341 28.2162 33.9947 27.1077 33.9977 26.2034L34.0258 13.1313L27.9378 16.6685L16.1363 23.5269L16.1045 36.6004C16.103 37.5062 16.7424 38.6155 17.5312 39.0698C17.9279 39.3 18.2882 39.3207 18.548 39.1697L36.4412 28.7705C36.1822 28.9215 35.8196 28.9007 35.4229 28.6721V28.6728Z" fill="#FEBB61"/>
<path d="M16.8504 24.022L19.2672 25.4169L19.4433 25.519V39.3725C19.2102 39.3585 18.9527 39.2786 18.6811 39.1224C17.654 38.5275 16.82 37.0852 16.8237 35.9056L16.8504 24.022Z" fill="#E3E7F0"/>
<path d="M37.7458 15.2744L37.714 28.348C37.7103 29.0658 37.4565 29.5742 37.0458 29.8117L19.1519 40.2109C19.5633 39.9712 19.8171 39.4658 19.8201 38.7457L19.8526 25.6714L37.7458 15.2744Z" fill="#FEBB61"/>
<path d="M19.1517 25.3509L35.9497 15.5888L33.6491 14.2598L16.8511 24.0218L19.1517 25.3509Z" fill="white"/>
<path d="M15.2816 23.0339L15.2498 36.1075C15.2453 37.555 16.2673 39.325 17.5275 40.0525C18.787 40.7799 19.8156 40.1931 19.82 38.7456L19.8518 25.672L18.9979 25.1792L18.9653 38.2528C18.9623 39.1585 18.3186 39.5256 17.5297 39.0705C16.7409 38.6154 16.1015 37.5069 16.1037 36.6011L16.1363 23.5268L15.2816 23.0339Z" fill="#EFA143"/>
<path d="M19.8518 25.6721L37.745 15.2743L36.891 14.7815L18.9978 25.18L19.8518 25.6721Z" fill="#FFDD94"/>
<path d="M37.7501 13.1299L33.4951 15.603L31.6584 18.8116L37.7457 15.2744L37.7501 13.1299Z" fill="#FEBB61"/>
<path d="M33.4966 15.603L31.6591 18.8109L30.8044 18.318L32.6419 15.1094L33.4966 15.603Z" fill="#EFA143"/>
<path d="M33.4968 15.6029L37.7503 13.1313L36.8964 12.637L32.6414 15.1093L33.4968 15.6029Z" fill="#FFDD94"/>
<path d="M22.6445 27.2675L40.5377 16.8691L39.6837 16.3762L21.7905 26.7747L22.6445 27.2675Z" fill="#7BB1FF"/>
<path d="M41.9312 32.4128C41.1424 31.957 40.503 30.8484 40.506 29.9442L40.5334 16.8721L34.4461 20.4093L22.6446 27.2668L22.6121 40.3412C22.6106 41.2469 23.2499 42.3562 24.0388 42.8106C24.4362 43.0399 24.7958 43.0614 25.0563 42.9104L42.9495 32.5112C42.6897 32.6622 42.3279 32.6415 41.9312 32.4128Z" fill="#5793FB"/>
<path d="M23.3587 27.7625L25.7755 29.1574L25.9516 29.2595V43.113C25.7185 43.099 25.4603 43.019 25.1894 42.8629C24.1623 42.2679 23.3283 40.8249 23.332 39.6461L23.3587 27.7625Z" fill="#E3E7F0"/>
<path d="M44.2541 19.0151L44.2216 32.0887C44.2186 32.8065 43.9648 33.3149 43.5534 33.5524L25.6602 43.9517C26.0709 43.7119 26.3254 43.2057 26.3284 42.4865L26.3602 29.4121L44.2541 19.0151Z" fill="#5793FB"/>
<path d="M38.4725 33.5448L42.8288 31.014C42.8288 31.014 42.8266 31.8717 42.8273 31.9257L38.4688 34.4587L38.4725 33.5448ZM38.4725 31.8229L42.8288 29.2913C42.8288 29.2913 42.8266 30.1497 42.8273 30.203L38.4688 32.736L38.4725 31.8229ZM38.4725 30.1001L42.8288 27.5693C42.8288 27.5693 42.8266 28.4263 42.8273 28.4803L38.4688 31.014L38.4725 30.1001Z" fill="#E3E7F0"/>
<path d="M25.66 29.0916L42.458 19.3288L40.1566 18.0005L23.3586 27.7626L25.66 29.0916Z" fill="white"/>
<path d="M21.7899 26.7739L21.7573 39.8482C21.7536 41.2957 22.7748 43.0658 24.0351 43.7924C25.2953 44.5206 26.3239 43.9345 26.3276 42.4871L26.3601 29.4128L25.5054 28.9199L25.4729 41.9935C25.4707 42.8993 24.8269 43.2663 24.0373 42.8112C23.2477 42.3561 22.6091 41.2476 22.612 40.3418L22.6446 27.2675L21.7899 26.7739Z" fill="#3A53D0"/>
<path d="M26.3601 29.4128L44.2533 19.0143L43.3993 18.5215L25.5061 28.92L26.3601 29.4128Z" fill="#7BB1FF"/>
<path d="M44.2584 16.8706L40.0034 19.3437L38.1667 22.5523L44.254 19.0151L44.2584 16.8706Z" fill="#5793FB"/>
<path d="M40.0049 19.3437L38.1674 22.5516L37.3127 22.0587L39.1502 18.8501L40.0049 19.3437Z" fill="#3A53D0"/>
<path d="M40.0051 19.3436L44.2586 16.872L43.4039 16.3777L39.1504 18.85L40.0051 19.3436Z" fill="#7BB1FF"/>
</g>
<defs>
<clipPath id="clip0_821_9471">
<rect width="37" height="37" fill="white" transform="translate(8 8)"/>
</clipPath>
</defs>
</svg>
