<svg width="53" height="53" viewBox="0 0 53 53" fill="none" xmlns="http://www.w3.org/2000/svg">
<rect width="53" height="53" rx="26.5" fill="white"/>
<path d="M37.8929 12H15.1071C13.3911 12 12 13.4103 12 15.15V29.85C12 31.5897 13.3911 33 15.1071 33H37.8929C39.6089 33 41 31.5897 41 29.85V15.15C41 13.4103 39.6089 12 37.8929 12Z" fill="#F0446A"/>
<path d="M39.9643 37H13.0357C12.761 37 12.4976 37.1054 12.3034 37.2929C12.1091 37.4804 12 37.7348 12 38C12 38.2652 12.1091 38.5196 12.3034 38.7071C12.4976 38.8946 12.761 39 13.0357 39H39.9643C40.239 39 40.5024 38.8946 40.6966 38.7071C40.8909 38.5196 41 38.2652 41 38C41 37.7348 40.8909 37.4804 40.6966 37.2929C40.5024 37.1054 40.239 37 39.9643 37Z" fill="#B5B3FF"/>
<path d="M17 41C18.6569 41 20 39.6569 20 38C20 36.3431 18.6569 35 17 35C15.3431 35 14 36.3431 14 38C14 39.6569 15.3431 41 17 41Z" fill="#9894FF"/>
<path d="M30.9404 20.6492L25.4139 17.3247C25.0749 17.1211 24.6862 17.0092 24.2879 17.0005C23.8896 16.9919 23.4961 17.0868 23.1481 17.2755C22.8002 17.4642 22.5103 17.7398 22.3084 18.0738C22.1066 18.4079 22.0001 18.7883 22 19.1758V25.8247C22.0009 26.4013 22.2368 26.9541 22.6561 27.3619C23.0754 27.7697 23.6438 27.9991 24.2368 28C24.6463 28 25.0547 27.8912 25.4139 27.6757L30.9404 24.3502C31.6039 23.9508 32 23.2587 32 22.4991C32 21.7396 31.6039 21.0486 30.9392 20.6481L30.9404 20.6492Z" fill="#EAF6FD"/>
</svg>
