<svg width="53" height="53" viewBox="0 0 53 53" fill="none" xmlns="http://www.w3.org/2000/svg">
<rect width="53" height="53" rx="26.5" fill="white"/>
<path d="M12.6257 42.3734V43.2649C12.6257 43.5839 12.8814 43.8439 13.2004 43.8439H39.7994C40.1184 43.8439 40.3763 43.5817 40.3741 43.2649V42.3734C40.3741 37.6274 36.8168 33.7335 32.2784 33.4517H20.7215C16.1852 33.7335 12.6257 37.6252 12.6257 42.3734Z" fill="#5299D3"/>
<path d="M23.6125 29.6802C23.5364 29.6796 23.461 29.694 23.3905 29.7226C23.3201 29.7512 23.2559 29.7933 23.2017 29.8467C23.1476 29.9001 23.1044 29.9636 23.0748 30.0336C23.0452 30.1036 23.0296 30.1788 23.0291 30.2549V35.7198C23.0312 36.0388 23.2913 36.2966 23.6125 36.2966H29.3898C29.4659 36.2969 29.5412 36.2822 29.6116 36.2534C29.682 36.2245 29.7459 36.1821 29.7999 36.1286C29.8539 36.075 29.8968 36.0113 29.9261 35.9412C29.9555 35.871 29.9708 35.7958 29.9711 35.7198V30.2571C29.9708 30.181 29.9555 30.1058 29.9261 30.0356C29.8968 29.9655 29.8539 29.9018 29.7999 29.8482C29.7459 29.7947 29.682 29.7523 29.6116 29.7234C29.5412 29.6946 29.4659 29.6799 29.3898 29.6802H23.6125Z" fill="#FFCCAA"/>
<path d="M23.6125 29.6802C23.4593 29.6796 23.3121 29.7397 23.2032 29.8475C23.0942 29.9552 23.0324 30.1017 23.0312 30.2549V31.9264C24.0388 32.6617 25.2539 33.0579 26.5012 33.0579C27.7485 33.0579 28.9635 32.6617 29.9711 31.9264V30.2549C29.9699 30.1017 29.9081 29.9552 29.7992 29.8475C29.6902 29.7397 29.543 29.6796 29.3898 29.6802H23.6125Z" fill="#FFB889"/>
<path d="M20.7215 33.4517C16.1852 33.7335 12.6257 37.6274 12.6257 42.3734V43.2649C12.6257 43.5839 12.8814 43.8439 13.2004 43.8439H14.3585C14.2053 43.8433 14.0586 43.7821 13.9505 43.6735C13.8423 43.565 13.7816 43.4181 13.7816 43.2649V42.3734C13.7816 37.6274 17.3433 33.7335 21.8796 33.4517H20.7215Z" fill="#3385C8"/>
<path d="M22.0435 31.8741L20.3063 33.6068C20.1989 33.7153 20.1387 33.8617 20.1387 34.0143C20.1387 34.167 20.1989 34.3134 20.3063 34.4219L24.3575 38.4665C24.5826 38.6915 24.9475 38.6915 25.1725 38.4665L26.5011 37.1445L27.8274 38.4665C28.0525 38.6915 28.4174 38.6915 28.6424 38.4665L32.6892 34.4219C32.7966 34.3134 32.8569 34.167 32.8569 34.0143C32.8569 33.8617 32.7966 33.7153 32.6892 33.6068L30.9564 31.8741C30.9027 31.8202 30.8388 31.7775 30.7685 31.7483C30.6982 31.7192 30.6228 31.7042 30.5467 31.7042C30.4706 31.7042 30.3953 31.7192 30.325 31.7483C30.2547 31.7775 30.1908 31.8202 30.137 31.8741L26.5011 35.51L22.8585 31.8741C22.8044 31.8197 22.74 31.7767 22.6691 31.7474C22.5982 31.7181 22.5222 31.7033 22.4455 31.7036C22.2944 31.7058 22.1501 31.7669 22.0435 31.8741Z" fill="#A0C7E7"/>
<path d="M26.2104 9.22791L11.1771 17.2275C11.0877 17.2704 11.0127 17.3385 10.9613 17.4233C10.9099 17.508 10.8842 17.606 10.8875 17.7051C10.8907 17.8042 10.9227 17.9002 10.9796 17.9815C11.0364 18.0627 11.1157 18.1257 11.2077 18.1627L19.9349 22.1614L20.1949 21.6851H32.8028L33.0607 22.1636L41.7923 18.1627C41.8842 18.1257 41.9635 18.0627 42.0203 17.9815C42.0772 17.9002 42.1092 17.8042 42.1124 17.7051C42.1157 17.606 42.09 17.508 42.0386 17.4233C41.9872 17.3385 41.9122 17.2704 41.8228 17.2275L26.7895 9.23009C26.6998 9.18319 26.6001 9.15869 26.4989 9.15869C26.3976 9.15869 26.2979 9.18319 26.2082 9.23009L26.2104 9.22791Z" fill="#5299D3"/>
<path d="M20.8046 23.4856C19.5963 23.4856 18.6479 24.5301 18.6479 25.7581C18.6479 26.9817 19.5963 28.0306 20.8024 28.0306C20.9701 28.0282 21.1367 28.0047 21.2985 27.9606V23.549C21.1363 23.5077 20.9719 23.4864 20.8046 23.4856Z" fill="#FFB889"/>
<path d="M34.3541 25.7581C34.3541 26.9817 33.4058 28.0306 32.1996 28.0306C32.032 28.0282 31.8654 28.0047 31.7036 27.9606V23.549C31.8657 23.5077 32.0323 23.4864 32.1996 23.4856C33.4058 23.4856 34.3541 24.5301 34.3541 25.7581Z" fill="#FFCCAA"/>
<path d="M26.501 17.7498C24.7027 17.7498 23.0814 17.9115 21.8665 18.1977C21.259 18.3419 20.7521 18.5102 20.35 18.7396C19.9523 18.9668 19.5765 19.3165 19.57 19.8365C19.535 20.0069 19.1373 22.1068 20.7565 23.7216L20.9269 23.892H32.073L32.2412 23.7216C33.8582 22.1046 33.4649 20.0069 33.4321 19.8365C33.4234 19.3165 33.0475 18.9668 32.6499 18.7396C32.1732 18.4884 31.6634 18.306 31.1356 18.1977C29.9207 17.9115 28.2972 17.7498 26.501 17.7498Z" fill="#356287"/>
<path d="M21.8666 18.1977C21.2591 18.3419 20.7522 18.5102 20.3501 18.7396C19.9546 18.9668 19.5766 19.3165 19.5679 19.8365C19.5351 20.0069 19.1374 22.1068 20.7566 23.7216L20.927 23.892H22.0851L21.9125 23.7216C20.2955 22.1068 20.691 20.0069 20.7238 19.8365C20.7325 19.3165 21.1106 18.9668 21.5082 18.7396C21.9081 18.5102 22.415 18.3419 23.0225 18.1977C24.1041 17.942 25.5157 17.7935 27.078 17.7607C26.8857 17.7585 26.6978 17.7498 26.5012 17.7498C24.7028 17.7498 23.0815 17.9115 21.8666 18.1977Z" fill="#2C5170"/>
<path d="M25.0698 19.6157C24.9166 19.6146 24.7691 19.6742 24.6598 19.7815C24.5504 19.8888 24.4881 20.035 24.4863 20.1882C24.4823 20.8089 24.2327 21.4028 23.7922 21.8401C23.3516 22.2774 22.7559 22.5225 22.1352 22.5219H21.165C21.0126 22.523 20.8667 22.5843 20.7592 22.6923C20.6516 22.8003 20.5909 22.9463 20.5903 23.0988V26.0006C20.5903 29.2607 23.2343 31.9003 26.501 31.9003C27.2765 31.9011 28.0446 31.7492 28.7614 31.4532C29.4782 31.1571 30.1296 30.7227 30.6785 30.1749C31.2274 29.627 31.6629 28.9764 31.9603 28.2601C32.2577 27.5439 32.4111 26.7761 32.4116 26.0006V23.0988C32.4111 22.9459 32.3501 22.7996 32.242 22.6915C32.134 22.5834 31.9876 22.5225 31.8348 22.5219H28.437C27.032 22.5219 25.8476 21.4949 25.6335 20.1052C25.6124 19.9702 25.5442 19.8471 25.441 19.7575C25.3379 19.6679 25.2064 19.6177 25.0698 19.6157Z" fill="#FFCCAA"/>
<path d="M15.5167 14.9202L14.3586 15.5364V23.6081H15.5167V14.9202Z" fill="#EEEEEE"/>
<path d="M14.3608 22.4521C14.2076 22.4521 14.0606 22.5129 13.9521 22.621C13.8436 22.7291 13.7823 22.8758 13.7817 23.029V28.2492C13.7817 28.5704 14.0418 28.8304 14.3608 28.8282H15.5167C15.8357 28.8282 16.0936 28.5682 16.0914 28.2492V23.0268C16.0902 22.8748 16.0293 22.7293 15.9218 22.6217C15.8143 22.5142 15.6688 22.4533 15.5167 22.4521H14.3608Z" fill="#FFCA28"/>
<path d="M26.501 14.3584C24.7027 14.3584 23.0814 14.5245 21.8686 14.7998C21.3453 14.9046 20.8382 15.0787 20.3609 15.3176C20.164 15.4183 19.9865 15.5529 19.8365 15.7153C19.6659 15.9005 19.5682 16.1411 19.5612 16.3927V19.7796C19.5612 19.7971 19.5677 19.8124 19.5699 19.8298V19.8364C19.5524 19.9151 19.4607 20.4176 19.5262 21.0841C19.9632 20.6558 20.1796 20.4264 20.5576 20.162C20.8766 19.9391 21.3442 19.6376 22.3647 19.3688C23.0639 19.1831 23.9554 19.0323 24.9911 18.9536C25.4762 18.9252 25.9744 18.9077 26.4988 18.9077C27.0232 18.9077 27.5258 18.9252 28.0087 18.9514C29.0466 19.0323 29.936 19.1831 30.6352 19.3688C31.6534 19.6376 32.1232 19.9391 32.4423 20.162C32.8203 20.4242 33.0366 20.6558 33.4758 21.0841C33.5189 20.6689 33.5042 20.2497 33.4321 19.8386L33.4299 19.8298C33.4299 19.8124 33.4386 19.7971 33.4386 19.7774V16.3927C33.4317 16.1411 33.3339 15.9005 33.1633 15.7153C33.0133 15.5529 32.8358 15.4183 32.6389 15.3176C32.1616 15.0787 31.6546 14.9046 31.1312 14.7998C29.9185 14.5245 28.2971 14.3606 26.4988 14.3606L26.501 14.3584Z" fill="#A0C7E7"/>
<path d="M14.3608 22.4521C14.2076 22.4521 14.0606 22.5129 13.9521 22.621C13.8436 22.7291 13.7823 22.8758 13.7817 23.029V28.2514C13.7817 28.5704 14.0418 28.8304 14.3608 28.8304H15.5167C15.4405 28.8304 15.365 28.8154 15.2946 28.7861C15.2242 28.7569 15.1603 28.714 15.1065 28.66C15.0527 28.606 15.0101 28.5419 14.9811 28.4714C14.9521 28.4009 14.9374 28.3254 14.9376 28.2492V23.0268C14.9376 22.71 15.1977 22.4521 15.5167 22.4521H14.3608Z" fill="#ECB200"/>
<path d="M20.3631 15.3155C20.1663 15.4162 19.9887 15.5508 19.8387 15.7132C19.667 15.8986 19.5684 16.1401 19.5612 16.3927V19.7774C19.5612 19.7971 19.5677 19.8124 19.5699 19.8299V19.8364C19.5524 19.9151 19.4607 20.4155 19.5262 21.0819C19.9632 20.6536 20.1796 20.4264 20.5576 20.162L20.6931 20.0702L20.7237 19.8364V19.8299C20.7237 19.8124 20.7171 19.7971 20.7171 19.7774V16.3927C20.7171 16.124 20.8438 15.8814 20.9924 15.7153C21.1429 15.552 21.3212 15.4166 21.519 15.3155C21.9189 15.1013 22.4193 14.9396 23.0267 14.7998C24.104 14.5551 25.5177 14.3977 27.0779 14.3672C26.8856 14.363 26.6933 14.3608 26.501 14.3606C24.7027 14.3606 23.0814 14.5245 21.8686 14.7998C21.3461 14.9041 20.8398 15.0775 20.3631 15.3155Z" fill="#74ADDC"/>
<path d="M21.165 22.522C21.0126 22.5231 20.8667 22.5843 20.7592 22.6923C20.6516 22.8003 20.5909 22.9464 20.5903 23.0988V26.0006C20.5903 28.5921 22.2663 30.786 24.5934 31.5791C23.5956 31.0331 22.7629 30.2288 22.1828 29.2504C21.6027 28.272 21.2964 27.1556 21.2961 26.0181V22.8956C21.2961 22.7601 21.342 22.629 21.4228 22.5242L21.165 22.522Z" fill="#FFB889"/>
<path d="M18.4316 40.3785C18.3497 40.3752 18.2681 40.3892 18.192 40.4198C18.116 40.4503 18.0473 40.4967 17.9905 40.5557C17.9337 40.6148 17.8901 40.6853 17.8626 40.7624C17.835 40.8396 17.8242 40.9218 17.8307 41.0034V43.8375H18.9823V41.0034C18.9885 40.926 18.9791 40.848 18.9546 40.7743C18.93 40.7005 18.8909 40.6325 18.8395 40.5741C18.7882 40.5158 18.7256 40.4684 18.6555 40.4348C18.5854 40.4012 18.5093 40.3821 18.4316 40.3785ZM34.6209 40.3785C34.5388 40.3748 34.4569 40.3887 34.3806 40.4191C34.3043 40.4495 34.2354 40.4958 34.1783 40.5549C34.1213 40.614 34.0775 40.6846 34.0498 40.7619C34.0221 40.8392 34.0112 40.9216 34.0178 41.0034V43.8375H35.1693V41.0034C35.1756 40.9261 35.1662 40.8484 35.1419 40.7748C35.1175 40.7011 35.0785 40.6332 35.0274 40.5749C34.9762 40.5166 34.9139 40.4692 34.8441 40.4355C34.7742 40.4017 34.6983 40.3824 34.6209 40.3785Z" fill="#3385C8"/>
</svg>
