<svg width="53" height="53" viewBox="0 0 53 53" fill="none" xmlns="http://www.w3.org/2000/svg">
<rect width="53" height="53" rx="26.5" fill="white"/>
<path d="M21.2941 13.8804H36.1706C37.8792 13.8804 39.2642 15.2654 39.2642 16.9739V39.9065C39.2642 41.6151 37.8792 43.0001 36.1706 43.0001H22.4308L19.1002 42.5399L17.1941 35.4282V28.4403L17.798 14.8622L21.2941 13.8804Z" fill="#E7896E"/>
<path d="M20.0111 39.5179V16.6872C20.0111 15.5659 20.5086 14.5614 21.2941 13.8804H16.8294C15.1209 13.8804 13.7358 15.2654 13.7358 16.9739V39.9065C13.7358 41.6151 15.1209 43.0001 16.8294 43.0001H22.4308C21.0178 42.4744 20.0111 41.1139 20.0111 39.5179Z" fill="#DD6642"/>
<path d="M32.085 40.3672H35.0082C35.8278 40.3672 36.4923 39.7028 36.4923 38.8831V35.6819L33.2628 36.559L32.085 40.3672Z" fill="#FDCB89"/>
<path d="M20.0156 16.5127H35.0003C35.8243 16.5127 36.4923 17.1807 36.4923 18.0047V35.6816L33.197 36.7021L32.0849 40.367H20.11L18.3089 39.587L17.3955 29.5059L17.4813 18.9097L20.0156 16.5127Z" fill="#FFF4E5"/>
<path d="M20.0111 39.5175V16.6868C20.0111 16.6284 20.0128 16.5704 20.0155 16.5127H17.9998C17.1758 16.5127 16.5078 17.1807 16.5078 18.0047V38.875C16.5078 39.699 17.1758 40.367 17.9998 40.367H20.1098C20.0444 40.0886 20.0113 39.8035 20.0111 39.5175Z" fill="#FFE0B7"/>
<path d="M30.5553 12.9797H29.9729C29.8881 12.9797 29.8061 12.9494 29.7418 12.8941C29.6775 12.8388 29.6351 12.7624 29.6223 12.6785C29.3908 11.1619 28.0812 10 26.4999 10C24.9186 10 23.609 11.1619 23.3775 12.6785C23.3647 12.7624 23.3223 12.8388 23.258 12.8941C23.1937 12.9494 23.1117 12.9797 23.0269 12.9797H22.4445C21.7212 12.9797 21.1348 13.5661 21.1348 14.2895V16.6594C21.1348 17.3828 21.7212 17.9692 22.4445 17.9692H30.5553C31.2787 17.9692 31.8651 17.3828 31.8651 16.6594V14.2895C31.8651 13.5661 31.2787 12.9797 30.5553 12.9797Z" fill="#93BCE8"/>
<path d="M20.8155 23.4012H20.8136C20.7397 23.4009 20.6666 23.3842 20.5999 23.3521C20.5332 23.3201 20.4745 23.2736 20.428 23.216L19.2108 21.7083C19.13 21.6053 19.0929 21.4746 19.1077 21.3446C19.1224 21.2145 19.1878 21.0954 19.2897 21.0132C19.3916 20.9309 19.5217 20.8921 19.652 20.9051C19.7823 20.9182 19.9022 20.9819 19.9858 21.0827L20.8184 22.1141L22.624 19.9108C22.6655 19.8602 22.7165 19.8183 22.7741 19.7875C22.8318 19.7566 22.8949 19.7374 22.96 19.7309C23.0251 19.7245 23.0908 19.7309 23.1534 19.7499C23.216 19.7688 23.2742 19.7999 23.3248 19.8413C23.3754 19.8828 23.4173 19.9338 23.4482 19.9915C23.479 20.0491 23.4982 20.1123 23.5047 20.1774C23.5111 20.2424 23.5047 20.3081 23.4858 20.3707C23.4668 20.4333 23.4357 20.4916 23.3943 20.5421L21.2006 23.2189C21.1539 23.2759 21.0951 23.3218 21.0286 23.3534C20.962 23.3849 20.8892 23.4012 20.8155 23.4012ZM20.8155 28.6619H20.8136C20.7397 28.6616 20.6666 28.6448 20.5999 28.6128C20.5332 28.5808 20.4745 28.5343 20.428 28.4767L19.2108 26.969C19.13 26.866 19.0929 26.7353 19.1077 26.6052C19.1224 26.4751 19.1878 26.3561 19.2897 26.2738C19.3916 26.1916 19.5217 26.1528 19.652 26.1658C19.7823 26.1788 19.9022 26.2426 19.9858 26.3434L20.8184 27.3748L22.624 25.1715C22.6655 25.1209 22.7165 25.079 22.7741 25.0481C22.8318 25.0173 22.8949 24.9981 22.96 24.9916C23.0251 24.9852 23.0908 24.9916 23.1534 25.0105C23.216 25.0295 23.2742 25.0606 23.3248 25.102C23.3754 25.1435 23.4173 25.1945 23.4482 25.2521C23.479 25.3098 23.4982 25.3729 23.5047 25.438C23.5111 25.5031 23.5047 25.5688 23.4858 25.6314C23.4668 25.694 23.4357 25.7522 23.3943 25.8028L21.2006 28.4796C21.1539 28.5366 21.0952 28.5825 21.0286 28.614C20.962 28.6456 20.8892 28.6619 20.8155 28.6619ZM20.8155 33.9226H20.8136C20.7397 33.9223 20.6666 33.9056 20.5999 33.8735C20.5332 33.8415 20.4745 33.795 20.428 33.7374L19.2108 32.2297C19.13 32.1267 19.0929 31.996 19.1077 31.8659C19.1224 31.7359 19.1878 31.6168 19.2897 31.5346C19.3916 31.4523 19.5217 31.4135 19.652 31.4265C19.7823 31.4396 19.9022 31.5033 19.9858 31.6041L20.8184 32.6355L22.624 30.4322C22.7077 30.33 22.8286 30.2653 22.96 30.2523C23.0914 30.2392 23.2227 30.279 23.3248 30.3627C23.427 30.4464 23.4917 30.5673 23.5047 30.6987C23.5177 30.8301 23.478 30.9613 23.3943 31.0635L21.2006 33.7403C21.1539 33.7973 21.0952 33.8432 21.0286 33.8748C20.962 33.9063 20.8892 33.9226 20.8155 33.9226Z" fill="#29CE69"/>
<path d="M33.4019 22.0628H25.2931C25.1611 22.0628 25.0344 22.0104 24.941 21.917C24.8476 21.8236 24.7952 21.6969 24.7952 21.5649C24.7952 21.4328 24.8476 21.3061 24.941 21.2127C25.0344 21.1194 25.1611 21.0669 25.2931 21.0669H33.4018C33.6769 21.0669 33.8998 21.2898 33.8998 21.5649C33.8998 21.8399 33.6769 22.0628 33.4019 22.0628ZM33.4019 27.3236H25.2931C25.1611 27.3236 25.0344 27.2711 24.941 27.1777C24.8476 27.0843 24.7952 26.9577 24.7952 26.8256C24.7952 26.6935 24.8476 26.5669 24.941 26.4735C25.0344 26.3801 25.1611 26.3276 25.2931 26.3276H33.4018C33.4672 26.3276 33.5319 26.3405 33.5924 26.3655C33.6528 26.3905 33.7077 26.4272 33.7539 26.4735C33.8002 26.5197 33.8368 26.5746 33.8619 26.635C33.8869 26.6954 33.8998 26.7602 33.8998 26.8256C33.8998 26.891 33.8869 26.9557 33.8619 27.0161C33.8368 27.0766 33.8002 27.1315 33.7539 27.1777C33.7077 27.2239 33.6528 27.2606 33.5924 27.2856C33.532 27.3107 33.4672 27.3236 33.4019 27.3236ZM33.4019 32.5842H25.2931C25.1611 32.5842 25.0344 32.5318 24.941 32.4384C24.8476 32.345 24.7952 32.2183 24.7952 32.0863C24.7952 31.9542 24.8476 31.8275 24.941 31.7341C25.0344 31.6408 25.1611 31.5883 25.2931 31.5883H33.4018C33.4672 31.5883 33.5319 31.6012 33.5924 31.6262C33.6528 31.6512 33.7077 31.6879 33.7539 31.7341C33.8002 31.7804 33.8368 31.8353 33.8619 31.8957C33.8869 31.9561 33.8998 32.0209 33.8998 32.0863C33.8998 32.1516 33.8869 32.2164 33.8619 32.2768C33.8369 32.3372 33.8002 32.3921 33.754 32.4384C33.7077 32.4846 33.6528 32.5213 33.5924 32.5463C33.532 32.5714 33.4672 32.5842 33.4019 32.5842Z" fill="#3E4F61"/>
<path d="M32.085 37.3672V40.3672L36.4923 35.6823V35.6819H33.7702C32.8395 35.6819 32.085 36.4364 32.085 37.3672Z" fill="#FFE0B7"/>
</svg>
