<svg width="474" height="262" viewBox="0 0 474 262" fill="none" xmlns="http://www.w3.org/2000/svg">
<path d="M352.185 245.891C352.173 245.563 351.063 212.787 345.739 207.609C340.561 202.57 334.619 207.42 334.367 207.628L333.831 206.99C333.9 206.933 340.605 201.452 346.319 207.009C351.882 212.427 352.974 244.502 353.012 245.866L352.179 245.891H352.185Z" fill="#E0E0E0"/>
<path d="M352.646 252.332C352.608 251.94 349.007 212.989 363.217 196.664L363.848 197.213C349.877 213.267 353.441 251.865 353.479 252.25L352.652 252.332H352.646Z" fill="#E0E0E0"/>
<path d="M352.122 248.209L351.29 248.152C351.321 247.71 354.071 203.871 343.651 194.272L344.213 193.659C354.929 203.523 352.242 246.384 352.122 248.209Z" fill="#E0E0E0"/>
<path d="M353.479 248.184H352.646C352.659 246.971 352.987 218.566 361.047 213.943C362.839 212.914 364.592 212.743 366.264 213.431C371.139 215.452 373.549 224.129 373.649 224.502L372.848 224.723C372.823 224.634 370.439 216.065 365.948 214.202C364.529 213.614 363.022 213.772 361.47 214.663C353.825 219.052 353.491 247.893 353.485 248.184H353.479Z" fill="#E0E0E0"/>
<path d="M350.337 248.207L349.505 248.163C349.517 247.942 350.722 225.719 344.73 217.888C343.279 215.994 341.702 215.085 340.037 215.205C336.114 215.476 332.822 221.229 332.79 221.286L332.065 220.876C332.21 220.623 335.609 214.68 339.98 214.371C341.936 214.232 343.759 215.249 345.392 217.383C351.567 225.46 350.388 247.285 350.337 248.214V248.207Z" fill="#E0E0E0"/>
<path d="M351.65 251.226C351.486 249.073 347.733 198.331 354.337 189.389L355.005 189.881C348.584 198.577 352.438 250.633 352.482 251.157L351.65 251.22V251.226Z" fill="#E0E0E0"/>
<path d="M368.055 218.578C368.055 218.578 364.094 220.043 365.273 223.491C366.453 226.945 378.973 232.622 378.973 232.622C378.973 232.622 384.221 227.81 379.402 219.98C374.583 212.149 368.162 216.108 368.055 218.578Z" fill="#EBEBEB"/>
<path d="M350.836 212.004C350.836 212.004 355.055 211.827 355.295 215.465C355.535 219.102 346.156 229.175 346.156 229.175C346.156 229.175 339.463 226.75 340.901 217.669C342.34 208.588 349.789 209.762 350.836 212.004Z" fill="#EBEBEB"/>
<path d="M347.266 194.589C347.266 194.589 350.079 194.286 349.852 192.574C349.625 190.857 338.921 186.449 332.601 193.585C332.601 193.585 336.644 200.538 342.491 200.632C348.338 200.721 347.259 194.595 347.259 194.595L347.266 194.589Z" fill="#EBEBEB"/>
<path d="M352.507 190.419C352.507 190.419 349.959 191.651 349.246 190.078C348.534 188.506 355.289 179.09 364.416 181.799C364.416 181.799 364.655 189.845 359.742 193.015C354.828 196.185 352.501 190.419 352.501 190.419H352.507Z" fill="#EBEBEB"/>
<path d="M339.192 217.188C339.192 217.188 341.135 215.622 339.041 214.851C336.947 214.087 326.672 214.302 326.565 224.494C326.565 224.494 338.536 226.484 340.019 222.606C341.501 218.722 339.199 217.188 339.199 217.188H339.192Z" fill="#EBEBEB"/>
<path d="M363.595 194.328C363.595 194.328 361.653 192.762 363.747 191.992C365.841 191.228 376.115 191.442 376.223 201.635C376.223 201.635 364.251 203.624 362.769 199.747C361.287 195.863 363.589 194.328 363.589 194.328H363.595Z" fill="#EBEBEB"/>
<path d="M357.269 202.538C357.269 202.538 357.099 200.631 358.638 201.376C360.177 202.121 365.532 207.912 359.981 213.4C359.981 213.4 352.507 207.855 353.851 204.969C355.2 202.083 357.269 202.532 357.269 202.532V202.538Z" fill="#EBEBEB"/>
<path d="M337.458 205.26C337.458 205.26 338.618 203.738 336.922 203.549C335.225 203.36 327.606 205.393 329.384 213.009C329.384 213.009 338.663 212.308 339.06 209.15C339.457 205.987 337.464 205.267 337.464 205.267L337.458 205.26Z" fill="#EBEBEB"/>
<path d="M361.779 256.33H340.719L338.41 238.42H364.018L361.779 256.33Z" fill="#F0F0F0"/>
<path d="M365.822 236.218H336.676V240.632H365.822V236.218Z" fill="#E6E6E6"/>
<path d="M263.082 10.1279H220.936V84.4001H263.082V10.1279Z" fill="#E6E6E6"/>
<path d="M261.019 10.1279H211.506V84.4001H261.019V10.1279Z" fill="#F0F0F0"/>
<path d="M253.469 16.7197H219.031V77.7996H253.469V16.7197Z" fill="white"/>
<path d="M243.352 29.5859H229.615V65.279H243.352V29.5859Z" fill="#F0F0F0"/>
<path d="M425.445 173.666H311.44C309.402 173.666 307.744 172.005 307.744 169.965V3.70066C307.744 1.66088 309.402 0 311.44 0H425.445C427.483 0 429.141 1.66088 429.141 3.70066V169.965C429.141 172.005 427.483 173.666 425.445 173.666ZM311.446 0.157878C309.497 0.157878 307.908 1.74929 307.908 3.70066V169.965C307.908 171.917 309.497 173.508 311.446 173.508H425.452C427.401 173.508 428.99 171.917 428.99 169.965V3.70066C428.99 1.74929 427.401 0.157878 425.452 0.157878H311.446Z" fill="#E0E0E0"/>
<path d="M293.987 173.666H179.982C177.944 173.666 176.286 172.005 176.286 169.965V3.70066C176.286 1.66088 177.944 0 179.982 0H293.987C296.025 0 297.683 1.66088 297.683 3.70066V169.965C297.683 172.005 296.025 173.666 293.987 173.666ZM179.982 0.157878C178.033 0.157878 176.443 1.74929 176.443 3.70066V169.965C176.443 171.917 178.033 173.508 179.982 173.508H293.987C295.936 173.508 297.526 171.917 297.526 169.965V3.70066C297.526 1.74929 295.936 0.157878 293.987 0.157878H179.982Z" fill="#E0E0E0"/>
<path d="M162.605 173.666H48.606C46.5687 173.666 44.9099 172.005 44.9099 169.965V3.70066C44.9099 1.66088 46.5687 0 48.606 0H162.612C164.649 0 166.308 1.66088 166.308 3.70066V169.965C166.308 172.005 164.649 173.666 162.612 173.666H162.605ZM48.606 0.157878C46.657 0.157878 45.0676 1.74929 45.0676 3.70066V169.965C45.0676 171.917 46.657 173.508 48.606 173.508H162.612C164.56 173.508 166.15 171.917 166.15 169.965V3.70066C166.15 1.74929 164.56 0.157878 162.612 0.157878H48.606Z" fill="#E0E0E0"/>
<path d="M473.552 212.231H0.5V212.307H473.552V212.231Z" fill="#E0E0E0"/>
<path d="M447.919 230.779H412.768V231.045H447.919V230.779Z" fill="#EBEBEB"/>
<path d="M321.967 233.665H312.74V233.93H321.967V233.665Z" fill="#EBEBEB"/>
<path d="M71.9689 222.702H26.1333V222.967H71.9689V222.702Z" fill="#EBEBEB"/>
<path d="M88.1472 222.702H81.4236V222.967H88.1472V222.702Z" fill="#EBEBEB"/>
<path d="M209.4 227.186H109.99V227.451H209.4V227.186Z" fill="#EBEBEB"/>
<path d="M151.807 8.96777H61.6746V108.829H151.807V8.96777Z" fill="#E0E0E0"/>
<path d="M148.079 12.9189H65.6416V105.069H148.079V12.9189Z" fill="#F5F5F5"/>
<path d="M88.941 12.9189L65.6416 100.282V52.9884L76.301 12.9189H88.941Z" fill="white"/>
<path d="M99.3547 12.9189L74.7812 105.076H70.1516L94.7188 12.9189H99.3547Z" fill="white"/>
<path d="M148.079 38.0557V85.356L142.863 105.078H130.223L148.079 38.0557Z" fill="white"/>
<path d="M108.349 8.96777H105.145V108.829H108.349V8.96777Z" fill="#E0E0E0"/>
<path d="M150.085 29.2324H63.2449V32.4405H150.085V29.2324Z" fill="#E0E0E0"/>
<path d="M410.554 8.96777H320.422V108.829H410.554V8.96777Z" fill="#E0E0E0"/>
<path d="M406.826 12.9189H324.389V105.069H406.826V12.9189Z" fill="#F5F5F5"/>
<path d="M347.682 12.9189L324.389 100.282V52.9884L335.048 12.9189H347.682Z" fill="white"/>
<path d="M358.095 12.9189L333.528 105.076H328.892L353.466 12.9189H358.095Z" fill="white"/>
<path d="M406.82 38.0557V85.356L401.604 105.078H388.964L406.82 38.0557Z" fill="white"/>
<path d="M367.09 8.96777H363.885V108.829H367.09V8.96777Z" fill="#E0E0E0"/>
<path d="M408.826 29.2324H321.986V32.4405H408.826V29.2324Z" fill="#E0E0E0"/>
<path d="M452.17 258.13C452.17 260.271 353.75 262.001 232.346 262.001C110.942 262.001 12.5217 260.264 12.5217 258.13C12.5217 255.995 110.942 254.259 232.346 254.259C353.75 254.259 452.17 255.995 452.17 258.13Z" fill="#F5F5F5"/>
<path d="M421.964 251.423V161.938H414.042V251.423L409.002 253.159V255.856H427.003V253.159L421.964 251.423Z" fill="#263238"/>
<path d="M321.154 161.938H313.231V251.423L308.192 253.159V255.856H326.193V253.159L321.154 251.423V161.938Z" fill="#263238"/>
<g opacity="0.2">
<path d="M421.964 172.463H414.042V251.421L409.002 253.158V255.854H427.003V253.158L421.964 251.421V172.463Z" fill="white"/>
<path d="M321.154 172.463H313.231V251.421L308.192 253.158V255.854H326.193V253.158L321.154 251.421V172.463Z" fill="white"/>
</g>
<path d="M446.449 36.4873H288.746V164.823H446.449V36.4873Z" fill="#263238"/>
<path d="M442.942 40.0488H292.253V161.186H442.942V40.0488Z" fill="#1579AD"/>
<path d="M362.58 84.0271H308.955V50.3359L362.58 84.0271ZM309.586 83.3956H360.385L309.586 51.479V83.3956Z" fill="#263238"/>
<path d="M312.14 83.7998H311.642V81.3685H309.214V80.8633H312.14V83.7998Z" fill="#263238"/>
<path d="M335.837 62.7716H335.276V57.8584H335.881V59.614C336.133 59.2919 336.461 59.1341 336.852 59.1341C337.073 59.1341 337.275 59.1783 337.471 59.2667C337.666 59.3551 337.824 59.4814 337.95 59.6393C338.076 59.7971 338.177 59.9929 338.246 60.2139C338.316 60.4413 338.354 60.6813 338.354 60.9402C338.354 61.5527 338.202 62.0201 337.899 62.3548C337.597 62.6895 337.237 62.8537 336.815 62.8537C336.392 62.8537 336.064 62.6768 335.824 62.3295V62.7779L335.837 62.7716ZM335.831 60.9654C335.831 61.3949 335.887 61.698 336.007 61.8875C336.196 62.1969 336.455 62.3548 336.777 62.3548C337.042 62.3548 337.269 62.2411 337.458 62.0138C337.647 61.7864 337.748 61.4454 337.748 60.9907C337.748 60.536 337.653 60.1824 337.471 59.9613C337.288 59.7403 337.067 59.6266 336.802 59.6266C336.537 59.6266 336.31 59.7403 336.121 59.9677C335.932 60.195 335.831 60.5297 335.831 60.9591V60.9654Z" fill="#263238"/>
<path d="M310.507 112.313H309.945V107.399H310.551V109.155C310.803 108.833 311.131 108.675 311.522 108.675C311.743 108.675 311.945 108.719 312.14 108.808C312.336 108.896 312.493 109.022 312.62 109.18C312.746 109.338 312.847 109.534 312.916 109.755C312.985 109.982 313.023 110.222 313.023 110.481C313.023 111.094 312.872 111.561 312.569 111.896C312.266 112.23 311.907 112.395 311.484 112.395C311.062 112.395 310.734 112.218 310.494 111.871V112.319L310.507 112.313ZM310.5 110.506C310.5 110.936 310.557 111.239 310.677 111.428C310.866 111.738 311.125 111.896 311.446 111.896C311.711 111.896 311.938 111.782 312.128 111.555C312.317 111.327 312.418 110.986 312.418 110.532C312.418 110.077 312.323 109.723 312.14 109.502C311.957 109.281 311.737 109.168 311.472 109.168C311.207 109.168 310.98 109.281 310.791 109.509C310.601 109.736 310.5 110.071 310.5 110.5V110.506Z" fill="#263238"/>
<path d="M330.413 89.1066L331.006 89.1824C330.943 89.5928 330.772 89.9086 330.507 90.1423C330.242 90.3759 329.914 90.4896 329.523 90.4896C329.038 90.4896 328.647 90.3317 328.35 90.0096C328.054 89.6939 327.909 89.2329 327.909 88.6393C327.909 88.254 327.972 87.9193 328.098 87.6288C328.224 87.3383 328.42 87.1236 328.678 86.9784C328.937 86.8331 329.221 86.7637 329.53 86.7637C329.914 86.7637 330.23 86.8584 330.476 87.0542C330.722 87.2499 330.879 87.5278 330.949 87.8878L330.362 87.9762C330.305 87.7362 330.205 87.5594 330.066 87.4394C329.927 87.3194 329.75 87.2563 329.555 87.2563C329.252 87.2563 329.006 87.3636 328.817 87.5846C328.628 87.8057 328.533 88.1467 328.533 88.6203C328.533 89.094 328.628 89.4476 328.811 89.6623C328.994 89.877 329.233 89.9844 329.53 89.9844C329.763 89.9844 329.965 89.9149 330.123 89.7697C330.28 89.6244 330.381 89.4034 330.425 89.1003L330.413 89.1066Z" fill="#263238"/>
<path d="M312.273 121.086L312.866 121.162C312.803 121.572 312.633 121.888 312.368 122.122C312.103 122.355 311.775 122.469 311.384 122.469C310.898 122.469 310.507 122.311 310.211 121.989C309.914 121.673 309.769 121.212 309.769 120.619C309.769 120.234 309.832 119.899 309.959 119.608C310.085 119.318 310.28 119.103 310.539 118.958C310.797 118.813 311.081 118.743 311.39 118.743C311.775 118.743 312.09 118.838 312.336 119.034C312.582 119.229 312.74 119.507 312.809 119.867L312.223 119.956C312.166 119.716 312.065 119.539 311.926 119.419C311.788 119.299 311.611 119.236 311.416 119.236C311.113 119.236 310.867 119.343 310.678 119.564C310.488 119.785 310.394 120.126 310.394 120.6C310.394 121.073 310.488 121.427 310.671 121.642C310.854 121.857 311.094 121.964 311.39 121.964C311.624 121.964 311.825 121.894 311.983 121.749C312.141 121.604 312.242 121.383 312.286 121.08L312.273 121.086Z" fill="#263238"/>
<path d="M306.237 70.153C306.016 70.3425 305.801 70.4751 305.593 70.5572C305.385 70.633 305.164 70.6772 304.931 70.6772C304.54 70.6772 304.237 70.5824 304.029 70.393C303.821 70.2035 303.714 69.9572 303.714 69.6604C303.714 69.4836 303.751 69.3257 303.833 69.1805C303.915 69.0352 304.016 68.9216 304.143 68.8331C304.269 68.7447 304.414 68.6816 304.578 68.6374C304.698 68.6058 304.874 68.5742 305.114 68.549C305.6 68.4921 305.959 68.4227 306.186 68.3406C306.186 68.2585 306.186 68.208 306.186 68.1827C306.186 67.9364 306.129 67.7659 306.016 67.6648C305.864 67.5259 305.631 67.4628 305.328 67.4628C305.044 67.4628 304.836 67.5133 304.698 67.6143C304.565 67.7154 304.464 67.8922 304.401 68.1448L303.815 68.0627C303.865 67.8101 303.953 67.608 304.079 67.4501C304.199 67.2923 304.382 67.1786 304.609 67.0902C304.843 67.0081 305.108 66.9639 305.417 66.9639C305.726 66.9639 305.965 67.0018 306.155 67.0712C306.344 67.1407 306.483 67.2354 306.571 67.3428C306.659 67.4501 306.722 67.5891 306.76 67.7533C306.779 67.8543 306.792 68.0438 306.792 68.309V69.111C306.792 69.6731 306.804 70.0267 306.829 70.172C306.855 70.3235 306.905 70.4625 306.981 70.6014H306.35C306.287 70.4751 306.249 70.3298 306.23 70.1593L306.237 70.153ZM306.186 68.8079C305.965 68.8963 305.637 68.9721 305.202 69.0352C304.956 69.0731 304.78 69.111 304.679 69.1552C304.578 69.1994 304.496 69.2626 304.439 69.351C304.382 69.4394 304.357 69.5341 304.357 69.6352C304.357 69.7931 304.42 69.932 304.54 70.0393C304.66 70.1467 304.836 70.1972 305.076 70.1972C305.316 70.1972 305.518 70.1467 305.694 70.0457C305.877 69.9446 306.009 69.8057 306.091 69.6289C306.155 69.4899 306.186 69.2942 306.186 69.0226V68.8016V68.8079Z" fill="#263238"/>
<path d="M312.273 101.792C312.052 101.981 311.837 102.114 311.629 102.196C311.421 102.272 311.2 102.316 310.967 102.316C310.576 102.316 310.273 102.221 310.065 102.032C309.857 101.842 309.75 101.596 309.75 101.299C309.75 101.122 309.788 100.964 309.87 100.819C309.952 100.674 310.053 100.56 310.179 100.472C310.305 100.383 310.45 100.32 310.614 100.276C310.734 100.244 310.91 100.213 311.15 100.188C311.636 100.131 311.995 100.061 312.222 99.9792C312.222 99.8971 312.222 99.8466 312.222 99.8214C312.222 99.5751 312.165 99.4046 312.052 99.3035C311.901 99.1646 311.667 99.1014 311.364 99.1014C311.081 99.1014 310.872 99.152 310.734 99.253C310.601 99.354 310.5 99.5309 310.437 99.7835L309.851 99.7014C309.901 99.4488 309.989 99.2467 310.116 99.0888C310.235 98.9309 310.418 98.8173 310.645 98.7288C310.879 98.6467 311.144 98.6025 311.453 98.6025C311.762 98.6025 312.001 98.6404 312.191 98.7099C312.38 98.7794 312.519 98.8741 312.607 98.9815C312.695 99.0888 312.758 99.2277 312.796 99.3919C312.815 99.493 312.828 99.6824 312.828 99.9477V100.75C312.828 101.312 312.84 101.665 312.866 101.811C312.891 101.962 312.941 102.101 313.017 102.24H312.386C312.323 102.114 312.285 101.968 312.266 101.798L312.273 101.792ZM312.222 100.447C312.001 100.535 311.674 100.611 311.238 100.674C310.992 100.712 310.816 100.75 310.715 100.794C310.614 100.838 310.532 100.901 310.475 100.99C310.418 101.078 310.393 101.173 310.393 101.274C310.393 101.432 310.456 101.571 310.576 101.678C310.696 101.785 310.872 101.836 311.112 101.836C311.352 101.836 311.554 101.785 311.73 101.684C311.913 101.583 312.046 101.444 312.128 101.268C312.191 101.129 312.222 100.933 312.222 100.661V100.44V100.447Z" fill="#263238"/>
<path d="M402.525 50.9473H373.719V51.5788H402.525V50.9473Z" fill="#263238"/>
<path d="M389.563 56.7197H373.719V57.3512H389.563V56.7197Z" fill="#263238"/>
<path d="M396.041 61.0469H373.719V61.6784H396.041V61.0469Z" fill="#263238"/>
<path d="M392.439 66.0938H373.719V66.7253H392.439V66.0938Z" fill="#263238"/>
<path d="M401.806 71.8584H373.719V72.4899H401.806V71.8584Z" fill="#263238"/>
<path d="M401.08 76.9043H373.719V77.5358H401.08V76.9043Z" fill="#263238"/>
<path d="M392.439 81.9561H373.719V82.5876H392.439V81.9561Z" fill="#263238"/>
<path d="M425.572 125.935H406.126V126.566H425.572V125.935Z" fill="#263238"/>
<path d="M416.924 131.701H406.126V132.333H416.924V131.701Z" fill="#263238"/>
<path d="M421.251 136.024H406.126V136.656H421.251V136.024Z" fill="#263238"/>
<path d="M419.088 141.071H406.126V141.703H419.088V141.071Z" fill="#263238"/>
<path d="M326.918 135.306H307.473V135.937H326.918V135.306Z" fill="#263238"/>
<path d="M318.271 141.071H307.473V141.703H318.271V141.071Z" fill="#263238"/>
<path d="M322.592 145.397H307.473V146.029H322.592V145.397Z" fill="#263238"/>
<path d="M320.435 150.45H307.473V151.082H320.435V150.45Z" fill="#263238"/>
<path d="M430.605 61.0469H411.885V61.6784H430.605V61.0469Z" fill="#263238"/>
<path d="M430.605 66.0938H411.885V66.7253H430.605V66.0938Z" fill="#263238"/>
<path d="M424.847 71.1377H411.885V71.7692H424.847V71.1377Z" fill="#263238"/>
<path d="M375.157 135.306H356.437V135.937H375.157V135.306Z" fill="#263238"/>
<path d="M375.157 140.352H356.437V140.983H375.157V140.352Z" fill="#263238"/>
<path d="M369.398 145.397H356.437V146.029H369.398V145.397Z" fill="#263238"/>
<path d="M362.921 102.139H321.154V102.77H362.921V102.139Z" fill="#263238"/>
<path d="M362.921 111.512H321.154V112.143H362.921V111.512Z" fill="#263238"/>
<path d="M362.921 120.89H321.154V121.521H362.921V120.89Z" fill="#263238"/>
<path d="M390.623 126.54C383.237 126.54 377.232 120.528 377.232 113.133C377.232 105.738 383.237 99.7256 390.623 99.7256C398.009 99.7256 404.013 105.738 404.013 113.133C404.013 120.528 398.009 126.54 390.623 126.54ZM390.623 100.224C383.514 100.224 377.73 106.015 377.73 113.133C377.73 120.25 383.514 126.041 390.623 126.041C397.731 126.041 403.515 120.25 403.515 113.133C403.515 106.015 397.731 100.224 390.623 100.224Z" fill="#263238"/>
<path d="M403.963 113.59H390.326V99.9365H390.957V112.958H403.963V113.59Z" fill="#263238"/>
<path opacity="0.6" d="M442.942 40.0488H292.253V161.186H442.942V40.0488Z" fill="white"/>
<path d="M384.53 44.8545H365.166C363.324 44.8545 361.83 46.3512 361.83 48.1952V62.3411C361.83 64.1851 363.324 65.6818 365.166 65.6818H379.534L384.183 70.336V65.6818H384.53C386.372 65.6818 387.866 64.1851 387.866 62.3411V48.1952C387.866 46.3512 386.372 44.8545 384.53 44.8545Z" fill="#1579AD"/>
<path d="M366.964 55.2634C366.964 56.2359 367.746 57.019 368.718 57.019C369.689 57.019 370.471 56.2296 370.471 55.2634C370.471 54.2972 369.689 53.5078 368.718 53.5078C367.746 53.5078 366.964 54.2909 366.964 55.2634Z" fill="white"/>
<path d="M372.981 55.2634C372.981 56.2359 373.763 57.019 374.734 57.019C375.706 57.019 376.488 56.2296 376.488 55.2634C376.488 54.2972 375.706 53.5078 374.734 53.5078C373.763 53.5078 372.981 54.2909 372.981 55.2634Z" fill="white"/>
<path d="M378.999 55.2634C378.999 56.2359 379.781 57.019 380.752 57.019C381.723 57.019 382.505 56.2296 382.505 55.2634C382.505 54.2972 381.723 53.5078 380.752 53.5078C379.781 53.5078 378.999 54.2909 378.999 55.2634Z" fill="white"/>
<path d="M368.225 43.9326H378.954C379.257 43.9326 379.257 43.459 378.954 43.459H368.225C367.923 43.459 367.923 43.9326 368.225 43.9326Z" fill="#1579AD"/>
<path d="M380.241 43.9018H380.972C381.098 43.9018 381.212 43.7945 381.212 43.6618C381.212 43.5292 381.111 43.4219 380.972 43.4219H380.241C380.115 43.4219 380.001 43.5292 380.001 43.6618C380.001 43.7945 380.102 43.9018 380.241 43.9018Z" fill="#1579AD"/>
<path d="M157.969 50.1838C154.38 44.0013 156.474 36.0695 162.656 32.4762C168.831 28.8829 176.753 30.9858 180.342 37.1683C183.11 41.9426 182.48 47.7462 179.213 51.8068L179.843 55.6464L175.832 54.7623C175.769 54.8002 175.712 54.8444 175.649 54.8823C169.474 58.4756 161.552 56.3726 157.963 50.1901L157.969 50.1838Z" fill="#1579AD"/>
<path d="M154.645 43.6234C154.563 43.6234 154.494 43.5603 154.488 43.4782C154.185 39.2407 156.184 34.8643 159.584 32.3257C159.653 32.2751 159.754 32.2878 159.805 32.3572C159.855 32.4267 159.843 32.5277 159.773 32.5783C156.456 35.0538 154.507 39.3228 154.803 43.4529C154.803 43.5413 154.746 43.6171 154.658 43.6234H154.645Z" fill="#1579AD"/>
<path d="M155.238 47.416C155.175 47.416 155.118 47.3781 155.093 47.3212C154.828 46.715 154.689 46.0456 154.689 45.3825C154.689 45.2941 154.759 45.2246 154.847 45.2246C154.935 45.2246 155.005 45.2941 155.005 45.3825C155.005 46.0014 155.131 46.6266 155.377 47.1949C155.415 47.277 155.377 47.3654 155.295 47.4033C155.276 47.4096 155.251 47.416 155.232 47.416H155.238Z" fill="#1579AD"/>
<path d="M169.152 50.4609C168.667 50.4609 168.263 50.303 167.935 49.9873C167.607 49.6715 167.443 49.2926 167.443 48.8379C167.443 48.3832 167.601 48.0106 167.922 47.7075C168.244 47.4044 168.654 47.2528 169.152 47.2528C169.651 47.2528 170.061 47.4044 170.382 47.7075C170.704 48.0106 170.862 48.3896 170.862 48.8379C170.862 49.2863 170.698 49.6715 170.37 49.9873C170.042 50.303 169.638 50.4609 169.152 50.4609ZM170.256 45.9898H168.049L167.5 37.8496H170.811L170.263 45.9898H170.256Z" fill="white"/>
<path d="M394.848 136.721C394.848 136.721 384.082 177.138 382.019 193.45C379.326 214.732 372.079 245.392 372.079 245.392L376.74 245.518C376.74 245.518 391.285 219.816 394.293 196.008C406.624 171.682 407.615 141.723 407.615 141.723L394.848 136.715V136.721Z" fill="#E9B376"/>
<path d="M365.437 255.591C366.099 255.186 366.831 254.902 367.6 254.751C367.6 254.751 370.066 252.869 371.896 246.604L374.885 246.213C375.92 246.093 376.929 246.604 377.402 247.501C377.471 247.621 377.515 247.754 377.541 247.892C377.604 248.581 377.629 249.275 377.604 249.964C377.484 252.326 377.219 254.675 376.815 257.011L376.286 256.948L376.607 252.528C376.702 251.025 375.314 252.641 374.778 254.22C374.242 255.799 373.321 257.422 369.921 257.125C365.948 256.753 364.32 256.418 365.431 255.591H365.437Z" fill="#263238"/>
<path d="M372.211 244.988C372.211 244.988 369.543 253.015 367.594 254.758C367.594 254.758 370.71 256.033 373.189 251.941C376.399 246.662 377.541 247.9 377.541 247.9C377.345 247.085 377.074 246.296 376.733 245.525C375.926 244.041 372.211 244.988 372.211 244.988Z" fill="#E9B376"/>
<path d="M402.891 136.092C402.891 136.092 398.35 177.45 399.832 193.825C401.756 215.182 403.156 246.891 403.156 246.891L407.703 247.086C407.703 247.086 417.442 204.131 413.241 194.014C420.091 167.75 416.508 138.441 416.508 138.441L402.897 136.098L402.891 136.092Z" fill="#E9B376"/>
<path d="M396.085 256.135C396.76 255.744 397.498 255.479 398.274 255.346C398.274 255.346 400.797 253.54 402.79 247.319L405.792 246.991C406.839 246.896 407.829 247.446 408.271 248.368C408.334 248.494 408.378 248.62 408.397 248.759C408.441 249.46 408.441 250.168 408.397 250.869C408.214 253.218 407.886 255.554 407.413 257.866L406.883 257.79L407.325 253.376C407.47 251.879 406.025 253.464 405.451 255.018C404.871 256.571 403.912 258.181 400.513 257.803C396.564 257.31 394.95 256.937 396.079 256.135H396.085Z" fill="#263238"/>
<path d="M403.616 245.09C403.616 245.09 402.55 247.913 401.125 251.007C400.475 252.611 399.504 254.076 398.274 255.327C398.274 255.327 400.752 256.103 402.09 254.607C403.42 253.11 405.71 247.73 408.277 248.323C408.138 247.881 407.949 247.458 407.709 247.066C407.325 246.473 403.629 245.102 403.629 245.102L403.616 245.09Z" fill="#E9B376"/>
<path d="M353.214 89.1052C353.214 89.1052 351.208 84.6341 350.294 84.3309C349.379 84.0278 348.578 84.2362 348.578 84.2362C348.578 84.2362 342.687 79.582 342.126 80.5166C341.823 81.0218 343.084 82.4048 345.897 84.5646C345.897 84.5646 344.049 84.9751 344.617 86.0992C344.617 86.0992 343.242 86.516 343.759 87.899C343.759 87.899 343.009 88.9536 343.658 89.7809C344.308 90.6082 347.55 93.0963 349.549 93.671C350.155 93.8478 351.195 94.2078 351.713 93.81C351.713 93.81 356.992 97.2327 357.118 97.3969L359.956 91.827L353.22 89.0989L353.214 89.1052Z" fill="#E9B376"/>
<path opacity="0.3" d="M350.224 89.9894C350.224 89.9894 350.211 89.9894 350.205 89.9894C349.58 89.9073 349 89.4463 348.691 88.7896C348.451 88.2843 348.325 87.4508 348.319 86.8256C347.562 87.2424 346.351 87.356 345.739 86.8824C345.329 86.5666 345.247 86.213 345.481 85.7772C345.594 85.5625 345.929 85.4173 346.32 85.2594C346.395 85.2278 346.458 85.2026 346.509 85.1773C346.83 85.0321 347.146 84.8552 347.449 84.691C347.758 84.5205 348.079 84.35 348.407 84.1985C348.483 84.1606 348.578 84.1985 348.615 84.2742C348.653 84.3563 348.615 84.4447 348.54 84.4826C348.224 84.6279 347.909 84.7984 347.6 84.9689C347.291 85.1394 346.969 85.3099 346.641 85.4615C346.584 85.4867 346.515 85.5183 346.433 85.5499C346.219 85.632 345.828 85.7899 345.758 85.9225C345.594 86.2193 345.638 86.4088 345.928 86.6298C346.49 87.0655 347.789 86.8698 348.382 86.4024C348.433 86.3646 348.502 86.3582 348.552 86.3898C348.609 86.4214 348.641 86.4782 348.634 86.5414C348.59 87.1287 348.716 88.1202 348.969 88.6569C349.234 89.219 349.719 89.6105 350.236 89.68C350.325 89.6926 350.382 89.7684 350.369 89.8568C350.356 89.9389 350.293 89.9957 350.211 89.9957L350.224 89.9894Z" fill="#263238"/>
<path opacity="0.3" d="M345.512 90.8869C345.386 90.8869 345.254 90.8617 345.128 90.8112C344.888 90.7164 344.693 90.5585 344.503 90.4007C344.434 90.3438 344.428 90.2428 344.484 90.1796C344.541 90.1165 344.642 90.1039 344.705 90.1607C344.875 90.2996 345.046 90.4449 345.241 90.5207C345.437 90.5964 345.639 90.5901 345.771 90.508C346.011 90.3565 346.036 89.9776 345.935 89.6807C345.828 89.365 345.626 89.0871 345.361 88.8913C345.229 88.8345 345.102 88.765 344.97 88.6766C344.901 88.6324 344.882 88.544 344.913 88.4746C344.951 88.4051 345.033 88.3672 345.109 88.3988C345.254 88.4556 345.386 88.5251 345.512 88.6135C345.702 88.6956 345.922 88.7587 346.162 88.7461C346.528 88.7335 346.862 88.5503 347.007 88.2725C347.165 87.982 347.083 87.5841 346.831 87.4262C346.755 87.3757 346.736 87.281 346.787 87.2052C346.837 87.1294 346.932 87.1105 347.007 87.161C347.392 87.4136 347.518 87.9883 347.285 88.424C347.083 88.8029 346.648 89.0492 346.168 89.0682C346.099 89.0682 346.03 89.0682 345.96 89.0619C346.08 89.2197 346.168 89.3966 346.232 89.586C346.364 89.9839 346.326 90.527 345.935 90.7796C345.815 90.8554 345.664 90.8996 345.506 90.8996L345.512 90.8869Z" fill="#263238"/>
<path d="M393.354 88.0195V100.864L391.456 102.525C387.589 104.395 378.904 108.095 376.425 108.007C371.795 107.779 355.068 97.7953 355.068 97.7953L358.613 91.0381C358.613 91.0381 373.076 97.2648 375.214 96.8417C377.352 96.4186 393.36 88.0068 393.36 88.0068L393.354 88.0195Z" fill="#1579AD"/>
<path d="M417.076 61.4076C417.076 61.4076 419.334 61.5276 421.239 65.2472C423.144 68.9668 420.759 73.0969 420.286 75.0736C419.807 77.0502 417.435 78.7995 421.352 81.7865C425.269 84.7736 427.622 87.9501 424.443 91.1834C421.264 94.4168 424.758 96.8923 420.167 99.2921C415.575 101.692 398.665 98.0985 396.527 93.4632C394.388 88.8279 396.968 85.2977 397.107 83.9147C397.246 82.5317 394.388 81.1108 393.676 76.5765C392.963 72.0423 396.615 71.0761 397.107 69.0047C397.599 66.9334 395.309 64.3252 397.107 59.9236C398.904 55.5219 416.836 54.5746 417.076 61.4076Z" fill="#263238"/>
<path opacity="0.4" d="M417.076 61.4076C417.076 61.4076 419.334 61.5276 421.239 65.2472C423.144 68.9668 420.759 73.0969 420.286 75.0736C419.807 77.0502 417.435 78.7995 421.352 81.7865C425.269 84.7736 427.622 87.9501 424.443 91.1834C421.264 94.4168 424.758 96.8923 420.167 99.2921C415.575 101.692 398.665 98.0985 396.527 93.4632C394.388 88.8279 396.968 85.2977 397.107 83.9147C397.246 82.5317 394.388 81.1108 393.676 76.5765C392.963 72.0423 396.615 71.0761 397.107 69.0047C397.599 66.9334 395.309 64.3252 397.107 59.9236C398.904 55.5219 416.836 54.5746 417.076 61.4076Z" fill="white"/>
<path d="M388.579 136.279C389.002 136.411 412.667 137.074 426.159 136.095C426.159 136.095 421.895 108.58 414.767 105.581C410.977 103.989 397.775 104.899 392.912 111.593C388.63 117.491 388.579 129.534 388.579 136.272V136.279Z" fill="#1579AD"/>
<path opacity="0.2" d="M388.579 136.279C389.002 136.411 412.667 137.074 426.159 136.095C426.159 136.095 421.895 108.58 414.767 105.581C410.977 103.989 397.775 104.899 392.912 111.593C388.63 117.491 388.579 129.534 388.579 136.272V136.279Z" fill="black"/>
<path d="M393.474 123.327L416.994 125.36C417.221 119.525 418.06 113.728 419.498 108.063C420.059 105.808 420.766 103.289 421.674 100.377C422.16 98.8239 422.696 97.1504 423.289 95.3821C423.736 94.0181 424.222 92.5719 424.758 91.0436C421.567 90.0206 418.3 89.2312 414.994 88.6818C411.506 88.0629 407.974 87.6903 404.43 87.5703C399.857 87.5703 394.596 88.0503 394.596 88.0503C394.596 88.0503 393.846 88.2271 393.379 93.0897C392.957 97.624 392.54 106.743 393.48 123.333L393.474 123.327Z" fill="#1579AD"/>
<path d="M393.587 126.855L417.107 128.794C417.48 122.94 417.757 115.033 419.517 108.055C420.078 105.801 420.785 103.281 421.693 100.37C422.179 98.8161 422.715 97.1425 423.308 95.3743C423.755 94.0102 424.241 92.5641 424.777 91.0358C421.586 90.0128 418.318 89.2234 415.013 88.674C411.525 88.0551 407.993 87.6825 404.449 87.5625C399.876 87.5625 394.615 88.0424 394.615 88.0424C394.615 88.0424 393.865 88.2193 393.398 93.0819C392.957 97.6162 392.641 110.265 393.594 126.855H393.587Z" fill="#263238"/>
<path d="M418.716 89.123C418.716 89.123 414.401 118.975 426.158 136.101C426.158 136.101 420.898 105.157 424.764 91.0176L418.716 89.1294V89.123Z" fill="#1579AD"/>
<path d="M398.211 87.5385C398.211 87.5385 396.798 101.381 396.072 106.983C394.294 120.762 388.579 136.639 388.579 136.639C388.579 136.639 389.481 98.5016 393.341 88.0122L398.211 87.5322V87.5385Z" fill="#1579AD"/>
<path d="M393.587 126.856L370.88 215.287C370.88 215.287 414.641 218.337 426.801 215.843C426.801 215.843 429.785 153.418 417.094 128.789L393.587 126.863V126.856Z" fill="#1579AD"/>
<path opacity="0.4" d="M393.587 126.856L370.88 215.287C370.88 215.287 414.641 218.337 426.801 215.843C426.801 215.843 429.785 153.418 417.094 128.789L393.587 126.863V126.856Z" fill="white"/>
<path d="M404.941 62.4795C404.941 62.4795 400.153 71.1249 399.926 73.8089C398.091 75.375 396.791 72.2048 396.861 67.9547C396.918 64.4751 398.728 60.7239 401.73 59.3725C405.943 57.4716 404.947 62.4732 404.947 62.4732L404.941 62.4795Z" fill="#263238"/>
<path opacity="0.4" d="M404.941 62.4795C404.941 62.4795 400.153 71.1249 399.926 73.8089C398.091 75.375 396.791 72.2048 396.861 67.9547C396.918 64.4751 398.728 60.7239 401.73 59.3725C405.943 57.4716 404.947 62.4732 404.947 62.4732L404.941 62.4795Z" fill="white"/>
<path d="M405.843 86.9517C406.644 86.1496 406.454 85.695 406.303 84.5267C406.196 83.6299 405.906 82.6953 405.565 81.7859L406.763 80.485L412.989 74.6309C412.692 78.6789 412.793 86.5096 415.878 88.8273L407.369 93.5004L402.601 87.5642C402.601 87.5642 404.663 87.6084 405.843 86.9517Z" fill="#E9B376"/>
<path opacity="0.2" d="M406.335 84.8736C408.025 83.9516 409.898 82.316 409.747 80.3583C409.678 79.5373 409.533 78.7542 409.356 78.249L405.836 82.5749C406.089 83.3011 406.171 83.7811 406.328 84.8736H406.335Z" fill="black"/>
<path d="M414.919 68.1828C414.13 74.34 413.929 76.9608 410.624 80.0805C405.66 84.7789 398.343 82.8718 397.296 76.7019C396.356 71.1446 397.801 62.0066 403.957 59.6321C410.018 57.2892 415.707 62.0192 414.919 68.1828Z" fill="#E9B376"/>
<path d="M406.549 70.3553C406.549 70.9363 406.215 71.4288 405.805 71.4541C405.401 71.4794 405.073 71.0373 405.079 70.4563C405.079 69.8753 405.414 69.3827 405.824 69.3575C406.227 69.3322 406.555 69.7743 406.549 70.3553Z" fill="#263238"/>
<path d="M400.677 69.9077C400.702 70.4697 400.4 70.9686 400.002 71.0191C399.598 71.0696 399.252 70.6592 399.226 70.0971C399.201 69.5351 399.504 69.0362 399.901 68.9857C400.305 68.9351 400.652 69.3456 400.677 69.9077Z" fill="#263238"/>
<path d="M408.195 68.3663C408.113 68.3663 408.037 68.3473 407.98 68.2842C407.072 67.3622 405.987 67.6211 405.975 67.6211C405.817 67.659 405.659 67.5642 405.628 67.4001C405.602 67.2359 405.71 67.0717 405.874 67.0275C405.93 67.0148 407.293 66.6864 408.422 67.8358C408.535 67.9495 408.529 68.1452 408.409 68.2652C408.352 68.3221 408.277 68.36 408.201 68.36L408.195 68.3663Z" fill="#263238"/>
<path opacity="0.4" d="M408.195 68.3663C408.113 68.3663 408.037 68.3473 407.98 68.2842C407.072 67.3622 405.987 67.6211 405.975 67.6211C405.817 67.659 405.659 67.5642 405.628 67.4001C405.602 67.2359 405.71 67.0717 405.874 67.0275C405.93 67.0148 407.293 66.6864 408.422 67.8358C408.535 67.9495 408.529 68.1452 408.409 68.2652C408.352 68.3221 408.277 68.36 408.201 68.36L408.195 68.3663Z" fill="white"/>
<path d="M398.627 67.1041C398.558 67.0789 398.495 67.0347 398.463 66.9589C398.394 66.8136 398.463 66.6368 398.615 66.561C400.173 65.8095 401.384 66.46 401.44 66.4916C401.585 66.5737 401.63 66.7505 401.535 66.8894C401.447 67.0284 401.251 67.0789 401.106 67.0031C401.062 66.9778 400.109 66.4853 398.873 67.0852C398.791 67.1231 398.703 67.1294 398.627 67.1041Z" fill="#263238"/>
<path opacity="0.4" d="M398.627 67.1041C398.558 67.0789 398.495 67.0347 398.463 66.9589C398.394 66.8136 398.463 66.6368 398.615 66.561C400.173 65.8095 401.384 66.46 401.44 66.4916C401.585 66.5737 401.63 66.7505 401.535 66.8894C401.447 67.0284 401.251 67.0789 401.106 67.0031C401.062 66.9778 400.109 66.4853 398.873 67.0852C398.791 67.1231 398.703 67.1294 398.627 67.1041Z" fill="white"/>
<path d="M416.603 73.2859C415.827 74.5237 414.616 75.2815 413.518 75.5151C411.872 75.8688 411.121 73.2038 411.74 71.5871C412.295 70.1283 413.935 69.2126 415.511 69.5916C417.069 69.9641 417.486 71.8713 416.603 73.2859Z" fill="#E9B376"/>
<path d="M402.437 69.4277C402.437 69.4277 401.39 71.7075 400.248 73.1095C400.046 73.3557 400.153 73.7283 400.444 73.8483C401.194 74.1578 402.096 73.9367 402.096 73.9367L402.437 69.434V69.4277Z" fill="#D58745"/>
<path d="M405.95 69.3385L404.518 69.0732C404.518 69.0732 405.344 70.0963 405.95 69.3385Z" fill="#263238"/>
<path d="M400.109 68.9908L398.665 68.8076C399.365 69.5781 399.926 69.2434 400.109 68.9908Z" fill="#263238"/>
<path d="M416.584 64.8101C417.423 66.0227 415.751 69.5402 415.751 69.5402C415.751 69.5402 412.793 68.6561 412.629 73.1208C411.538 73.304 410.314 69.136 410.491 64.9428C410.712 62.5746 415.102 62.6693 416.584 64.8101Z" fill="#263238"/>
<g opacity="0.4">
<path d="M416.584 64.8101C417.423 66.0227 415.752 69.5402 415.752 69.5402C415.752 69.5402 412.793 68.6561 412.629 73.1208C411.538 73.304 410.315 69.136 410.491 64.9428C410.712 62.5746 415.102 62.6693 416.584 64.8101Z" fill="white"/>
</g>
<path opacity="0.2" d="M413.89 73.9859C413.821 73.9859 413.752 73.9354 413.739 73.8659C413.72 73.7838 413.771 73.6954 413.859 73.6765C414.742 73.4681 415.139 73.0134 415.322 72.6661C415.518 72.2871 415.505 71.9461 415.436 71.763C415.291 71.3967 414.83 71.1062 414.401 71.2767C414.319 71.3083 414.231 71.2704 414.2 71.1883C414.168 71.1062 414.206 71.0178 414.288 70.9862C414.9 70.7526 415.524 71.1441 415.732 71.6556C415.833 71.9082 415.852 72.3503 415.606 72.8176C415.398 73.2218 414.937 73.7459 413.935 73.9859C413.922 73.9859 413.909 73.9859 413.897 73.9859H413.89Z" fill="#263238"/>
<path d="M401.528 75.9485C401.988 76.6305 402.556 77.9567 402.556 77.9567C402.688 77.9251 402.814 77.8999 402.941 77.862C404.688 77.4136 405.35 76.6305 405.552 75.8917C405.659 75.4875 405.628 75.096 405.565 74.7928C405.489 74.4329 405.356 74.1992 405.356 74.1992C404.574 74.9886 402.978 75.5317 402.114 75.7906C401.755 75.898 401.521 75.9548 401.521 75.9548L401.528 75.9485Z" fill="#263238"/>
<path d="M402.121 75.7843L402.442 76.3716C404.082 75.9422 405.186 75.4244 405.571 74.7928C405.495 74.4329 405.363 74.1992 405.363 74.1992C404.58 74.9886 402.985 75.5317 402.121 75.7906V75.7843Z" fill="white"/>
<path d="M402.941 77.86C404.688 77.4116 405.35 76.6285 405.552 75.8896C404.965 76.0665 404.272 76.3443 403.71 76.7738C403.281 77.1021 403.061 77.4937 402.941 77.86Z" fill="#DC5753"/>
<path d="M398.753 61.3751C400.059 58.6596 405.376 56.1336 411.494 58.7544C417.019 61.1162 418.615 69.168 414.622 69.4711C410.63 69.7743 405.918 65.8589 405.918 65.8589L398.753 61.3688V61.3751Z" fill="#263238"/>
<path d="M432.952 111.782L433.627 124.842C430.927 125.189 425.112 118.558 422.854 113.638C420.924 109.464 419.927 105.858 419.927 105.858L421.353 101.836L424.752 91.043C424.752 91.043 429.035 97.958 432.946 111.788" fill="#1579AD"/>
<path d="M454.725 81.6596L452.492 80.3776L444.28 82.6258L433.192 79.7461L430.631 88.1705C430.631 88.1705 430.101 97.5611 430.631 97.6747C431.161 97.7884 443.321 98.4199 443.321 98.4199L449.503 94.473L454.719 81.6596H454.725Z" fill="#E0E0E0"/>
<path d="M430.208 80.3789L425.301 99.8169L440.438 101.516L450.883 98.6296L456.213 80.3789L444.273 83.4796L430.208 80.3789Z" fill="#1579AD"/>
<path opacity="0.4" d="M444.273 83.4796L440.438 101.516L425.301 99.8169L430.208 80.3789L444.273 83.4796Z" fill="white"/>
<path opacity="0.2" d="M444.274 83.4796L440.439 101.516L450.884 98.6296L456.214 80.3789L444.274 83.4796Z" fill="white"/>
<path d="M432.277 124.188C436.017 127.377 439.247 122.205 441.814 107.2L435.292 105.918L429.969 119.761L432.277 124.188Z" fill="#1579AD"/>
<path opacity="0.2" d="M423.731 115.331L423.346 105.246C423.346 105.246 425.535 110.677 423.731 115.331Z" fill="black"/>
<path d="M435.734 105.999L437.172 102.059L441.814 101.099L441.448 107.123L435.734 105.999Z" fill="#E9B376"/>
<path d="M436.068 101.412C436.213 102.416 437.064 103.167 438.074 103.167C439.953 103.167 442.571 102.908 443.075 102.106C443.794 100.963 443.63 97.0922 443.189 96.8206C442.747 96.5491 442.426 97.49 442.426 97.49C442.426 97.49 442.382 95.6649 441.713 95.6397C441.063 95.6144 440.868 96.9848 440.868 96.9848C440.868 96.9848 440.943 95.3744 440.073 95.3997C439.348 95.4187 439.171 97.1111 439.171 97.1111C439.171 97.1111 439.24 95.5702 438.263 96.0312C437.291 96.4922 436.074 101.412 436.074 101.412H436.068Z" fill="#E9B376"/>
<path opacity="0.2" d="M439.253 97.1108L438.805 100.047C438.805 100.085 438.761 100.117 438.71 100.11C438.666 100.11 438.635 100.066 438.641 100.028L439.089 97.0981C439.089 97.0602 439.133 97.0287 439.183 97.035C439.228 97.035 439.253 97.0729 439.253 97.1108Z" fill="black"/>
<path opacity="0.2" d="M440.943 97.0728L440.735 99.921C440.735 99.9589 440.691 99.9904 440.647 99.9904C440.603 99.9904 440.577 99.9589 440.571 99.9147L440.779 97.0665C440.779 97.0286 440.823 96.9971 440.867 96.9971C440.912 96.9971 440.943 97.035 440.943 97.0728Z" fill="black"/>
<path opacity="0.2" d="M442.507 97.5846L442.413 99.7065C442.413 99.7443 442.375 99.7759 442.331 99.7759C442.287 99.7759 442.249 99.738 442.255 99.7001L442.35 97.5783C442.35 97.5404 442.388 97.5088 442.432 97.5088C442.476 97.5088 442.514 97.5467 442.507 97.5846Z" fill="black"/>
<path d="M442.936 100.308L444.539 99.8467C444.539 99.8467 444.639 101.817 442.735 102.404L442.936 100.308Z" fill="#E9B376"/>
<path opacity="0.4" d="M398.753 61.3742C400.059 58.6587 405.376 56.1326 411.494 58.7534C417.019 61.1152 418.615 69.167 414.623 69.4702C410.63 69.7733 405.918 65.8579 405.918 65.8579L398.753 61.3679V61.3742Z" fill="white"/>
<path d="M219.453 73.6313C219.787 73.966 236.836 61.2537 236.836 61.2537L234.275 41.1842L239.125 40.6348C239.125 40.6348 249.299 62.6935 244.96 66.4826C240.62 70.2717 224.461 82.2072 224.126 82.0999C223.792 81.9925 219.453 73.6313 219.453 73.6313Z" fill="#FFB573"/>
<path d="M234.275 41.8717C234.275 41.8717 232.13 41.2086 231.285 39.554C230.44 37.8995 229.324 36.807 228.775 35.5313C228.232 34.2556 229.91 35.0766 230.711 35.6955C231.519 36.3144 232.433 37.0027 232.799 36.3207C233.165 35.6387 232.982 29.0015 233.594 28.1173C234.205 27.2332 234.571 28.2942 234.571 28.2942C234.571 28.2942 234.571 26.6838 235.208 26.507C235.372 26.4628 235.833 26.627 235.946 27.3595C236.205 29.0141 236.571 32.5127 236.571 32.5127C236.546 32.3106 236.4 27.9595 236.464 27.309C236.546 26.4565 237.019 26.0902 237.517 26.1596C238.217 26.2481 238.583 31.6412 238.759 31.8559C238.759 31.8559 238.444 28.7615 239.201 28.2436C239.958 27.7258 240.261 29.6645 240.204 31.4201C240.153 33.0305 240.469 36.2133 240.261 37.8426C240.002 39.8572 239.371 41.1518 237.555 41.7075C235.738 42.2632 234.275 41.8717 234.275 41.8717Z" fill="#EBB373"/>
<path opacity="0.3" d="M234.811 32.5365C234.735 32.5365 234.666 32.4797 234.653 32.3976C234.502 31.1156 234.407 29.8084 234.376 28.5138C234.376 28.4254 234.445 28.3559 234.527 28.3496C234.634 28.3496 234.685 28.4191 234.691 28.5012C234.723 29.7895 234.817 31.0841 234.969 32.3534C234.981 32.4418 234.918 32.5176 234.83 32.5302H234.811V32.5365Z" fill="#263238"/>
<path opacity="0.3" d="M234.003 33.4789C233.94 33.4789 233.877 33.441 233.858 33.3715C233.827 33.2894 233.871 33.201 233.953 33.1694C235.542 32.5948 237.327 32.4937 238.974 32.8979C239.056 32.9168 239.112 33.0052 239.087 33.0873C239.068 33.1694 238.98 33.2263 238.898 33.201C237.315 32.8158 235.599 32.9042 234.06 33.4599C234.041 33.4662 234.022 33.4726 234.01 33.4726L234.003 33.4789Z" fill="#263238"/>
<path opacity="0.3" d="M236.066 39.6988C235.984 39.6988 235.915 39.6356 235.908 39.5535C235.87 38.9157 235.593 38.2842 235.158 37.8168C234.716 37.3495 234.104 37.0401 233.467 36.958C233.379 36.9454 233.322 36.8696 233.329 36.7812C233.335 36.6928 233.423 36.6296 233.505 36.6422C234.224 36.7306 234.887 37.0717 235.385 37.5958C235.87 38.1137 236.18 38.821 236.224 39.5282C236.224 39.6167 236.161 39.6924 236.079 39.6988H236.066Z" fill="#263238"/>
<path d="M188.742 139.795L184.441 139.315C183.658 143.136 183.368 147.045 183.576 150.942C183.728 153.474 187.809 156.335 187.809 156.335C187.809 156.335 189.241 159.334 190.042 158.406C190.843 157.478 188.667 153.335 188.578 152.375C188.32 149.388 188.036 146.376 188.282 145.978C188.528 145.574 188.591 149.716 189.859 150.607C191.126 151.497 190.124 146.338 190.565 144.589C191.013 142.833 189.739 139.997 188.736 139.802L188.742 139.795Z" fill="#FFB573"/>
<path opacity="0.2" d="M198.74 124.266C198.676 124.266 198.613 124.228 198.594 124.165C198.563 124.082 198.607 123.994 198.689 123.962C205.659 121.38 211.726 116.523 215.776 110.29C215.826 110.214 215.921 110.195 215.996 110.246C216.072 110.296 216.091 110.391 216.041 110.467C211.953 116.757 205.829 121.657 198.796 124.266C198.777 124.272 198.758 124.278 198.74 124.278V124.266Z" fill="#263238"/>
<path d="M228.428 66.6836C228.428 66.6836 219.402 72.9482 219.118 73.0556L221.439 88.2561C221.256 88.0413 236.381 77.4698 236.716 77.4193C237.05 77.3688 228.422 66.6836 228.422 66.6836H228.428Z" fill="#1579AD"/>
<path opacity="0.2" d="M221.44 88.2567L220.077 79.3145L222.979 87.0315L221.44 88.2567Z" fill="black"/>
<path opacity="0.3" d="M228.428 66.6836C228.428 66.6836 219.402 72.9482 219.118 73.0556L221.439 88.2561C221.256 88.0413 236.381 77.4698 236.716 77.4193C237.05 77.3688 228.422 66.6836 228.422 66.6836H228.428Z" fill="white"/>
<path d="M189.039 73.9591C189.039 73.9591 182.019 73.3781 180.637 81.6193C179.262 89.8542 177.004 103.855 177.004 103.855L190.609 105.036C191.297 104.531 189.039 73.9591 189.039 73.9591Z" fill="#1579AD"/>
<path opacity="0.3" d="M189.039 73.9591C189.039 73.9591 182.019 73.3781 180.637 81.6193C179.262 89.8542 177.004 103.855 177.004 103.855L190.609 105.036C191.297 104.531 189.039 73.9591 189.039 73.9591Z" fill="white"/>
<path d="M230.661 132.59L223.66 102.789L219.118 73.0633L209.008 72.9686L200.209 72.7539L189.038 73.9664L185.235 88.2828C185.235 88.2828 188.357 109.293 188.452 110.386C188.565 111.725 190.054 135.88 190.054 135.88C205.696 136.909 231.09 133.733 230.661 132.596V132.59Z" fill="#1579AD"/>
<path opacity="0.3" d="M230.661 132.59L223.66 102.789L219.118 73.0633L209.008 72.9686L200.209 72.7539L189.038 73.9664L185.235 88.2828C185.235 88.2828 188.357 109.293 188.452 110.386C188.565 111.725 190.054 135.88 190.054 135.88C205.696 136.909 231.09 133.733 230.661 132.596V132.59Z" fill="white"/>
<path opacity="0.2" d="M188.244 104.834L190.615 105.036L190.477 87.0312L192.924 109.103L188.376 109.74L187.922 106.545L188.244 104.834Z" fill="black"/>
<path d="M178.354 103.974L178.392 116.395L184.245 141.763L189.531 140.803L187.159 115.53L188.805 104.883L178.354 103.974Z" fill="#FFB573"/>
<path d="M198.847 72.9234C198.847 72.9234 199.415 68.8564 197.037 61.8087C197.037 61.8024 197.403 61.6193 197.403 61.613C197.075 60.6278 196.734 59.7184 196.412 58.929C196.406 58.9038 196.406 58.8975 196.406 58.8975L206.422 64.5053C206.29 66.7977 207.305 71.1741 207.873 73.0181C207.873 73.0181 209.992 77.0661 205.514 77.4134C202.24 77.666 198.847 72.9297 198.847 72.9297V72.9234Z" fill="#FFB573"/>
<path opacity="0.2" d="M206.725 67.7066L201.055 66.6836C201.641 68.4076 203.275 70.4158 207.192 70.4158C207.192 70.4158 206.719 68.4771 206.725 67.7066Z" fill="black"/>
<path d="M212.427 47.3345C213.676 49.5448 214.294 54.4959 210.655 53.6181C207.015 52.7402 210.283 43.5391 212.427 47.3345Z" fill="#263238"/>
<path d="M196.122 54.155C197.049 60.3185 197.447 63.8108 200.859 66.6905C205.987 71.0164 213.215 67.5872 214.148 61.2532C214.987 55.5506 213.328 46.4316 207.046 44.5623C200.859 42.7183 195.195 47.9977 196.122 54.1613V54.155Z" fill="#FFB573"/>
<path d="M194.186 46.0644C194.735 42.5721 198.979 40.2986 201.521 41.8332C201.9 42.0606 199.288 43.2289 199.585 43.0899L199.844 48.142C199.471 48.0915 198.784 48.5841 198.513 49.7587C198.513 49.7587 200.001 56.238 197.554 59.2251C190.584 56.7243 189.727 47.9021 194.192 46.058L194.186 46.0644Z" fill="#263238"/>
<path d="M194.135 59.5369C194.772 61.0904 196.065 62.1956 197.346 62.6945C199.276 63.4523 200.462 61.7662 200.115 59.8274C199.799 58.0844 198.424 55.59 196.4 55.6657C194.407 55.7352 193.41 57.7624 194.135 59.5369Z" fill="#FFB573"/>
<path d="M205.136 55.1601C205.192 55.7916 205.571 56.2779 205.987 56.2337C206.403 56.1958 206.693 55.6464 206.637 55.0148C206.58 54.3833 206.201 53.8971 205.785 53.9413C205.369 53.9792 205.079 54.5286 205.136 55.1664V55.1601Z" fill="#263238"/>
<path d="M211.361 54.7299C211.418 55.3614 211.796 55.8477 212.213 55.8034C212.629 55.7656 212.919 55.2161 212.862 54.5783C212.805 53.9468 212.427 53.4605 212.011 53.5047C211.594 53.5426 211.304 54.0921 211.361 54.7236V54.7299Z" fill="#263238"/>
<path d="M209.311 54.5596C209.311 54.5596 211.594 57.534 212.351 58.7591C211.537 59.6369 209.992 59.4033 209.992 59.4033L209.317 54.5596H209.311Z" fill="#D58745"/>
<path d="M203.527 53.0691C203.628 53.0943 203.741 53.0691 203.817 52.9806C204.732 52.0144 205.817 52.1913 205.829 52.1913C205.993 52.2228 206.145 52.1092 206.176 51.9513C206.208 51.7871 206.1 51.6355 205.936 51.6039C205.88 51.5913 204.524 51.3703 203.388 52.5702C203.275 52.6901 203.281 52.8796 203.401 52.9933C203.439 53.0312 203.483 53.0564 203.533 53.0627L203.527 53.0691Z" fill="#263238"/>
<path d="M213.814 51.9177C213.871 51.9051 213.922 51.8798 213.966 51.8356C214.079 51.7157 214.079 51.5262 213.966 51.4125C212.793 50.2632 211.462 50.56 211.399 50.5663C211.241 50.6042 211.14 50.7621 211.172 50.9263C211.209 51.0841 211.361 51.1852 211.525 51.1536C211.582 51.141 212.61 50.9199 213.549 51.8419C213.625 51.9114 213.726 51.9367 213.821 51.9177H213.814Z" fill="#263238"/>
<path d="M216.709 44.2903C216.407 42.7053 214.697 41.4549 213.139 41.8717C213.644 40.836 213.19 39.4466 212.181 38.9035C211.165 38.3604 209.759 38.7583 209.178 39.7498C209.122 38.7836 208.093 38.0763 207.128 38.152C206.17 38.2278 205.343 38.9225 204.851 39.7561C204.555 40.2676 204.334 40.8612 203.855 41.2086C203.104 41.7517 202.076 41.4738 201.149 41.4043C199.597 41.2843 198.008 41.878 196.904 42.9768C195.807 44.0819 195.214 45.6734 195.334 47.2269C194.476 47.4605 194.053 48.1552 193.492 48.8436L198.235 49.6014C199.566 47.1132 203.155 49.0393 204.952 49.7214C206.245 50.2139 207.519 50.2518 208.497 50.2139C209.481 50.1761 209.923 49.4561 209.935 48.4773C211.436 49.0583 213.202 49.0962 214.622 48.3257C216.034 47.549 216.993 45.8818 216.69 44.2967L216.709 44.2903Z" fill="#263238"/>
<path d="M194.47 46.3555C194.47 46.3555 194.407 46.3492 194.381 46.3302C193.454 45.6987 192.357 45.2945 191.518 45.2819C191.429 45.2819 191.36 45.2061 191.36 45.124C191.36 45.0419 191.455 44.9598 191.518 44.9662C192.432 44.9851 193.568 45.3956 194.552 46.0713C194.621 46.1218 194.64 46.2166 194.596 46.2923C194.564 46.3365 194.514 46.3618 194.463 46.3618L194.47 46.3555Z" fill="#263238"/>
<path d="M194.356 46.2923C194.306 46.2923 194.255 46.2671 194.224 46.2229C193.524 45.1872 193.227 43.8799 193.404 42.6422C193.417 42.5538 193.499 42.4969 193.581 42.5096C193.669 42.5222 193.726 42.6043 193.713 42.6864C193.543 43.8484 193.827 45.0735 194.482 46.046C194.533 46.1155 194.514 46.2165 194.438 46.2671C194.413 46.286 194.382 46.2923 194.35 46.2923H194.356Z" fill="#263238"/>
<path opacity="0.2" d="M198.387 59.4588C198.311 59.4588 198.248 59.4083 198.235 59.3325C198.134 58.8336 197.901 58.36 197.56 57.9748C197.34 57.7285 196.986 57.4127 196.532 57.3433C196.129 57.2801 195.712 57.4569 195.536 57.7664C195.491 57.8422 195.397 57.8674 195.321 57.8295C195.245 57.7853 195.22 57.6906 195.258 57.6148C195.498 57.1854 196.034 56.9454 196.576 57.0338C197.125 57.1159 197.541 57.4822 197.794 57.7664C198.166 58.1895 198.424 58.7137 198.538 59.2694C198.557 59.3578 198.5 59.4399 198.412 59.4525C198.399 59.4525 198.393 59.4525 198.38 59.4525L198.387 59.4588Z" fill="#263238"/>
<path d="M208.024 61.4807C207.135 61.4807 206.246 61.146 205.583 60.5461C205.52 60.4892 205.514 60.3882 205.571 60.325C205.627 60.2619 205.728 60.2556 205.791 60.3124C206.485 60.9439 207.457 61.2534 208.384 61.146C208.466 61.1397 208.548 61.1965 208.56 61.2849C208.573 61.3733 208.51 61.4491 208.422 61.4618C208.289 61.4744 208.157 61.487 208.018 61.487L208.024 61.4807Z" fill="#263238"/>
<path opacity="0.2" d="M85.2574 112.008L83.7184 136.245L69.8674 134.591V132.103L85.2574 112.008Z" fill="black"/>
<path d="M78.5591 112.614C78.0166 106.362 75.8343 94.9002 72.0814 82.8699C70.8578 78.9545 75.2225 74.6286 75.2225 74.6286C75.2225 74.6286 78.0418 74.4013 78.5591 74.3444C79.1267 74.275 81.2397 73.4098 81.82 73.3593C86.2036 72.9867 88.1147 73.0056 92.0316 73.233C93.0155 73.2898 94.3274 73.4035 95.3177 73.4856C95.6394 73.5172 97.5631 74.0476 97.8722 74.0792C97.8722 74.0792 103.498 80.7796 103.801 85.5096C103.965 88.1493 105.22 89.2923 105.081 95.6075C105.056 99.9018 101.997 106.154 101.72 112.185L78.5654 112.608L78.5591 112.614Z" fill="white"/>
<path d="M86.2284 91.9447C85.932 82.2951 82.053 78.1208 81.5358 75.7779C81.397 75.1654 81.6998 73.7697 81.9962 73.334L79.3787 73.6308C75.3104 74.4328 72.7938 74.4076 70.7628 77.1231C70.3717 77.6472 70.8574 81.3984 70.889 81.9478C70.9394 82.9393 71.6269 85.9895 72.5478 89.6586C73.1785 92.2099 73.9228 95.0707 74.6355 97.7672C75.5501 101.209 76.3133 102.106 76.6097 103.205L67.1676 131.098C66.9027 131.844 67.401 132.639 68.1894 132.728L81.7439 134.149C82.4062 134.218 83.0054 133.744 83.0811 133.081C83.756 127.417 86.569 103.04 86.2284 91.9447Z" fill="#1579AD"/>
<path d="M98.7988 73.6688C98.7988 73.6688 102.129 73.0121 105.737 78.2663C109.338 83.5204 110.36 106.514 110.36 106.514L102.526 106.918L103.668 84.5119L98.8051 73.6688H98.7988Z" fill="#1579AD"/>
<path d="M104.041 110.852C104.041 110.852 106.885 93.2014 106.128 88.7871C105.372 84.3728 98.7993 73.6624 98.7993 73.6624L95.797 73.454L93.5579 73.334C93.5579 73.334 100.609 76.6115 102.622 83.7603C103.946 88.4587 101.139 108.617 101.442 112.197L102.968 119.611L106.74 119.441L104.041 110.852Z" fill="#1579AD"/>
<path opacity="0.3" d="M104.728 106.469L106.204 92.8604L106.746 106.912C106.746 106.912 105.333 106.842 104.728 106.469Z" fill="black"/>
<path opacity="0.3" d="M78.7225 102.838L77.5619 89.835L76.6726 103.993L90.0947 109.456L78.7225 102.838Z" fill="black"/>
<path d="M73.4121 75.0518C73.4121 75.0518 69.1483 76.1001 68.3347 80.7606C67.5147 85.4212 66.4299 108.711 67.357 110.189C68.2842 111.667 94.2075 120.009 94.2075 120.009L96.9827 112.797L77.3984 103.312C77.3984 103.312 77.556 96.6558 77.72 91.4711C77.802 88.7303 77.8903 86.4 77.9471 85.6801C78.1237 83.6024 73.4121 75.0518 73.4121 75.0518Z" fill="#1579AD"/>
<path d="M96.5539 113.921C96.5539 113.921 104.703 115.879 106.595 117.508C107.434 118.228 107.409 119.415 107.409 119.415L94.2139 120.002L96.5539 113.921Z" fill="#B97964"/>
<path opacity="0.3" d="M73.3362 112.866C73.5948 112.961 84.8093 116.958 84.8093 116.958V118.367L72.7622 114.559L73.3362 112.866Z" fill="black"/>
<path d="M96.7682 44.2032C100.508 46.704 101.574 50.291 101.524 52.8928C101.063 56.404 99.8462 58.8922 98.9001 62.3024L89.603 41.7529C91.7728 42.1824 92.7504 41.7403 96.7682 44.2032Z" fill="#263238"/>
<path d="M92.1071 42.3908C88.4678 40.692 84.8915 42.6939 82.8038 44.0895C80.5205 46.0283 79.177 48.8448 79.1077 51.8382C79.1077 54.6358 79.1077 58.027 80.8043 59.4858C81.7568 60.332 83.0119 60.7362 84.2797 60.6036L98.1054 47.8344C96.6043 45.5357 94.5355 43.6664 92.1071 42.3908Z" fill="#263238"/>
<path d="M92.3407 80.2242C91.2748 81.323 90.3098 80.9567 88.8906 80.3757C80.4514 77.3381 82.9491 73.2586 82.9491 73.2586C84.5512 71.3767 84.6205 69.1285 84.034 65.6994C84.0213 65.5983 84.0213 65.4973 84.0213 65.3962C84.0213 64.9416 84.1727 64.4932 84.4439 64.1206C85.1504 63.0849 86.5569 62.8197 87.5913 63.527L91.3694 64.6132C91.382 64.6637 91.3883 64.7142 91.4009 64.7774C91.4136 66.653 91.3568 68.1117 91.3694 69.2548C91.3946 69.3937 91.3694 69.539 91.3757 69.6716C91.401 69.8105 91.3946 69.9558 91.3946 70.0947C91.4829 71.6672 94.1383 73.9722 95.2169 74.5153C95.8729 74.8879 95.9423 76.5298 92.3344 80.2305L92.3407 80.2242Z" fill="#B97964"/>
<path opacity="0.2" d="M91.3695 64.5925C91.3695 64.6493 91.3821 64.7061 91.401 64.763C91.4136 66.6386 91.3569 68.0973 91.3695 69.2404C91.3632 69.3793 91.3695 69.5183 91.3758 69.6572C91.3821 69.8024 91.401 69.9477 91.4262 70.0929C88.5564 69.3099 85.9893 67.6679 84.0845 65.3818C84.0845 64.9335 84.2232 64.4914 84.4755 64.1125C85.1693 63.0705 86.5759 62.7926 87.6166 63.481L91.3695 64.5861V64.5925Z" fill="black"/>
<path d="M81.1827 52.6522C81.3277 59.1252 81.2457 61.8533 84.3174 65.3709C88.9407 70.6503 96.6798 69.242 98.4648 62.889C100.023 57.1738 99.556 47.5685 93.4631 44.6004C87.3702 41.6323 81.0439 46.1729 81.1827 52.6522Z" fill="#B97964"/>
<path d="M78.3193 58.197C78.9752 59.5927 80.1484 60.5336 81.2648 60.9188C82.9426 61.4935 84.0653 58.8096 83.6238 57.0351C83.2264 55.4373 81.6243 54.269 79.9276 54.4648C78.2562 54.6606 77.5687 56.5993 78.3193 58.197Z" fill="#B97964"/>
<path opacity="0.2" d="M81.9775 58.3175C81.8892 58.3175 81.8198 58.2417 81.8198 58.1596C81.8324 57.5787 81.6054 57.004 81.2017 56.5872C80.798 56.1704 80.2367 55.9241 79.6564 55.9115C79.5681 55.9115 79.4987 55.8357 79.505 55.7473C79.505 55.6589 79.5744 55.5957 79.6627 55.5957C80.325 55.6083 80.9683 55.8925 81.4288 56.3725C81.8892 56.8524 82.1415 57.5029 82.1352 58.166C82.1352 58.2544 82.0658 58.3238 81.9775 58.3238V58.3175Z" fill="#263238"/>
<path d="M89.6032 55.4443C89.578 56.1327 89.8996 56.7326 90.3285 56.7768C90.7574 56.821 91.1233 56.2969 91.1485 55.6085C91.1737 54.9202 90.8521 54.3202 90.4232 54.276C89.9943 54.2318 89.6284 54.756 89.6032 55.4443Z" fill="#263238"/>
<path d="M95.9989 55.9622C95.9737 56.6316 96.3017 57.2063 96.7243 57.2568C97.1469 57.301 97.5127 56.7958 97.5379 56.1264C97.5631 55.457 97.2352 54.8823 96.8126 54.8318C96.39 54.7876 96.0242 55.2928 95.9989 55.9622Z" fill="#263238"/>
<path d="M88.449 52.9302C88.531 52.9491 88.6193 52.9302 88.6886 52.8734C89.7672 52.0334 90.8647 52.4502 90.8773 52.4566C91.0413 52.5197 91.2179 52.4376 91.2684 52.2734C91.3188 52.1092 91.2305 51.9198 91.0665 51.8503C91.0098 51.825 89.6347 51.3009 88.2976 52.3429C88.1651 52.4439 88.1462 52.6523 88.2534 52.7976C88.3039 52.867 88.3796 52.9112 88.4553 52.9239L88.449 52.9302Z" fill="#263238"/>
<path d="M98.4272 52.8867C98.4966 52.8677 98.5534 52.8235 98.5849 52.7604C98.6543 52.6151 98.5975 52.4257 98.4588 52.331C97.0459 51.3711 95.8917 51.9142 95.8475 51.9394C95.7088 52.0089 95.6646 52.1857 95.7403 52.3436C95.816 52.5015 95.9926 52.5772 96.1314 52.5078C96.1755 52.4888 97.0775 52.0784 98.2002 52.8425C98.2759 52.893 98.3515 52.9056 98.4272 52.8867Z" fill="#263238"/>
<path d="M94.2831 55.5C94.2831 55.5 95.0904 58.0197 96.1122 59.6301C96.2888 59.9143 96.1311 60.2869 95.8094 60.3753C94.9832 60.6026 94.0686 60.2553 94.0686 60.2553L94.2831 55.5Z" fill="#A24E3F"/>
<path d="M90.1707 54.2811L91.6907 54.0537C91.6907 54.0537 90.7825 55.0957 90.1707 54.2811Z" fill="#263238"/>
<path d="M96.6548 54.8377L98.1749 54.6104C98.1749 54.6104 97.2666 55.6523 96.6548 54.8377Z" fill="#263238"/>
<path d="M93.6524 62.0317C93.1163 62.6316 92.3972 63.8505 92.3972 63.8505C92.2774 63.8063 92.1513 63.7621 92.0377 63.7052C90.4041 63.0484 89.8617 62.2022 89.7544 61.4634C89.6977 61.0592 89.7797 60.6866 89.8806 60.3961C89.9941 60.0614 90.1581 59.8467 90.1581 59.8467C90.8141 60.7119 92.2963 61.4444 93.0974 61.8044C93.4316 61.9559 93.6524 62.038 93.6524 62.038V62.0317Z" fill="#263238"/>
<path d="M93.0974 61.7966L92.7126 62.3207C91.1736 61.6955 90.1771 61.0514 89.8806 60.3883C89.9941 60.0536 90.1581 59.8389 90.1581 59.8389C90.8141 60.704 92.2963 61.4366 93.0974 61.7966Z" fill="white"/>
<path d="M92.0313 63.7048C90.3977 63.048 89.8553 62.2018 89.748 61.4629C90.2968 61.7092 90.9338 62.0628 91.4195 62.5554C91.7916 62.928 91.9619 63.3322 92.0313 63.7048Z" fill="#DE5753"/>
<path d="M83.4214 54.2307C83.4214 54.2307 87.1112 50.0058 87.2311 46.3936C87.2311 46.3936 100.439 43.4571 99.2214 54.8748C99.2214 54.8748 102.079 45.0043 91.2867 43.3939C80.4948 41.7836 78.2683 55.8915 83.1565 60.811C83.1755 60.7605 81.1382 56.8767 83.4214 54.2307Z" fill="#263238"/>
<path d="M71.9045 45.6361C72.1568 48.5789 74.7429 50.764 77.6884 50.5114C80.6276 50.2588 82.81 47.6696 82.5577 44.7204C82.318 41.9544 80.0095 39.8262 77.2343 39.8262C74.1689 39.9714 71.791 42.5606 71.9108 45.6361H71.9045Z" fill="#263238"/>
<path d="M96.1881 44.8092C97.6072 46.1733 98.5596 47.9541 98.9002 49.8992C98.9002 51.3075 96.9891 52.3242 96.9891 52.3242L94.6491 49.255V51.9516C90.8205 51.5285 88.6066 49.495 87.2947 46.5585L89.4266 42.7441C89.4266 42.7441 94.914 43.7104 96.1881 44.8155V44.8092Z" fill="#263238"/>
<path d="M77.9407 48.718C77.6127 50.2462 76.7107 51.6419 75.4556 52.5639C76.1305 52.6207 76.8243 52.4502 77.3982 52.0966C77.373 52.646 77.2469 53.1954 77.0387 53.7069C78.5903 52.4186 79.5049 50.3915 79.4481 48.377L77.9407 48.718Z" fill="#263238"/>
<path d="M149.574 103.038H112.985V106.96H149.574V103.038Z" fill="#1579AD"/>
<path d="M125.555 103.448H112.985V106.549H125.555V103.448Z" fill="white"/>
<path opacity="0.3" d="M129.889 103.038H128.766V106.96H129.889V103.038Z" fill="white"/>
<path opacity="0.3" d="M147.007 103.038H145.884V106.96H147.007V103.038Z" fill="white"/>
<path opacity="0.2" d="M126.268 103.038H112.985V106.96H126.268V103.038Z" fill="black"/>
<path d="M270.883 115.845H30.5786V258.188H270.883V115.845Z" fill="#263238"/>
<path opacity="0.3" d="M75.4933 115.845H30.5786V258.188H75.4933V115.845Z" fill="black"/>
<path opacity="0.3" d="M270.883 115.845H30.5786V119.021H270.883V115.845Z" fill="black"/>
<path d="M271.633 106.765H26.7375V115.846H271.633V106.765Z" fill="#263238"/>
<path opacity="0.3" d="M271.633 106.765H26.7375V115.846H271.633V106.765Z" fill="black"/>
<path opacity="0.3" d="M78.4387 106.765H26.3462V115.846H78.4387V106.765Z" fill="black"/>
<path opacity="0.3" d="M170.615 134.486H93.7217V191.866H170.615V134.486Z" fill="black"/>
<path d="M167.309 138.036H97.02V188.311H167.309V138.036Z" fill="#263238"/>
<path opacity="0.3" d="M93.7217 191.867L97.0204 188.318H167.31L170.615 191.867H93.7217Z" fill="white"/>
<path opacity="0.3" d="M93.7217 134.486L97.0457 138.01L167.31 138.035L170.615 134.486H93.7217Z" fill="black"/>
<path opacity="0.3" d="M261.132 134.486H184.239V191.866H261.132V134.486Z" fill="black"/>
<path d="M257.833 138.036H187.544V188.311H257.833V138.036Z" fill="#263238"/>
<path opacity="0.3" d="M184.239 191.867L187.544 188.318H257.833L261.132 191.867H184.239Z" fill="white"/>
<path opacity="0.3" d="M184.239 134.486L187.562 138.01L257.833 138.035L261.132 134.486H184.239Z" fill="black"/>
<path opacity="0.3" d="M270.958 115.845H30.6543V258.188H270.958V115.845Z" fill="black"/>
<path d="M239.826 105.315C239.404 109.578 238.93 114.112 236.351 117.693C233.954 121.015 229.785 122.707 225.748 122.031C225.452 121.981 225.319 122.436 225.622 122.486C229.665 123.162 233.859 121.615 236.414 118.388C239.334 114.693 239.851 109.843 240.299 105.315C240.331 105.012 239.858 105.012 239.826 105.315Z" fill="#263238"/>
<path d="M223.295 126.63C223.591 125.089 224.783 124.04 226.007 123.624C227.23 123.213 228.523 123.295 229.791 123.201C232.838 122.979 235.966 121.59 237.902 118.654C239.87 115.673 239.353 111.909 239.555 108.057C239.757 104.243 239.896 100.813 241.132 96.0897C241.895 93.1721 246.575 87.6906 251.501 89.724L259.644 93.7847C263.144 98.8368 263.971 101.969 265.018 108.518C266.065 115.067 264.526 124.015 261.725 129.705C259.675 133.879 256.616 137.138 253.444 140.011C251.022 142.203 248.322 144.293 245.332 144.331C243.541 144.356 241.807 143.636 240.116 142.929C237.429 141.805 234.749 140.687 232.062 139.563C230.8 139.033 229.488 138.47 228.549 137.296C227.609 136.121 227.174 134.132 227.937 132.774C226.764 132.269 225.553 131.739 224.607 130.734C223.654 129.73 223.004 128.139 223.295 126.623V126.63Z" fill="#263238"/>
<path d="M243.668 120.597C243.668 120.597 246.115 121.804 249.13 124.405C249.761 124.949 250.448 125.416 251.186 125.807C253.167 126.862 254.964 127.462 255.456 126.508C255.563 126.3 255.645 126.073 255.708 125.833C256.125 124.235 255.109 122.037 253.804 120.642C252.536 119.284 252.504 118.81 252.769 117.238C252.908 116.347 253.23 115.432 253.602 114.535L251.924 113.525L245.938 107.475C246.626 111.188 246.828 118.406 243.674 120.597H243.668Z" fill="#E9B376"/>
<path opacity="0.2" d="M252.719 117.584C251.072 116.605 249.262 114.907 249.483 112.968C249.578 112.153 249.754 111.376 249.95 110.884L253.293 115.317C253.015 116.031 252.92 116.504 252.719 117.584Z" fill="black"/>
<path d="M244.778 100.654C245.339 106.817 245.453 109.426 248.625 112.659C253.4 117.515 260.748 115.886 262.016 109.779C263.157 104.285 262.041 95.1344 255.999 92.5452C250.044 89.9939 244.216 94.4966 244.778 100.66V100.654Z" fill="#E9B376"/>
<path d="M252.744 102.655C252.775 103.306 253.128 103.842 253.532 103.849C253.936 103.855 254.239 103.337 254.207 102.687C254.175 102.036 253.822 101.5 253.419 101.493C253.015 101.487 252.712 102.005 252.744 102.655Z" fill="#263238"/>
<path d="M258.812 102.636C258.843 103.267 259.197 103.785 259.6 103.798C260.004 103.804 260.307 103.299 260.275 102.667C260.244 102.036 259.89 101.518 259.487 101.512C259.083 101.505 258.78 102.011 258.812 102.642V102.636Z" fill="#263238"/>
<path d="M251.463 100.388C251.539 100.394 251.621 100.375 251.684 100.318C252.63 99.4405 253.702 99.75 253.709 99.75C253.866 99.7942 254.024 99.7058 254.062 99.5479C254.1 99.3837 253.999 99.2195 253.835 99.169C253.778 99.15 252.441 98.7648 251.262 99.8573C251.142 99.9647 251.142 100.16 251.262 100.287C251.318 100.35 251.388 100.381 251.463 100.394V100.388Z" fill="#263238"/>
<path d="M260.855 99.5489C260.918 99.53 260.968 99.4795 260.994 99.4163C261.05 99.2774 260.981 99.1006 260.842 99.0185C259.436 98.2291 258.395 98.829 258.351 98.8543C258.225 98.9301 258.2 99.1006 258.282 99.2458C258.37 99.3911 258.54 99.4416 258.66 99.3721C258.698 99.3469 259.518 98.8922 260.634 99.5237C260.704 99.5616 260.786 99.5679 260.849 99.5489H260.855Z" fill="#263238"/>
<path d="M257.165 102.341C257.165 102.341 258.13 104.646 259.215 106.086C259.404 106.338 259.284 106.705 258.994 106.812C258.237 107.09 257.348 106.837 257.348 106.837L257.171 102.341H257.165Z" fill="#D58745"/>
<path d="M253.191 101.518L254.604 101.184C254.604 101.184 253.835 102.238 253.191 101.518Z" fill="#263238"/>
<path d="M259.341 101.525L260.754 101.19C260.754 101.19 259.985 102.245 259.341 101.525Z" fill="#263238"/>
<path d="M262.451 102.183C262.451 102.183 259.669 94.4221 254.945 93.2602C254.73 93.2096 251.798 99.9731 248.934 101.287C248.934 101.287 248.291 105.998 247.345 106.326C246.398 106.655 244.027 101.508 244.027 101.508C244.027 101.508 240.148 93.0139 245.597 90.7088C251.047 88.4038 256.717 88.6375 260.092 93.2538C263.472 97.8702 262.911 100.908 262.451 102.177V102.183Z" fill="#263238"/>
<path d="M243.087 105.676C243.813 106.939 244.992 107.735 246.077 108.006C247.704 108.417 248.55 105.796 247.988 104.16C247.49 102.689 245.888 101.716 244.305 102.038C242.74 102.354 242.255 104.236 243.087 105.682V105.676Z" fill="#E9B376"/>
<path opacity="0.2" d="M246.879 105.614C246.797 105.614 246.727 105.551 246.721 105.469C246.683 104.926 246.431 104.401 246.021 104.042C245.605 103.675 244.879 103.511 244.52 103.53C244.438 103.53 244.356 103.467 244.356 103.385C244.356 103.296 244.419 103.221 244.501 103.214C244.911 103.183 245.743 103.378 246.229 103.802C246.702 104.218 246.998 104.812 247.036 105.443C247.036 105.532 246.98 105.608 246.891 105.614H246.879Z" fill="#263238"/>
<path d="M253.961 120.334C253.961 120.334 258.093 121.155 261.65 123.523C265.207 125.891 268.985 139.14 268.985 139.14L261.782 139.747L253.961 120.334Z" fill="#1579AD"/>
<path opacity="0.7" d="M253.961 120.334C253.961 120.334 258.093 121.155 261.65 123.523C265.207 125.891 268.985 139.14 268.985 139.14L261.782 139.747L253.961 120.334Z" fill="white"/>
<path d="M236.01 138.048L233.563 122.165C236.074 120.012 244.841 119.349 244.841 119.349C250.284 121.805 254.068 123.712 253.387 119.721L260.281 126.99C260.281 126.99 263.826 130.741 263.675 135.831C263.555 139.734 261.965 151.467 262.514 156.261L263.832 166.75C249.66 177.858 236.61 167.647 236.61 167.647C237.291 165.626 239.984 162.633 240.318 160.65C240.186 158.105 241.302 156.216 239.833 150.924C238.729 146.939 236.004 138.616 236.017 138.048H236.01Z" fill="#1579AD"/>
<g opacity="0.7">
<path d="M236.011 138.049L233.563 122.166C236.074 120.013 244.841 119.35 244.841 119.35C250.284 121.806 254.069 123.713 253.387 119.722L260.281 126.991C260.281 126.991 263.826 130.742 263.675 135.832C263.555 139.735 261.966 151.468 262.514 156.262L263.832 166.751C249.66 177.859 236.61 167.648 236.61 167.648C237.291 165.627 239.984 162.633 240.319 160.651C240.186 158.106 241.303 156.217 239.833 150.925C238.729 146.94 236.004 138.617 236.017 138.049H236.011Z" fill="white"/>
</g>
<path d="M235.733 121.022C235.733 121.022 232.832 121.174 231.148 123.984C230.069 125.784 226.304 137.543 223.926 145.127C222.715 148.986 223.731 152.308 226.941 153.242H248.436L249.036 148.449L232.964 146.422C232.964 146.422 237.701 132.718 238.408 128.575C239.114 124.439 235.733 121.022 235.733 121.022Z" fill="#E9B376"/>
<path opacity="0.2" d="M232.945 146.428C232.945 146.428 231.009 146.421 229.81 147.204C229.81 147.204 230.485 145.026 233.551 144.615L232.939 146.428H232.945Z" fill="black"/>
<path d="M225.464 136.527L236.01 139.925L239.404 127.85C239.404 127.85 236.704 120.998 236.395 120.847C236.086 120.695 231.999 121.049 230.516 124.983C229.034 128.918 225.452 136.527 225.452 136.527H225.464Z" fill="#1579AD"/>
<path opacity="0.7" d="M225.464 136.527L236.01 139.925L239.404 127.85C239.404 127.85 236.704 120.998 236.395 120.847C236.086 120.695 231.999 121.049 230.516 124.983C229.034 128.918 225.452 136.527 225.452 136.527H225.464Z" fill="white"/>
<path d="M267.572 139.261C267.572 139.261 269.913 145.153 270.398 146.681C270.884 148.203 272.429 151.657 269.685 152.674C266.948 153.691 248.688 152.674 248.688 152.674V147.799C248.688 147.799 262.539 146.157 262.817 145.911C263.088 145.664 263.391 139.614 263.391 139.614L267.572 139.261Z" fill="#E9B376"/>
<g opacity="0.2">
<path d="M258.105 149.933C257.947 149.598 257.537 149.383 257.19 149.51C257.544 149.093 257.91 148.657 258.061 148.127C258.212 147.596 258.086 146.952 257.626 146.655L254.295 147.198C254.674 148.859 255.128 150.804 255.506 152.459C255.538 152.598 255.576 152.743 255.664 152.857C255.935 153.204 256.484 153.046 256.881 152.857C257.146 152.737 257.43 152.591 257.544 152.326C257.664 152.061 257.474 151.663 257.184 151.714C257.506 151.531 257.809 151.297 257.998 150.981C258.193 150.665 258.256 150.261 258.105 149.927V149.933Z" fill="black"/>
</g>
<path d="M256.661 108.848C255.614 108.848 254.807 108.33 254.491 107.85C254.441 107.774 254.466 107.68 254.536 107.629C254.605 107.585 254.706 107.604 254.756 107.673C254.977 108.014 255.671 108.526 256.661 108.526C256.749 108.526 256.819 108.595 256.819 108.684C256.819 108.772 256.749 108.842 256.661 108.842V108.848Z" fill="#263238"/>
<path opacity="0.2" d="M236.237 139.021L238.35 131.607L237.221 142.318L236.237 139.021Z" fill="black"/>
<path opacity="0.2" d="M263.39 139.613C263.39 139.613 263.901 135.281 263.51 133.658C263.51 133.658 264.311 136.506 264.381 139.525L263.39 139.607V139.613Z" fill="black"/>
<path opacity="0.2" d="M262.823 145.905C262.823 145.905 265.201 145.993 266.462 147.212C266.462 147.212 266.071 144.825 263.025 144.844L262.823 145.911V145.905Z" fill="black"/>
<path d="M250.715 139.124L250.631 139.152C250.347 139.246 250.193 139.554 250.288 139.839L252.558 146.663C252.653 146.948 252.96 147.101 253.244 147.007L253.328 146.979C253.612 146.884 253.766 146.576 253.671 146.292L251.401 139.467C251.306 139.183 250.999 139.029 250.715 139.124Z" fill="#263238"/>
<path d="M247.187 148.216C247.187 148.216 250.871 144.838 251.514 145.154C252.157 145.469 252.675 145.798 252.675 145.798C252.675 145.798 255.854 144.756 256.169 145.634C256.478 146.511 255.961 146.96 255.961 146.96C255.961 146.96 257.298 147.25 256.926 148.229C256.56 149.208 256.27 149.574 256.27 149.574C256.27 149.574 257.058 150.136 256.756 150.913C256.453 151.69 255.778 151.766 255.778 151.766C255.778 151.766 257.046 152.808 256.024 153.123C255.475 153.294 248.096 153.18 247.541 152.984C246.374 152.561 247.181 148.216 247.181 148.216H247.187Z" fill="#EBB373"/>
<path d="M267.326 151.872H243.497V153.261H267.326V151.872Z" fill="white"/>
<path d="M183.628 132.889L176.349 137.524C176.349 137.524 180.966 154.594 182.417 156.886L191.487 152.567L183.621 132.889H183.628Z" fill="#E4897B"/>
<path d="M162.019 110.536C161.886 111.774 161.943 112.873 162.359 113.422C162.788 113.991 163.526 114.382 164.321 114.654C163.614 116.018 161.829 117.11 161.829 117.11H156.834C156.834 117.11 154.576 117.616 153.718 117.129C153.012 116.732 152.261 116.353 151.586 115.898C151.246 115.664 150.924 115.393 150.602 115.109C151.656 114.496 152.614 113.656 152.955 112.564C153.825 109.734 152.892 100.072 152.892 100.072L163.438 104.411C163.438 104.411 163.356 104.644 163.236 105.049C162.902 106.166 162.227 108.547 162.019 110.543V110.536Z" fill="#E4897B"/>
<path d="M168.351 84.1882C168.061 83.8219 168.862 75.5491 154.632 79.6666C144.067 82.7231 148.06 91.0149 148.06 91.0149L160.138 82.2811L168.351 84.1945V84.1882Z" fill="#263238"/>
<path opacity="0.2" d="M154.639 104.971C154.639 104.971 156.903 109.689 162.113 109.525C162.315 107.535 162.996 105.148 163.33 104.031C162.939 103.885 162.687 103.797 162.687 103.797L154.645 104.971H154.639Z" fill="black"/>
<path d="M168.073 82.4956C168.073 82.4956 171.145 91.1915 167.051 95.5426C162.964 99.8937 159.779 83.2218 159.779 83.2218L168.073 82.4893V82.4956Z" fill="#263238"/>
<path d="M154.626 105.299C157.843 107.73 161.488 108.324 164.547 106.663C166.515 105.602 168.13 103.783 168.906 101.466C169.013 101.162 169.095 100.847 169.171 100.525C170.464 94.6073 169.379 84.8883 162.914 82.4065C158.316 80.6067 153.118 82.8738 151.321 87.4902C150.804 88.7974 150.608 90.212 150.741 91.6203C151.252 98.1564 150.873 102.457 154.626 105.299Z" fill="#E4897B"/>
<path d="M159.59 93.3199C159.558 94.0019 159.975 94.5576 160.429 94.545C160.883 94.5324 161.23 93.964 161.217 93.282C161.211 92.6 160.826 92.0442 160.378 92.0569C159.93 92.0695 159.577 92.6252 159.59 93.3199Z" fill="#263238"/>
<path d="M166.143 93.3199C166.112 94.0019 166.534 94.5576 166.982 94.545C167.43 94.5324 167.783 93.964 167.771 93.282C167.764 92.6 167.38 92.0442 166.932 92.0569C166.484 92.0695 166.131 92.6694 166.143 93.3199Z" fill="#263238"/>
<path d="M164.825 93.4404C165.494 95.0571 166.377 96.579 167.461 97.9557C166.73 98.4988 165.796 98.6946 164.907 98.4862L164.825 93.4404Z" fill="#DE5753"/>
<path d="M168.918 90.5154C168.818 90.5723 168.691 90.5723 168.59 90.5154C167.916 90.0923 167.083 90.0102 166.339 90.2944C166.187 90.3702 165.998 90.307 165.922 90.1555C165.847 90.0039 165.91 89.8145 166.061 89.7387C166.988 89.3534 168.048 89.4419 168.9 89.9786C169.051 90.0607 169.101 90.2502 169.019 90.4017C168.988 90.4523 168.956 90.4839 168.912 90.5154H168.918Z" fill="#263238"/>
<path d="M159.47 90.8704C159.407 90.8704 159.344 90.8515 159.293 90.8136C159.18 90.6873 159.186 90.4915 159.312 90.3716C160.05 89.6769 161.078 89.3927 162.069 89.6011C162.233 89.6453 162.333 89.8158 162.289 89.9863C162.239 90.1505 162.075 90.2452 161.905 90.2074C161.122 90.0621 160.315 90.3021 159.735 90.8452C159.653 90.8957 159.558 90.902 159.47 90.8704Z" fill="#263238"/>
<path d="M155.383 83.3545L155.932 86.2152C155.023 86.7836 154.525 87.8887 155.036 88.9939C156.127 91.3558 155.011 95.208 153.251 96.831C153.251 96.831 153.125 95.7827 152.254 96.0921C151.384 96.4015 152.223 100.803 153.144 103.512C153.144 103.512 151.132 102.167 149.271 96.5215C147.549 91.3052 147.082 86.891 148.035 84.7628L155.389 83.3545H155.383Z" fill="#263238"/>
<path d="M147.991 97.0522C148.748 98.5173 150.053 99.6288 151.624 100.134C153.705 100.791 154.815 98.9341 154.304 96.9259C153.831 95.145 152.179 92.6 150.059 92.84C147.934 93.08 147.095 95.2335 147.997 97.0459L147.991 97.0522Z" fill="#E4897B"/>
<path d="M168.073 82.4956C168.439 83.1777 167.279 85.6848 164.648 86.891C162.012 88.0971 164.819 85.4258 164.819 85.4258C164.819 85.4258 159.527 87.2446 159.382 86.5626C159.237 85.8805 160.87 84.8954 160.87 84.8954C160.87 84.8954 156.461 86.9731 152.891 86.0889C149.315 85.2048 155.831 79.2812 159.981 79.4012C164.131 79.5212 166.976 80.4306 168.073 82.4956Z" fill="#263238"/>
<path opacity="0.1" d="M152.746 97.4243C152.551 96.3634 151.882 95.4224 150.943 94.8919C150.577 94.6899 150.085 94.5572 149.795 94.8162L149.586 94.5762C149.94 94.2667 150.507 94.2857 151.1 94.6141C152.116 95.1888 152.847 96.2118 153.062 97.3612L152.753 97.418L152.746 97.4243Z" fill="#263238"/>
<path d="M162.693 100.31C162.252 100.316 161.81 100.241 161.419 100.02C160.933 99.748 160.574 99.3186 160.29 98.845C160.132 98.586 159.722 98.8197 159.88 99.0849C160.202 99.6217 160.624 100.121 161.179 100.43C161.64 100.689 162.163 100.796 162.687 100.784C162.989 100.777 162.989 100.304 162.687 100.31H162.693Z" fill="#263238"/>
<path d="M173.851 113.609C169.625 115.542 167.544 123.979 175.592 142.558L187.57 134.601C186.075 129.984 184.46 127.547 181.988 121.92C178.67 114.051 173.845 113.609 173.845 113.609H173.851Z" fill="#1579AD"/>
<path d="M171.524 113.086C168.534 112.872 156.582 111.539 144.408 114.002L145.588 157.172C145.588 157.172 144.982 173.055 145.588 174.495C158.373 179.73 174.331 172.107 182.417 166.885C182.328 167.093 180.19 161.378 180.19 161.378C178.702 147.617 176.317 126.159 174.059 113.775C174.003 113.471 171.82 113.105 171.524 113.086Z" fill="#1579AD"/>
<path opacity="0.2" d="M145.752 140.231L146.42 140.319L148.678 128.226L149.65 141.809L145.588 142.119L145.752 140.231Z" fill="black"/>
<path d="M144.408 114.002C144.408 114.002 139.615 114.892 138.46 120.904C137.401 126.443 134.808 139.035 134.808 139.035L147.928 139.307L148.836 125.906L144.408 114.002Z" fill="#1579AD"/>
<path d="M137.18 139.091L137.054 147.534C137.325 150.786 138.883 153.148 141.866 153.161L170.773 151.487L172.06 146.202L147.631 144.055L147.94 139.324L137.193 139.103L137.18 139.091Z" fill="#E4897B"/>
<path d="M185.072 145.999C184.227 145.285 179.376 143.271 177.49 142.867C175.611 142.456 168.446 145.93 168.446 145.93L167.821 150.369C167.821 150.369 169.02 151.594 170.925 151.468C172.022 151.398 174.551 149.946 174.551 149.946C174.551 149.946 174.993 150.735 175.674 151.443C176.425 152.226 177.516 153.028 178.128 152.371C178.733 151.721 176.967 149.434 176.708 149.106C176.973 149.434 178.847 151.714 179.767 150.95C180.657 150.218 178.657 147.887 178.657 147.887C178.657 147.887 179.698 148.866 180.234 149.365C180.77 149.864 181.735 149.807 181.653 148.752C181.559 147.534 180.474 146.321 180.474 146.321C180.474 146.321 181.578 146.567 183.691 147.401C185.211 148.001 185.791 146.593 185.078 145.993L185.072 145.999Z" fill="#E4897B"/>
<path opacity="0.1" d="M176.98 149.599C176.935 149.599 176.891 149.58 176.86 149.548C176.507 149.144 176.141 148.733 175.712 148.399C175.251 148.039 174.759 147.824 174.293 147.78C174.204 147.773 174.141 147.691 174.154 147.609C174.16 147.521 174.242 147.458 174.324 147.47C174.854 147.521 175.384 147.755 175.901 148.159C176.349 148.506 176.727 148.935 177.093 149.346C177.15 149.409 177.144 149.51 177.081 149.567C177.049 149.592 177.011 149.605 176.973 149.605L176.98 149.599Z" fill="#263238"/>
<path opacity="0.1" d="M178.916 148.247C178.872 148.247 178.828 148.228 178.796 148.196C178.443 147.792 178.071 147.376 177.648 147.047C177.175 146.681 176.702 146.472 176.229 146.428C176.141 146.422 176.078 146.34 176.09 146.258C176.097 146.169 176.179 146.106 176.261 146.119C176.79 146.169 177.32 146.403 177.837 146.807C178.285 147.154 178.664 147.584 179.029 147.994C179.086 148.058 179.08 148.159 179.017 148.215C178.985 148.241 178.947 148.253 178.91 148.253L178.916 148.247Z" fill="#263238"/>
<path opacity="0.1" d="M180.436 146.478C180.392 146.478 180.348 146.459 180.317 146.428C179.963 146.024 179.598 145.613 179.169 145.279C178.708 144.919 178.216 144.704 177.75 144.66C177.661 144.653 177.598 144.571 177.611 144.489C177.617 144.401 177.705 144.338 177.781 144.35C178.311 144.401 178.841 144.634 179.358 145.039C179.806 145.386 180.184 145.815 180.55 146.226C180.607 146.289 180.6 146.39 180.537 146.447C180.506 146.472 180.468 146.485 180.43 146.485L180.436 146.478Z" fill="#263238"/>
<path d="M205.747 153.216H181.325C180.902 153.216 180.562 152.938 180.568 152.597C180.568 152.534 180.581 152.471 180.606 152.408L191.467 127.469C191.739 126.756 192.558 126.27 193.486 126.27H217.92C218.337 126.27 218.671 126.541 218.671 126.869C218.671 126.939 218.658 127.008 218.627 127.072L207.766 152.01C207.488 152.717 206.674 153.204 205.747 153.21V153.216Z" fill="#263238"/>
<path opacity="0.7" d="M217.933 126.276H193.498C192.571 126.276 191.751 126.769 191.48 127.476L180.619 152.415C180.593 152.478 180.581 152.541 180.581 152.604C180.581 152.945 180.915 153.217 181.338 153.223H205.76C206.687 153.217 207.501 152.73 207.778 152.023L218.639 127.085C218.671 127.022 218.684 126.952 218.684 126.883C218.684 126.548 218.349 126.283 217.933 126.283V126.276Z" fill="white"/>
<path d="M202.795 140.301C202.266 141.501 201.2 142.322 200.399 142.152C199.604 141.987 199.389 140.895 199.9 139.695C200.411 138.495 201.496 137.693 202.291 137.857C203.086 138.021 203.325 139.07 202.789 140.301H202.795Z" fill="white"/>
<path opacity="0.3" d="M193.637 126.277H193.492C192.565 126.277 191.745 126.77 191.473 127.477L180.612 152.416C180.587 152.479 180.574 152.542 180.574 152.605C180.574 152.946 180.909 153.218 181.331 153.224H182.113L193.643 126.277H193.637Z" fill="black"/>
<path d="M157.42 153.218H182.845V151.5H159.136C158.19 151.5 157.42 152.27 157.42 153.218Z" fill="#263238"/>
<path opacity="0.7" d="M157.42 153.218H182.845V151.5H159.136C158.19 151.5 157.42 152.27 157.42 153.218Z" fill="white"/>
<path opacity="0.2" d="M176.317 126.991C176.046 126.764 177.9 141.029 177.9 141.029L180.423 139.356C180.423 139.356 176.595 127.218 176.323 126.991H176.317Z" fill="black"/>
<path d="M298.756 162.33H91.748V258.181H298.756V162.33Z" fill="#263238"/>
<path opacity="0.4" d="M130.437 162.33H91.748V258.181H130.437V162.33Z" fill="black"/>
<path opacity="0.3" d="M298.756 162.33H91.748V165.5H298.756V162.33Z" fill="black"/>
<path d="M300.402 153.26H89.4395V162.335H300.402V153.26Z" fill="#263238"/>
<path opacity="0.4" d="M134.31 153.26H89.4395V162.335H134.31V153.26Z" fill="black"/>
<path opacity="0.3" d="M210.535 177.762H144.295V235.078H210.535V177.762Z" fill="black"/>
<path d="M207.69 181.312H147.139V231.529H207.69V181.312Z" fill="#263238"/>
<path opacity="0.3" d="M144.295 235.078L147.139 231.529H207.69L210.535 235.078H144.295Z" fill="white"/>
<path opacity="0.3" d="M144.295 177.762L147.158 181.286L207.69 181.311L210.535 177.762H144.295Z" fill="black"/>
<path opacity="0.3" d="M288.512 177.762H222.272V235.078H288.512V177.762Z" fill="black"/>
<path d="M285.668 181.312H225.117V231.529H285.668V181.312Z" fill="#263238"/>
<path opacity="0.3" d="M222.272 235.078L225.117 231.529H285.667L288.512 235.078H222.272Z" fill="white"/>
<path opacity="0.3" d="M222.272 177.762L225.136 181.286L285.667 181.311L288.512 177.762H222.272Z" fill="black"/>
</svg>
