<svg width="22" height="22" viewBox="0 0 22 22" fill="none" xmlns="http://www.w3.org/2000/svg">
<path fill-rule="evenodd" clip-rule="evenodd" d="M16.7881 10.4142V5.39307H18.1238V10.4142C18.1238 10.5958 18.0535 10.77 17.9282 10.8984C17.803 11.0268 17.6331 11.0989 17.456 11.0989C17.2788 11.0989 17.109 11.0268 16.9837 10.8984C16.8585 10.77 16.7881 10.5958 16.7881 10.4142Z" fill="#1579AD"/>
<path d="M14.5617 9.04496V6.30615H7.43774V9.04496C7.43774 10.0135 7.81302 10.9423 8.48102 11.6271C9.14903 12.312 10.055 12.6967 10.9997 12.6967C11.9444 12.6967 12.8504 12.312 13.5184 11.6271C14.1864 10.9423 14.5617 10.0135 14.5617 9.04496Z" fill="#1579AD"/>
<path d="M3.90108 4.97581L9.91549 2.23609C10.2571 2.08043 10.6267 2 11.0006 2C11.3744 2 11.744 2.08043 12.0856 2.23609L18.0991 4.97581C18.1779 5.01165 18.2448 5.07014 18.2918 5.1442C18.3387 5.21825 18.3637 5.30469 18.3637 5.39302C18.3637 5.48135 18.3387 5.56779 18.2918 5.64185C18.2448 5.7159 18.1779 5.7744 18.0991 5.81023L12.0865 8.54996C11.7449 8.70561 11.3753 8.78604 11.0014 8.78604C10.6276 8.78604 10.258 8.70561 9.91638 8.54996L3.90108 5.81023C3.82233 5.7744 3.75541 5.7159 3.70844 5.64185C3.66147 5.56779 3.63647 5.48135 3.63647 5.39302C3.63647 5.30469 3.66147 5.21825 3.70844 5.1442C3.75541 5.07014 3.82233 5.01165 3.90108 4.97581ZM13.0483 13.9746L11.6333 15.4408C11.5504 15.5266 11.4518 15.5948 11.3432 15.6413C11.2345 15.6878 11.1179 15.7118 11.0001 15.7118C10.8823 15.7118 10.7657 15.6878 10.6571 15.6413C10.5484 15.5948 10.4498 15.5266 10.367 15.4408L8.95197 13.9746C8.8463 13.862 8.71285 13.7808 8.56578 13.7396C8.41872 13.6985 8.26353 13.6989 8.11669 13.7409C5.61885 14.495 3.87615 16.1958 3.87615 18.1741C3.87615 18.6584 4.06378 19.1228 4.39779 19.4652C4.73179 19.8076 5.18479 20 5.65714 20H16.3431C16.8154 20 17.2684 19.8076 17.6024 19.4652C17.9364 19.1228 18.1241 18.6584 18.1241 18.1741C18.1241 16.1958 16.3814 14.495 13.8835 13.7409C13.7367 13.6989 13.5815 13.6985 13.4344 13.7396C13.2874 13.7808 13.1539 13.862 13.0483 13.9746Z" fill="#1579AD"/>
</svg>
