<svg width="214" height="289" viewBox="0 0 214 289" fill="none" xmlns="http://www.w3.org/2000/svg">
<g clip-path="url(#clip0_679_2606)">
<path d="M57.9591 100.013C60.0643 98.4745 62.4334 96.9422 62.8653 94.1721C63.0932 92.6999 62.4034 91.1677 61.0419 90.5728C59.6864 89.9779 58.4449 90.6689 57.4552 91.4921C55.7099 92.9463 54.4264 94.8752 52.7949 96.4495C52.0752 97.1405 51.2415 97.7715 50.3418 98.2161C48.7464 99.0153 46.9411 97.5852 47.283 95.8306C48.3806 90.1581 49.4242 84.4737 50.4198 78.7892C50.7017 77.1668 50.9776 75.4302 50.06 73.9641C49.5921 73.2189 48.7944 72.6902 47.9187 72.6902C46.6232 72.6902 45.9515 73.7297 45.5016 74.7512C43.5883 79.1257 44.3081 84.2033 42.9825 88.8001C42.8266 89.3409 42.4187 89.8096 41.8849 89.9779C40.4994 90.4045 39.7257 88.5898 39.5398 87.2138C39.036 83.5243 38.5322 79.8288 38.0284 76.1393C37.7405 74.0482 37.4286 71.8729 36.259 70.1123C35.7012 69.2771 34.8915 68.562 33.9858 68.1354C32.5524 67.4564 30.933 68.6281 31.1549 70.2025C32.0126 76.3676 32.8762 82.5328 33.7339 88.698C33.8059 89.2087 33.1941 89.5332 32.8103 89.1847C28.6058 85.369 28.9957 77.8518 25.259 73.249C24.6772 72.5339 23.9215 71.8489 22.8599 72.1193C22.1102 72.3056 21.5464 72.9125 21.2825 73.6396C20.8087 74.9435 21.2225 76.3075 21.6364 77.5935C22.9499 81.6976 24.6652 86.4747 26.0687 90.723C26.1707 91.0294 25.7689 91.2458 25.5709 90.9934C23.4537 88.3194 21.0666 85.1948 19.0513 82.695C18.4335 81.9259 17.6418 81.0786 16.5982 81.3791C15.9025 81.5834 15.4526 82.2684 15.4106 82.9955C15.3267 84.4016 16.2683 85.4351 17.102 86.4386C24.0355 94.791 26.0687 106.947 22.2421 117.108C21.7983 118.286 21.2885 119.62 21.8463 120.744C22.2901 121.639 23.2798 122.096 24.1974 122.486C29.0317 124.553 34.8615 126.548 39.2459 123.64C42.3828 121.561 43.7563 117.709 45.1358 114.386C46.6232 110.799 49.6641 107.53 52.3751 104.82C54.1025 103.065 55.9738 101.461 57.9591 100.013Z" fill="#E7B892"/>
<path d="M41.615 102.759C42.7006 101.497 43.4263 99.5681 42.4667 98.2041C41.9809 97.5131 41.1652 97.1345 40.3675 96.8461C37.0807 95.6563 33.428 95.5001 30.0513 96.4075C28.9717 96.6959 27.874 97.1225 27.1543 97.9818C26.4346 98.8351 26.2426 100.223 26.9924 101.046C27.4662 101.569 28.1919 101.767 28.8817 101.888C30.1412 102.104 31.4307 102.128 32.6963 101.972C33.6259 101.852 34.6636 101.659 35.4253 102.212C36.103 102.705 36.307 103.654 36.175 104.483C36.0431 105.313 35.6472 106.07 35.3353 106.851C34.7955 108.209 34.5196 109.753 34.8495 111.195C35.0654 112.115 35.7312 113.803 36.9547 113.311C37.8904 112.932 38.4002 111.652 38.2383 110.709C37.9684 109.158 37.5905 107.945 38.3702 106.43C39.1439 104.952 40.5594 103.985 41.615 102.759Z" fill="#DC9471"/>
<path d="M46.4238 83.7938C45.4595 83.6839 44.7014 83.3864 44.7306 83.1292C44.7598 82.872 45.5652 82.7525 46.5295 82.8624C47.4939 82.9723 48.252 83.2699 48.2228 83.5271C48.1936 83.7843 47.3881 83.9037 46.4238 83.7938Z" fill="#DC9471"/>
<path d="M46.2502 85.32C45.2858 85.2101 44.5278 84.9126 44.557 84.6554C44.5862 84.3982 45.3916 84.2787 46.3559 84.3886C47.3203 84.4985 48.0784 84.7961 48.0492 85.0533C48.02 85.3105 47.2145 85.4299 46.2502 85.32Z" fill="#DC9471"/>
<path d="M33.4883 79.2931C33.4338 79.0401 34.1588 78.6689 35.1075 78.464C36.0562 78.2591 36.8695 78.2982 36.9239 78.5512C36.9783 78.8042 36.2534 79.1754 35.3046 79.3803C34.3559 79.5852 33.5427 79.5462 33.4883 79.2931Z" fill="#DC9471"/>
<path d="M33.8137 80.797C33.7593 80.5439 34.4842 80.1727 35.4329 79.9679C36.3817 79.763 37.1949 79.802 37.2493 80.055C37.3038 80.3081 36.5788 80.6793 35.6301 80.8842C34.6814 81.089 33.8681 81.05 33.8137 80.797Z" fill="#DC9471"/>
<path d="M24.6543 82.6912C24.5998 82.4382 25.3248 82.067 26.2735 81.8621C27.2222 81.6572 28.0355 81.6963 28.0899 81.9493C28.1443 82.2023 27.4194 82.5735 26.4707 82.7784C25.5219 82.9833 24.7087 82.9443 24.6543 82.6912Z" fill="#DC9471"/>
<path d="M24.9739 84.1963C24.9194 83.9433 25.6444 83.5721 26.5931 83.3672C27.5418 83.1623 28.355 83.2013 28.4095 83.4544C28.4639 83.7074 27.739 84.0786 26.7902 84.2835C25.8415 84.4884 25.0283 84.4493 24.9739 84.1963Z" fill="#DC9471"/>
<path d="M18.8746 87.7672C18.7636 87.5823 19.1479 87.1469 19.7327 86.7948C20.3176 86.4427 20.8816 86.3071 20.9925 86.4919C21.1034 86.6768 20.7192 87.1122 20.1344 87.4643C19.5495 87.8165 18.9855 87.9521 18.8746 87.7672Z" fill="#DC9471"/>
<path d="M19.5306 88.8559C19.4197 88.671 19.8039 88.2357 20.3887 87.8835C20.9736 87.5314 21.5376 87.3958 21.6485 87.5807C21.7594 87.7656 21.3752 88.2009 20.7904 88.5531C20.2055 88.9052 19.6415 89.0408 19.5306 88.8559Z" fill="#DC9471"/>
<path d="M55.9275 96.5114C55.4758 95.999 55.2404 95.4679 55.4018 95.3251C55.5632 95.1823 56.0602 95.4819 56.5119 95.9943C56.9636 96.5067 57.199 97.0378 57.0376 97.1806C56.8763 97.3234 56.3792 97.0238 55.9275 96.5114Z" fill="#DC9471"/>
<path d="M54.9746 97.3596C54.5229 96.8472 54.2875 96.3161 54.4489 96.1733C54.6103 96.0305 55.1073 96.3301 55.559 96.8425C56.0108 97.3549 56.2461 97.886 56.0848 98.0288C55.9234 98.1716 55.4264 97.872 54.9746 97.3596Z" fill="#DC9471"/>
<path d="M44.9917 119.314C44.9917 119.314 25.4628 117.144 19.9329 117.078C19.9329 117.078 -5.00598 193.242 1.61559 200.092C8.23717 206.942 54.0664 185.67 54.0664 185.67L67.0576 125.497L40.1635 145.392L44.9917 119.314Z" fill="#7CCDFA"/>
<path d="M40.1635 145.392L35.2033 179.902L39.1498 170.624L44.212 168.473L67.0576 125.497L40.1635 145.392Z" fill="#4290D8"/>
<path d="M43.0365 119.097L22.2241 117.096L23.4176 113.052L43.5403 118.088L43.0365 119.097Z" fill="#DC9471"/>
<path d="M72.4855 133.459C71.268 130.911 75.1246 107.818 81.0264 106.064C86.9282 104.309 152.838 108.341 161.661 118.082C170.484 127.822 185.178 155.265 181.819 158.474C178.461 161.683 174.706 158.474 174.706 158.474C174.706 158.474 202.836 245.922 185.016 264.472C167.197 283.021 138.078 276.736 138.078 276.736L72.4855 133.459Z" fill="#AFA72D"/>
<path d="M72.8814 120.978C72.8814 120.978 53.1486 135.556 45.5554 146.372C37.9621 157.188 40.6732 236.981 75.4964 266.671L79.287 262.008C79.287 262.008 52.3389 171.309 60.9097 157.374C69.4806 143.445 82.094 129.565 82.094 129.565C82.094 129.565 77.3017 119.993 72.8814 120.978Z" fill="#889033"/>
<path d="M174.706 158.48L155.693 129.481C155.693 129.481 140.909 111.862 125.23 119.32C109.552 126.777 159.226 277.763 159.226 277.763C159.226 277.763 172.505 275.846 181.82 267.44C181.82 267.44 178.251 192.13 163.88 153.787L159.37 143.974L174.706 158.48Z" fill="#889033"/>
<path d="M157.804 248.121L160.383 289H63.9266L60.8677 245.736L157.804 248.121Z" fill="#191767"/>
<path d="M70.0384 49.8682C62.6371 47.9634 56.2794 42.3811 53.4245 35.2785C52.3089 32.5084 51.7091 29.4438 52.3029 26.5175C52.8967 23.5911 54.84 20.839 57.635 19.8115C55.3198 21.7043 55.1339 25.6702 57.2691 27.7673C57.3411 20.5266 60.5559 13.3759 65.9179 8.5267C71.286 3.67748 78.7172 1.2018 85.9146 1.8748C86.7843 1.95893 87.672 2.08511 88.4637 2.45166C89.4233 2.89031 90.203 3.64143 90.9647 4.37452C92.3322 5.7025 93.6997 7.02446 95.0672 8.35244C94.5394 5.42608 93.7357 2.20529 91.7385 0.0120282C94.0356 -0.126177 96.2428 1.12969 97.8022 2.82421C99.3617 4.51873 100.387 6.63388 101.389 8.71297C101.419 8.20222 101.443 7.69145 101.473 7.18069C101.665 3.73757 106.577 2.2113 109.942 1.46018C113.307 0.709065 116.809 1.0035 120.216 1.49624C125.458 2.25937 130.742 3.52726 135.229 6.34545C139.715 9.16365 143.344 13.7425 143.967 19.0123C147.056 17.8466 150.403 17.0774 153.66 17.6122C156.923 18.147 160.077 20.1901 161.235 23.2847C156.287 21.7704 151.183 20.7669 146.031 20.2862C151.681 23.1945 157.696 26.5655 161.985 31.2465C166.273 35.9275 168.84 42.7296 166.849 48.7626C164.12 57.0189 154.026 61.3633 151.974 69.8179C150.757 74.8294 152.622 80.5859 149.959 84.9965C148.598 87.2498 146.264 88.722 143.967 90.0019C141.67 91.2818 139.253 92.5016 137.508 94.4786C135.762 96.4555 134.845 99.43 136.05 101.773C134.821 103.222 132.649 100.806 130.766 101.016C130.142 101.088 129.597 101.455 128.985 101.599C127.275 101.996 125.74 100.59 124.127 99.9047C122.345 99.1475 120.33 99.2677 118.435 98.8711C114.068 97.9518 110.799 94.4185 107.837 91.0715C96.1469 77.8579 88.3197 60.3839 73.5531 50.7515C71.8138 49.6158 71.5019 51.3464 70.0384 49.8682Z" fill="#2E2447"/>
<path d="M107.093 113.052C107.093 113.052 76.1323 116.147 59.4404 146.498C42.7485 176.849 52.0691 249.635 52.0691 249.635C52.0691 249.635 113.457 262.428 170.946 250.663C170.946 250.657 183.799 120.792 107.093 113.052Z" fill="#5CC4FF"/>
<path d="M118.507 117.08L95.1631 117.08L95.1631 88.8682L118.507 88.8682L118.507 117.08Z" fill="#DC9471"/>
<path d="M151.159 68.9646C146.064 68.9646 141.934 64.2701 141.934 58.479C141.934 52.688 146.064 47.9934 151.159 47.9934C156.253 47.9934 160.383 52.688 160.383 58.479C160.383 64.2701 156.253 68.9646 151.159 68.9646Z" fill="#E7B892"/>
<path d="M149.677 66.6512C146.355 66.6512 143.662 63.5896 143.662 59.813C143.662 56.0364 146.355 52.9748 149.677 52.9748C153 52.9748 155.693 56.0364 155.693 59.813C155.693 63.5896 153 66.6512 149.677 66.6512Z" fill="#DC9471"/>
<path d="M148.292 70.0883C148.292 86.7511 130.106 96.5096 107.675 96.5096C85.2428 96.5096 67.0575 86.7451 67.0575 70.0883C67.0575 53.4315 76.9419 21.8906 107.675 21.8906C137.79 21.8906 148.292 53.4255 148.292 70.0883Z" fill="#FCCEA9"/>
<path d="M87.672 59.0619C86.3304 59.0619 85.2429 57.2836 85.2429 55.09C85.2429 52.8964 86.3304 51.1181 87.672 51.1181C89.0135 51.1181 90.1011 52.8964 90.1011 55.09C90.1011 57.2836 89.0135 59.0619 87.672 59.0619Z" fill="#2E2447"/>
<path d="M83.3536 59.0619C83.3536 59.0619 87.9899 55.0059 92.3083 59.0619H83.3536Z" fill="#2E2447"/>
<path d="M85.5429 56.424C85.0261 56.424 84.6072 56.0043 84.6072 55.4866C84.6072 54.9689 85.0261 54.5492 85.5429 54.5492C86.0596 54.5492 86.4785 54.9689 86.4785 55.4866C86.4785 56.0043 86.0596 56.424 85.5429 56.424Z" fill="white"/>
<path d="M122.285 59.0619C120.944 59.0619 119.856 57.2836 119.856 55.09C119.856 52.8964 120.944 51.1181 122.285 51.1181C123.627 51.1181 124.715 52.8964 124.715 55.09C124.715 57.2836 123.627 59.0619 122.285 59.0619Z" fill="#2E2447"/>
<path d="M117.973 59.0619C117.973 59.0619 122.609 55.0059 126.928 59.0619H117.973Z" fill="#2E2447"/>
<path d="M119.856 56.8326C119.34 56.8326 118.921 56.4129 118.921 55.8952C118.921 55.3775 119.34 54.9578 119.856 54.9578C120.373 54.9578 120.792 55.3775 120.792 55.8952C120.792 56.4129 120.373 56.8326 119.856 56.8326Z" fill="white"/>
<path d="M108.035 84.3054C109.594 83.1277 111.837 83.0315 113.528 83.981C113.882 84.1793 114.032 84.696 113.804 85.0445C113.57 85.4051 113.121 85.5373 112.743 85.321C112.659 85.2729 112.575 85.2308 112.491 85.1888C112.449 85.1707 112.407 85.1467 112.359 85.1287C112.431 85.1587 112.401 85.1467 112.347 85.1287C112.155 85.0626 111.963 85.0025 111.765 84.9604C111.717 84.9484 111.669 84.9424 111.627 84.9304C111.615 84.9304 111.465 84.9003 111.555 84.9184C111.645 84.9304 111.495 84.9123 111.483 84.9123C111.435 84.9063 111.387 84.9063 111.339 84.9003C111.135 84.8883 110.937 84.8883 110.734 84.9003C110.686 84.9063 110.638 84.9063 110.59 84.9123C110.518 84.9184 110.506 84.9244 110.584 84.9123C110.488 84.9244 110.398 84.9424 110.302 84.9664C110.116 85.0085 109.93 85.0566 109.756 85.1227C109.714 85.1407 109.666 85.1587 109.624 85.1707C109.696 85.1467 109.666 85.1527 109.612 85.1767C109.516 85.2188 109.42 85.2669 109.324 85.321C109.144 85.4171 108.976 85.5313 108.814 85.6514C108.49 85.8978 107.933 85.7115 107.753 85.375C107.543 84.9604 107.687 84.5698 108.035 84.3054Z" fill="#DC9471"/>
<path d="M80.4627 68.7904C77.1403 68.7904 74.4469 66.9502 74.4469 64.6802C74.4469 62.4103 77.1403 60.5701 80.4627 60.5701C83.7852 60.5701 86.4785 62.4103 86.4785 64.6802C86.4785 66.9502 83.7852 68.7904 80.4627 68.7904Z" fill="#DC9471"/>
<path d="M125.398 68.7904C122.076 68.7904 119.382 66.9502 119.382 64.6802C119.382 62.4103 122.076 60.5701 125.398 60.5701C128.721 60.5701 131.414 62.4103 131.414 64.6802C131.414 66.9502 128.721 68.7904 125.398 68.7904Z" fill="#DC9471"/>
<path d="M103.722 55.4866C103.662 56.2497 103.596 57.0128 103.536 57.782C103.488 58.3889 103.554 59.2001 103.068 59.6568C102.768 59.9392 102.349 60.0053 101.971 59.8791C101.659 59.7709 101.467 59.5306 101.215 59.3443C100.873 59.0859 100.411 58.9958 99.9975 59.0979C99.0858 59.3143 98.7019 60.3959 99.1398 61.177C99.7036 62.1805 100.915 62.3067 101.917 61.9582C102.313 61.82 102.762 62.1144 102.87 62.499C102.99 62.9256 102.726 63.3162 102.331 63.4544C101.245 63.833 99.9495 63.7909 98.9598 63.16C98.0482 62.5771 97.3944 61.5556 97.4004 60.4499C97.4004 59.3924 98.0242 58.3348 98.9658 57.8421C99.9195 57.3373 101.161 57.3914 102.049 58.0283C102.169 58.1125 102.313 58.2026 102.409 58.3168C102.427 58.3408 102.487 58.3709 102.493 58.4009C102.301 58.497 102.103 58.5932 101.911 58.6893C101.917 58.6593 101.923 58.6352 101.935 58.6052C101.941 58.6172 101.917 58.7494 101.935 58.5691C101.947 58.473 101.953 58.3769 101.959 58.2807C101.977 58.0884 101.989 57.8961 102.007 57.7099C102.067 56.9708 102.127 56.2317 102.187 55.4866C102.223 55.0659 102.517 54.7114 102.96 54.7114C103.338 54.7054 103.752 55.0659 103.722 55.4866Z" fill="#DC9471"/>
<path d="M81.9322 43.8953C84.3733 42.0746 87.2343 40.8248 90.2212 40.2659C90.767 40.1638 91.3368 40.4161 91.4927 40.987C91.6306 41.4918 91.3248 42.1587 90.773 42.2609C87.936 42.7897 85.291 43.9554 82.9758 45.68C82.526 46.0165 81.8182 45.7521 81.5603 45.3074C81.2544 44.7847 81.4824 44.2318 81.9322 43.8953Z" fill="#2E2447"/>
<path d="M121.926 45.3134C119.61 43.5828 116.965 42.4231 114.128 41.8943C113.577 41.7922 113.265 41.1252 113.409 40.6204C113.565 40.0436 114.128 39.7912 114.68 39.8994C117.667 40.4582 120.534 41.7081 122.969 43.5288C123.419 43.8653 123.647 44.4241 123.341 44.9469C123.083 45.3855 122.375 45.6499 121.926 45.3134Z" fill="#2E2447"/>
<path d="M95.1634 117.078C95.1634 117.078 97.5865 102.681 106.835 100.542C118.507 97.8376 118.507 117.078 118.507 117.078H95.1634Z" fill="#E7B892"/>
<path d="M90.6229 66.6452C90.6109 66.8074 90.6109 66.9757 90.6229 67.1439C90.7908 70.1844 92.4042 72.9966 94.5035 75.2019C97.7003 78.5669 102.373 80.7962 106.961 80.0992C109.798 79.6665 112.419 78.1343 114.32 75.9831C116.222 73.8319 117.403 71.0858 117.835 68.2496C118.483 63.9892 113.69 65.5275 111.219 66.0683C105.365 67.3362 99.2957 66.1524 93.3579 65.3593C92.4042 65.2331 91.1867 65.2451 90.7668 66.1104C90.6769 66.2726 90.6349 66.4529 90.6229 66.6452Z" fill="#2E2447"/>
<path d="M115.052 75.0637C115.052 75.0637 104.886 68.2195 96.5548 77.0346C96.5488 77.0406 106.793 85.4351 115.052 75.0637Z" fill="#CC5645"/>
<path d="M112.473 65.7679C112.473 65.7679 107.933 76.6801 94.1436 65.4554C94.1436 65.4554 104.646 67.2461 112.473 65.7679Z" fill="white"/>
<path d="M89.2735 22.9241C82.6999 21.9146 77.0739 16.7109 75.5025 10.2392C75.3346 9.55423 76.3902 9.2658 76.5521 9.95082C78.0396 16.0859 83.3356 20.9171 89.5614 21.8726C90.2571 21.9807 89.9632 23.0323 89.2735 22.9241Z" fill="#645D78"/>
<path d="M85.4288 25.0152C81.7161 25.0873 77.8595 25.0212 74.3928 23.525C71.5858 22.3172 69.1867 20.1961 68.0891 17.2937C67.8372 16.6328 68.8928 16.3503 69.1387 17.0053C71.5918 23.483 79.5689 24.0358 85.4288 23.9216C86.1305 23.9096 86.1305 24.9972 85.4288 25.0152Z" fill="#645D78"/>
<path d="M124.87 24.162C127.15 23.1224 128.901 21.2596 130.262 19.1866C131.546 17.2336 132.704 14.5477 131.444 12.3063C131.096 11.6934 132.038 11.1406 132.386 11.7535C133.777 14.2292 132.811 17.1435 131.42 19.3969C129.963 21.7524 127.965 23.9396 125.416 25.1054C124.786 25.3938 124.229 24.4564 124.87 24.162Z" fill="#645D78"/>
<path d="M127.131 24.9311C130.952 25.9346 135.271 24.4263 137.604 21.2176C138.012 20.6527 138.959 21.1995 138.545 21.7704C135.918 25.3818 131.168 27.1184 126.838 25.9827C126.16 25.8084 126.448 24.7508 127.131 24.9311Z" fill="#645D78"/>
<path d="M140.861 39.5268C143.254 40.1397 145.779 40.0496 148.124 39.2504C150.031 38.6015 152.826 37.2194 152.82 34.8579C152.82 34.1548 153.906 34.1548 153.912 34.8579C153.918 37.5619 151.237 39.2084 149.018 40.0857C146.343 41.1432 143.356 41.2935 140.579 40.5784C139.889 40.4041 140.177 39.3526 140.861 39.5268Z" fill="#645D78"/>
<path d="M125.146 64.1695C116.812 64.1695 110.056 57.4007 110.056 49.051C110.056 40.7013 116.812 33.9325 125.146 33.9325C133.481 33.9325 140.237 40.7013 140.237 49.051C140.237 57.4007 133.481 64.1695 125.146 64.1695Z" stroke="#CC5645" stroke-width="1.8692" stroke-miterlimit="10"/>
<path d="M83.3536 64.1695C75.0194 64.1695 68.2631 57.4007 68.2631 49.051C68.2631 40.7013 75.0194 33.9325 83.3536 33.9325C91.6879 33.9325 98.4441 40.7013 98.4441 49.051C98.4441 57.4007 91.6879 64.1695 83.3536 64.1695Z" stroke="#CC5645" stroke-width="1.8692" stroke-miterlimit="10"/>
<path d="M110.056 52.1155C110.056 52.1155 103.452 46.7856 97.9283 52.1155" stroke="#CC5645" stroke-width="1.8692" stroke-miterlimit="10"/>
<path d="M101.479 117.078C101.479 117.078 118.393 109.723 119.382 110.078C120.372 110.432 130.754 120.527 130.754 120.527L112.473 130.286L101.479 117.078Z" fill="#F9ECDB"/>
<path d="M101.479 117.078L91.8525 110.667L82.1001 122.42L90.0952 129.475L101.479 117.078Z" fill="#F9ECDB"/>
<path d="M69.7145 233.513C89.7352 246.439 117.499 244.336 136.368 229.776C147.944 220.847 167.335 208.384 169.29 193.8C173.602 223.809 170.945 250.657 170.945 250.657C113.457 262.422 52.069 249.629 52.069 249.629C52.069 249.629 48.1464 218.984 49.9518 189.167C56.0755 206.299 54.5521 223.725 69.7145 233.513Z" fill="#3CB1F4"/>
<path d="M107.675 288.195C107.399 280.407 104.1 272.842 98.6899 267.254C97.1545 265.667 95.4511 264.255 93.6098 263.035C93.028 262.651 93.5738 261.701 94.1616 262.092C100.885 266.551 105.791 273.545 107.789 281.369C108.358 283.598 108.682 285.893 108.766 288.195C108.79 288.898 107.699 288.898 107.675 288.195Z" fill="#645D78"/>
<path d="M97.0106 270.132C95.961 268.774 94.5575 267.71 92.9981 267.013C92.7282 266.893 92.6682 266.503 92.8001 266.268C92.9621 265.992 93.274 265.95 93.5439 266.07C95.2892 266.845 96.7887 268.071 97.9523 269.579C98.1322 269.813 97.9882 270.192 97.7543 270.324C97.4724 270.492 97.1905 270.366 97.0106 270.132Z" fill="#645D78"/>
<path d="M158.95 281.825C151.363 278.569 145.287 272.277 142.198 264.616C141.934 263.967 142.99 263.678 143.248 264.327C146.229 271.73 152.184 277.745 159.496 280.882C160.143 281.158 159.586 282.102 158.95 281.825Z" fill="#645D78"/>
<path d="M73.0133 261.755C72.1976 267.17 69.1327 272.085 64.6943 275.264C64.1245 275.672 63.5787 274.729 64.1425 274.32C68.359 271.298 71.19 266.593 71.9637 261.461C72.0656 260.77 73.1153 261.064 73.0133 261.755Z" fill="#645D78"/>
<path d="M163.88 251.979V265.151C163.88 265.151 122.567 271.346 102.409 255.302C102.409 255.302 136.212 256.708 163.88 251.979Z" fill="#F9ECDB"/>
<path d="M91.7205 254.689C91.7205 254.689 74.9386 263.125 57.8269 261.906L57.1251 250.459C57.1191 250.453 70.4642 253.259 91.7205 254.689Z" fill="#F9ECDB"/>
<path d="M140.231 122.222C140.231 122.222 123.791 140.447 118.501 152.555C113.211 164.663 131.726 242.323 171.755 264.472L174.544 259.148C174.544 259.148 130.106 175.641 135.738 160.276C141.37 144.912 150.967 128.796 150.967 128.796C150.967 128.796 144.369 120.377 140.231 122.222Z" fill="#889033"/>
<path d="M102.633 234.571L141.977 173.519L213.497 219.781L174.153 280.833L102.633 234.571Z" fill="#CC5645"/>
<path d="M103.458 235.112L142.81 174.055L130.232 165.925L90.8868 226.976L92.9501 228.316L131.228 168.917L140.087 174.644L101.809 234.042L103.458 235.112Z" fill="#991F1F"/>
<path d="M151.213 247.292L174.244 211.551C176.092 208.685 175.27 204.857 172.409 203.006L160.845 195.525C157.984 193.674 154.164 194.497 152.316 197.364L129.285 233.105C127.438 235.971 128.259 239.799 131.12 241.65L142.684 249.131C145.545 250.981 149.366 250.158 151.213 247.292Z" stroke="#991F1F" stroke-width="1.6403" stroke-miterlimit="10"/>
<path d="M182.347 211.575L154.128 255.368" stroke="#991F1F" stroke-width="1.6403" stroke-miterlimit="10" stroke-linecap="round"/>
<path d="M200.509 211.383L213.5 219.783L174.154 280.84L141.61 259.791C141.61 259.785 188.555 280.774 200.509 211.383Z" fill="#991F1F"/>
<path d="M131.231 168.911L140.089 174.64L102.648 232.739L93.7901 227.009L131.231 168.911Z" fill="#F5DC9E"/>
<path d="M102.643 232.744L140.087 174.644L131.228 168.917L93.7839 227.018C93.7839 227.018 123.851 181.698 128.841 180.184C133.837 178.664 102.643 232.744 102.643 232.744Z" fill="#D2A184"/>
<path d="M95.7511 228.286L113.031 201.474L96.2909 228.634L95.7511 228.286Z" fill="#A56E61"/>
<path d="M100.117 231.11L106.505 220.132L100.657 231.458L100.117 231.11Z" fill="#A56E61"/>
<path d="M137.076 172.697L126.16 190.76L137.436 172.931L137.076 172.697Z" fill="#A56E61"/>
<path d="M146.966 233.634C141.574 234.108 136.176 233.111 130.79 232.582C129.153 232.42 127.455 232.312 125.908 232.876C124.361 233.441 123.011 234.859 123.041 236.512C123.077 238.657 125.338 240.123 127.455 240.436C129.573 240.748 131.762 240.328 133.867 240.712C134.515 241.493 133.771 242.665 132.937 243.248C131.096 244.54 128.781 244.924 126.676 245.718C124.57 246.511 122.429 248.025 122.117 250.26C121.799 252.496 124.588 254.809 126.34 253.385C126.226 256.426 129.837 258.925 132.632 257.741C133.567 259.412 135.498 260.47 137.406 260.355C138.173 260.307 138.995 260.103 139.667 260.476C140.237 260.788 140.531 261.443 141.034 261.852C142.15 262.765 143.799 262.254 145.125 261.683C154.314 257.741 163.19 253.085 171.653 247.767C172.967 246.943 174.406 245.886 174.538 244.342C174.634 243.254 174.034 242.238 173.423 241.331C170.844 237.503 167.581 233.928 163.82 231.236C160.707 229.007 158.296 229.806 155.087 231.416C152.562 232.684 149.773 233.387 146.966 233.634Z" fill="#E7B892"/>
<path d="M129.039 233.513V237.575C129.039 237.575 124.774 238.339 124.247 235.869C123.713 233.405 129.039 233.513 129.039 233.513Z" fill="#DC9471"/>
<path d="M126.334 253.385L134.101 249.101L126.394 254.214L126.334 253.385Z" fill="#DC9471"/>
<path d="M132.632 257.741L140.555 253.782L132.991 258.3L132.632 257.741Z" fill="#DC9471"/>
<path d="M139.661 260.476L146.085 256.762L140.177 260.902L139.661 260.476Z" fill="#DC9471"/>
<path d="M147.404 135.147C147.404 135.147 199.141 168.689 210.315 181.728C221.489 194.768 202.032 229.325 163.88 257.507C163.88 257.507 158.182 244.979 152.754 228.027L177.555 196.54L160.384 185.43L148.322 154.171L147.404 135.147Z" fill="#7CCDFA"/>
<path d="M154.026 231.909L162.105 253.391L157.444 255.879L152.844 232.372L154.026 231.909Z" fill="#DC9471"/>
<path d="M149.677 178.502L177.555 196.534L194.265 185.208L180.428 190.766L178.149 189.173L135.319 162.326C135.319 162.326 135.199 166.43 135.877 169.572L149.677 178.502Z" fill="#4290D8"/>
</g>
<defs>
<clipPath id="clip0_679_2606">
<rect width="213" height="289" fill="white" transform="matrix(-1 0 0 1 213.5 0)"/>
</clipPath>
</defs>
</svg>
