<svg width="210" height="292" viewBox="0 0 210 292" fill="none" xmlns="http://www.w3.org/2000/svg">
<path d="M147.168 292H3.45752C11.6679 270.709 22.787 252.045 35.8882 236.968C38.5391 233.927 41.2786 231.036 44.1148 228.296C44.574 226.055 45.1864 223.825 45.7021 221.644C46.3064 219.108 46.8623 216.602 47.4263 214.151C47.5714 213.544 48.2804 212.907 49.0781 212.78C58.8758 211.188 68.2545 211.837 77.7057 212.612C87.4873 213.423 97.3334 214.223 107.212 215.064C112.9 215.551 118.605 216.068 124.317 216.614C125.228 216.704 125.985 217.167 126.05 217.948C126.074 218.459 125.663 219.006 125.067 219.21C124.922 220.905 124.736 222.612 124.527 224.342C124.406 225.352 124.301 226.373 124.325 227.407C124.366 228.513 124.648 229.594 124.777 230.706C125.051 233.001 126.863 234.84 127.959 236.968C136.065 252.748 142.656 274.273 147.168 292Z" fill="#38312F"/>
<path d="M60.5027 221.482C56.9092 228.291 50.8904 234.11 45.7258 240.295C36.6453 251.192 30.3042 263.149 25.5666 275.395C23.4556 280.873 21.6508 286.421 20.0554 291.999H16.7358C16.8084 291.728 16.897 291.457 16.9695 291.186C20.6033 278.723 25.2846 266.383 32.2702 254.685C35.7751 248.824 39.8682 243.164 44.6461 237.809C49.5046 232.361 55.1286 227.172 58.4965 221.093C58.996 220.21 60.9862 220.569 60.5027 221.482Z" fill="#4B4543"/>
<path d="M128.931 147.406C126.463 136.894 119.865 127.831 113.179 119.403C109.939 115.323 106.36 111.497 101.985 108.526C97.9249 105.769 93.2264 103.931 88.4096 102.846C77.2782 100.351 65.6658 101.579 54.4713 102.941C54.2033 102.838 53.9116 102.814 53.6436 102.917C44.7274 106.284 32.4134 109.825 25.2553 116.155C17.7423 122.793 16.8278 132.362 17.2299 142.209C17.6871 153.276 22.8429 163.384 28.6136 172.716C33.5959 180.772 38.7596 188.725 43.8917 196.695C43.9075 199.04 43.8602 201.384 43.7498 203.729C43.5922 207.017 43.3084 210.304 42.8827 213.568C42.4806 216.673 41.8578 219.731 41.369 222.821C40.5413 228.088 40.7462 233.665 45.1294 237.484C48.7322 240.621 53.6751 241.817 58.3579 242.435C64.704 243.266 71.1685 243.512 77.5698 243.615C84.4442 243.726 91.3186 243.504 98.1693 242.95C103.562 242.514 109.151 242.118 114.22 240.137C119.305 238.149 122.915 234.521 124.311 229.332C125.083 226.457 125.336 223.431 125.619 220.476C125.935 217.22 126.148 213.956 126.25 210.692C126.439 204.711 126.337 198.675 125.746 192.71C126.755 188.393 127.646 184.052 128.418 179.695C130.318 169.08 131.422 158.029 128.931 147.406Z" fill="#F0C379"/>
<path d="M54.5423 168.834C54.29 165.198 53.754 161.594 53.3834 157.965C53.0129 154.29 52.8789 150.614 52.8001 146.93C52.6424 140.054 52.5241 132.917 50.096 126.397C47.9281 120.575 43.8681 115.339 37.7111 113.588C36.6705 113.287 36.2369 114.927 37.2854 115.228C42.6619 116.749 46.4539 121.375 48.6139 126.35C51.4047 132.766 51.0026 139.888 50.9947 146.724C50.9947 150.305 51.1288 153.87 51.6727 157.411C52.2088 160.888 52.9893 164.327 53.5332 167.804C54.0929 171.377 54.1324 175.013 53.3834 178.562C52.666 181.976 50.8528 184.883 49.7334 188.139C48.472 191.823 48.4011 195.847 48.5588 199.705C48.7322 203.816 49.3077 207.912 50.3325 211.896C50.6085 212.974 52.2324 212.538 51.9881 211.461C51.1524 207.722 50.5612 203.935 50.3483 200.101C50.1433 196.441 50.1118 192.647 51.1682 189.106C51.6806 187.379 52.5005 185.771 53.1863 184.107C53.8328 182.539 54.29 180.93 54.5502 179.243C55.0941 175.789 54.7867 172.32 54.5423 168.834Z" fill="#FFDFA2"/>
<path d="M64.2547 166.125C63.8447 162.513 63.1195 158.948 62.6543 155.351C62.1734 151.636 62.0473 147.897 61.9448 144.158C61.8423 140.514 61.8108 136.799 60.9988 133.226C60.313 130.224 59.1383 127.316 57.672 124.615C54.2348 118.301 49.4259 112.899 44.412 107.821C43.6868 107.084 42.5515 108.225 43.2768 108.962C47.6679 113.437 52.2245 117.945 55.5119 123.34C57.1675 126.057 58.4682 128.996 59.2329 132.085C60.108 135.642 60.2656 139.302 60.3366 142.954C60.4076 146.558 60.6046 150.075 61.2511 153.624C61.9133 157.252 62.678 160.889 62.9697 164.58C63.2614 168.208 63.1431 171.805 62.2759 175.346C61.4324 178.792 60.1395 182.103 59.3433 185.565C58.4525 189.446 57.9006 193.423 57.7429 197.4C57.5853 201.353 57.5774 205.638 58.6574 209.465C58.886 210.273 60.1632 210.154 60.1395 209.274C60.0134 205.63 59.5167 202.034 59.5956 198.374C59.6823 194.683 60.0922 190.991 60.8884 187.379C61.6689 183.838 62.9618 180.455 63.8369 176.946C64.7198 173.389 64.6646 169.729 64.2547 166.125Z" fill="#FFDFA2"/>
<path d="M75.449 163.835C74.637 158.028 72.5953 152.515 71.4127 146.788C70.4667 142.209 70.2618 137.503 69.4183 132.909C68.5038 127.918 66.8562 123.062 63.3165 119.323C62.5203 118.484 61.2669 119.751 62.0552 120.591C68.2988 127.269 68.4013 137.297 69.8045 145.829C70.6954 151.263 72.138 156.587 73.0288 162.013C73.9512 167.606 73.8093 173.357 73.0052 178.957C72.5479 182.15 71.8936 185.31 71.1605 188.447C70.4431 191.513 69.3867 194.595 69.0162 197.724C68.9137 198.627 70.38 199.007 70.7348 198.183C71.87 195.537 72.4534 192.598 73.1313 189.81C73.8329 186.934 74.4478 184.043 74.9287 181.12C75.859 175.401 76.2531 169.594 75.449 163.835Z" fill="#FFDFA2"/>
<path d="M86.9906 158.868C85.745 151.493 83.5849 144.292 81.5432 137.107C80.3843 133.044 79.3831 128.94 78.4213 124.821C78.1533 123.672 76.348 124.14 76.6555 125.288C78.5238 132.354 80.9283 139.278 82.8203 146.344C84.7123 153.41 85.9421 160.658 86.1234 167.978C86.1707 169.958 86.1234 171.939 85.9657 173.911C85.7923 176.011 85.272 178.086 85.1695 180.177C85.1143 181.31 86.6595 181.358 87.0063 180.415C87.6133 178.759 87.7237 176.842 87.8735 175.092C88.0312 173.254 88.0942 171.408 88.0706 169.562C88.0154 165.958 87.5897 162.417 86.9906 158.868Z" fill="#FFDFA2"/>
<path d="M97.4598 163.423C96.8291 159.431 95.9856 155.47 95.0632 151.541C93.2027 143.595 91.2004 135.729 88.6698 127.974C88.2756 126.754 86.3521 127.261 86.7542 128.481C89.2689 136.062 91.6655 143.754 93.4944 151.541C94.401 155.406 95.2051 159.304 95.7018 163.249C96.2063 167.281 96.2378 171.258 96.3167 175.313C96.3403 176.668 98.3033 176.644 98.39 175.313C98.6265 171.368 98.0668 167.297 97.4598 163.423Z" fill="#FFDFA2"/>
<path d="M108.623 161.989C108.102 158.781 107.448 155.581 106.668 152.428C105.146 146.233 103.175 140.133 100.834 134.2C100.187 132.568 99.5094 130.944 98.7842 129.344C98.3979 128.489 98.0037 127.633 97.5859 126.793C97.1681 125.97 96.5453 125.043 96.7424 124.076C97.0025 122.841 95.0869 122.334 94.8504 123.577C94.5666 125.067 95.1736 126.279 95.8515 127.562C96.6478 129.051 97.4598 130.532 98.2087 132.045C99.6907 135.024 101.023 138.066 102.19 141.179C104.484 147.318 105.99 153.838 106.857 160.334C107.109 162.251 107.306 164.184 107.456 166.116C107.598 167.938 107.606 169.784 107.842 171.598C107.984 172.66 109.616 172.367 109.64 171.368C109.726 168.263 109.111 165.031 108.623 161.989Z" fill="#FFDFA2"/>
<path d="M113.534 143.777C112.304 140.3 110.806 136.933 109.269 133.582C106.194 126.857 102.434 120.48 97.8697 114.673C97.1838 113.794 95.9461 115.038 96.6399 115.909C101.11 121.51 105.051 127.554 108.134 134.026C109.687 137.297 110.893 140.727 111.965 144.189C112.493 145.892 112.966 147.611 113.392 149.338C113.818 151.065 114.086 152.848 114.63 154.543C114.929 155.478 116.537 155.406 116.427 154.313C116.064 150.756 114.716 147.136 113.534 143.777Z" fill="#FFDFA2"/>
<path d="M115.016 135.222C114.236 132.283 113.022 129.407 111.973 126.556C111.004 123.926 109.924 121.327 108.449 118.935C105.793 114.626 102.064 111.053 97.6965 108.518C96.7978 107.995 95.9937 109.405 96.9003 109.936C101.134 112.439 104.713 115.972 107.243 120.202C110.152 125.082 111.264 130.683 113.589 135.808C113.96 136.624 115.237 136.062 115.016 135.222Z" fill="#FFDFA2"/>
<path d="M120.392 58.6107C119.462 54.4598 118.484 50.3009 117.444 46.1738C116.829 43.726 116.151 41.294 115.481 38.8621C111.61 24.9121 109.663 6.32797 95.323 9.85309C93.5807 10.4314 96.0246 23.6367 95.5831 26.5202C94.85 31.3286 93.9513 36.1133 92.887 40.8583C90.7979 50.2296 88.0939 59.4504 84.7829 68.4573C83.0013 73.2974 81.1014 78.1534 77.9796 82.3043C77.4908 82.9539 77.8692 84.1817 78.5787 84.4986C85.4924 87.6039 93.1077 87.5484 100.408 86.0116C102.268 85.6235 104.105 85.1402 105.926 84.6095C107.29 84.2055 109.072 84.0946 110.333 83.2945C110.703 83.7777 111.421 84.0074 111.988 83.445C117.333 78.1692 118.587 70.3902 118.216 63.1736C118.153 62.017 118.066 60.8684 117.956 59.7197C119.312 66.366 119.974 73.3449 116.387 79.4287C115.977 80.1258 116.963 80.9101 117.53 80.308C123.001 74.454 122 65.7639 120.392 58.6107ZM115.087 71.927C114.582 74.7391 113.652 77.4404 112.075 79.7773C112.17 78.9614 112.201 78.1296 112.288 77.4246C112.54 75.2936 112.785 73.1627 113.013 71.0239C113.573 65.8828 114.204 60.7258 114.708 55.553C114.874 57.1294 115.039 58.7137 115.181 60.298C115.52 64.1558 115.765 68.1008 115.087 71.927Z" fill="#38312F"/>
<path d="M101.219 13.7267C101.188 13.2989 101.006 12.982 100.754 12.7602C94.6602 5.6466 88.6846 1.41645 82.0705 0.54507C54.5102 -3.08304 36.9303 11.5878 25.4285 38.2599C22.693 44.5893 20.4068 53.1051 20.1466 60.0761C20.0126 63.6488 20.3831 67.5779 22.0623 70.7861C22.1096 70.905 22.1727 71 22.2673 71.0792C22.2752 71.0872 22.283 71.0872 22.2909 71.0951C22.5984 71.3327 23.0556 71.3327 23.2212 70.9129C23.3158 70.7861 23.3631 70.6277 23.3394 70.4455C24.1199 66.5877 24.8294 62.714 25.8463 58.9116C26.7293 55.6004 27.7226 52.3288 28.6686 49.0334C28.2271 51.4653 27.7935 53.8893 27.4072 56.3292C26.8081 60.0603 26.0276 63.7913 25.5546 67.5462C25.2156 70.2395 25.87 73.3528 28.5345 74.2479C28.9524 74.945 29.7092 75.4757 30.6867 75.8639C34.8491 77.5274 39.1298 78.8979 43.4026 80.2446C52.0664 82.9775 60.8406 85.4491 69.7251 87.3423C70.7736 87.5641 71.83 87.7463 72.8785 87.9444C73.7929 88.1107 74.7468 88.388 75.5982 87.881C76.4575 87.374 76.7886 86.3997 77.1907 85.5441C77.6637 84.5302 78.113 83.5083 78.5939 82.4943C80.478 78.5176 82.3306 74.5331 84.0334 70.4693C87.4863 62.2466 90.5924 53.8735 93.6196 45.4845C96.568 37.3173 100.076 29.0233 101.046 20.3254C101.298 18.1311 101.361 15.9289 101.219 13.7267ZM23.5917 58.3096C23.0871 60.1949 22.6063 62.104 22.2909 64.0369C22.2042 62.9754 22.1727 61.906 22.2279 60.8049C22.3855 57.5412 23.1266 54.3488 24.1435 51.2514C25.3339 47.6233 26.95 44.1536 28.6686 40.7394C28.1246 42.5614 27.5964 44.3834 27.0604 46.1974C25.8542 50.2216 24.6717 54.2616 23.5917 58.3096ZM33.5484 40.3037C32.7127 48.8115 32.4289 57.4065 30.2531 65.7163C29.7722 67.562 29.1967 69.3682 28.574 71.1664C27.6437 69.5266 28.4321 66.7223 28.7001 65.1697C29.2362 62.1199 29.8038 59.0859 30.4108 56.0519C31.5933 50.1265 32.6654 44.1853 33.7691 38.252C33.6903 38.9412 33.6114 39.6225 33.5484 40.3037Z" fill="#38312F"/>
<path d="M96.9076 135.325C96.9076 135.325 101.094 119.418 101.393 115.18C101.882 108.138 83.9552 90.9002 83.9552 90.9002L47.2502 90.4407L77.1124 114.784L96.9076 135.325Z" fill="#CC4E0F"/>
<path d="M94.5739 131.054L57.9399 105.452L42.8118 53.573L76.2215 52.3848L80.6598 84.8001L94.5739 131.054Z" fill="#EEB990"/>
<path d="M96.9073 135.325C88.1253 108.47 47.2421 90.4407 47.2421 90.4407L42.8196 107.583C42.8196 107.583 64.0416 126.08 68.1015 127.823C72.9892 129.914 96.9073 135.325 96.9073 135.325Z" fill="#CC4E0F"/>
<path d="M87.4313 84.6648C70.0721 87.8097 55.5036 77.1789 49.4571 64.4172C19.7526 66.5005 25.468 20.4363 51.3412 34.1407C51.3412 34.1407 53.4224 26.1953 59.3744 19.3193C60.4307 18.0835 61.6211 16.8874 62.9376 15.7784C62.9455 15.7704 62.9613 15.7625 62.9692 15.7467C68.9211 10.7481 77.5928 7.50025 89.8988 10.7164C94.0612 11.8096 97.6402 13.7425 100.667 16.317C102.008 17.434 103.23 18.6856 104.357 20.056C120.376 39.5195 115.409 79.6029 87.4313 84.6648Z" fill="#EEB990"/>
<path d="M77.2939 45.5562C76.6632 42.9659 74.109 41.7697 71.815 41.8964C70.6325 41.9677 69.4894 42.443 68.5197 43.2035C68.0309 43.5838 67.5816 44.0511 67.1953 44.5581C67.0219 44.7799 66.8721 45.0255 66.7302 45.2711C66.6119 45.477 66.4858 45.6909 66.3991 45.9127C66.3518 46.0474 66.3124 46.19 66.2887 46.3326C66.3281 46.2217 66.3203 46.2454 66.273 46.4118C66.0916 47.0455 66.2178 47.7188 66.7696 48.0515C67.2426 48.3367 68.0073 48.2734 68.3226 47.6951C68.4724 47.4257 68.6458 47.1802 68.8035 46.9108C68.6931 47.1168 68.9139 46.7366 68.9139 46.7366C68.9769 46.6336 69.04 46.5385 69.111 46.4355C69.245 46.2375 69.3869 46.0553 69.5367 45.8731C69.5761 45.8256 69.5603 45.8335 69.5524 45.8414C69.5603 45.8335 69.5761 45.8177 69.6155 45.778C69.7101 45.683 69.8126 45.58 69.9151 45.4929C70.5379 44.9383 71.1449 44.6215 71.949 44.5502C71.9726 44.5502 72.0909 44.5423 72.1145 44.5423C72.2012 44.5423 72.288 44.5502 72.3747 44.5581C72.5796 44.574 72.7767 44.6056 72.9817 44.6532C73.0211 44.6611 73.1078 44.6928 73.1394 44.7007C73.2418 44.7324 73.3443 44.772 73.4468 44.8116C73.636 44.8908 73.8173 44.9859 73.9986 45.0889C74.0381 45.1126 74.0696 45.1285 74.109 45.1522C74.0302 45.1047 74.0223 45.1047 74.1011 45.1522C74.1879 45.2156 74.2667 45.2711 74.3534 45.3424C74.519 45.4691 74.6766 45.6038 74.8343 45.7384C75.1339 45.9919 75.5044 46.2771 75.733 46.5464C76.4188 47.3624 77.5619 46.6573 77.2939 45.5562Z" fill="#38312F"/>
<path d="M104.255 43.6392C103.806 41.4053 101.74 40.3438 99.8642 40.4309C98.8946 40.4785 97.9486 40.8745 97.1366 41.5162C96.7267 41.841 96.3483 42.2371 96.025 42.6648C95.8831 42.8549 95.7491 43.0609 95.6309 43.2748C95.5284 43.4491 95.4259 43.6313 95.3471 43.8214C95.2998 43.9402 95.2682 44.059 95.2446 44.1779C95.2761 44.0828 95.2761 44.1066 95.2288 44.2412C95.0633 44.7878 95.15 45.3661 95.5915 45.6592C95.9699 45.9127 96.6005 45.8652 96.8764 45.374C97.0026 45.1443 97.1524 44.9383 97.2864 44.7007C97.1918 44.875 97.381 44.5502 97.381 44.5502C97.4362 44.463 97.4913 44.3759 97.5465 44.2967C97.6648 44.1303 97.783 43.9719 97.9092 43.8135C97.9407 43.7738 97.9328 43.7818 97.9249 43.7897C97.9328 43.7818 97.9486 43.7659 97.9801 43.7342C98.0668 43.6471 98.1457 43.5679 98.2324 43.4887C98.7527 43.0213 99.2572 42.752 99.9194 42.7044C99.9352 42.7044 100.03 42.7044 100.053 42.6965C100.124 42.6965 100.195 42.7044 100.266 42.7123C100.432 42.7282 100.597 42.7599 100.755 42.7995C100.787 42.8074 100.858 42.8312 100.881 42.8391C100.968 42.8708 101.047 42.9025 101.126 42.9421C101.283 43.0134 101.425 43.0926 101.575 43.1797C101.606 43.1956 101.63 43.2193 101.662 43.2352C101.599 43.1956 101.591 43.1956 101.654 43.2352C101.725 43.2906 101.788 43.3382 101.851 43.4015C101.977 43.5124 102.111 43.6313 102.237 43.7501C102.474 43.9719 102.773 44.2175 102.955 44.4551C103.498 45.1839 104.444 44.5898 104.255 43.6392Z" fill="#38312F"/>
<path d="M92.1143 9.29064C84.1758 8.53809 76.1899 8.19746 68.3617 10.0511C61.787 11.6117 54.5186 14.7407 50.23 20.2146C47.597 23.5654 46.8796 27.5817 47.321 31.7643C47.3447 31.994 47.4078 32.1921 47.5024 32.3663C47.2264 33.2377 48.3222 34.2438 49.2761 33.7606C52.1141 32.3188 54.7078 30.0691 56.8993 27.7639C59.1461 25.3953 61.2588 22.8366 63.143 20.167C63.9786 18.9867 64.696 17.8143 66.1308 17.3232C66.9506 17.038 67.8651 17.1014 68.7165 17.0934C69.5994 17.0855 70.4824 17.0301 71.3574 16.9667C74.7867 16.7053 78.1923 16.1587 81.5191 15.3111C85.3346 14.3367 89.0556 13.0059 92.6504 11.3899C93.7777 10.875 93.0997 9.3857 92.1143 9.29064Z" fill="#38312F"/>
<path d="M68.0228 20.6742C70.0252 20.0721 72.2641 19.9612 74.2822 20.587C81.5822 22.8526 70.9081 27.8908 67.7548 28.4294C65.784 28.7621 59.0594 29.2771 60.4785 25.9024C61.4875 23.4943 65.4292 21.4584 68.0228 20.6742Z" fill="#38312F"/>
<path d="M105.627 21.2762C107.038 21.5772 108.323 22.3219 109.096 23.518C111.894 27.8353 103.396 27.5264 101.386 26.7501C100.132 26.2668 96.1827 24.1597 98.7369 22.2506C100.566 20.8881 103.798 20.8801 105.627 21.2762Z" fill="#38312F"/>
<path d="M81.8267 88.6899C81.4404 88.7375 80.4392 88.888 80.0766 88.9276C78.1215 89.1177 76.1192 88.9434 74.2193 88.4364C70.3564 87.4145 66.9508 85.2916 64.3729 82.218C63.7817 81.5209 64.4597 80.2455 65.3663 80.7921C68.3146 82.5665 71.5862 83.7864 74.9445 84.4756C76.5843 84.8163 78.2713 85.0697 79.9426 85.2123C80.2027 85.2282 80.4471 85.244 80.7152 85.244L81.8267 88.6899Z" fill="#DA893E"/>
<path d="M118.516 50.8715C117.058 54.4758 114.582 57.692 111.311 59.7833C109.679 60.8131 107.858 61.5815 105.934 61.8905C104.019 62.1915 102.001 62.0648 100.156 61.3835C98.3112 60.7022 96.6715 59.4902 95.418 57.9772C94.1646 56.4562 93.2659 54.6659 92.714 52.7885C91.6182 49.0099 91.9099 44.9065 93.2107 41.2071C94.543 37.5235 96.9316 34.1252 100.282 31.8913C101.945 30.7743 103.837 29.9584 105.863 29.6098C107.882 29.2454 110.018 29.4435 111.957 30.1881C113.897 30.9328 115.607 32.2319 116.853 33.8558C118.114 35.4639 118.981 37.3414 119.447 39.2822C120.393 43.1717 119.935 47.2513 118.516 50.8715ZM117.239 50.3883C118.437 46.9582 118.698 43.1717 117.673 39.7654C117.168 38.0701 116.364 36.4779 115.253 35.1629C114.141 33.8558 112.754 32.826 111.177 32.224C108 31.0357 104.318 31.7012 101.394 33.6182C98.4452 35.5352 96.1669 38.49 94.8031 41.825C93.4866 45.1758 93.0609 48.9386 93.936 52.4558C94.7558 55.9572 97.1208 59.1654 100.487 60.4883C103.845 61.8509 107.819 61.0666 110.783 58.9912C113.818 56.9395 116.009 53.7946 117.239 50.3883Z" fill="#FDF8EF"/>
<path d="M94.3772 48.1307C93.8254 45.9839 92.7533 43.9481 91.8546 41.928C90.877 39.7179 89.931 37.484 88.7879 35.3531C88.173 34.2045 86.3441 35.1154 86.7461 36.3275C87.9838 40.0665 89.797 43.5757 91.1372 47.2751C91.6732 48.7406 92.1462 50.3646 91.7521 51.9251C91.4367 53.1768 90.5301 54.1828 89.3949 54.7611C88.3701 55.2839 89.0244 56.8762 90.0571 56.8207C94.2905 56.5989 95.2207 51.4498 94.3772 48.1307Z" fill="#DA893E"/>
<path d="M83.1038 51.8062C81.9055 55.8225 79.5957 59.4744 76.4739 62.1915C74.913 63.5461 73.1314 64.6947 71.1211 65.3443C69.1266 65.986 66.9272 66.1523 64.8381 65.6374C62.7569 65.1146 60.8412 63.9343 59.3512 62.3737C57.8534 60.8131 56.7734 58.8961 56.0639 56.884C54.6449 52.8281 54.6606 48.392 55.6618 44.2569C56.7182 40.1377 58.8467 36.1848 62.1419 33.2855C63.7738 31.8279 65.7289 30.6951 67.8732 30.0535C70.0095 29.396 72.3824 29.3484 74.5504 29.998C76.7183 30.6555 78.6339 31.9943 80.0451 33.6657C81.4641 35.3372 82.4574 37.3017 83.0723 39.3376C84.2469 43.4331 84.2232 47.7741 83.1038 51.8062ZM81.6217 51.4022C82.0947 49.5011 82.3785 47.5523 82.3785 45.6036C82.3785 43.6549 82.0553 41.7062 81.4089 39.9C80.7703 38.0939 79.8086 36.4066 78.5157 35.0837C77.2307 33.7529 75.6383 32.7943 73.9118 32.3587C72.1775 31.9467 70.3643 32.0814 68.6615 32.6359C66.9508 33.1825 65.3741 34.1885 63.9788 35.4006C61.1959 37.8721 59.2172 41.2784 58.0899 44.9303C57.0256 48.6059 56.8522 52.5984 57.9322 56.274C58.4762 58.1039 59.3512 59.8309 60.5653 61.2726C61.7793 62.7143 63.3639 63.8392 65.177 64.4016C66.9902 64.9562 68.9689 64.9245 70.8215 64.37C72.6741 63.8234 74.4163 62.8332 75.8826 61.5261C78.8389 58.8723 80.6363 55.165 81.6217 51.4022Z" fill="#FDF8EF"/>
<path d="M80.676 36.1849C81.8664 35.567 83.112 35.1867 84.4206 34.9174C85.7214 34.6481 87.0615 34.5372 88.4096 34.5609C89.7577 34.5847 91.1215 34.7748 92.4301 35.1471C93.7466 35.4798 94.9922 36.0977 96.1117 36.8107L95.6387 37.69C94.4246 37.3493 93.2658 36.977 92.0517 36.8027C90.8534 36.6126 89.6394 36.47 88.4254 36.47C87.2113 36.4384 85.9815 36.5017 84.7596 36.6126C83.5377 36.7315 82.2921 36.9137 81.0938 37.1196L80.676 36.1849Z" fill="#FDF8EF"/>
<path d="M81.0464 62.6671C82.899 58.4449 88.4567 56.5992 91.5313 58.9677C95.3389 61.9067 90.9479 64.9723 88.1335 63.6653C85.3113 62.3582 94.724 61.4234 93.3365 65.7486C91.6495 71.0086 82.4733 69.955 81.0464 62.6671Z" fill="#D04D0E"/>
<path d="M93.9908 61.6373C93.4074 61.5977 92.9581 61.9779 92.4378 62.1681C91.9411 62.3503 91.4445 62.4691 90.9242 62.5166C89.7417 62.6196 88.5355 62.5879 87.3609 62.4612C84.8224 62.1839 82.4023 61.4472 80.0136 60.5679C78.7128 60.0847 77.7747 61.8195 79.0282 62.5404C81.5824 64.0059 84.5544 64.5049 87.4634 64.6634C88.8035 64.7347 90.1595 64.7664 91.4997 64.6238C92.6743 64.497 94.4165 64.3861 95.0314 63.2137C95.4256 62.4216 94.7634 61.6928 93.9908 61.6373Z" fill="#38312F"/>
<path d="M44.2858 47.4179C42.8432 46.2217 41.0694 45.4137 39.2247 45.1206C38.3102 44.978 37.3406 44.9067 36.4261 45.0414C35.9058 45.1127 35.3776 45.2077 34.881 45.3978C34.3843 45.588 33.9901 45.8969 33.525 46.1346C32.3346 46.7445 33.3122 48.4794 34.4868 48.1783C34.7942 48.0991 35.1569 48.1387 35.4722 48.107C35.8348 48.0674 36.1975 48.0278 36.5601 48.0041C37.246 47.9644 37.9239 47.9565 38.6019 48.0674C39.9815 48.2892 41.298 48.8358 42.3623 49.7468C42.3623 49.7468 42.3623 49.7468 42.3702 49.7468C40.1155 49.525 37.5298 50.0874 36.5443 52.3847C36.2763 53.0105 36.4261 53.7235 37.0016 54.1196C37.5219 54.4681 38.3733 54.4523 38.7753 53.9057C38.8857 53.7552 39.0197 53.6205 39.138 53.4779C39.1459 53.4779 39.138 53.4779 39.1459 53.47C39.1853 53.4304 39.2483 53.3828 39.3272 53.3115C39.3429 53.3036 39.3429 53.3036 39.3745 53.2799C39.5243 53.1769 39.6819 53.0818 39.8396 52.9947C39.8475 52.9947 39.8396 52.9947 39.8475 52.9947C39.95 52.9709 40.0446 52.9155 40.147 52.8838C40.2259 52.86 40.3047 52.8283 40.3914 52.8046C40.4151 52.7966 40.5412 52.765 40.6122 52.7491C40.6673 52.7412 40.7619 52.7253 40.7777 52.7253C40.896 52.7095 41.0221 52.7016 41.1403 52.6937C41.3611 52.6857 41.5739 52.6857 41.7947 52.6937C41.8183 52.6937 41.8104 52.6937 41.8262 52.6937C41.8341 52.6937 41.8341 52.6937 41.8499 52.6937C41.9681 52.7095 42.0942 52.7253 42.2125 52.7412C42.5751 52.7966 42.9378 52.8679 43.2846 52.963C43.3713 52.9868 43.4581 53.0184 43.5448 53.0422C43.5527 53.0422 43.5448 53.0422 43.5605 53.0501C43.7261 53.1214 43.8916 53.1927 44.0572 53.2719C44.2149 53.3512 44.3725 53.4304 44.5302 53.5175C44.5381 53.5175 44.5302 53.5175 44.5381 53.5254C44.546 53.5334 44.5381 53.5254 44.546 53.5334C44.609 53.5809 44.6721 53.6205 44.7352 53.668C44.7903 53.7076 44.8376 53.7631 44.8849 53.8106C45.1057 54.7058 45.1766 55.6326 45.0663 56.5515C44.9717 57.3595 45.3816 58.1675 46.2251 58.3497C46.974 58.5081 47.9043 57.9932 48.0146 57.1852C48.464 53.573 47.1238 49.7706 44.2858 47.4179Z" fill="#DA893E"/>
<path d="M54.542 64.9324C50.8763 57.9455 49.8041 49.5644 51.1128 41.8171C51.8459 37.4681 53.1546 33.23 55.1885 29.3167C56.0241 27.7166 53.6276 26.3223 52.7525 27.8829C52.7289 27.8988 52.7052 27.9146 52.6816 27.9304C46.2803 33.6023 45.216 42.3161 44.6327 50.3803C44.341 54.4045 44.3016 58.603 45.689 62.445C46.367 64.3224 47.313 66.0335 48.7241 67.4514C50.3166 69.0516 52.3032 70.129 54.0454 71.5311C55.2673 72.5134 56.371 73.7491 57.2382 75.1037C58.6887 78.819 59.4376 82.8511 58.0738 86.7327C57.7112 87.7625 59.2484 88.2932 59.7766 87.4298C64.5066 79.73 58.0344 71.5865 54.542 64.9324ZM49.1971 64.7343C46.501 61.6132 46.2566 57.1612 46.4064 53.2242C46.5641 49.2 47.1001 45.1204 48.2117 41.2467C48.393 40.613 48.598 39.9792 48.8187 39.3455C48.1408 43.132 47.9989 47.0216 48.4009 50.919C48.7951 54.7768 49.6701 58.5951 51.0891 62.1994C51.9248 64.3145 52.9575 66.3266 53.9981 68.3307C52.3189 67.2296 50.5373 66.287 49.1971 64.7343Z" fill="#38312F"/>
<path d="M71.0818 220.492C70.7822 221.601 70.3486 222.654 69.781 223.629C85.4218 227.162 125.69 233.966 141.323 237.507C157.374 232.263 174.284 226.987 190.335 221.743C192.203 218.527 192.968 214.677 192.448 210.985C191.927 207.31 190.098 203.777 187.418 201.218C171.02 198.525 133.629 192.773 117.224 190.088C100.842 194.627 84.4521 199.174 68.0703 203.721C68.4408 204.323 68.7877 204.965 69.103 205.622C71.2868 210.122 72.3589 215.778 71.0818 220.492Z" fill="#38312F"/>
<path d="M189.412 216.301C189.326 216.626 189.231 216.942 189.121 217.259C188.774 218.218 188.325 219.081 187.757 219.802C173.425 224.357 155.876 229.269 141.544 233.832C141.528 233.839 141.513 233.839 141.489 233.847L71.0818 220.491C71.4051 219.295 71.5706 218.044 71.6179 216.76C71.6258 216.443 71.6337 216.142 71.6258 215.818C71.6179 214.986 71.547 214.138 71.4366 213.298C71.3972 212.966 71.342 212.633 71.2789 212.3C71.137 211.405 70.9163 210.51 70.6561 209.631C70.5537 209.266 70.4354 208.902 70.3093 208.545V208.538C69.9545 207.524 69.5603 206.549 69.0952 205.606C72.9108 206.145 76.6476 206.708 80.3449 207.294C100.968 210.55 120.117 214.344 141.386 217.362C155.033 213.124 172.944 208.878 186.574 204.632C187.3 205.226 187.899 205.963 188.372 206.787C188.514 207.032 188.648 207.278 188.774 207.539C189.255 208.585 189.578 209.75 189.736 210.946C189.767 211.239 189.807 211.54 189.822 211.833C189.941 213.362 189.791 214.899 189.412 216.301Z" fill="#F8E1C5"/>
<path d="M189.412 216.301C189.326 216.626 189.231 216.942 189.121 217.259C188.774 218.218 188.324 219.081 187.757 219.802C173.425 224.357 155.876 229.269 141.544 233.832C141.536 232.699 141.071 231.55 140.377 230.631C139.376 229.3 137.957 228.373 136.53 227.502C119.478 217.006 99.9746 211.651 80.3369 207.318C100.96 210.573 120.109 214.368 141.378 217.386C155.025 213.148 172.936 208.902 186.566 204.656C187.292 205.25 187.891 205.987 188.364 206.811C188.506 207.056 188.64 207.302 188.766 207.563C189.247 208.609 189.57 209.773 189.728 210.969C189.759 211.263 189.799 211.564 189.814 211.857C189.941 213.362 189.791 214.899 189.412 216.301Z" fill="#EAC58E"/>
<path d="M141.497 221.323C141.505 221.323 141.505 221.323 141.513 221.323C141.56 221.323 141.615 221.323 141.678 221.307C145.565 220.246 149.443 219.176 153.314 218.059C160.149 216.095 166.968 214.107 173.795 212.094C178.801 210.621 183.799 209.1 188.773 207.555C188.647 207.294 188.513 207.048 188.371 206.803C186.377 207.421 184.374 208.039 182.38 208.649C175.584 210.732 168.757 212.76 161.923 214.717C155.08 216.665 148.206 218.503 141.339 220.341C141.26 220.365 141.205 220.396 141.15 220.444C140.835 220.697 141.063 221.291 141.497 221.323Z" fill="#F8E1C5"/>
<path d="M142.143 229.649C142.183 229.657 142.23 229.649 142.269 229.641C146.18 228.69 150.09 227.708 153.984 226.694C160.866 224.904 167.733 223.09 174.599 221.252C179.447 219.953 184.296 218.63 189.12 217.259C189.231 216.951 189.325 216.634 189.42 216.301C187.378 216.879 185.32 217.45 183.279 218.028C176.428 219.945 169.562 221.791 162.679 223.565C155.789 225.347 148.868 227.011 141.954 228.667C141.875 228.682 141.82 228.722 141.765 228.762C141.418 229.015 141.662 229.665 142.143 229.649Z" fill="#F8E1C5"/>
<path d="M141.355 225.189C141.394 225.189 141.426 225.181 141.465 225.173C145.517 224.254 149.561 223.296 153.606 222.298C160.772 220.507 167.898 218.535 174.977 216.436C178.509 215.398 182.025 214.32 185.525 213.204C186.952 212.744 188.395 212.3 189.83 211.849C189.814 211.556 189.782 211.255 189.743 210.962C187.835 211.603 185.935 212.237 184.012 212.839C176.964 215.041 169.861 217.085 162.711 218.963C155.561 220.832 148.379 222.591 141.15 224.151C141.103 224.167 141.063 224.175 141.032 224.199C140.551 224.405 140.811 225.213 141.355 225.189Z" fill="#F8E1C5"/>
<path d="M70.3013 208.561C70.4274 208.918 70.5457 209.282 70.6481 209.646C83.096 211.952 96.9943 214.526 99.2332 214.891C106.249 216.031 113.266 217.156 120.29 218.249C127.314 219.343 134.354 220.372 141.401 221.331C141.433 221.339 141.472 221.331 141.504 221.331C141.512 221.331 141.512 221.331 141.52 221.331C141.945 221.275 141.977 220.57 141.48 220.499C141.378 220.483 141.267 220.467 141.157 220.46C137.278 219.921 133.408 219.374 129.521 218.812C122.481 217.79 115.457 216.713 108.441 215.548C104.081 214.819 85.461 211.373 70.3013 208.561Z" fill="#EAC58E"/>
<path d="M71.6179 216.76C84.0106 219.121 97.7749 221.719 99.9823 222.139C106.975 223.462 113.959 224.753 120.96 226.029C127.952 227.304 134.961 228.516 141.977 229.649C142.04 229.657 142.095 229.657 142.142 229.641H142.174C142.529 229.522 142.545 228.896 142.079 228.817C141.977 228.801 141.867 228.778 141.756 228.77C137.893 228.136 134.031 227.486 130.168 226.829C123.167 225.641 116.159 224.373 109.182 223.034C104.894 222.218 86.6673 218.725 71.6337 215.826C71.6337 216.143 71.6337 216.451 71.6179 216.76Z" fill="#EAC58E"/>
<path d="M71.271 212.308C71.3419 212.633 71.3892 212.966 71.4287 213.307C83.1591 215.556 95.3074 217.877 97.428 218.305C104.673 219.755 111.949 221.006 119.249 222.139C122.883 222.71 126.518 223.232 130.168 223.731C133.849 224.223 137.515 224.769 141.204 225.189C141.252 225.189 141.299 225.197 141.338 225.189C141.362 225.189 141.386 225.173 141.417 225.173C141.843 225.031 141.882 224.294 141.346 224.23C141.244 224.215 141.133 224.207 141.031 224.191C137.002 223.731 132.982 223.312 128.961 222.749C121.638 221.719 114.354 220.539 107.093 219.176C102.844 218.384 85.9971 215.176 71.271 212.308Z" fill="#EAC58E"/>
<path d="M64.7276 208.601C88.11 212.023 111.484 215.445 134.867 218.867C149.033 213.734 176.681 202.398 190.855 197.265C190.516 196.869 190.153 196.346 189.799 195.76C188.592 193.763 187.441 190.951 187.473 189.185C187.497 187.735 187.859 186.285 188.514 184.994C188.892 184.25 189.365 183.56 189.917 182.942C169.097 179.687 148.284 174.894 127.456 171.638C110.854 176.122 80.9045 188.179 64.3019 192.654C61.0461 197.162 61.59 204.022 64.7276 208.601Z" fill="#3C6359"/>
<path d="M189.79 195.768C175.986 200.251 148.237 211.706 134.78 216.293C134.756 216.261 134.741 216.237 134.725 216.213C132.384 213.116 132.407 208.577 133.456 204.822C147.102 200.822 173.385 189.438 187.031 185.43C187.488 185.295 187.946 185.161 188.403 185.026C188.434 185.018 188.466 185.01 188.482 185.002C188.49 184.994 188.497 184.994 188.513 184.994C188.513 184.994 188.513 184.994 188.505 185.002C187.851 186.293 187.488 187.735 187.473 189.193C187.441 190.959 188.584 193.771 189.79 195.768Z" fill="#F8E1C5"/>
<path d="M187.031 185.43C187.488 185.295 187.945 185.161 188.403 185.026C186.18 185.755 137.933 204.949 134.788 216.285C134.764 216.253 134.749 216.229 134.733 216.206C132.391 213.108 132.415 208.569 133.464 204.814C147.102 200.822 173.377 189.438 187.031 185.43Z" fill="#EAC58E"/>
<path d="M133.282 206.541C138.651 205.036 156.664 196.14 162.025 194.619C167.362 193.098 172.683 191.546 178.004 189.985C181.016 189.098 184.004 188.108 187.015 187.212C187.496 187.07 187.764 187.807 187.283 187.941C184.603 188.702 181.891 189.375 179.211 190.151C176.538 190.92 173.858 191.704 171.185 192.48C165.864 194.033 147.898 203 142.584 204.585C139.573 205.488 136.569 206.399 133.558 207.31C133.069 207.46 132.785 206.684 133.282 206.541Z" fill="#EAC58E"/>
<path d="M133.337 210.217C138.651 208.688 156.617 199.76 161.923 198.192C167.228 196.623 172.573 195.182 177.839 193.486C180.811 192.528 183.783 191.561 186.747 190.603C187.268 190.437 187.567 191.26 187.039 191.403C184.366 192.14 181.694 192.868 179.029 193.613C176.365 194.358 173.724 195.158 171.075 195.974C165.793 197.606 147.851 206.589 142.561 208.197C139.573 209.108 136.593 210.043 133.605 210.969C133.125 211.128 132.841 210.359 133.337 210.217Z" fill="#EAC58E"/>
<path d="M134.599 213.718C135.308 213.623 135.994 213.338 136.672 213.124L138.627 212.498C139.952 212.078 141.276 211.659 142.6 211.247C145.257 210.423 160.567 202.224 163.215 201.392C168.537 199.713 173.866 198.041 179.156 196.267C182.12 195.269 185.084 194.239 188.056 193.265C188.474 193.13 188.718 193.795 188.3 193.93C182.979 195.617 177.626 197.202 172.313 198.921C167.007 200.64 149.057 209.773 143.767 211.548C142.269 212.047 140.779 212.546 139.274 213.037C138.533 213.275 137.799 213.52 137.058 213.758C136.302 214.003 135.505 214.201 134.804 214.574C134.283 214.835 133.937 213.813 134.599 213.718Z" fill="#EAC58E"/>
<path d="M132.146 201.226C130.041 200.671 127.708 200.632 125.548 200.386C123.403 200.141 121.259 199.887 119.107 199.641C114.779 199.135 110.475 198.525 106.155 197.938C97.5145 196.774 88.8822 195.594 80.2656 194.271C75.4095 193.526 70.5612 192.781 65.6972 192.092C64.9483 191.989 64.1915 192.298 63.9865 193.098C63.8131 193.764 64.2309 194.722 64.9877 194.817C65.5947 194.896 66.1938 194.968 66.8009 195.047C65.4449 197.36 64.3885 199.943 64.5068 202.668C64.5699 204.006 64.8852 205.321 65.4843 206.533C66.0992 207.777 67.1793 209.171 68.6456 209.29C69.5679 209.361 69.9542 208.3 69.631 207.595C69.3945 207.08 68.9609 206.731 68.5983 206.312C68.2829 205.947 68.0228 205.527 67.8099 205.1C67.3763 204.236 67.1635 203.246 67.1477 202.279C67.1004 199.832 68.1647 197.495 69.3393 195.411C69.3472 195.403 69.3472 195.388 69.3551 195.38C70.1671 195.483 70.9869 195.586 71.7989 195.689C70.8056 197.851 70.1592 200.172 69.9463 202.549C69.8281 203.808 69.7887 205.131 70.0488 206.375C70.309 207.642 71.1446 209.052 72.5794 209.037C73.7146 209.021 74.093 207.737 73.4465 206.937C72.9578 206.327 72.737 206.169 72.6503 205.353C72.5321 204.244 72.6267 203.087 72.7449 201.986C72.9578 199.919 73.5806 197.891 74.4793 196.021C88.756 197.796 103.056 199.428 117.27 201.654C117.956 201.757 118.634 201.867 119.32 201.97C118.185 204.173 117.475 206.517 117.176 208.989C116.915 211.16 116.695 214.352 118.839 215.691C119.777 216.277 120.983 215.081 120.384 214.138C119.927 213.417 119.667 212.768 119.612 211.904C119.541 210.898 119.612 209.86 119.746 208.854C120.045 206.652 120.731 204.474 121.74 202.501C121.764 202.454 121.779 202.406 121.795 202.359C122.654 202.493 123.514 202.628 124.373 202.763C124.389 202.763 124.412 202.771 124.428 202.771C123.837 204.648 123.451 206.573 123.309 208.537C123.222 209.678 123.222 210.827 123.301 211.975C123.34 212.57 123.403 213.164 123.482 213.75C123.577 214.487 123.616 215.176 124.184 215.714C124.744 216.245 125.895 216.253 126.241 215.437C126.541 214.732 126.454 214.209 126.32 213.489C126.226 212.989 126.147 212.482 126.084 211.975C125.958 210.874 125.918 209.765 125.942 208.656C125.989 206.787 126.265 204.941 126.73 203.135C127.156 203.206 127.582 203.27 127.999 203.333C129.261 203.531 130.538 203.832 131.815 203.848C133.321 203.872 133.612 201.614 132.146 201.226Z" fill="#567F70"/>
<path d="M181.135 174.466C181.166 176.011 181.072 177.556 180.835 179.077C180.693 180.035 180.504 180.978 180.26 181.897C179.519 182.119 178.801 182.348 178.06 182.57H178.052C174.954 183.521 171.848 184.479 168.75 185.43C150.373 191.07 131.989 196.718 113.621 202.359C98.5161 199.317 83.4193 195.095 68.3146 192.053C68.5905 191.324 68.827 190.619 69.0399 189.93C70.4195 185.375 70.4274 181.501 69.0162 177.675C68.6772 176.756 68.2594 175.845 67.7549 174.926C85.7134 168.802 107.227 162.6 125.186 156.476C142.364 158.362 160.488 160.247 177.666 162.124C178.762 163.843 179.59 165.76 180.165 167.78C180.165 167.78 180.165 167.78 180.165 167.788L181.111 173.532C181.111 173.54 181.111 173.54 181.111 173.54C181.111 173.848 181.135 174.157 181.135 174.466Z" fill="#7DAFC3"/>
<path d="M181.135 174.466C181.166 176.011 181.072 177.556 180.835 179.077C180.417 179.576 180 180.067 179.621 180.55C179.101 181.216 178.581 181.897 178.06 182.57H178.052C174.954 183.521 171.848 184.479 168.75 185.43C168.782 185.319 168.837 185.208 168.9 185.089C170.618 181.984 173.22 179.512 175.53 176.859C176.649 175.567 177.603 174.165 178.502 172.716C179.385 171.306 180.039 169.705 180.094 168.034C180.102 167.939 180.118 167.86 180.157 167.788L181.103 173.532C181.103 173.539 181.103 173.539 181.103 173.539C181.009 173.864 180.898 174.173 180.78 174.49C180.89 174.458 181.017 174.45 181.135 174.466Z" fill="#5A8AA1"/>
<path d="M169.506 175.14C172.715 176.566 166.936 180.661 156.609 184.289C146.282 187.909 135.308 189.692 132.1 188.266C128.891 186.84 134.67 182.744 144.997 179.116C155.324 175.496 166.298 173.714 169.506 175.14Z" fill="#5A8AA1"/>
<path d="M175.269 162.037C171.17 162.861 167.11 164.097 163.081 165.19C159.029 166.291 155.024 167.543 151.035 168.842C143.042 171.448 135.198 174.498 127.133 176.859C122.513 178.213 117.862 179.449 113.25 180.859C111.989 181.247 112.533 183.235 113.794 182.839C121.82 180.352 129.687 177.381 137.831 175.306C145.943 173.23 154.094 171.044 162.017 168.311C166.566 166.743 171.225 165.301 175.655 163.431C176.499 163.083 176.207 161.847 175.269 162.037Z" fill="#5A8AA1"/>
<path d="M100.251 166.893C99.88 167.147 99.5095 167.416 99.2651 167.82C98.7212 168.723 99.0365 170.014 99.7381 170.783C100.44 171.551 101.417 171.892 102.379 172.129C104.634 172.7 106.951 172.834 109.261 172.961C113.124 173.183 116.987 173.405 120.842 173.302C124.902 173.191 128.954 172.731 132.951 171.908C135.166 171.456 137.381 170.878 139.415 169.816C140.464 169.27 141.488 168.557 142.103 167.471C142.293 167.139 142.442 166.727 142.324 166.347C142.253 166.117 142.088 165.943 141.922 165.784C140.96 164.857 139.754 164.287 138.532 163.899C136.396 163.21 134.157 163.019 131.934 162.909C127.164 162.671 122.356 163.186 117.61 162.806C116.23 162.695 114.874 162.417 113.487 162.473C111.398 162.552 109.301 163.115 107.29 163.701C104.831 164.43 102.426 165.42 100.251 166.893Z" fill="#5A8AA1"/>
<path d="M112.674 198.065C98.1848 194.753 83.5533 192.947 69.04 189.921C70.4196 185.366 70.4196 181.501 69.0164 177.667C69.0164 177.667 69.04 177.674 69.0873 177.674C83.4193 179.528 97.7512 181.382 112.091 183.227C114.874 187.268 115.071 193.771 112.674 198.065Z" fill="#F8E1C5"/>
<path d="M112.674 198.065C112.942 183.616 70.9241 178.015 69.0793 177.674C83.4113 179.528 97.7433 181.382 112.083 183.227C114.874 187.268 115.071 193.771 112.674 198.065Z" fill="#EAC58E"/>
<path d="M113.408 194.437C110.57 194.065 107.74 193.51 104.917 193.027C102.087 192.536 99.265 192.053 96.4348 191.561C90.8219 190.595 85.2168 189.621 79.6039 188.646C76.419 188.092 73.242 187.41 70.0492 186.959C69.7024 186.911 69.5683 187.498 69.931 187.569C72.7453 188.147 75.5912 188.543 78.4135 189.011C81.2436 189.478 84.0658 189.985 86.896 190.476C92.5089 191.45 98.114 192.425 103.727 193.407C106.912 193.962 110.112 194.445 113.282 195.126C113.676 195.213 113.802 194.484 113.408 194.437Z" fill="#EAC58E"/>
<path d="M113.786 189.898C110.94 189.613 108.102 189.145 105.264 188.749C102.426 188.345 99.5882 187.949 96.7502 187.545C91.1214 186.745 85.4848 185.953 79.8561 185.145C76.6634 184.685 73.4706 184.107 70.2621 183.751C69.9073 183.711 69.7891 184.305 70.1517 184.369C72.9739 184.86 75.8277 185.169 78.6657 185.549C81.5037 185.929 84.3418 186.349 87.1798 186.761C92.8085 187.569 98.4372 188.369 104.074 189.177C107.267 189.636 110.483 190.017 113.66 190.603C114.07 190.666 114.18 189.937 113.786 189.898Z" fill="#EAC58E"/>
<path d="M113.274 186.468C110.467 185.977 107.661 185.565 104.854 185.105C102.048 184.646 99.249 184.162 96.4425 183.727C90.8296 182.84 85.2087 182.016 79.58 181.271C78.0112 181.065 76.4503 180.859 74.8815 180.645C73.2733 180.431 71.6809 180.162 70.0805 179.909C69.6706 179.845 69.6075 180.511 70.0254 180.55C71.4522 180.685 72.8713 180.804 74.2903 180.986C75.7093 181.168 77.1283 181.358 78.5394 181.564C81.3459 181.968 84.1602 182.38 86.9667 182.8C92.5403 183.632 98.1138 184.511 103.679 185.438C106.841 185.969 109.986 186.61 113.132 187.196C113.549 187.268 113.699 186.539 113.274 186.468Z" fill="#EAC58E"/>
<path d="M188.506 184.994C188.498 185.002 188.49 185.002 188.474 185.002C188.49 185.002 188.498 184.994 188.506 184.994Z" fill="#F8FDF7"/>
<path d="M121.141 128.069C118.193 124.488 112.872 123.379 108.489 124.86C104.105 126.342 100.7 130.081 98.926 134.366C97.1444 138.652 96.8527 143.445 97.3257 148.063C97.9564 154.234 100.164 160.611 105.051 164.397C109.939 168.184 117.933 168.231 121.654 163.296C124.618 168.469 133.731 168.089 138.154 163.906C143.743 158.622 147.448 149.655 147.085 142.201C146.865 137.606 145.154 132.988 141.875 129.772C136.545 124.552 126.912 123.332 121.141 128.069Z" fill="#CC4E0F"/>
<path d="M126.242 128.853C125.414 129.035 124.618 129.415 123.837 129.487C123.018 129.558 122.079 129.677 121.425 129.685C120.763 129.693 119.982 129.685 119.163 129.566C118.303 129.447 117.531 129.122 116.845 128.592C116.317 128.188 115.489 128.948 115.986 129.455C117.444 130.936 119.131 132.362 121.26 132.639C122.292 132.774 123.514 132.679 124.476 132.259C125.461 131.824 126.502 131.34 127.172 130.453C127.661 129.819 127.117 128.655 126.242 128.853Z" fill="#B03B00"/>
<path d="M147.039 113.794C143.467 116.242 138.659 115.252 134.425 116.123C128.907 117.264 124.24 121.549 122.214 126.777C126.621 128.663 132.242 130.699 137.153 128.702C142.923 126.358 146.613 119.838 147.039 113.794Z" fill="#9D9E48"/>
<path d="M145.123 116.82C142.443 118.642 139.471 120.139 136.467 121.335C135.001 121.922 133.511 122.429 131.989 122.856C131.225 123.07 130.452 123.26 129.664 123.427C128.836 123.601 127.961 123.696 127.172 123.997C126.337 124.314 126.747 125.455 127.543 125.431C128.379 125.407 129.238 125.114 130.034 124.876C130.791 124.654 131.54 124.425 132.281 124.179C133.873 123.648 135.442 123.031 136.972 122.326C139.991 120.931 142.75 119.196 145.407 117.2C145.667 117.018 145.383 116.646 145.123 116.82Z" fill="#264138"/>
<path d="M124.492 115.854C123.956 115.632 123.239 115.893 123.034 116.464C121.402 121.153 120.448 126.009 120.132 130.968C120.046 132.362 122.174 132.663 122.292 131.253C122.679 126.524 123.641 121.819 125.107 117.311C125.288 116.741 125.075 116.091 124.492 115.854Z" fill="#264138"/>
<path d="M142.624 146.431C142.238 148.103 141.568 149.624 140.724 151.105C139.928 152.515 138.919 153.743 137.981 155.05C137.027 156.381 135.915 157.545 134.804 158.734C134.291 159.288 133.787 159.835 133.235 160.342C132.927 160.627 132.604 160.896 132.32 161.213C132.037 161.522 131.816 161.942 131.579 162.298C131.374 162.607 131.595 163.067 131.989 163.019C132.399 162.964 132.888 162.924 133.282 162.79C133.708 162.647 134.102 162.378 134.473 162.14C135.222 161.665 135.978 161.158 136.648 160.579C137.981 159.431 139.124 157.997 140.101 156.539C142.056 153.64 142.813 149.917 143.357 146.519C143.436 146.051 142.734 145.972 142.624 146.431Z" fill="#B03B00"/>
<path d="M109.45 128.132C107.984 128.568 106.644 129.162 105.477 130.176C104.287 131.214 103.38 132.497 102.663 133.891C100.983 137.171 100.542 141.155 101.141 144.768C101.252 145.417 102.324 145.702 102.529 144.95C103.427 141.726 103.585 138.311 104.799 135.174C105.28 133.923 105.926 132.75 106.73 131.681C107.542 130.588 108.536 129.518 109.766 128.908C110.27 128.679 109.971 127.982 109.45 128.132Z" fill="#FDF8EF"/>
<path d="M103.278 151.2C103.215 150.883 103.128 150.574 103.065 150.266C103.057 150.242 103.057 150.226 103.057 150.202C103.057 150.194 103.057 150.178 103.049 150.163C103.025 150.028 103.01 149.893 102.962 149.766C102.915 149.632 102.86 149.489 102.82 149.355C102.3 147.746 101.622 148.214 101.425 149.846C101.393 150.083 101.409 150.289 101.449 150.527C101.504 150.915 101.559 151.311 101.685 151.676C101.756 151.882 101.851 152.08 101.977 152.262C102.048 152.365 102.119 152.468 102.213 152.555C102.284 152.618 102.371 152.666 102.458 152.697C102.442 152.69 102.607 152.729 102.607 152.729C102.805 152.84 102.994 152.745 103.112 152.594C103.467 152.206 103.372 151.668 103.278 151.2Z" fill="#FDF8EF"/>
<path d="M141.087 137.321C141.071 137.108 141.016 136.878 140.945 136.672C140.834 136.379 140.724 136.086 140.614 135.793C140.535 135.571 140.33 135.373 140.109 135.286C139.904 135.198 139.62 135.19 139.423 135.286C139.202 135.389 139.005 135.555 138.919 135.793C138.84 136.014 138.824 136.26 138.919 136.482C139.037 136.767 139.147 137.052 139.266 137.337C139.321 137.472 139.4 137.599 139.471 137.725C139.51 137.789 139.541 137.844 139.589 137.9C139.683 138.019 139.778 138.129 139.888 138.24C139.967 138.327 140.054 138.407 140.172 138.454C140.306 138.51 140.456 138.518 140.598 138.478C140.716 138.446 140.819 138.391 140.905 138.304C141 138.209 141.102 138.058 141.102 137.916C141.094 137.718 141.094 137.519 141.087 137.321Z" fill="#B03B00"/>
<path d="M138.722 140.245C138.698 140.078 138.611 139.936 138.532 139.785C138.414 139.555 138.296 139.326 138.17 139.088C138.099 138.953 138.02 138.85 137.878 138.795C137.76 138.747 137.594 138.739 137.476 138.795C137.35 138.85 137.232 138.953 137.184 139.088C137.137 139.215 137.121 139.373 137.184 139.492C137.311 139.722 137.437 139.959 137.563 140.189C137.594 140.245 137.626 140.3 137.657 140.363C137.673 140.395 137.689 140.419 137.705 140.45C137.728 140.498 137.752 140.553 137.791 140.593C137.823 140.633 137.87 140.672 137.91 140.704C138.02 140.799 138.13 140.894 138.264 140.95C138.367 140.989 138.469 140.981 138.564 140.926C138.666 140.87 138.714 140.783 138.737 140.672C138.761 140.538 138.737 140.387 138.722 140.245Z" fill="#B03B00"/>
<path d="M141.686 141.385C141.662 141.227 141.599 141.06 141.552 140.902C141.52 140.799 141.489 140.696 141.457 140.601C141.418 140.49 141.355 140.403 141.268 140.324C141.197 140.237 141.11 140.173 141 140.134C140.898 140.086 140.795 140.07 140.685 140.078C140.574 140.07 140.472 140.086 140.369 140.134C140.172 140.229 139.983 140.379 139.912 140.593C139.841 140.799 139.833 141.013 139.912 141.227C139.952 141.322 139.983 141.425 140.023 141.52C140.038 141.567 140.054 141.615 140.078 141.655C140.117 141.766 140.18 141.868 140.243 141.971C140.267 142.011 140.298 142.059 140.322 142.098C140.377 142.193 140.456 142.265 140.535 142.328C140.566 142.352 140.598 142.383 140.63 142.407C140.701 142.463 140.787 142.502 140.866 142.534C140.984 142.589 141.166 142.589 141.284 142.534L141.41 142.463C141.489 142.399 141.544 142.328 141.583 142.233L141.615 142.177C141.647 142.114 141.662 142.043 141.678 141.971C141.686 141.932 141.694 141.884 141.71 141.845C141.741 141.702 141.71 141.544 141.686 141.385Z" fill="#B03B00"/>
<path d="M109.395 157.062C109.379 156.944 109.364 156.825 109.34 156.706C109.309 156.547 109.261 156.389 109.214 156.238C109.151 156.009 109.088 155.771 109.025 155.541C108.985 155.407 108.836 155.272 108.709 155.225C108.583 155.169 108.402 155.169 108.276 155.225C108.142 155.288 108.016 155.391 107.96 155.541L107.921 155.684C107.905 155.787 107.921 155.882 107.96 155.977L108.142 156.658C108.173 156.769 108.197 156.888 108.236 156.991C108.276 157.102 108.323 157.213 108.37 157.324C108.465 157.569 108.741 157.704 108.993 157.633C109.253 157.569 109.435 157.324 109.395 157.062Z" fill="#B03B00"/>
<path d="M111.477 157.086C111.469 157.039 111.469 156.983 111.461 156.936C111.453 156.888 111.437 156.841 111.429 156.801C111.406 156.706 111.382 156.611 111.358 156.516C111.343 156.397 111.295 156.286 111.224 156.191C111.185 156.151 111.138 156.104 111.098 156.064C111.004 155.993 110.901 155.945 110.783 155.93C110.696 155.914 110.609 155.922 110.531 155.953C110.444 155.969 110.365 156.009 110.286 156.064C110.207 156.12 110.152 156.183 110.113 156.27C110.065 156.341 110.034 156.421 110.026 156.516C110.01 156.635 110.026 156.745 110.065 156.856C110.089 156.951 110.113 157.047 110.144 157.142C110.16 157.189 110.168 157.237 110.184 157.276C110.199 157.324 110.223 157.371 110.239 157.419C110.27 157.506 110.318 157.577 110.389 157.633C110.444 157.696 110.515 157.744 110.594 157.775C110.649 157.791 110.696 157.807 110.751 157.815C110.838 157.831 110.917 157.823 110.996 157.791C111.051 157.783 111.106 157.759 111.153 157.728C111.232 157.688 111.295 157.633 111.35 157.561C111.374 157.514 111.406 157.466 111.429 157.419C111.477 157.308 111.484 157.197 111.477 157.086Z" fill="#B03B00"/>
<path d="M110.53 159.985C110.507 159.938 110.483 159.898 110.467 159.851C110.436 159.772 110.381 159.7 110.31 159.645C110.239 159.597 110.168 159.566 110.081 159.55H109.963C109.876 159.558 109.797 159.589 109.734 159.645C109.679 159.684 109.64 159.732 109.616 159.787C109.584 159.835 109.561 159.898 109.553 159.962C109.545 160.049 109.553 160.128 109.584 160.207C109.616 160.286 109.671 160.358 109.742 160.413C109.782 160.445 109.813 160.477 109.852 160.508C109.884 160.524 109.923 160.548 109.955 160.564C110.01 160.588 110.065 160.595 110.12 160.595C110.16 160.603 110.199 160.595 110.231 160.58C110.294 160.572 110.341 160.548 110.389 160.508C110.42 160.477 110.444 160.453 110.475 160.421C110.491 160.389 110.515 160.35 110.53 160.318C110.554 160.263 110.562 160.207 110.562 160.152C110.562 160.096 110.554 160.041 110.53 159.985Z" fill="#B03B00"/>
<path d="M129.805 147.826C129.813 147.723 129.798 147.628 129.758 147.533C129.719 147.43 129.664 147.35 129.585 147.279C129.522 147.2 129.435 147.144 129.34 147.105C129.159 147.041 128.946 147.018 128.765 147.105C128.584 147.192 128.418 147.327 128.347 147.525C128.292 147.667 128.245 147.81 128.189 147.952C128.15 148.071 128.118 148.206 128.095 148.333C128.079 148.404 128.055 148.483 128.04 148.554C128.024 148.642 128.032 148.737 128.063 148.816C128.079 148.911 128.118 148.99 128.174 149.061C128.221 149.109 128.26 149.149 128.308 149.196C128.379 149.252 128.457 149.291 128.544 149.307C128.599 149.331 128.655 149.339 128.718 149.331C128.804 149.339 128.891 149.323 128.978 149.283C129.033 149.252 129.088 149.22 129.135 149.188C129.23 149.109 129.309 149.014 129.356 148.903C129.396 148.84 129.427 148.768 129.467 148.705C129.506 148.642 129.545 148.578 129.577 148.507C129.64 148.372 129.695 148.23 129.75 148.095C129.798 148.016 129.813 147.921 129.805 147.826Z" fill="#B03B00"/>
<path d="M127.835 146.091C127.819 145.996 127.787 145.909 127.732 145.829C127.693 145.766 127.638 145.726 127.567 145.695C127.511 145.655 127.448 145.631 127.377 145.623C127.283 145.608 127.196 145.623 127.109 145.655C127.015 145.695 126.944 145.75 126.881 145.829C126.849 145.869 126.818 145.909 126.786 145.948C126.763 145.988 126.747 146.027 126.723 146.059C126.699 146.122 126.684 146.186 126.692 146.249C126.684 146.297 126.692 146.336 126.707 146.376C126.715 146.439 126.747 146.503 126.794 146.558L126.889 146.653C126.928 146.677 126.967 146.693 126.999 146.717C127.062 146.74 127.125 146.756 127.188 146.748C127.251 146.756 127.314 146.74 127.377 146.717C127.425 146.693 127.464 146.677 127.511 146.653C127.606 146.614 127.677 146.558 127.74 146.479C127.795 146.4 127.835 146.321 127.843 146.225C127.835 146.178 127.835 146.13 127.835 146.091Z" fill="#B03B00"/>
<path d="M126.605 148.634C126.573 148.554 126.534 148.491 126.471 148.444C126.424 148.38 126.36 148.341 126.282 148.309C126.234 148.293 126.187 148.285 126.14 148.269C126.037 148.253 125.943 148.269 125.848 148.309C125.801 148.333 125.761 148.364 125.714 148.388C125.627 148.451 125.572 148.531 125.533 148.634C125.47 148.855 125.399 149.085 125.359 149.307C125.344 149.378 125.351 149.45 125.375 149.513C125.391 149.584 125.414 149.648 125.462 149.711C125.493 149.743 125.533 149.782 125.564 149.814C125.619 149.861 125.682 149.893 125.753 149.901C125.801 149.917 125.84 149.925 125.887 149.917C125.958 149.925 126.029 149.909 126.092 149.885C126.132 149.862 126.179 149.838 126.219 149.814C126.297 149.751 126.353 149.679 126.392 149.584C126.416 149.545 126.439 149.505 126.455 149.457L126.502 149.331L126.605 149.077C126.636 149.006 126.652 148.935 126.644 148.855C126.652 148.776 126.636 148.705 126.605 148.634Z" fill="#B03B00"/>
<path d="M208.876 211.46C208.75 209.987 208.624 208.513 208.498 207.032C208.245 204.133 207.875 201.249 207.694 198.35C207.607 196.987 207.631 195.601 207.386 194.262C207.142 192.947 206.574 191.696 205.936 190.531C204.887 188.606 198.068 175.449 193.149 171.646C189.026 168.454 185.163 167.654 180.118 167.67C180.512 171.646 179.826 176.558 177.319 180.677C176.649 181.065 176.01 181.477 175.435 181.905C173.306 183.457 171.47 185.351 169.664 187.26C166.117 191.015 162.136 195.126 156.696 195.657C156.192 195.704 155.924 196.076 155.86 196.473C155.797 196.583 155.75 196.71 155.734 196.861C155.419 199.681 158.383 201.194 160.78 201.21C163.72 201.226 166.732 200.465 169.152 198.778C170.326 197.962 171.517 197.257 172.755 196.663C174.363 196.338 176.034 196.275 177.658 196.322C178.099 196.33 178.533 196.37 178.975 196.401C181.001 199.031 183.074 201.677 184.556 204.664C184.643 204.838 184.714 205.012 184.792 205.186C184.824 205.717 184.856 206.248 184.903 206.779C185.045 208.434 185.218 210.082 185.329 211.738C185.439 213.338 185.51 214.946 185.533 216.554V216.562C185.139 217.576 184.721 218.59 184.28 219.588C183.957 220.325 183.626 221.061 183.255 221.774C182.948 222.368 182.632 223.208 182.12 223.668C181.552 224.175 180.622 224.135 179.897 224.214C179.227 224.285 178.557 224.341 177.918 224.563C176.807 224.943 175.924 225.624 175.474 226.733C175.332 227.09 175.648 227.494 175.971 227.581C177.603 228.04 179.219 228.595 180.851 229.07C182.23 229.466 183.531 229.53 184.816 228.809C186.133 228.064 187.323 227.034 188.545 226.139C188.576 226.115 188.608 226.092 188.632 226.076C189.349 226.836 190.516 226.931 191.604 226.907C193.275 226.868 194.97 226.638 196.586 226.187C197.327 225.981 198.123 225.775 198.722 225.268C198.935 225.093 199.085 224.88 199.203 224.658C199.747 224.586 200.323 224.333 200.819 224.198C201.545 224 202.278 223.842 203.003 223.652C204.099 223.359 205.195 222.812 205.778 221.798C206.148 221.148 206.275 220.38 206.298 219.588C207.812 218.717 208.939 217.528 209.105 215.54C209.223 214.177 208.986 212.791 208.876 211.46Z" fill="#EEB990"/>
<path d="M180.693 196.425C180.37 195.332 180.307 194.215 180.26 193.074C180.236 192.488 180.236 191.902 180.189 191.316C180.141 190.666 180.047 190.048 180.055 189.391C180.063 188.852 179.306 188.884 179.243 189.391C179.164 190.08 178.975 190.714 178.841 191.387C178.722 192.005 178.675 192.631 178.675 193.265C178.675 193.819 178.746 194.374 178.88 194.912C178.738 194.786 178.588 194.675 178.454 194.54C178.178 194.263 177.91 193.97 177.666 193.653C177.658 193.645 177.65 193.637 177.642 193.621C177.619 193.581 177.587 193.55 177.564 193.51C177.508 193.431 177.453 193.344 177.398 193.257C177.288 193.082 177.177 192.9 177.083 192.71C176.823 192.211 175.995 192.536 176.168 193.082C176.444 193.962 176.862 194.801 177.437 195.514C177.705 195.847 177.989 196.148 178.32 196.409C178.525 196.568 178.73 196.726 178.943 196.877C179.109 196.988 179.298 197.051 179.495 197.059C179.621 197.067 179.739 197.027 179.866 197.004C179.881 197.004 179.897 196.988 179.913 196.98C180.047 197.067 180.197 197.099 180.37 197.027C180.622 196.94 180.772 196.671 180.693 196.425Z" fill="#DA893E"/>
<path d="M162.648 194.912C162.506 194.698 162.278 194.524 162.01 194.595C161.749 194.667 161.655 194.936 161.663 195.182C161.663 195.205 161.663 195.293 161.663 195.182C161.655 195.451 161.639 195.34 161.655 195.277C161.639 195.332 161.639 195.411 161.608 195.459C161.584 195.491 161.56 195.538 161.552 195.546C161.513 195.617 161.466 195.689 161.418 195.76C161.41 195.768 161.403 195.776 161.395 195.792C161.379 195.807 161.355 195.831 161.355 195.831C161.324 195.863 161.284 195.91 161.237 195.95C161.229 195.958 161.221 195.958 161.205 195.966C161.174 195.982 161.142 196.005 161.111 196.021C161.032 196.069 160.945 196.108 160.866 196.148C160.496 196.346 160.267 196.457 159.865 196.592C159.463 196.726 159.053 196.813 158.635 196.885C158.431 196.916 158.304 197.154 158.328 197.344C158.36 197.542 158.525 197.717 158.738 197.709C159.503 197.685 160.259 197.574 161.008 197.447C161.765 197.313 162.569 196.829 162.782 196.045C162.885 195.681 162.853 195.229 162.648 194.912Z" fill="#DA893E"/>
<path d="M194.663 204.355C194.702 203.816 193.811 203.69 193.717 204.228C193.102 207.801 192.692 211.342 192.629 214.97C192.597 216.578 192.991 218.574 192.282 220.064C191.951 219.984 191.62 220.04 191.273 220.048C191.099 220.048 190.926 220.048 190.753 220.032C190.682 220.024 190.611 220.016 190.54 220.008C190.516 220 190.414 219.984 190.39 219.984C190.067 219.929 189.744 219.85 189.436 219.747C189.144 219.652 188.908 219.525 188.608 219.343C188.38 219.2 188.056 219.279 187.907 219.493C187.757 219.691 187.733 220.04 187.954 220.214C188.569 220.713 189.247 221.133 189.996 221.394C190.327 221.505 190.666 221.592 191.013 221.648C191.076 221.656 191.155 221.672 191.233 221.68C190.611 222.472 189.933 223.224 189.46 224.112C189.152 224.674 189.862 225.157 190.319 224.769C191.021 224.175 191.541 223.375 192.156 222.694C192.645 222.139 193.181 221.608 193.583 220.982C194.529 219.533 194.284 217.608 194.308 215.96C194.324 212.094 194.379 208.205 194.663 204.355Z" fill="#DA893E"/>
<path d="M183.531 226.892C183.523 226.773 183.492 226.67 183.429 226.567C183.382 226.496 183.326 226.433 183.271 226.369C183.248 226.338 183.216 226.306 183.192 226.274C183.114 226.195 183.003 226.124 182.901 226.06C182.751 225.965 182.593 225.894 182.436 225.807C182.325 225.736 182.207 225.704 182.081 225.696C181.955 225.672 181.836 225.672 181.71 225.712C181.584 225.744 181.474 225.799 181.379 225.886C181.269 225.958 181.182 226.053 181.119 226.171C181.088 226.251 181.056 226.33 181.024 226.401C180.985 226.567 180.985 226.726 181.024 226.892C181.056 226.971 181.088 227.051 181.119 227.122C181.206 227.273 181.332 227.399 181.482 227.486C181.71 227.597 181.939 227.708 182.175 227.795C182.215 227.811 182.254 227.827 182.294 227.835C182.341 227.843 182.38 227.851 182.428 227.851C182.475 227.859 182.514 227.867 182.562 227.867C182.585 227.867 182.609 227.867 182.625 227.867C182.633 227.867 182.648 227.867 182.656 227.867C182.727 227.859 182.806 227.851 182.877 227.835C183.027 227.803 183.177 227.7 183.287 227.597C183.342 227.542 183.397 227.478 183.429 227.415C183.508 227.28 183.516 227.154 183.531 227.011C183.547 226.979 183.539 226.964 183.531 226.892Z" fill="#DA893E"/>
<path d="M202.499 202.834C202.483 202.668 202.381 202.533 202.215 202.509C202.073 202.493 201.876 202.588 201.86 202.747C201.805 203.159 201.679 203.539 201.592 203.943C201.514 204.355 201.458 204.775 201.395 205.187C201.356 205.456 201.364 205.488 201.293 205.741C201.285 205.765 201.198 206.003 201.253 205.884C201.206 205.987 201.151 206.09 201.119 206.201C201.033 206.51 200.906 206.937 201.041 207.238C201.096 207.365 201.277 207.429 201.411 207.397C201.569 207.349 201.687 207.231 201.821 207.135C201.987 207.025 202.16 206.914 202.294 206.763C202.625 206.391 202.798 205.955 202.822 205.456C202.869 204.577 202.562 203.705 202.499 202.834Z" fill="#DA893E"/>
<path d="M200.323 217.156C200.315 215.936 200.355 214.717 200.457 213.505C200.568 212.261 200.568 211.001 200.694 209.758C200.733 209.362 200.15 209.298 200.032 209.655C199.677 210.756 199.291 211.809 199.141 212.966C198.991 214.13 198.889 215.311 198.881 216.483C198.865 217.616 198.936 218.733 199.054 219.858C199.164 220.911 199.149 221.838 198.81 222.852C198.668 223.272 199.267 223.668 199.567 223.319C200.938 221.735 200.339 219.073 200.323 217.156Z" fill="#DA893E"/>
<path d="M206.914 206.541C207.008 206.027 206.33 205.71 206.047 206.185C205.503 207.12 205.093 208.062 204.777 209.1C204.462 210.13 204.478 211.207 204.47 212.285C204.47 213.441 204.588 214.59 204.604 215.746C204.62 216.855 204.683 218.012 205.03 219.065C205.148 219.446 205.794 219.533 205.873 219.065C206.212 216.935 205.55 214.796 205.534 212.657C205.526 211.556 205.897 210.637 206.157 209.583C206.409 208.569 206.717 207.579 206.914 206.541Z" fill="#DA893E"/>
<path d="M203.823 197.455C203.469 197.447 203.13 197.574 202.783 197.629C202.475 197.677 202.16 197.748 201.861 197.82C201.711 197.859 201.553 197.883 201.411 197.93C201.277 197.978 201.151 198.026 201.033 198.097C201.017 198.105 200.962 198.144 200.946 198.16C200.678 198.279 200.41 198.303 200.15 198.263C199.905 198.232 199.677 198.485 199.653 198.707C199.622 198.976 199.779 199.174 200.024 199.269C200.347 199.388 200.662 199.491 201.001 199.57C201.222 199.618 201.411 199.689 201.64 199.681C201.868 199.665 202.073 199.618 202.278 199.546C202.704 199.404 203.09 199.19 203.445 198.913C203.508 198.857 203.579 198.81 203.642 198.754C203.674 198.731 203.697 198.707 203.729 198.683C203.737 198.675 203.745 198.675 203.768 198.659C203.973 198.533 204.107 198.382 204.249 198.184C204.47 197.867 204.155 197.471 203.823 197.455Z" fill="#DA893E"/>
<path d="M164.272 212.047C163.231 210.748 162.332 209.353 161.512 207.904C161.134 207.23 160.771 206.557 160.432 205.86C160.125 205.226 159.912 204.402 159.337 203.959C158.69 203.46 157.957 203.634 157.295 204.038C157.003 203.626 156.711 203.206 156.404 202.802C155.923 202.184 155.411 201.582 154.882 201.012C154.417 200.505 153.865 200.077 153.18 199.927C152.549 199.792 151.91 199.895 151.288 200.006C151.177 200.03 151.067 200.03 150.957 200.046C150.373 199.42 149.758 198.77 149.001 198.406C148 197.923 146.826 198.049 145.753 198.057C144.5 198.065 143.247 198.065 141.993 198.073C140.724 198.073 139.376 197.946 138.115 198.097C137.381 198.184 136.893 198.659 136.766 199.325C135.615 199.206 134.472 199.095 133.321 199.008C132.73 198.96 132.415 199.578 132.502 200.077C132.919 202.446 134.504 205.123 137.066 205.48C138.036 205.614 139.029 205.614 140.014 205.614C140.022 205.622 140.022 205.63 140.038 205.646C141.615 206.993 143.207 208.355 144.61 209.884C145.17 210.494 145.667 211.12 146.124 211.793C146.1 211.801 146.085 211.801 146.061 211.809C144.185 212.435 142.608 213.845 141.079 215.049C139.289 216.443 137.586 217.933 135.954 219.509C133.865 221.529 131.839 223.628 129.908 225.799C129.364 225.846 128.82 225.902 128.284 225.973C126.55 226.211 124.736 226.726 123.404 227.914C122.064 229.118 121.323 231.035 120.401 232.556C119.226 234.497 117.988 236.382 116.869 238.355C116.703 238.648 116.711 238.933 116.822 239.17C116.814 239.178 116.814 239.186 116.806 239.194C116.396 240.05 116.207 241.008 116.081 241.943C115.954 242.87 115.868 243.813 116.073 244.731C116.309 245.793 116.538 246.728 116.49 247.821C116.475 248.074 116.672 248.265 116.892 248.344C120.708 249.69 125.004 249.31 128.883 248.399C132.967 247.441 136.885 245.817 140.818 244.375C144.839 242.902 148.867 241.436 152.896 239.994C154.961 239.258 157.042 238.529 159.084 237.713C160.692 237.063 162.23 236.239 162.655 234.41C162.782 233.863 162.813 233.293 162.782 232.714C163.318 232.136 163.838 231.542 164.303 230.908C165.249 229.617 165.73 228.342 165.911 226.749C166.108 224.991 166.045 223.208 166.1 221.434C166.156 219.596 166.274 217.735 166.203 215.897C166.14 214.265 165.241 213.259 164.272 212.047Z" fill="#EEB990"/>
<path d="M148.394 211.643C147.646 211.714 147.646 212.736 148.394 212.807C149.443 212.902 150.081 213.853 150.168 214.867C150.271 216.055 149.727 217.196 149.159 218.194C148 220.246 146.7 222.4 145.06 224.104C144.303 224.888 143.341 225.514 142.379 226.005C141.426 226.488 140.629 227.233 139.88 227.993C138.304 229.609 137.239 231.605 135.939 233.435C135.718 233.744 136.23 234.132 136.467 233.839C137.902 232.104 139.565 230.473 141.307 229.015C141.197 229.213 141.094 229.411 140.984 229.601C140.322 230.789 139.66 231.962 138.942 233.11C138.706 233.483 139.289 233.95 139.573 233.594C140.022 233.015 140.487 232.445 140.96 231.875C141.402 231.352 141.867 230.853 142.285 230.314C142.711 229.76 143.057 229.197 143.318 228.54C143.365 228.413 143.42 228.278 143.467 228.136C143.609 228.342 143.751 228.54 143.885 228.754C144.279 229.371 144.689 229.958 144.997 230.623C145.115 230.884 145.462 230.964 145.706 230.869C145.958 230.766 146.132 230.473 146.045 230.195C145.809 229.459 145.572 228.69 145.202 228.001C145.028 227.676 144.847 227.351 144.634 227.05C144.532 226.9 144.429 226.757 144.327 226.615C144.634 226.369 144.942 226.131 145.241 225.878C146.195 225.054 146.968 224.048 147.709 223.034C148.528 221.909 149.301 220.753 150.003 219.549C150.665 218.424 151.359 217.212 151.579 215.905C151.91 213.988 150.625 211.445 148.394 211.643Z" fill="#DA893E"/>
<path d="M141.607 224.524C141.544 224.468 141.473 224.413 141.402 224.357C141.52 224.452 141.386 224.349 141.37 224.334C141.26 224.246 141.15 224.159 141.031 224.08C140.866 223.969 140.7 223.858 140.535 223.747C140.361 223.636 140.18 223.526 140.014 223.407C139.936 223.359 139.865 223.304 139.794 223.248C139.786 223.24 139.778 223.24 139.77 223.232C139.715 223.177 139.549 223.066 139.534 223.05C139.455 222.995 139.376 222.939 139.297 222.884C139.258 222.86 139.226 222.828 139.187 222.805C139.179 222.797 139.179 222.797 139.171 222.797C139.163 222.789 139.171 222.797 139.155 222.789C138.997 222.662 138.848 222.535 138.698 222.401C138.406 222.131 138.146 221.846 137.941 221.498C137.744 221.165 137.153 221.371 137.295 221.759C137.61 222.63 137.965 223.494 138.588 224.199C138.729 224.357 138.903 224.5 139.068 224.635C139.281 224.801 139.494 224.967 139.731 225.094C140.18 225.34 140.685 225.498 141.197 225.482C141.426 225.474 141.631 225.34 141.717 225.126C141.812 224.944 141.78 224.674 141.607 224.524Z" fill="#DA893E"/>
<path d="M138.052 225.308C138.036 225.276 138.02 225.245 137.996 225.213C137.965 225.157 137.941 225.118 137.886 225.062C137.847 225.023 137.791 224.991 137.744 224.951C137.681 224.904 137.618 224.856 137.547 224.817C137.413 224.73 137.287 224.65 137.153 224.563C137.09 224.524 137.019 224.5 136.948 224.5C136.877 224.484 136.806 224.484 136.735 224.508C136.664 224.524 136.601 224.555 136.546 224.611C136.483 224.65 136.435 224.706 136.396 224.777C136.333 224.904 136.301 225.054 136.341 225.197C136.388 225.34 136.475 225.458 136.601 225.538C136.735 225.617 136.869 225.704 136.995 225.783C137.058 225.823 137.129 225.862 137.192 225.894C137.24 225.918 137.311 225.95 137.358 225.965C137.413 225.981 137.476 225.981 137.531 225.981C137.563 225.981 137.602 225.981 137.634 225.989C137.791 225.997 137.957 225.894 138.028 225.759C138.13 225.617 138.13 225.451 138.052 225.308Z" fill="#DA893E"/>
<path d="M157.571 220.238C157.208 218.582 156.893 216.919 156.664 215.247C156.278 212.38 156.238 209.155 153.976 207.048C152.825 205.979 151.524 205.044 150.302 204.062C149.096 203.095 147.914 202.058 146.613 201.21C145.391 200.41 144.051 200.077 142.616 199.911C141.11 199.745 139.557 199.776 138.115 199.238C137.642 199.063 137.326 199.84 137.783 200.061C140.298 201.297 143.207 200.941 145.667 202.319C146.991 203.056 148.142 204.094 149.325 205.044C150.515 205.995 151.769 206.914 152.904 207.943C153.369 208.363 153.897 208.839 154.204 209.385C154.614 210.106 154.638 210.938 154.67 211.754C154.725 213.267 154.953 214.796 155.229 216.285C155.521 217.838 155.876 219.382 156.301 220.911C156.703 222.337 156.995 223.977 157.776 225.244C158.028 225.648 158.8 225.537 158.745 224.991C158.596 223.375 157.918 221.806 157.571 220.238Z" fill="#DA893E"/>
<path d="M157.847 233.15C156.105 233.729 154.339 234.204 152.628 234.869C150.878 235.551 149.128 236.177 147.449 237.016C146.818 237.333 147.362 238.204 147.977 237.951C149.711 237.222 151.611 236.992 153.432 236.58C155.301 236.153 157.019 235.416 158.32 233.974C158.62 233.634 158.328 232.992 157.847 233.15Z" fill="#DA893E"/>
<path d="M161.962 222.226C161.962 222.218 161.962 222.202 161.954 222.194C162.088 221.078 162.12 219.929 162.167 218.836C162.238 217.148 162.404 215.374 162.301 213.687C162.206 212.15 161.536 210.716 160.748 209.409C159.865 207.951 158.966 206.438 157.855 205.147C157.634 204.894 157.137 205.163 157.264 205.488C158.407 208.371 160.338 211.065 160.906 214.162C161.008 214.732 161.016 215.318 161 215.905C160.724 214.637 160.385 213.386 159.975 212.166C159.613 211.096 159.345 209.987 158.793 208.997C158.225 207.975 157.54 207.032 156.822 206.114C155.332 204.212 153.811 202.303 152.045 200.648C151.509 200.149 150.752 200.909 151.249 201.448C152.857 203.206 154.158 205.163 155.45 207.159C156.065 208.11 156.743 209.029 157.366 209.979C158.013 210.977 158.698 211.833 159.029 212.997C159.652 215.16 159.644 217.418 159.865 219.644C159.968 220.681 160.094 221.711 160.346 222.725C160.425 223.042 160.504 223.383 160.598 223.715C160.614 223.842 160.614 223.977 160.63 224.104C160.646 224.23 160.709 224.31 160.787 224.373C160.961 224.904 161.174 225.411 161.473 225.83C161.757 226.219 162.435 226.132 162.435 225.577C162.411 224.468 162.08 223.327 161.962 222.226Z" fill="#DA893E"/>
<path d="M148.852 216.016C148.828 215.905 148.686 215.873 148.608 215.952C148.489 216.079 148.332 216.158 148.213 216.285C148.087 216.42 148.016 216.578 147.93 216.737C147.764 217.038 147.583 217.355 147.346 217.608C146.897 218.107 146.337 218.646 145.722 218.947C145.454 219.081 145.273 218.986 145.021 218.852C144.682 218.67 144.358 218.448 144.043 218.234C143.42 217.806 142.868 217.244 142.388 216.657C141.97 216.15 141.181 216.8 141.489 217.347C141.954 218.163 142.561 218.899 143.286 219.501C144.106 220.175 145.131 220.856 146.195 220.341C147.007 219.953 147.709 219.192 148.174 218.44C148.403 218.067 148.608 217.687 148.773 217.283C148.86 217.077 148.954 216.871 148.962 216.649C148.994 216.428 148.907 216.23 148.852 216.016Z" fill="#DA893E"/>
<path d="M132.368 235.527C132.171 235.226 131.903 235.044 131.579 234.901C131.438 234.838 131.303 234.774 131.162 234.711C131.162 234.711 131.035 234.663 131.004 234.648C130.949 234.624 130.901 234.6 130.846 234.584C130.586 234.465 130.334 234.339 130.089 234.196C129.624 233.927 129.199 233.594 128.757 233.293C128.331 233 127.788 232.778 127.472 232.358C127.236 232.041 126.715 232.303 126.92 232.675C127.196 233.158 127.33 233.721 127.661 234.18C128.04 234.711 128.505 235.115 129.049 235.479C129.538 235.804 130.082 236.105 130.641 236.303C130.917 236.398 131.225 236.485 131.516 236.517C131.642 236.533 131.769 236.533 131.895 236.525C131.918 236.525 131.95 236.533 131.974 236.533C132.029 236.557 132.084 236.58 132.139 236.604C132.439 236.731 132.73 236.517 132.675 236.192C132.628 235.955 132.494 235.725 132.368 235.527Z" fill="#DA893E"/>
<path d="M48.338 169.888C48.8031 166.568 49.0081 162.766 49.0159 159.249C49.0317 155.613 48.8346 151.969 48.4168 148.356C47.865 143.651 47.0924 138.787 45.8862 134.153C44.7589 129.827 43.3162 125.383 40.5412 121.819C37.719 118.198 33.6432 115.782 29.1575 114.919C29.0708 114.903 29.055 114.808 29.0866 114.745C27.7227 115.196 26.4299 115.846 25.2631 116.741C22.157 119.125 20.265 122.944 18.2784 126.239C16.1341 129.796 14.1001 133.424 12.4998 137.258C9.29123 144.95 8.32157 153.252 6.31129 161.285C5.79886 163.344 5.23126 165.412 4.55328 167.424C3.89895 169.349 3.05542 171.195 2.4011 173.12C1.27376 176.463 1.16339 180.17 3.38653 183.093C3.6388 183.426 3.93049 183.743 4.24582 184.028C2.18036 185.66 0.832289 188.123 0.863823 190.872C0.90324 194.239 2.88987 197.487 5.86193 198.96C5.81463 200.323 5.91712 201.717 5.89346 203.064C5.86981 204.656 5.76733 206.24 5.76733 207.825C5.77521 211.001 5.90135 214.194 6.58721 217.299C7.73819 222.472 11.1044 227.368 15.6768 230.037C16.0789 230.275 16.4652 230.251 16.7647 230.093C17.017 230.093 17.2693 230.037 17.5137 229.879C17.7581 229.72 17.9709 229.491 18.1207 229.221C18.1365 229.213 18.1601 229.213 18.1759 229.205C18.5228 229.118 18.8696 229.031 19.2165 228.944C19.8629 228.77 20.5015 228.588 21.1401 228.382C22.5433 227.914 24.1752 227.423 25.2237 226.314C25.3971 226.132 25.4917 225.918 25.539 225.704C26.4062 225.466 27.2655 225.213 28.1248 224.928C31.9404 223.668 35.8269 222.044 39.1853 219.818C40.7777 218.757 42.2756 217.442 43.127 215.683C44.0178 213.837 44.2622 211.817 44.4435 209.797C44.8377 205.306 45.2004 200.806 45.5709 196.314C45.7285 194.477 45.8704 192.631 46.036 190.793C45.1925 183.774 47.3762 176.803 48.338 169.888Z" fill="#F0C379"/>
<path d="M74.6364 224.373C74.1398 222.686 73.5012 221.062 72.7286 219.485C74.2659 214.962 72.3581 209.979 68.9998 206.739C67.1788 204.981 65.0187 203.547 62.4487 203.238C59.256 202.858 55.9607 204.03 52.8941 202.628C50.0955 201.345 47.8409 199.348 44.5771 199.467C41.4553 199.586 38.7986 201.107 36.1262 202.565C33.1305 204.197 30.0639 205.298 26.6031 205.203C23.3315 205.115 20.2333 204.608 17.0484 205.694C13.9897 206.739 12.145 209.124 11.4355 212.245C10.6787 215.612 10.521 219.43 11.0728 222.828C11.6405 226.266 13.0673 229.205 15.5427 231.653C17.9629 234.045 20.8088 235.835 23.6468 237.681C26.808 239.741 29.9377 241.888 33.2172 243.757C36.1971 245.452 39.1376 246.553 42.5117 245.373C43.2054 245.128 44.1357 244.367 44.8846 244.597C45.468 244.779 45.9489 245.595 46.3115 246.054C47.2338 247.227 48.2508 248.304 49.4727 249.16C51.7983 250.784 54.6284 251.703 57.4507 251.853C63.5366 252.17 69.1417 248.708 72.3975 243.654C76.1027 237.919 76.5363 230.813 74.6364 224.373Z" fill="#F0C379"/>
<path d="M60.6046 244.035C57.8612 245.667 54.6211 245.508 51.6096 244.827C48.4247 244.106 45.2398 242.847 42.2598 241.524C39.5006 240.288 36.5916 239.385 33.8088 238.189C31.0969 237.024 28.4402 235.693 26.0121 234.006C23.3869 232.184 21.3687 229.918 19.5555 227.296C18.6726 226.029 17.8606 224.682 16.8515 223.51C15.8188 222.305 14.4864 221.41 13.367 220.301C8.69211 215.659 10.2136 208.831 10.4817 202.969C10.5605 201.218 10.6945 199.333 10.458 197.59C10.2136 195.807 9.33855 194.271 8.54232 192.686C6.96563 189.549 7.39134 186.04 10.1269 183.703C10.3949 183.473 10.324 183.069 10.1269 182.832C7.67514 179.829 7.58843 175.591 7.7461 171.892C7.91953 167.883 8.49502 163.843 9.14935 159.89C10.4422 152 12.5156 144.166 16.071 136.981C18.0734 132.933 20.5725 129.154 23.584 125.779C24.0333 125.272 23.2844 124.52 22.8429 125.035C17.4349 131.261 13.7139 138.731 11.2936 146.59C8.77094 154.765 7.81705 163.122 6.86315 171.575C6.41379 175.559 6.21671 179.98 8.85766 183.236C7.08389 185.058 6.14576 187.672 6.38226 190.223C6.52416 191.712 7.13119 193.035 7.75398 194.374C8.52656 196.045 9.21242 197.97 9.48045 199.792C10.3792 206.066 7.71456 212.752 10.3634 218.828C11.002 220.293 12.0347 221.49 13.2172 222.551C14.518 223.716 15.7714 224.888 16.9303 226.195C19.1219 228.682 20.9509 231.368 23.4263 233.602C28.1642 237.888 34.1478 240.422 40.0367 242.641C41.9682 243.369 43.9469 243.987 45.8941 244.692C47.6442 245.318 49.418 245.896 51.2312 246.316C54.6842 247.116 58.2081 247.14 61.4324 245.5C62.3705 245.001 61.527 243.488 60.6046 244.035Z" fill="#FFDFA2"/>
<path d="M56.8441 239.068C54.8102 239.741 52.6659 239.773 50.6162 239.131C48.4877 238.466 46.9031 237.064 45.4999 235.376C44.1833 233.792 42.8904 232.224 41.0299 231.273C39.1694 230.322 37.104 229.926 35.141 229.253C31.081 227.859 27.8803 224.943 25.2394 221.624C23.9307 219.969 22.764 218.21 21.6209 216.436C20.4384 214.606 18.7671 212.744 18.1837 210.605C17.5372 208.244 19.248 206.177 19.5002 203.888C19.721 201.875 18.7986 200.204 17.6555 198.635C16.339 196.829 15.1013 195.126 15.117 192.773C15.1328 190.286 16.2917 187.965 17.4348 185.834C17.963 184.852 18.4833 183.846 18.7907 182.76C19.1139 181.62 18.9878 180.479 18.8301 179.322C18.4675 176.756 18.1285 174.189 18.0497 171.591C17.8841 166.568 18.365 161.53 19.2243 156.587C21.2109 145.203 25.3182 134.359 29.1102 123.498C29.4413 122.555 27.9749 122.199 27.6281 123.11C23.844 133.075 20.3911 143.223 18.2783 153.703C17.2613 158.757 16.5912 163.907 16.473 169.056C16.4099 171.662 16.4572 174.284 16.6779 176.882C16.8987 179.536 17.3323 181.905 16.3074 184.456C14.6361 188.63 12.8545 193.074 15.3299 197.328C16.3705 199.119 17.9551 200.869 17.9787 203.056C18.0024 205.21 16.8987 207.23 17.1352 209.409C17.3875 211.675 18.5306 213.758 19.6737 215.683C20.7773 217.545 21.9993 219.351 23.2922 221.078C25.7518 224.365 28.6608 227.463 32.3345 229.372C34.463 230.481 36.8044 230.932 39.0197 231.82C41.6527 232.873 43.0796 234.869 44.8771 236.937C47.9516 240.478 52.7526 242.038 57.2698 240.636C58.2553 240.335 57.8296 238.743 56.8441 239.068Z" fill="#FFDFA2"/>
<path d="M56.0953 228.009C54.7552 225.474 52.5872 223.391 49.9384 222.29C48.3932 221.648 46.7062 221.395 45.1846 220.69C43.6947 220 42.1811 218.543 42.5831 216.745C42.6619 216.38 42.4018 215.968 41.9997 215.984C36.6232 216.19 31.0102 211.334 31.2309 205.702C31.2388 205.464 31.026 205.29 30.8052 205.274C29.5833 205.195 29.0866 203.848 29.0788 202.779C29.0709 201.527 29.8277 200.267 30.2376 199.111C30.6239 198.026 30.8841 196.861 30.6003 195.712C30.3243 194.603 29.5754 193.708 29.0078 192.742C28.7476 192.29 28.4796 191.799 28.4796 191.26C28.4796 190.484 29.0157 189.842 29.4414 189.24C30.1903 188.179 30.8841 187.086 31.3965 185.889C32.3583 183.656 32.7919 181.295 32.8707 178.871C33.0362 173.516 31.7039 168.232 31.3098 162.909C30.8683 156.896 31.0733 150.812 31.8143 144.839C32.65 138.137 34.2582 131.539 36.3315 125.122C36.505 124.583 35.6851 124.385 35.488 124.9C30.9787 136.656 29.3153 149.584 30.0878 162.14C30.4347 167.812 31.4123 173.5 31.1127 179.204C30.9708 181.849 30.553 184.551 29.3704 186.943C28.8107 188.076 27.8253 188.995 27.3917 190.183C26.9818 191.308 27.2656 192.401 27.8332 193.407C28.5742 194.722 29.6069 195.768 29.3626 197.416C29.1339 198.921 28.1406 200.252 28.0776 201.78C28.0066 203.492 28.4954 205.813 30.4189 206.098C30.6081 209.068 31.6566 211.691 33.8167 213.821C35.827 215.81 38.5074 217.061 41.3218 217.172C41.1562 220.119 44.2308 221.807 46.7535 222.559C48.4799 223.074 50.1433 223.581 51.6097 224.674C53.0208 225.72 54.0851 227.154 54.8025 228.746C55.1887 229.617 56.5526 228.865 56.0953 228.009Z" fill="#FFDFA2"/>
<path d="M59.7294 214.755C58.8386 212.102 57.8532 209.052 55.6616 207.182C53.9351 205.701 51.6017 205.004 49.4574 205.756C48.2828 204.014 46.107 203.388 44.1519 202.881C42.118 202.35 39.5638 201.954 38.468 199.958C39.4297 198.342 39.0435 196.369 38.9252 194.563C38.7912 192.385 38.8621 190.507 40.155 188.669C41.3218 187.006 42.8669 185.612 43.7419 183.742C44.7353 181.627 44.8614 179.274 44.5776 176.977C44.2938 174.656 43.6473 172.414 43.0719 170.156C42.4333 167.645 41.9209 165.087 41.5583 162.512C40.8093 157.117 40.7936 151.596 41.5031 146.201C42.2756 140.316 44.5303 134.493 43.876 128.489C43.8129 127.895 42.8984 127.863 42.93 128.489C43.127 132.164 42.2441 135.737 41.4085 139.286C40.628 142.597 40.0052 145.924 39.6899 149.315C39.0592 156.151 39.5007 163.193 41.1956 169.848C41.9761 172.921 43.0955 176.011 43.0797 179.219C43.0719 180.827 42.6935 182.38 41.8499 183.75C41.1168 184.938 40.1235 185.944 39.2642 187.037C37.5614 189.2 36.8046 191.386 37.4589 194.119C37.79 195.506 38.3024 196.995 37.8531 198.413C37.6875 198.928 37.1199 199.427 37.0963 199.95C37.0805 200.314 37.3958 200.797 37.585 201.09C40.0683 204.885 46.4932 202.857 48.5744 206.952C48.7479 207.301 49.1972 207.38 49.5126 207.214C51.5386 206.184 53.9351 207.166 55.3857 208.743C57.0175 210.525 57.6245 212.886 58.2237 215.159C58.4917 216.134 60.0526 215.706 59.7294 214.755Z" fill="#FFDFA2"/>
<path d="M132.485 243.187C130.632 241.927 128.733 240.81 126.99 239.385C126.076 238.64 125.193 237.856 124.334 237.04C123.908 236.636 123.49 236.216 123.088 235.78C122.789 235.455 122.229 234.996 122.363 234.513C122.386 234.434 122.371 234.37 122.379 234.299C123.616 234.172 123.845 231.97 122.473 231.74C118.303 231.059 114.204 230.219 110.144 229.047C106.084 227.874 102.118 226.425 98.153 224.951C89.9622 221.902 81.7398 218.78 73.7067 215.334C71.9093 214.566 70.1355 213.742 68.3618 212.918C67.6128 212.934 66.8718 212.966 66.1229 213.021C65.7287 213.053 65.3346 213.101 64.9404 213.14C64.8773 213.148 64.83 213.156 64.7985 213.156C64.7669 213.164 64.7433 213.164 64.7118 213.172C64.5777 213.196 64.4437 213.219 64.3176 213.243C63.7342 213.362 63.1666 213.513 62.6069 213.711C62.4729 213.758 62.3468 213.806 62.2127 213.853C61.9684 213.964 61.7319 214.083 61.4954 214.21C61.0381 214.455 60.6045 214.725 60.1788 215.018C60.1158 215.065 60.0448 215.113 59.9817 215.16C59.7452 215.414 59.7058 215.422 59.7531 215.358C59.6585 215.437 59.556 215.509 59.4693 215.588C59.083 215.929 58.7204 216.293 58.3735 216.673C58.2159 216.848 58.0661 217.022 57.9163 217.204C57.8769 217.252 57.8375 217.299 57.7981 217.354C57.9084 217.236 58.0109 217.172 57.6956 217.497C57.1122 218.297 56.5919 219.145 56.1425 220.032C56.0164 220.286 55.8903 220.547 55.772 220.808C55.7326 220.888 55.7011 220.975 55.6617 221.054C55.4882 221.482 55.3227 221.917 55.1808 222.361C54.8654 223.312 54.6053 224.286 54.4082 225.276C54.353 225.553 54.3215 225.839 54.2584 226.116C54.2663 226.068 54.2742 226.045 54.2821 226.005C54.3294 225.736 54.4319 225.371 54.2821 226.005C54.2742 226.045 54.2742 226.076 54.2663 226.108C54.2269 226.472 54.2032 226.837 54.1954 227.209C54.1638 227.985 54.1796 228.77 54.2269 229.546C54.2505 229.974 54.2821 230.401 54.3294 230.821C54.353 231.019 54.3767 231.217 54.4003 231.407C54.3057 230.512 54.3846 231.257 54.4161 231.471C54.692 233.229 55.1887 234.909 55.709 236.604C55.843 237.032 55.9849 237.46 56.1425 237.887C56.2135 238.07 56.2766 238.252 56.3475 238.434C56.5998 238.941 56.4106 238.6 56.3554 238.458C56.3554 238.45 56.3475 238.442 56.3475 238.434C56.3396 238.418 56.3318 238.41 56.3239 238.394C56.3633 238.466 56.3869 238.545 56.4185 238.624C56.7653 239.416 57.1674 240.185 57.6167 240.921C57.8375 241.278 58.074 241.618 58.3105 241.959C58.4839 242.078 58.476 242.133 58.413 242.078C58.4524 242.133 58.4839 242.181 58.5076 242.22C58.5943 242.323 58.6731 242.434 58.7598 242.545C58.7992 242.593 58.8465 242.648 58.8702 242.68C58.8781 242.688 58.8781 242.688 58.886 242.696C59.1067 242.743 59.3274 242.791 59.5403 242.846C82.0788 248.518 105.012 252.416 128.472 248.518C131.492 248.019 130.987 246.973 132.674 244.526C133.305 243.599 133.313 243.749 132.485 243.187Z" fill="#EEB990"/>
<path d="M51.6175 168.05C50.7188 161.411 49.489 154.916 49.5994 148.19C49.694 142.13 49.8989 135.943 46.6352 130.58C45.161 128.156 43.1901 126.191 40.9039 124.56C38.5704 122.896 36.1108 121.486 33.2412 121.114C32.6263 121.034 32.3977 121.842 32.9968 122.056C35.2121 122.864 37.4194 123.791 39.343 125.185C41.172 126.508 42.7881 128.441 43.939 130.374C46.8086 135.191 47.0767 140.538 46.9348 146.019C46.8638 148.911 46.7771 151.786 46.9899 154.678C47.2107 157.696 47.6521 160.691 48.1094 163.677C48.5509 166.561 48.9923 169.436 49.2919 172.335C49.5521 174.862 50.0172 177.801 49.355 180.297C49.016 181.572 48.3932 182.642 47.2895 183.394C46.2883 184.067 45.1452 184.527 44.2623 185.375C43.2138 186.373 42.7408 187.68 42.5043 189.074C42.3781 189.819 42.1732 191.736 41.1641 191.783C40.0289 191.292 38.7596 191.07 37.5298 190.959C32.508 190.516 27.3601 191.031 22.3778 191.617C21.2268 191.752 21.1716 193.542 22.3778 193.463C26.6506 193.193 30.9629 193.288 35.2357 193.574C36.8834 193.684 38.7675 193.669 40.2575 194.485C41.7396 195.293 41.8026 196.608 42.0707 198.041C39.2484 198.453 36.434 198.881 33.6275 199.356C30.5056 199.887 27.3365 200.426 24.2777 201.25C19.2638 202.604 13.5562 206.145 14.3682 212.142C14.4943 213.069 15.9607 212.998 16.1341 212.142C17.2063 207.001 22.2201 204.838 26.7374 203.571C29.5281 202.787 32.3188 201.986 35.1096 201.202C32.6578 202.398 30.3243 203.84 28.1406 205.583C25.8386 207.421 23.6943 209.512 21.9363 211.881C20.1547 214.281 19.1377 217.125 18.6962 220.072C18.3494 222.432 18.7829 225.87 21.6131 226.417C22.7877 226.647 23.4657 225.102 22.4093 224.444C20.3281 223.145 21.7314 218.979 22.3069 217.244C23.3159 214.194 25.4602 211.714 27.707 209.504C32.1296 205.147 37.719 201.606 43.6868 199.84C44.1834 199.689 44.349 199.246 44.2623 198.849C44.2938 198.81 44.3253 198.786 44.349 198.739C45.3817 197.012 44.5461 194.691 43.2768 193.28C44.1913 192.512 44.8456 191.268 45.1531 190.104C45.5079 188.749 45.7444 187.854 46.8402 186.935C47.7783 186.143 48.882 185.549 49.7018 184.622C51.4362 182.681 51.9407 180.043 52.1694 177.524C52.4453 174.387 52.0432 171.163 51.6175 168.05Z" fill="#ECA943"/>
<path d="M23.7178 180.534C20.9114 181.247 17.9866 181.612 15.1171 182.008C13.7217 182.198 12.3343 182.396 10.931 182.507C9.46471 182.626 7.92746 182.792 6.54787 183.331C5.64916 183.687 5.90143 184.963 6.78437 185.113C8.24279 185.367 9.81158 185.161 11.2464 184.875C12.6811 184.59 14.1159 184.321 15.5428 183.996C18.4123 183.339 21.1794 182.412 24.0016 181.604C24.6087 181.437 24.3327 180.384 23.7178 180.534Z" fill="#ECA943"/>
<path d="M73.2809 214.265C71.8146 210.415 69.9226 206.422 66.6037 203.832C64.6644 202.319 62.4334 201.654 60.1314 201.551C60.1866 201.131 60.092 200.703 59.8634 200.204C59.485 199.364 58.9647 198.572 58.4129 197.827C57.2067 196.196 55.6773 195.293 53.6198 195.285C51.7278 195.277 49.8121 195.768 48.2039 196.782C47.4392 197.265 46.7534 197.653 45.8231 197.709C44.8771 197.764 43.805 197.392 42.9536 197.891C42.4096 198.208 42.2598 199.024 42.7407 199.475C43.7892 200.45 46.1306 200.228 47.3998 199.824C48.1566 199.586 48.7873 199.166 49.4574 198.762C50.1905 198.334 50.971 198.065 51.7987 197.907C53.2256 197.637 54.7786 197.606 55.8665 198.699C56.4105 199.245 56.8125 199.903 57.2698 200.521C57.5299 200.877 57.7901 201.234 58.0581 201.582C58.066 201.59 58.0739 201.598 58.0817 201.606C56.9229 201.709 55.764 201.931 54.6288 202.24C50.5374 203.373 47.4392 206.066 45.1057 209.551C42.7407 213.1 40.9039 217.243 40.1944 221.466C39.816 223.715 39.7135 226.052 40.1786 228.294C40.5255 229.934 41.1798 231.376 42.0706 232.722C41.9839 233.53 41.9287 234.346 41.9287 235.178C41.9366 238.442 42.7171 241.88 44.4199 244.684C46.2725 247.734 49.0947 249.611 52.185 251.235C55.2674 252.851 58.7755 254.016 62.252 253.065C63.9943 252.59 65.5709 251.639 66.9663 250.498C68.4641 249.271 69.5284 247.789 70.7345 246.308C71.2391 245.69 70.8843 244.922 70.1196 244.826C67.4472 244.486 64.822 243.741 62.1575 243.298C60.0447 240.913 58.0423 238.45 57.0884 235.352C55.9927 231.803 56.2765 228.025 56.9938 224.42C57.6482 221.133 58.9726 217.79 61.6687 215.651C62.867 214.701 64.2938 214.019 65.7996 213.734C66.5485 213.592 67.2422 213.599 67.9044 213.695C67.9596 213.758 68.0227 213.813 68.1252 213.845C69.5047 214.312 70.8843 214.796 72.2639 215.271C72.8315 215.461 73.5016 214.827 73.2809 214.265ZM70.5611 213.306C68.8347 211.619 65.7286 211.294 63.5292 211.762C60.5729 212.395 58.1527 214.74 56.5918 217.228C54.7313 220.19 54.0376 223.7 53.6513 227.13C53.2729 230.512 53.2965 233.95 54.5342 237.174C55.5275 239.757 57.049 242.268 59.2248 243.987C59.2327 244.43 59.4613 244.89 59.9422 245.056C62.6147 245.967 65.5552 246.165 68.3932 246.403C66.8402 248.074 64.9245 249.595 62.9458 250.49C59.887 251.869 56.7968 251.227 53.9036 249.754C51.239 248.399 48.5508 246.601 46.8716 244.058C45.2319 241.571 44.4435 238.695 44.1913 235.74C43.8602 231.843 44.3016 227.755 45.1373 223.945C45.287 223.264 44.2622 222.987 44.0809 223.668C43.466 225.997 42.8117 228.278 42.3939 230.615C41.7238 228.088 41.6055 225.316 41.9524 222.876C42.4885 219.145 44.1282 215.619 46.1069 212.451C47.9989 209.425 50.427 206.795 53.7853 205.456C56.9071 204.204 61.3928 203.444 64.5303 204.973C67.9517 206.644 69.5993 210.082 71.1051 213.401C70.9237 213.37 70.7424 213.338 70.5611 213.306Z" fill="#ECA943"/>
</svg>
