<svg width="47" height="48" viewBox="0 0 47 48" fill="none" xmlns="http://www.w3.org/2000/svg">
<g clip-path="url(#clip0_1144_15898)">
<path d="M37.8562 34.9399L2.86391 46.6327C2.58588 46.7258 2.2874 46.7396 2.00199 46.6724C1.71658 46.6052 1.45555 46.4598 1.24823 46.2525C1.0409 46.0452 0.895483 45.7841 0.828313 45.4987C0.761143 45.2133 0.774878 44.9148 0.867977 44.6368L12.5608 9.64453L37.8562 34.9399Z" fill="#FDC70E"/>
<path d="M37.8561 34.94C37.8561 34.94 32.7026 33.7728 23.2203 24.2811C13.9895 15.059 12.6265 9.9148 12.5615 9.64612V9.63672C12.5615 9.63672 17.7245 10.8047 27.2099 20.2901C36.6952 29.7754 37.8561 34.94 37.8561 34.94Z" fill="#D39518"/>
<path d="M15.2437 42.494L10.0581 44.2252C8.96925 43.2539 7.80991 42.165 6.57225 40.9274C5.33458 39.6897 4.24575 38.5304 3.27441 37.4415L5.00558 32.2559C6.32158 33.846 7.92741 35.6242 9.90141 37.5982C11.8754 39.5722 13.6536 41.178 15.2437 42.494Z" fill="#2167D8"/>
<path d="M29.3594 37.7788L23.7899 39.6353C20.7268 37.4351 17.862 34.9713 15.2281 32.272C12.5288 29.6381 10.065 26.7732 7.86475 23.7101L9.72125 18.1406C12.2233 22.0823 15.1899 25.709 18.5572 28.9428C21.7911 32.3102 25.4178 35.2768 29.3594 37.7788Z" fill="#D3374E"/>
<path d="M20.0009 16.484C19.846 16.4839 19.6946 16.438 19.5658 16.3519C19.437 16.2658 19.3367 16.1435 19.2774 16.0004C19.2181 15.8573 19.2026 15.6998 19.2328 15.5478C19.263 15.3959 19.3376 15.2564 19.4471 15.1468C20.9785 13.7019 21.9899 11.7918 22.3242 9.71312C22.6585 7.63443 22.2969 5.50352 21.2958 3.65139C21.2358 3.56312 21.1945 3.46353 21.1744 3.35872C21.1542 3.25392 21.1558 3.14611 21.1788 3.04191C21.2019 2.9377 21.2459 2.83931 21.3084 2.75276C21.3708 2.66621 21.4503 2.59334 21.5419 2.5386C21.6335 2.48387 21.7354 2.44843 21.8412 2.43447C21.947 2.42051 22.0545 2.42831 22.1572 2.4574C22.2599 2.48649 22.3555 2.53625 22.4383 2.60363C22.521 2.67102 22.5891 2.7546 22.6384 2.84925C23.813 5.00266 24.2454 7.48306 23.8687 9.90688C23.4921 12.3307 22.3274 14.5629 20.5548 16.2584C20.4819 16.3306 20.3954 16.3878 20.3004 16.4265C20.2053 16.4652 20.1036 16.4847 20.0009 16.484Z" fill="#2167D8"/>
<path d="M18.6903 8.61953C18.4826 8.61949 18.2834 8.53693 18.1365 8.39001L16.8252 7.0795C16.7525 7.00672 16.6948 6.92032 16.6555 6.82525C16.6161 6.73018 16.5959 6.62829 16.5959 6.5254C16.596 6.42251 16.6163 6.32064 16.6557 6.22559C16.6951 6.13055 16.7528 6.0442 16.8256 5.97147C16.9726 5.82459 17.1719 5.74211 17.3797 5.74219C17.4826 5.74222 17.5845 5.76253 17.6795 5.80193C17.7746 5.84134 17.8609 5.89908 17.9336 5.97186L19.2442 7.28238C19.3537 7.39193 19.4283 7.53149 19.4585 7.68342C19.4887 7.83535 19.4732 7.99283 19.4139 8.13594C19.3546 8.27906 19.2542 8.40139 19.1255 8.48746C18.9967 8.57354 18.8453 8.6195 18.6903 8.61953Z" fill="#23AF6F"/>
<path d="M27.8656 7.30882C27.6579 7.30882 27.4586 7.22629 27.3117 7.07939C27.1648 6.93249 27.0823 6.73324 27.0823 6.52549V5.21497C27.0823 5.00722 27.1648 4.80798 27.3117 4.66107C27.4586 4.51417 27.6579 4.43164 27.8656 4.43164C28.0734 4.43164 28.2726 4.51417 28.4195 4.66107C28.5664 4.80798 28.6489 5.00722 28.6489 5.21497V6.52549C28.6489 6.73324 28.5664 6.93249 28.4195 7.07939C28.2726 7.22629 28.0734 7.30882 27.8656 7.30882Z" fill="#D3374E"/>
<path d="M29.1769 12.553H27.8656C27.6579 12.553 27.4586 12.4705 27.3117 12.3236C27.1648 12.1767 27.0823 11.9774 27.0823 11.7697C27.0823 11.5619 27.1648 11.3627 27.3117 11.2158C27.4586 11.0689 27.6579 10.9863 27.8656 10.9863H29.1769C29.3847 10.9863 29.5839 11.0689 29.7308 11.2158C29.8777 11.3627 29.9602 11.5619 29.9602 11.7697C29.9602 11.9774 29.8777 12.1767 29.7308 12.3236C29.5839 12.4705 29.3847 12.553 29.1769 12.553Z" fill="#23AF6F"/>
<path d="M31.7978 28.2816C31.6429 28.2816 31.4915 28.2356 31.3627 28.1496C31.2339 28.0635 31.1335 27.9412 31.0743 27.798C31.015 27.6549 30.9995 27.4975 31.0297 27.3455C31.0599 27.1936 31.1345 27.054 31.244 26.9445C32.9396 25.1718 35.1719 24.007 37.5959 23.6304C40.0198 23.2538 42.5004 23.6862 44.6539 24.8608C44.825 24.9708 44.9466 25.1431 44.993 25.3412C45.0394 25.5393 45.0068 25.7476 44.9023 25.9222C44.7978 26.0967 44.6295 26.2237 44.433 26.2764C44.2365 26.329 44.0272 26.3031 43.8494 26.2042C42.0017 25.1845 39.8659 24.8124 37.7822 25.1473C35.6985 25.4822 33.7868 26.5048 32.3516 28.0521C32.2048 28.199 32.0056 28.2816 31.7978 28.2816Z" fill="#2167D8"/>
<path d="M40.9739 30.9027C40.7663 30.9029 40.5671 30.8206 40.4201 30.674L39.1088 29.3627C38.9661 29.2149 38.8872 29.0171 38.8889 28.8117C38.8907 28.6063 38.9731 28.4098 39.1184 28.2646C39.2636 28.1194 39.4601 28.037 39.6654 28.0352C39.8708 28.0334 40.0687 28.1124 40.2164 28.255L41.5277 29.5656C41.6373 29.6751 41.7118 29.8147 41.742 29.9666C41.7723 30.1185 41.7567 30.276 41.6975 30.4191C41.6382 30.5622 41.5378 30.6846 41.409 30.7706C41.2802 30.8567 41.1288 30.9027 40.9739 30.9027Z" fill="#23AF6F"/>
<path d="M42.2835 20.417H40.9737C40.766 20.417 40.5667 20.3345 40.4198 20.1876C40.2729 20.0407 40.1904 19.8414 40.1904 19.6337C40.1904 19.4259 40.2729 19.2267 40.4198 19.0798C40.5667 18.9329 40.766 18.8504 40.9737 18.8504H42.2835C42.4912 18.8504 42.6905 18.9329 42.8374 19.0798C42.9843 19.2267 43.0668 19.4259 43.0668 19.6337C43.0668 19.8414 42.9843 20.0407 42.8374 20.1876C42.6905 20.3345 42.4912 20.417 42.2835 20.417ZM35.7301 20.417C35.5224 20.417 35.3231 20.3345 35.1762 20.1876C35.0293 20.0407 34.9468 19.8414 34.9468 19.6337V18.3224C34.9468 18.1146 35.0293 17.9154 35.1762 17.7685C35.3231 17.6216 35.5224 17.5391 35.7301 17.5391C35.9379 17.5391 36.1371 17.6216 36.284 17.7685C36.4309 17.9154 36.5134 18.1146 36.5134 18.3224V19.6337C36.5134 19.8414 36.4309 20.0407 36.284 20.1876C36.1371 20.3345 35.9379 20.417 35.7301 20.417Z" fill="#D3374E"/>
<path d="M29.177 17.7968C29.0221 17.7967 28.8706 17.7508 28.7419 17.6647C28.6131 17.5786 28.5127 17.4563 28.4534 17.3132C28.3941 17.1701 28.3786 17.0126 28.4088 16.8607C28.4391 16.7087 28.5136 16.5692 28.6231 16.4596C28.954 16.1386 29.3506 15.8933 29.7856 15.7408C30.2206 15.5882 30.6835 15.532 31.1423 15.576H31.1596C31.4089 15.617 31.6642 15.6 31.9059 15.5264C32.1476 15.4528 32.369 15.3245 32.5531 15.1515C32.7276 14.9649 32.8567 14.7407 32.9303 14.4961C33.004 14.2516 33.0202 13.9933 32.9777 13.7415C32.9271 13.282 32.9803 12.817 33.1335 12.3808C33.2866 11.9447 33.5358 11.5485 33.8626 11.2216C34.1894 10.8946 34.5854 10.6453 35.0215 10.4919C35.4576 10.3386 35.9226 10.2851 36.3821 10.3355C36.6352 10.3864 36.897 10.374 37.1441 10.2993C37.3913 10.2246 37.6161 10.09 37.7987 9.9074C37.9813 9.72483 38.1159 9.49997 38.1906 9.25282C38.2653 9.00568 38.2777 8.7439 38.2268 8.49078C38.1832 8.03152 38.2398 7.56826 38.3928 7.13302C38.5457 6.69779 38.7914 6.30098 39.1128 5.97001C39.1848 5.89372 39.2715 5.83269 39.3676 5.79054C39.4637 5.7484 39.5674 5.726 39.6723 5.72467C39.7772 5.72335 39.8814 5.74313 39.9785 5.78283C40.0757 5.82254 40.1639 5.88136 40.2378 5.95581C40.3118 6.03026 40.3701 6.11881 40.4092 6.21621C40.4483 6.31362 40.4674 6.41788 40.4654 6.52282C40.4634 6.62775 40.4403 6.73121 40.3976 6.82706C40.3548 6.92291 40.2932 7.00919 40.2165 7.08077C40.042 7.26738 39.9128 7.49158 39.8388 7.73605C39.7648 7.98053 39.7479 8.23875 39.7896 8.49078C39.8401 8.95047 39.7867 9.41564 39.6334 9.85194C39.48 10.2882 39.2306 10.6845 38.9036 11.0115C38.5766 11.3386 38.1803 11.5879 37.744 11.7413C37.3077 11.8946 36.8425 11.948 36.3828 11.8975C36.1303 11.8467 35.8692 11.8592 35.6226 11.9338C35.3761 12.0085 35.1519 12.1429 34.9699 12.3253C34.788 12.5076 34.654 12.7321 34.5799 12.9788C34.5058 13.2255 34.4938 13.4867 34.5451 13.7391C34.5896 14.198 34.5335 14.661 34.3809 15.0961C34.2283 15.5311 33.9829 15.9277 33.6615 16.2583C33.3294 16.5774 32.9326 16.8215 32.498 16.9739C32.0633 17.1263 31.601 17.1836 31.1423 17.1419H31.1243C30.8752 17.1007 30.6198 17.1175 30.3783 17.1912C30.1367 17.2648 29.9154 17.3933 29.7316 17.5665C29.6588 17.6395 29.5724 17.6974 29.4772 17.7369C29.382 17.7764 29.28 17.7968 29.177 17.7968Z" fill="#FDC70E"/>
<path d="M31.7986 8.61993C31.6698 8.61998 31.5431 8.58831 31.4295 8.52772C31.3159 8.46712 31.219 8.37947 31.1474 8.27252C31.0758 8.16557 31.0316 8.04261 31.0188 7.91452C31.006 7.78643 31.0249 7.65716 31.074 7.53814C31.49 6.61356 31.7079 5.61211 31.7136 4.59825C31.7192 3.58439 31.5126 2.58057 31.1069 1.65139C31.0088 1.46815 30.9876 1.25347 31.0478 1.05456C31.108 0.855652 31.2448 0.688818 31.428 0.590759C31.6113 0.492699 31.826 0.471447 32.0249 0.531678C32.2238 0.591908 32.3906 0.728687 32.4887 0.911925C33.0031 2.04548 33.2721 3.27498 33.2781 4.5198C33.284 5.76462 33.0267 6.99663 32.5231 8.13504C32.464 8.27856 32.3635 8.40128 32.2345 8.48761C32.1055 8.57394 31.9538 8.61999 31.7986 8.61993ZM39.6624 16.4846C39.4809 16.4848 39.305 16.4219 39.1647 16.3068C39.0244 16.1917 38.9284 16.0314 38.8932 15.8533C38.858 15.6753 38.8856 15.4906 38.9715 15.3307C39.0574 15.1708 39.1961 15.0456 39.364 14.9767C40.5024 14.4725 41.7346 14.2149 42.9796 14.2209C44.2247 14.2268 45.4543 14.4961 46.5879 15.0111C46.7711 15.1092 46.9079 15.276 46.9681 15.4749C47.0284 15.6739 47.0071 15.8885 46.9091 16.0718C46.811 16.255 46.6442 16.3918 46.4453 16.452C46.2463 16.5123 46.0317 16.491 45.8484 16.3929C44.9192 15.9869 43.9152 15.78 42.9012 15.7857C41.8871 15.7914 40.8855 16.0094 39.9609 16.4258C39.8662 16.4646 39.7648 16.4846 39.6624 16.4846Z" fill="#D3374E"/>
</g>
<defs>
<clipPath id="clip0_1144_15898">
<rect width="47" height="47" fill="white" transform="translate(0 0.5)"/>
</clipPath>
</defs>
</svg>
