<svg width="47" height="48" viewBox="0 0 47 48" fill="none" xmlns="http://www.w3.org/2000/svg">
<g clip-path="url(#clip0_1144_15872)">
<path d="M13.7303 42.6767C14.7244 39.6171 14.4539 36.7871 13.1262 36.3557C11.7985 35.9243 9.91621 38.0548 8.92209 41.1144C7.92796 44.174 8.19842 47.004 9.52616 47.4354C10.8539 47.8668 12.7361 45.7363 13.7303 42.6767Z" fill="#F6E266"/>
<path d="M10.8039 41.1226C9.94723 43.7571 10.028 46.2216 10.916 47.131C10.4278 47.4597 9.94943 47.5815 9.52698 47.4435C8.19942 47.0114 7.92999 44.1817 8.92461 41.1226C9.91923 38.0633 11.8017 35.933 13.1293 36.364C13.3135 36.4243 13.4784 36.5311 13.6207 36.6776C12.5744 37.3823 11.4817 39.0364 10.8039 41.1226Z" fill="#FFD064"/>
<path d="M37.4642 47.4519C38.7918 47.0202 39.0618 44.1902 38.0671 41.1307C37.0725 38.0713 35.1899 35.9411 33.8622 36.3727C32.5345 36.8044 32.2646 39.6344 33.2592 42.6939C34.2539 45.7533 36.1365 47.8835 37.4642 47.4519Z" fill="#F6E266"/>
<path d="M38.1186 46.9457C37.9429 47.1892 37.7274 47.3605 37.4732 47.4435C36.1445 47.8756 34.262 45.7452 33.2674 42.686C32.2728 39.6258 32.5422 36.7961 33.8698 36.364C34.2179 36.2508 34.6047 36.3144 35.0034 36.5245C34.2631 37.5526 34.2404 39.8747 35.0443 42.3477C35.7792 44.6052 36.9968 46.3562 38.1186 46.9457Z" fill="#FFD064"/>
<path d="M44.2613 4.42009C45.3438 4.42009 46.2214 3.54255 46.2214 2.46005C46.2214 1.37754 45.3438 0.5 44.2613 0.5C43.1788 0.5 42.3013 1.37754 42.3013 2.46005C42.3013 3.54255 43.1788 4.42009 44.2613 4.42009Z" fill="#E7A561"/>
<path d="M2.73886 4.42009C3.82136 4.42009 4.6989 3.54255 4.6989 2.46005C4.6989 1.37754 3.82136 0.5 2.73886 0.5C1.65635 0.5 0.778809 1.37754 0.778809 2.46005C0.778809 3.54255 1.65635 4.42009 2.73886 4.42009Z" fill="#E7A561"/>
<path d="M38.4605 16.0216C42.7467 16.0216 46.2213 12.5469 46.2213 8.26078C46.2213 3.97462 42.7467 0.5 38.4605 0.5C34.1743 0.5 30.6997 3.97462 30.6997 8.26078C30.6997 12.5469 34.1743 16.0216 38.4605 16.0216Z" fill="#F6E266"/>
<path d="M45.1554 4.33399C44.0035 3.65616 42.6619 3.26823 41.2288 3.26823C36.9422 3.26823 33.4671 6.74228 33.4671 11.0288C33.4671 12.462 33.855 13.8036 34.5328 14.9555C32.2398 13.6075 30.7 11.114 30.7 8.2617C30.7 3.97515 34.1751 0.5 38.4605 0.5C41.3139 0.5 43.8074 2.03989 45.1554 4.33399Z" fill="#FFD064"/>
<path d="M8.53959 16.0216C12.8258 16.0216 16.3004 12.5469 16.3004 8.26078C16.3004 3.97462 12.8258 0.5 8.53959 0.5C4.25343 0.5 0.778809 3.97462 0.778809 8.26078C0.778809 12.5469 4.25343 16.0216 8.53959 16.0216Z" fill="#F6E266"/>
<path d="M10.2624 15.8304C9.69697 15.958 9.11908 16.0223 8.53941 16.0223C4.25286 16.0223 0.778809 12.5471 0.778809 8.2617C0.7789 3.97515 4.25295 0.5 8.5395 0.5C9.11917 0.500007 9.69704 0.564322 10.2625 0.691764C6.80573 1.47516 4.22385 4.56669 4.22385 8.26161C4.22385 11.9556 6.80564 15.0471 10.2624 15.8304Z" fill="#FFD064"/>
<path d="M23.5 44.379C35.1849 44.379 44.6573 34.9065 44.6573 23.2217C44.6573 11.5369 35.1849 2.06445 23.5 2.06445C11.8152 2.06445 2.34277 11.5369 2.34277 23.2217C2.34277 34.9065 11.8152 44.379 23.5 44.379Z" fill="#DD636E"/>
<path d="M24.8583 44.3366C24.4093 44.364 23.9561 44.3791 23.5001 44.3791C11.8146 44.3791 2.34277 34.906 2.34277 23.2218C2.34277 11.5376 11.8146 2.06445 23.5001 2.06445C23.9561 2.06445 24.4093 2.0796 24.8583 2.10705C13.8099 2.81296 5.06749 11.9963 5.06749 23.2218C5.06749 34.4473 13.8099 43.6307 24.8583 44.3366Z" fill="#CB5769"/>
<path d="M23.5001 39.3914C32.4307 39.3914 39.6704 32.1517 39.6704 23.2211C39.6704 14.2905 32.4307 7.05078 23.5001 7.05078C14.5695 7.05078 7.32983 14.2905 7.32983 23.2211C7.32983 32.1517 14.5695 39.3914 23.5001 39.3914Z" fill="#D3EFFB"/>
<path d="M26.3256 39.1576C25.4152 39.3146 24.4931 39.3932 23.5693 39.3924C14.6386 39.3924 7.39844 32.1523 7.39844 23.2215C7.39844 14.2908 14.6386 7.05078 23.5693 7.05078C24.5086 7.05078 25.4301 7.13046 26.3256 7.2856C18.7092 8.59297 12.9124 15.2302 12.9124 23.2215C12.9124 31.2128 18.7092 37.8501 26.3256 39.1576Z" fill="#9DC6FB"/>
<path d="M23.5002 25.2821H15.9875C14.8499 25.2821 13.9275 24.3599 13.9275 23.2221C13.9275 22.0844 14.8498 21.1621 15.9875 21.1621H23.5002C24.6378 21.1621 25.5602 22.0844 25.5602 23.2221C25.5602 24.3599 24.6378 25.2821 23.5002 25.2821Z" fill="#365E7D"/>
<path d="M23.5002 25.2823C22.3626 25.2823 21.4402 24.3601 21.4402 23.2223V17.9624C21.4402 16.8247 22.3625 15.9023 23.5002 15.9023C24.6378 15.9023 25.5602 16.8246 25.5602 17.9624V23.2223C25.5601 24.3601 24.6378 25.2823 23.5002 25.2823Z" fill="#2B4D66"/>
<path d="M23.5002 11.4575C23.4071 11.4575 23.3148 11.4391 23.2288 11.4035C23.1427 11.3679 23.0645 11.3156 22.9987 11.2498C22.9328 11.1839 22.8806 11.1057 22.8449 11.0197C22.8093 10.9336 22.791 10.8414 22.791 10.7482V7.46899C22.791 7.28089 22.8657 7.1005 22.9987 6.96749C23.1317 6.83449 23.3121 6.75977 23.5002 6.75977C23.6883 6.75977 23.8687 6.83449 24.0017 6.96749C24.1347 7.1005 24.2094 7.28089 24.2094 7.46899V10.7482C24.2094 10.8413 24.1911 10.9335 24.1555 11.0196C24.1198 11.1056 24.0676 11.1838 24.0017 11.2497C23.9359 11.3156 23.8577 11.3678 23.7716 11.4035C23.6856 11.4391 23.5933 11.4575 23.5002 11.4575ZM23.5002 39.6854C23.4071 39.6854 23.3148 39.6671 23.2288 39.6314C23.1427 39.5958 23.0645 39.5435 22.9987 39.4777C22.9328 39.4118 22.8806 39.3336 22.8449 39.2476C22.8093 39.1615 22.791 39.0693 22.791 38.9762V35.697C22.791 35.5089 22.8657 35.3285 22.9987 35.1955C23.1317 35.0625 23.3121 34.9878 23.5002 34.9878C23.6883 34.9878 23.8687 35.0625 24.0017 35.1955C24.1347 35.3285 24.2094 35.5089 24.2094 35.697V38.9762C24.2094 39.0693 24.1911 39.1615 24.1555 39.2476C24.1198 39.3336 24.0676 39.4118 24.0017 39.4777C23.9359 39.5435 23.8577 39.5958 23.7716 39.6314C23.6856 39.6671 23.5933 39.6854 23.5002 39.6854ZM39.2538 23.9318H35.9747C35.7866 23.9318 35.6062 23.8571 35.4732 23.7241C35.3402 23.5911 35.2654 23.4107 35.2654 23.2226C35.2654 23.0345 35.3402 22.8541 35.4732 22.7211C35.6062 22.5881 35.7866 22.5134 35.9747 22.5134H39.2538C39.4419 22.5134 39.6223 22.5881 39.7553 22.7211C39.8883 22.8541 39.9631 23.0345 39.9631 23.2226C39.9631 23.4107 39.8883 23.5911 39.7553 23.7241C39.6223 23.8571 39.4419 23.9318 39.2538 23.9318ZM11.0258 23.9318H7.74658C7.55848 23.9318 7.37808 23.8571 7.24508 23.7241C7.11207 23.5911 7.03735 23.4107 7.03735 23.2226C7.03735 23.0345 7.11207 22.8541 7.24508 22.7211C7.37808 22.5881 7.55848 22.5134 7.74658 22.5134H11.0257C11.4175 22.5134 11.735 22.8309 11.735 23.2226C11.735 23.6143 11.4175 23.9318 11.0258 23.9318ZM35.4676 17.0229C35.343 17.0231 35.2205 16.9903 35.1125 16.928C35.0046 16.8658 34.915 16.7761 34.8527 16.6681C34.8062 16.5875 34.7759 16.4984 34.7638 16.4061C34.7516 16.3138 34.7578 16.2199 34.7819 16.13C34.806 16.04 34.8476 15.9557 34.9043 15.8818C34.961 15.8079 35.0317 15.7459 35.1123 15.6993L36.7886 14.7316C36.8693 14.685 36.9583 14.6548 37.0507 14.6426C37.143 14.6304 37.2369 14.6366 37.3268 14.6607C37.4168 14.6848 37.5011 14.7264 37.575 14.7831C37.6489 14.8398 37.7109 14.9105 37.7575 14.9912C37.804 15.0719 37.8342 15.1609 37.8464 15.2532C37.8586 15.3456 37.8524 15.4394 37.8283 15.5294C37.8042 15.6193 37.7626 15.7037 37.7059 15.7776C37.6492 15.8514 37.5785 15.9134 37.4979 15.96L35.8215 16.9277C35.714 16.9901 35.5919 17.0229 35.4676 17.0229ZM9.85781 31.8087C9.73318 31.8089 9.61072 31.7762 9.50277 31.7139C9.39482 31.6516 9.30521 31.5619 9.24296 31.454C9.19639 31.3733 9.16616 31.2843 9.15401 31.1919C9.14185 31.0996 9.148 31.0057 9.1721 30.9158C9.19621 30.8258 9.2378 30.7415 9.2945 30.6676C9.3512 30.5937 9.4219 30.5317 9.50256 30.4851L11.1789 29.5173C11.2595 29.4707 11.3486 29.4405 11.4409 29.4283C11.5332 29.4162 11.6271 29.4223 11.717 29.4464C11.807 29.4705 11.8914 29.5121 11.9652 29.5688C12.0391 29.6255 12.1011 29.6962 12.1477 29.7769C12.1943 29.8576 12.2245 29.9466 12.2366 30.039C12.2488 30.1313 12.2426 30.2251 12.2185 30.3151C12.1944 30.4051 12.1528 30.4894 12.0961 30.5633C12.0394 30.6372 11.9687 30.6992 11.8881 30.7457L10.2118 31.7136C10.1042 31.7759 9.98213 31.8088 9.85781 31.8087ZM30.4087 11.9652C30.2843 11.9652 30.1622 11.9324 30.0547 11.87C29.974 11.8234 29.9033 11.7614 29.8466 11.6875C29.7899 11.6137 29.7483 11.5293 29.7242 11.4394C29.7001 11.3494 29.694 11.2556 29.7061 11.1632C29.7183 11.0709 29.7485 10.9818 29.7951 10.9012L30.7628 9.22497C30.8094 9.14429 30.8713 9.07358 30.9452 9.01686C31.0191 8.96015 31.1035 8.91855 31.1934 8.89444C31.2834 8.87034 31.3772 8.86419 31.4696 8.87636C31.5619 8.88853 31.651 8.91878 31.7316 8.96537C31.8123 9.01194 31.883 9.07394 31.9397 9.14783C31.9964 9.22172 32.038 9.30605 32.0621 9.39602C32.0862 9.48598 32.0923 9.57981 32.0802 9.67215C32.068 9.76449 32.0378 9.85353 31.9912 9.93419L31.0235 11.6104C30.9612 11.7184 30.8716 11.808 30.7637 11.8703C30.6557 11.9326 30.5333 11.9653 30.4087 11.9652ZM15.6227 37.575C15.4984 37.575 15.3763 37.5421 15.2688 37.4798C15.1881 37.4332 15.1174 37.3712 15.0607 37.2973C15.004 37.2234 14.9624 37.1391 14.9383 37.0491C14.9142 36.9592 14.9081 36.8653 14.9202 36.773C14.9324 36.6806 14.9626 36.5916 15.0092 36.5109L15.9769 34.8346C16.0235 34.754 16.0854 34.6833 16.1593 34.6265C16.2332 34.5698 16.3176 34.5282 16.4075 34.5041C16.4975 34.48 16.5913 34.4739 16.6837 34.486C16.776 34.4982 16.8651 34.5285 16.9457 34.575C17.0264 34.6216 17.0971 34.6836 17.1538 34.7575C17.2105 34.8314 17.2521 34.9157 17.2762 35.0057C17.3003 35.0957 17.3064 35.1895 17.2943 35.2818C17.2821 35.3742 17.2519 35.4632 17.2053 35.5439L16.2376 37.2202C16.1754 37.3281 16.0857 37.4178 15.9778 37.4801C15.8698 37.5424 15.7474 37.5751 15.6227 37.575ZM16.5918 11.9652C16.4671 11.9653 16.3447 11.9326 16.2367 11.8703C16.1288 11.808 16.0392 11.7184 15.9769 11.6104L15.0092 9.93419C14.9626 9.85353 14.9324 9.76449 14.9202 9.67215C14.9081 9.57981 14.9142 9.48598 14.9383 9.39602C14.9624 9.30605 15.004 9.22172 15.0607 9.14783C15.1174 9.07394 15.1881 9.01194 15.2688 8.96537C15.3494 8.91879 15.4385 8.88855 15.5308 8.87639C15.6232 8.86423 15.717 8.87037 15.807 8.89448C15.8969 8.91859 15.9813 8.96018 16.0552 9.01689C16.129 9.07359 16.191 9.1443 16.2376 9.22497L17.2053 10.9012C17.2519 10.9818 17.2821 11.0709 17.2943 11.1632C17.3064 11.2556 17.3003 11.3494 17.2762 11.4394C17.2521 11.5293 17.2105 11.6137 17.1538 11.6875C17.0971 11.7614 17.0264 11.8234 16.9457 11.87C16.8382 11.9324 16.7161 11.9652 16.5918 11.9652ZM31.3777 37.575C31.253 37.5751 31.1306 37.5424 31.0226 37.4801C30.9147 37.4178 30.8251 37.3281 30.7628 37.2202L29.7951 35.5439C29.7485 35.4632 29.7183 35.3742 29.7061 35.2818C29.694 35.1895 29.7001 35.0957 29.7242 35.0057C29.7483 34.9157 29.7899 34.8314 29.8466 34.7575C29.9033 34.6836 29.974 34.6216 30.0547 34.575C30.1353 34.5285 30.2244 34.4982 30.3167 34.4861C30.4091 34.4739 30.5029 34.48 30.5929 34.5042C30.6828 34.5283 30.7672 34.5699 30.8411 34.6266C30.915 34.6833 30.9769 34.754 31.0235 34.8346L31.9912 36.5109C32.0378 36.5916 32.068 36.6806 32.0802 36.773C32.0923 36.8653 32.0862 36.9592 32.0621 37.0491C32.038 37.1391 31.9964 37.2234 31.9397 37.2973C31.883 37.3712 31.8123 37.4332 31.7316 37.4798C31.6241 37.5421 31.502 37.575 31.3777 37.575ZM11.5328 17.0229C11.4085 17.0229 11.2864 16.9901 11.1789 16.9277L9.50256 15.96C9.4219 15.9134 9.3512 15.8514 9.2945 15.7776C9.2378 15.7037 9.19621 15.6193 9.1721 15.5294C9.148 15.4394 9.14185 15.3456 9.15401 15.2532C9.16616 15.1609 9.19639 15.0719 9.24296 14.9912C9.28952 14.9105 9.35151 14.8398 9.4254 14.7831C9.49929 14.7264 9.58363 14.6848 9.67359 14.6607C9.76356 14.6366 9.8574 14.6304 9.94974 14.6426C10.0421 14.6548 10.1311 14.685 10.2118 14.7316L11.8881 15.6993C12.0234 15.7774 12.1292 15.8979 12.189 16.0423C12.2488 16.1866 12.2593 16.3467 12.2188 16.4976C12.1783 16.6485 12.0891 16.7818 11.965 16.8768C11.841 16.9718 11.6891 17.0231 11.5328 17.0229ZM37.1426 31.8087C37.0183 31.8087 36.8962 31.7759 36.7886 31.7136L35.1123 30.7457C35.0317 30.6992 34.961 30.6372 34.9043 30.5633C34.8476 30.4894 34.806 30.4051 34.7819 30.3151C34.7578 30.2251 34.7516 30.1313 34.7638 30.039C34.7759 29.9466 34.8062 29.8576 34.8527 29.7769C34.8993 29.6962 34.9613 29.6255 35.0352 29.5688C35.109 29.5121 35.1934 29.4705 35.2834 29.4464C35.3733 29.4223 35.4672 29.4161 35.5595 29.4283C35.6519 29.4405 35.7409 29.4707 35.8215 29.5173L37.4979 30.4851C37.6332 30.5632 37.739 30.6837 37.7988 30.8281C37.8586 30.9724 37.8691 31.1325 37.8286 31.2834C37.7881 31.4343 37.6989 31.5676 37.5748 31.6626C37.4508 31.7576 37.2988 31.809 37.1426 31.8087Z" fill="#365E7D"/>
<path d="M23.5001 40.1009C14.1927 40.1009 6.62061 32.5288 6.62061 23.2214C6.62061 13.914 14.1927 6.3418 23.5001 6.3418C32.8075 6.3418 40.3796 13.9139 40.3796 23.2213C40.3796 32.5287 32.8075 40.1009 23.5001 40.1009ZM23.5001 7.76033C14.9749 7.76033 8.03905 14.6961 8.03905 23.2214C8.03905 31.7467 14.9749 38.6824 23.5001 38.6824C32.0253 38.6824 38.9612 31.7466 38.9612 23.2213C38.9612 14.696 32.0253 7.76033 23.5001 7.76033Z" fill="#CB5769"/>
</g>
<defs>
<clipPath id="clip0_1144_15872">
<rect width="47" height="47" fill="white" transform="translate(0 0.5)"/>
</clipPath>
</defs>
</svg>
