<svg width="40" height="38" viewBox="0 0 40 38" fill="none" xmlns="http://www.w3.org/2000/svg">
<g filter="url(#filter0_d_829_10065)">
<circle cx="20" cy="16" r="16" fill="white"/>
</g>
<g clip-path="url(#clip0_829_10065)">
<path d="M18.4089 23.962C18.6206 24.0525 18.8667 23.977 18.9903 23.7817L24.6153 14.8442C24.6601 14.7733 24.685 14.6916 24.6875 14.6078C24.69 14.524 24.6699 14.441 24.6294 14.3675C24.589 14.2941 24.5295 14.2328 24.4573 14.1902C24.3851 14.1475 24.3027 14.125 24.2188 14.125H20.4647L21.8609 8.58412C21.9172 8.36027 21.8032 8.12909 21.5913 8.03799C21.3807 7.94737 21.1331 8.02334 21.0099 8.21834L15.3849 17.1558C15.3401 17.2268 15.3152 17.3084 15.3127 17.3922C15.3102 17.4761 15.3303 17.559 15.3708 17.6325C15.4112 17.7059 15.4707 17.7672 15.5429 17.8098C15.6151 17.8525 15.6975 17.875 15.7813 17.875H19.5355L18.1393 23.4159C18.083 23.6398 18.1969 23.8709 18.4089 23.962Z" fill="#1579AD"/>
</g>
<defs>
<filter id="filter0_d_829_10065" x="0" y="-2" width="40" height="40" filterUnits="userSpaceOnUse" color-interpolation-filters="sRGB">
<feFlood flood-opacity="0" result="BackgroundImageFix"/>
<feColorMatrix in="SourceAlpha" type="matrix" values="0 0 0 0 0 0 0 0 0 0 0 0 0 0 0 0 0 0 127 0" result="hardAlpha"/>
<feOffset dy="2"/>
<feGaussianBlur stdDeviation="2"/>
<feComposite in2="hardAlpha" operator="out"/>
<feColorMatrix type="matrix" values="0 0 0 0 0 0 0 0 0 0 0 0 0 0 0 0 0 0 0.12 0"/>
<feBlend mode="normal" in2="BackgroundImageFix" result="effect1_dropShadow_829_10065"/>
<feBlend mode="normal" in="SourceGraphic" in2="effect1_dropShadow_829_10065" result="shape"/>
</filter>
<clipPath id="clip0_829_10065">
<rect width="16" height="16" fill="white" transform="translate(12 8)"/>
</clipPath>
</defs>
</svg>
