<svg width="16" height="17" viewBox="0 0 16 17" fill="none" xmlns="http://www.w3.org/2000/svg">
<g clip-path="url(#clip0_715_7962)">
<path d="M13.0904 4.86378C12.8976 4.86378 12.7126 4.9404 12.5762 5.07678C12.4398 5.21315 12.3632 5.39812 12.3632 5.59099V13.7292C12.3424 14.0969 12.177 14.4415 11.9033 14.6879C11.6295 14.9343 11.2694 15.0626 10.9015 15.0447H5.0984C4.7305 15.0626 4.37045 14.9343 4.09667 14.6879C3.8229 14.4415 3.65757 14.0969 3.63671 13.7292V5.59099C3.63671 5.39812 3.56009 5.21315 3.42371 5.07678C3.28734 4.9404 3.10237 4.86378 2.9095 4.86378C2.71663 4.86378 2.53166 4.9404 2.39528 5.07678C2.25891 5.21315 2.18229 5.39812 2.18229 5.59099V13.7292C2.20305 14.4828 2.52159 15.1974 3.06816 15.7166C3.61473 16.2357 4.34477 16.5171 5.0984 16.4991H10.9015C11.6552 16.5171 12.3852 16.2357 12.9318 15.7166C13.4784 15.1974 13.7969 14.4828 13.8177 13.7292V5.59099C13.8177 5.39812 13.741 5.21315 13.6047 5.07678C13.4683 4.9404 13.2833 4.86378 13.0904 4.86378ZM13.8177 2.68215H10.9088V1.22773C10.9088 1.03486 10.8322 0.849892 10.6958 0.713514C10.5594 0.577135 10.3745 0.500519 10.1816 0.500519H5.81834C5.62547 0.500519 5.4405 0.577135 5.30413 0.713514C5.16775 0.849892 5.09113 1.03486 5.09113 1.22773V2.68215H2.18229C1.98942 2.68215 1.80445 2.75877 1.66807 2.89514C1.53169 3.03152 1.45508 3.21649 1.45508 3.40936C1.45508 3.60223 1.53169 3.7872 1.66807 3.92358C1.80445 4.05995 1.98942 4.13657 2.18229 4.13657H13.8177C14.0105 4.13657 14.1955 4.05995 14.3319 3.92358C14.4682 3.7872 14.5449 3.60223 14.5449 3.40936C14.5449 3.21649 14.4682 3.03152 14.3319 2.89514C14.1955 2.75877 14.0105 2.68215 13.8177 2.68215ZM6.54555 2.68215V1.95494H9.45439V2.68215H6.54555Z" fill="black"/>
<path d="M7.27278 12.136V7.04554C7.27278 6.85267 7.19616 6.6677 7.05979 6.53132C6.92341 6.39495 6.73844 6.31833 6.54557 6.31833C6.3527 6.31833 6.16773 6.39495 6.03135 6.53132C5.89498 6.6677 5.81836 6.85267 5.81836 7.04554V12.136C5.81836 12.3289 5.89498 12.5138 6.03135 12.6502C6.16773 12.7866 6.3527 12.8632 6.54557 12.8632C6.73844 12.8632 6.92341 12.7866 7.05979 12.6502C7.19616 12.5138 7.27278 12.3289 7.27278 12.136ZM10.1816 12.136V7.04554C10.1816 6.85267 10.105 6.6677 9.96863 6.53132C9.83225 6.39495 9.64728 6.31833 9.45441 6.31833C9.26154 6.31833 9.07657 6.39495 8.9402 6.53132C8.80382 6.6677 8.7272 6.85267 8.7272 7.04554V12.136C8.7272 12.3289 8.80382 12.5138 8.9402 12.6502C9.07657 12.7866 9.26154 12.8632 9.45441 12.8632C9.64728 12.8632 9.83225 12.7866 9.96863 12.6502C10.105 12.5138 10.1816 12.3289 10.1816 12.136Z" fill="black"/>
</g>
<defs>
<clipPath id="clip0_715_7962">
<rect width="16" height="16" fill="white" transform="translate(0 0.5)"/>
</clipPath>
</defs>
</svg>
