<svg width="16" height="17" viewBox="0 0 16 17" fill="none" xmlns="http://www.w3.org/2000/svg">
<g clip-path="url(#clip0_825_17983)">
<path d="M13.0904 4.86375C12.8976 4.86375 12.7126 4.94037 12.5762 5.07675C12.4398 5.21312 12.3632 5.39809 12.3632 5.59096V13.7292C12.3424 14.0969 12.177 14.4415 11.9033 14.6879C11.6295 14.9343 11.2694 15.0626 10.9015 15.0447H5.0984C4.7305 15.0626 4.37045 14.9343 4.09667 14.6879C3.8229 14.4415 3.65757 14.0969 3.63671 13.7292V5.59096C3.63671 5.39809 3.56009 5.21312 3.42371 5.07675C3.28734 4.94037 3.10237 4.86375 2.9095 4.86375C2.71663 4.86375 2.53166 4.94037 2.39528 5.07675C2.25891 5.21312 2.18229 5.39809 2.18229 5.59096V13.7292C2.20305 14.4827 2.52159 15.1973 3.06816 15.7165C3.61473 16.2357 4.34477 16.5171 5.0984 16.4991H10.9015C11.6552 16.5171 12.3852 16.2357 12.9318 15.7165C13.4784 15.1973 13.7969 14.4827 13.8177 13.7292V5.59096C13.8177 5.39809 13.741 5.21312 13.6047 5.07675C13.4683 4.94037 13.2833 4.86375 13.0904 4.86375ZM13.8177 2.68212H10.9088V1.2277C10.9088 1.03483 10.8322 0.849862 10.6958 0.713483C10.5594 0.577105 10.3745 0.500488 10.1816 0.500488H5.81834C5.62547 0.500488 5.4405 0.577105 5.30413 0.713483C5.16775 0.849862 5.09113 1.03483 5.09113 1.2277V2.68212H2.18229C1.98942 2.68212 1.80445 2.75874 1.66807 2.89511C1.53169 3.03149 1.45508 3.21646 1.45508 3.40933C1.45508 3.6022 1.53169 3.78717 1.66807 3.92354C1.80445 4.05992 1.98942 4.13654 2.18229 4.13654H13.8177C14.0105 4.13654 14.1955 4.05992 14.3319 3.92354C14.4682 3.78717 14.5449 3.6022 14.5449 3.40933C14.5449 3.21646 14.4682 3.03149 14.3319 2.89511C14.1955 2.75874 14.0105 2.68212 13.8177 2.68212ZM6.54555 2.68212V1.95491H9.45439V2.68212H6.54555Z" fill="#476FFF"/>
<path d="M7.27278 12.136V7.04557C7.27278 6.8527 7.19616 6.66773 7.05979 6.53135C6.92341 6.39498 6.73844 6.31836 6.54557 6.31836C6.3527 6.31836 6.16773 6.39498 6.03135 6.53135C5.89498 6.66773 5.81836 6.8527 5.81836 7.04557V12.136C5.81836 12.3289 5.89498 12.5139 6.03135 12.6503C6.16773 12.7866 6.3527 12.8633 6.54557 12.8633C6.73844 12.8633 6.92341 12.7866 7.05979 12.6503C7.19616 12.5139 7.27278 12.3289 7.27278 12.136ZM10.1816 12.136V7.04557C10.1816 6.8527 10.105 6.66773 9.96863 6.53135C9.83225 6.39498 9.64728 6.31836 9.45441 6.31836C9.26154 6.31836 9.07657 6.39498 8.9402 6.53135C8.80382 6.66773 8.7272 6.8527 8.7272 7.04557V12.136C8.7272 12.3289 8.80382 12.5139 8.9402 12.6503C9.07657 12.7866 9.26154 12.8633 9.45441 12.8633C9.64728 12.8633 9.83225 12.7866 9.96863 12.6503C10.105 12.5139 10.1816 12.3289 10.1816 12.136Z" fill="#476FFF"/>
</g>
<defs>
<clipPath id="clip0_825_17983">
<rect width="16" height="16" fill="white" transform="translate(0 0.5)"/>
</clipPath>
</defs>
</svg>
