<svg width="70" height="70" viewBox="0 0 70 70" fill="none" xmlns="http://www.w3.org/2000/svg">
<g clip-path="url(#clip0_823_15548)">
<path d="M17.441 69.9998C17.325 69.7568 17.0509 69.8281 16.8569 69.7842C12.4199 68.7649 9.41323 65.431 9.39322 61.3007C9.35121 52.5779 9.37322 43.855 9.38522 35.1322C9.38722 33.3657 10.7675 32.0979 12.5939 32.0998C14.4503 32.1016 15.7906 33.3931 15.7906 35.2071C15.7946 43.7253 15.7926 52.2417 15.7926 60.76C15.7926 63.1348 17.1229 64.2747 19.7195 64.1304C19.8435 64.1395 19.9675 64.1559 20.0896 64.1559C28.8555 64.1578 37.6214 64.1578 46.3893 64.1559C46.5874 64.1559 46.7874 64.134 46.9854 64.1212C48.1577 64.1304 49.336 64.0884 50.5022 64.1614C52.9107 64.313 54.221 62.6616 54.213 60.8056C54.161 49.54 54.187 38.2724 54.185 27.0067C54.185 26.7565 54.169 26.5062 54.161 26.2578C54.3871 24.3543 55.5813 23.3696 57.6778 23.3605C58.476 23.3569 59.2761 23.3496 60.0743 23.3642C60.4524 23.3715 60.6204 23.2491 60.6104 22.8892C60.5844 22.0489 60.5824 21.2067 60.5704 20.3664C60.5804 19.685 60.5444 18.9982 60.6124 18.3223C60.6784 17.6774 60.4784 17.4893 59.7322 17.4911C50.6462 17.5185 41.5583 17.5094 32.4723 17.5075C30.0137 17.5075 29.0275 16.7823 28.5354 14.6176C28.6074 14.3637 28.5374 14.1116 28.6694 13.8357C29.4236 12.2483 30.3398 11.6637 32.2302 11.6619C36.1011 11.66 39.9739 11.6454 43.8448 11.6765C44.4949 11.682 44.6369 11.5066 44.5989 10.9586C44.5449 10.1877 44.6069 9.41129 44.5769 8.63674C44.5149 7.12418 43.2166 5.88198 41.5623 5.87102C37.1673 5.83813 32.7703 5.83813 28.3754 5.87284C26.761 5.88563 25.4347 7.12418 25.4067 8.60204C25.3667 10.6042 25.4107 12.6081 25.4167 14.6103C25.1387 16.5467 23.9464 17.5002 21.7959 17.5039C19.7975 17.5094 17.7971 17.5167 15.7986 17.524C13.8522 17.5167 11.9038 17.5203 9.95735 17.4948C9.50325 17.4893 9.35321 17.6117 9.35922 18.0336C9.38322 19.5809 9.39322 21.1282 9.35522 22.6755C9.34121 23.2217 9.53125 23.4336 10.1194 23.3587C10.2914 23.3368 10.4675 23.355 10.6435 23.355C22.9022 23.355 35.1609 23.3587 47.4195 23.3477C48.2977 23.3477 49.1019 23.4774 49.8041 23.9889C50.6022 24.5698 50.8923 25.3754 51.0323 26.2523C50.6342 28.2161 49.7801 28.9723 47.7196 29.1806C47.5696 29.1733 47.4215 29.1587 47.2715 29.1587C37.9755 29.1569 28.6814 29.1569 19.3854 29.1587C19.2374 29.1587 19.0873 29.1788 18.9393 29.1879C14.8424 29.1769 10.7435 29.1678 6.64662 29.155C6.17452 29.1532 5.70242 29.1678 5.23831 29.029C3.93403 28.6381 3.02983 27.6406 3.02183 26.3948C2.99582 22.4088 2.98582 18.4228 3.02583 14.4367C3.04183 12.7981 4.48015 11.6674 6.42457 11.6619C10.3234 11.6527 14.2223 11.6363 18.1211 11.6783C18.8753 11.6856 19.0113 11.4829 18.9953 10.849C18.9573 9.35101 18.8873 7.84575 19.3554 6.37338C20.5477 2.61936 24.2305 0.0308311 28.5094 0.0107367C32.7583 -0.00935779 37.0073 -0.000223941 41.2562 0.00708314C46.7274 0.0180438 50.9283 3.81773 51.0003 8.80846C51.0103 9.53734 51.0403 10.2681 50.9903 10.9951C50.9543 11.523 51.1184 11.6765 51.7185 11.6728C55.5673 11.6454 59.4162 11.7075 63.265 11.64C65.4015 11.6034 67.0598 12.8292 67.0018 15.0615C66.9078 18.6365 66.9058 22.2151 67.0038 25.7901C67.0578 27.8178 65.5795 29.3359 63.245 29.166C62.5248 29.113 61.7967 29.1715 61.0725 29.1514C60.7124 29.1404 60.5644 29.2537 60.6004 29.5807C60.6184 29.7378 60.6024 29.8985 60.6024 30.0593C60.6024 40.3787 60.6084 50.6981 60.5984 61.0175C60.5944 65.3488 57.5698 68.8416 53.0568 69.8043C52.7867 69.8628 52.4526 69.7367 52.2406 69.9979C40.6381 69.9998 29.0395 69.9998 17.441 69.9998Z" fill="black"/>
<path d="M18.9419 29.1917C19.09 29.1808 19.24 29.1625 19.388 29.1625C28.6841 29.1607 37.9781 29.1607 47.2741 29.1625C47.4242 29.1625 47.5722 29.1771 47.7222 29.1844C47.7322 29.4804 47.7502 29.7763 47.7502 30.0722C47.7522 40.2547 47.7402 50.4371 47.7642 60.6195C47.7662 61.8526 47.5902 63.018 46.9841 64.1214C46.786 64.1324 46.586 64.1561 46.3879 64.1561C37.622 64.1579 28.8561 64.1579 20.0882 64.1561C19.9642 64.1561 19.8401 64.1397 19.7181 64.1305C18.7279 62.101 18.9559 59.9472 18.9539 57.819C18.9439 48.276 18.9439 38.733 18.9419 29.1917ZM44.5875 46.7159C44.5875 44.8271 44.5916 42.9363 44.5856 41.0475C44.5795 39.239 43.2353 37.92 41.4029 37.9109C39.5825 37.9018 38.1841 39.228 38.1781 41.0182C38.1641 44.7978 38.1621 48.5774 38.1801 52.3552C38.1881 54.1619 39.5704 55.4241 41.4449 55.4004C43.2693 55.3785 44.5795 54.0961 44.5856 52.315C44.5936 50.4499 44.5875 48.5829 44.5875 46.7159ZM25.3893 46.663C25.3893 48.5518 25.3833 50.4425 25.3913 52.3314C25.3974 54.1034 26.7216 55.3858 28.546 55.4022C30.3844 55.4187 31.7807 54.171 31.7948 52.41C31.8208 48.5847 31.8208 44.7613 31.7948 40.936C31.7827 39.1951 30.3444 37.8908 28.558 37.9109C26.7476 37.931 25.3994 39.2371 25.3934 40.9927C25.3833 42.8834 25.3893 44.7741 25.3893 46.663Z" fill="#A4E5FE"/>
<path d="M46.9834 64.1197C47.5895 63.0163 47.7676 61.8508 47.7636 60.6178C47.7396 50.4353 47.7496 40.2529 47.7496 30.0705C47.7496 29.7746 47.7316 29.4786 47.7216 29.1827C49.782 28.9745 50.6362 28.22 51.0343 26.2544C52.0765 26.2544 53.1187 26.2544 54.161 26.2544C54.169 26.5047 54.185 26.7549 54.185 27.0034C54.187 38.2691 54.159 49.5366 54.213 60.8023C54.221 62.6564 52.9107 64.3097 50.5022 64.158C49.3319 64.0868 48.1557 64.1288 46.9834 64.1197Z" fill="#EDD5FF"/>
<path d="M54.161 26.2562C53.1187 26.2562 52.0765 26.2562 51.0343 26.2562C50.8943 25.3812 50.6042 24.5738 49.806 23.9929C49.1039 23.4832 48.3017 23.3517 47.4215 23.3517C35.1628 23.3608 22.9041 23.359 10.6454 23.359C10.4714 23.359 10.2934 23.3407 10.1213 23.3626C9.5312 23.4375 9.34316 23.2238 9.35717 22.6794C9.39517 21.1322 9.38517 19.5849 9.36117 18.0376C9.35516 17.6156 9.5052 17.4932 9.9593 17.4987C11.9057 17.5243 13.8541 17.5206 15.8006 17.5279C15.9186 19.2816 17.1789 20.3832 19.0873 20.3832C32.6903 20.385 46.2932 20.385 59.8982 20.3832C60.1223 20.3832 60.3463 20.3704 60.5724 20.3649C60.5844 21.2052 60.5864 22.0474 60.6124 22.8877C60.6244 23.2476 60.4543 23.3681 60.0763 23.3626C59.2781 23.348 58.4779 23.3572 57.6797 23.359C55.5813 23.3681 54.387 24.3527 54.161 26.2562Z" fill="#D9C5F9"/>
<path d="M60.5706 20.3649C60.3466 20.3722 60.1225 20.3832 59.8965 20.3832C46.2935 20.3832 32.6905 20.385 19.0855 20.3832C17.1751 20.3832 15.9149 19.2817 15.7988 17.528C17.7973 17.5206 19.7977 17.5115 21.7961 17.5079C23.9446 17.5024 25.1369 16.5506 25.4169 14.6143C26.4572 14.6161 27.4974 14.6161 28.5376 14.6179C29.0297 16.7826 30.0179 17.5079 32.4745 17.5079C41.5605 17.5079 50.6484 17.517 59.7344 17.4914C60.4806 17.4896 60.6786 17.6778 60.6146 18.3226C60.5446 18.9967 60.5806 19.6835 60.5706 20.3649Z" fill="#9CDBFA"/>
<path d="M44.5874 46.7161C44.5874 48.5831 44.5934 50.45 44.5854 52.317C44.5794 54.0981 43.2691 55.3786 41.4447 55.4024C39.5703 55.4261 38.188 54.1638 38.18 52.3572C38.162 48.5776 38.164 44.798 38.178 41.0202C38.184 39.23 39.5823 37.9038 41.4027 37.9129C43.2351 37.922 44.5794 39.241 44.5854 41.0495C44.5934 42.9365 44.5874 44.8272 44.5874 46.7161Z" fill="black"/>
<path d="M25.3889 46.6631C25.3889 44.7742 25.3829 42.8835 25.3909 40.9946C25.3989 39.2391 26.7472 37.9329 28.5556 37.9128C30.344 37.8927 31.7823 39.197 31.7923 40.938C31.8163 44.7632 31.8183 48.5866 31.7923 52.4119C31.7803 54.1729 30.382 55.4206 28.5436 55.4042C26.7192 55.3877 25.3949 54.1053 25.3889 52.3334C25.3849 50.4426 25.3889 48.5519 25.3889 46.6631Z" fill="black"/>
</g>
<defs>
<clipPath id="clip0_823_15548">
<rect width="64" height="70" fill="white" transform="translate(3)"/>
</clipPath>
</defs>
</svg>
