<svg width="49" height="48" viewBox="0 0 49 48" fill="none" xmlns="http://www.w3.org/2000/svg">
<g clip-path="url(#clip0_263_5982)">
<path d="M38.0055 41.4631H27.7072V31.0569H31.1105C31.9736 31.0569 32.4837 30.0761 31.9736 29.37L25.3533 20.2094C24.9315 19.6209 24.0586 19.6209 23.6369 20.2094L17.0165 29.37C16.5065 30.0761 17.0067 31.0569 17.8796 31.0569H21.283V41.4631H9.74888C4.59971 41.1787 0.5 36.363 0.5 31.1452C0.5 27.5457 2.45178 24.4072 5.34512 22.7104C5.0803 21.9944 4.94299 21.2294 4.94299 20.4251C4.94299 16.7472 7.91479 13.7754 11.5928 13.7754C12.3872 13.7754 13.1522 13.9127 13.8682 14.1775C15.9965 9.66584 20.5866 6.53711 25.9221 6.53711C32.8269 6.54692 38.5155 11.8334 39.1628 18.5714C44.4689 19.4836 48.5 24.3973 48.5 29.9584C48.5 35.902 43.8707 41.0512 38.0055 41.4631Z" fill="#1579AD"/>
</g>
<defs>
<clipPath id="clip0_263_5982">
<rect width="48" height="48" fill="white" transform="translate(0.5)"/>
</clipPath>
</defs>
</svg>
