<svg width="22" height="22" viewBox="0 0 22 22" fill="none" xmlns="http://www.w3.org/2000/svg">
<g clip-path="url(#clip0_212_1977)">
<path d="M21.9747 9.91973V16.7227C22.0408 17.2971 21.9771 17.8792 21.7883 18.4254C21.5996 18.9715 21.2906 19.4676 20.8847 19.8765C20.4787 20.2855 19.9862 20.5966 19.444 20.7868C18.9018 20.9769 18.3239 21.0411 17.7536 20.9745H4.24635C3.67605 21.0411 3.09819 20.9769 2.55599 20.7868C2.01378 20.5966 1.52128 20.2855 1.11532 19.8765C0.709355 19.4676 0.400442 18.9715 0.211688 18.4254C0.0229331 17.8792 -0.040777 17.2971 0.0253232 16.7227V5.38444C-0.040777 4.80998 0.0229331 4.2279 0.211688 3.68174C0.400442 3.13558 0.709355 2.63948 1.11532 2.23056C1.52128 1.82163 2.01378 1.51046 2.55599 1.32033C3.09819 1.1302 3.67605 1.06602 4.24635 1.13261H13.2512C13.4751 1.13261 13.6898 1.2222 13.8482 1.38167C14.0065 1.54115 14.0954 1.75744 14.0954 1.98297C14.0954 2.2085 14.0065 2.4248 13.8482 2.58427C13.6898 2.74375 13.4751 2.83334 13.2512 2.83334H4.24635C2.47127 2.83334 1.71373 3.5964 1.71373 5.38444V15.8723L4.57278 12.9924C4.7853 12.78 5.07256 12.6608 5.37196 12.6608C5.67136 12.6608 5.95862 12.78 6.17114 12.9924L7.22921 14.0582C7.33442 14.1621 7.47586 14.2202 7.62318 14.2202C7.77049 14.2202 7.91193 14.1621 8.01714 14.0582L13.5776 8.4571C13.7902 8.24467 14.0774 8.12547 14.3768 8.12547C14.6762 8.12547 14.9635 8.24467 15.176 8.4571L20.2863 13.6046V9.91973C20.2863 9.6942 20.3752 9.4779 20.5335 9.31843C20.6918 9.15895 20.9066 9.06936 21.1305 9.06936C21.3544 9.06936 21.5691 9.15895 21.7274 9.31843C21.8857 9.4779 21.9747 9.6942 21.9747 9.91973ZM6.48969 6.23481C6.11597 6.23586 5.75795 6.38627 5.49425 6.65301C5.23054 6.91976 5.08272 7.28102 5.08324 7.65746C5.08377 8.03391 5.23259 8.39475 5.49703 8.66075C5.76147 8.92675 6.11991 9.07616 6.49363 9.07616C6.86734 9.07616 7.22578 8.92675 7.49023 8.66075C7.75467 8.39475 7.90349 8.03391 7.90401 7.65746C7.90454 7.28102 7.75671 6.91976 7.49301 6.65301C7.22931 6.38627 6.87128 6.23586 6.49757 6.23481H6.48969ZM18.3502 3.15081L18.5979 2.9025V5.38444C18.5979 5.60997 18.6868 5.82626 18.8451 5.98574C19.0034 6.14521 19.2182 6.23481 19.4421 6.23481C19.666 6.23481 19.8807 6.14521 20.039 5.98574C20.1973 5.82626 20.2863 5.60997 20.2863 5.38444V2.9025L20.5339 3.15081C20.6939 3.30102 20.9056 3.38279 21.1243 3.37891C21.343 3.37502 21.5517 3.28577 21.7064 3.12997C21.861 2.97417 21.9496 2.76398 21.9535 2.54367C21.9573 2.32337 21.8762 2.11016 21.727 1.94896L20.0386 0.248225C19.8802 0.0892558 19.6657 0 19.4421 0C19.2184 0 19.0039 0.0892558 18.8455 0.248225L17.1571 1.94896C17.008 2.11016 16.9268 2.32337 16.9306 2.54367C16.9345 2.76398 17.0231 2.97417 17.1778 3.12997C17.3324 3.28577 17.5411 3.37502 17.7598 3.37891C17.9785 3.38279 18.1902 3.30102 18.3502 3.15081Z" fill="#0D6EFD"/>
</g>
<defs>
<clipPath id="clip0_212_1977">
<rect width="22" height="22" fill="white"/>
</clipPath>
</defs>
</svg>
