<svg width="19" height="19" viewBox="0 0 19 19" fill="none" xmlns="http://www.w3.org/2000/svg">
<g clip-path="url(#clip0_330_4524)">
<path fill-rule="evenodd" clip-rule="evenodd" d="M3.71094 0H15.2891C16.2727 0.00189291 17.2155 0.393473 17.911 1.089C18.6065 1.78453 18.9981 2.72732 19 3.71094V15.2891C18.9981 16.2727 18.6065 17.2155 17.911 17.911C17.2155 18.6065 16.2727 18.9981 15.2891 19H3.71094C2.72732 18.9981 1.78453 18.6065 1.089 17.911C0.393473 17.2155 0.00189291 16.2727 0 15.2891L0 3.71094C0.00189291 2.72732 0.393473 1.78453 1.089 1.089C1.78453 0.393473 2.72732 0.00189291 3.71094 0ZM3.93359 14.3706C3.93364 14.5552 4.00697 14.7321 4.13745 14.8626C4.26792 14.9931 4.44488 15.0664 4.62939 15.0664H8.27105C8.36303 15.0674 8.45428 15.0501 8.53953 15.0155C8.62479 14.981 8.70234 14.9299 8.76772 14.8652C8.8331 14.8005 8.885 14.7234 8.92042 14.6385C8.95584 14.5537 8.97407 14.4626 8.97407 14.3706C8.97407 14.2786 8.95584 14.1876 8.92042 14.1027C8.885 14.0178 8.8331 13.9407 8.76772 13.876C8.70234 13.8113 8.62479 13.7602 8.53953 13.7257C8.45428 13.6912 8.36303 13.6739 8.27105 13.6748H6.30926L8.8995 11.0846C9.03002 10.9541 9.10335 10.7771 9.10337 10.5925C9.10339 10.4079 9.03008 10.2309 8.89959 10.1004C8.83497 10.0358 8.75826 9.98452 8.67383 9.94954C8.58941 9.91456 8.49892 9.89655 8.40753 9.89654C8.22296 9.89652 8.04595 9.96982 7.91543 10.1003L5.3252 12.6909V10.729C5.3233 10.5457 5.24916 10.3705 5.11888 10.2416C4.9886 10.1126 4.8127 10.0403 4.62939 10.0403C4.44609 10.0403 4.27019 10.1126 4.13991 10.2416C4.00963 10.3705 3.93549 10.5457 3.93359 10.729V14.3706ZM15.0664 4.62943C15.0664 4.4449 14.993 4.26794 14.8626 4.13746C14.7321 4.00697 14.5551 3.93364 14.3706 3.93359H10.729C10.637 3.93264 10.5457 3.94994 10.4605 3.98448C10.3752 4.01902 10.2977 4.07012 10.2323 4.13483C10.1669 4.19953 10.115 4.27656 10.0796 4.36145C10.0442 4.44634 10.0259 4.53741 10.0259 4.62939C10.0259 4.72138 10.0442 4.81245 10.0796 4.89734C10.115 4.98223 10.1669 5.05926 10.2323 5.12396C10.2977 5.18867 10.3752 5.23977 10.4605 5.27431C10.5457 5.30885 10.637 5.32615 10.729 5.3252H12.6909L10.1003 7.91543C9.9698 8.04595 9.89647 8.22297 9.89647 8.40756C9.89647 8.59214 9.9698 8.76916 10.1003 8.89968C10.2308 9.0302 10.4079 9.10353 10.5924 9.10353C10.777 9.10353 10.9541 9.0302 11.0846 8.89968L13.6748 6.30908V8.27109C13.6767 8.45438 13.7508 8.62952 13.8811 8.75847C14.0114 8.88741 14.1873 8.95974 14.3706 8.95974C14.5539 8.95974 14.7298 8.88741 14.8601 8.75847C14.9904 8.62952 15.0645 8.45438 15.0664 8.27109V4.62943Z" fill="#0D6EFD"/>
</g>
<defs>
<clipPath id="clip0_330_4524">
<rect width="19" height="19" fill="white"/>
</clipPath>
</defs>
</svg>
