<svg width="24" height="24" viewBox="0 0 24 24" fill="none" xmlns="http://www.w3.org/2000/svg">
<path d="M16.8 17.9999L1.2 17.9999C0.88174 17.9999 0.576515 18.1263 0.351472 18.3514C0.126428 18.5764 0 18.8816 0 19.1999C0 19.5182 0.126428 19.8234 0.351472 20.0484C0.576515 20.2735 0.88174 20.3999 1.2 20.3999H16.8C17.1183 20.3999 17.4235 20.2735 17.6485 20.0484C17.8736 19.8234 18 19.5182 18 19.1999C18 18.8816 17.8736 18.5764 17.6485 18.3514C17.4235 18.1263 17.1183 17.9999 16.8 17.9999ZM24 11.9999C24 12.3182 23.8736 12.6234 23.6485 12.8484C23.4235 13.0735 23.1183 13.1999 22.8 13.1999L1.2 13.1999C0.88174 13.1999 0.576515 13.0735 0.351472 12.8484C0.126428 12.6234 0 12.3182 0 11.9999C0 11.6816 0.126428 11.3764 0.351472 11.1514C0.576515 10.9263 0.88174 10.7999 1.2 10.7999L22.8 10.7999C23.1183 10.7999 23.4235 10.9263 23.6485 11.1514C23.8736 11.3764 24 11.6816 24 11.9999ZM13.2 4.7999C13.2 5.11816 13.0736 5.42339 12.8485 5.64843C12.6235 5.87347 12.3183 5.9999 12 5.9999L1.2 5.9999C0.88174 5.9999 0.576515 5.87347 0.351472 5.64843C0.126428 5.42339 0 5.11816 0 4.7999C0 4.48164 0.126428 4.17641 0.351472 3.95137C0.576515 3.72633 0.88174 3.5999 1.2 3.5999H12C12.3183 3.5999 12.6235 3.72633 12.8485 3.95137C13.0736 4.17641 13.2 4.48164 13.2 4.7999Z" fill="#1579AD"/>
</svg>
