<svg width="25" height="25" viewBox="0 0 25 25" fill="none" xmlns="http://www.w3.org/2000/svg">
<path d="M22.3706 16.101C22.5405 15.976 22.6745 15.8084 22.759 15.6151C22.8435 15.4218 22.8755 15.2097 22.8518 15C22.8281 14.7904 22.7495 14.5908 22.624 14.4212C22.4985 14.2517 22.3304 14.1182 22.1369 14.0344V12.386L21.1732 12.7955V14.0344C20.9795 14.1182 20.8114 14.2516 20.6858 14.4212C20.5602 14.5908 20.4816 14.7905 20.4579 15.0002C20.4342 15.2099 20.4662 15.4222 20.5508 15.6155C20.6354 15.8089 20.7694 15.9765 20.9395 16.1014C20.7882 16.2126 20.6652 16.3577 20.5802 16.5251C20.4953 16.6924 20.4508 16.8774 20.4504 17.0651V18.2692C20.4504 18.397 20.5012 18.5196 20.5916 18.61C20.6819 18.7003 20.8045 18.7511 20.9323 18.7511H22.3778C22.5056 18.7511 22.6282 18.7003 22.7185 18.61C22.8089 18.5196 22.8596 18.397 22.8596 18.2692V17.0646C22.8593 16.8769 22.8148 16.692 22.7299 16.5246C22.6449 16.3572 22.5218 16.2121 22.3706 16.101ZM19.7277 13.4075V16.9731C19.7303 17.3876 19.625 17.7957 19.4223 18.1572C19.2196 18.5188 18.9263 18.8214 18.5713 19.0354C16.7289 20.1114 14.6337 20.6784 12.5001 20.6784C10.3665 20.6784 8.27129 20.1114 6.42892 19.0354C6.0739 18.8214 5.78063 18.5188 5.57789 18.1572C5.37515 17.7957 5.26991 17.3876 5.27251 16.9731V13.4075L11.1847 15.9082C11.6012 16.0832 12.0484 16.1733 12.5001 16.1733C12.9518 16.1733 13.399 16.0832 13.8155 15.9082L19.7277 13.4075Z" fill="#9CA8BA"/>
<path d="M23.1175 8.26495L13.4383 4.16932C13.1409 4.04419 12.8214 3.97974 12.4987 3.97974C12.176 3.97974 11.8566 4.04419 11.5591 4.16932L1.87996 8.26495C1.61834 8.37561 1.39512 8.5609 1.23819 8.79767C1.08125 9.03445 0.997559 9.31221 0.997559 9.59627C0.997559 9.88033 1.08125 10.1581 1.23819 10.3949C1.39512 10.6316 1.61834 10.8169 1.87996 10.9276L11.5591 15.0232C11.8566 15.1485 12.176 15.213 12.4987 15.213C12.8214 15.213 13.1409 15.1485 13.4383 15.0232L23.1175 10.9276C23.3791 10.8169 23.6023 10.6316 23.7593 10.3949C23.9162 10.1581 23.9999 9.88033 23.9999 9.59627C23.9999 9.31221 23.9162 9.03445 23.7593 8.79767C23.6023 8.5609 23.3791 8.37561 23.1175 8.26495Z" fill="#9CA8BA"/>
</svg>
