<svg width="25" height="25" viewBox="0 0 25 25" fill="none" xmlns="http://www.w3.org/2000/svg">
<path fill-rule="evenodd" clip-rule="evenodd" d="M20.8333 7.29167C20.2863 7.2918 19.7489 7.14836 19.2747 6.87569C18.8005 6.60301 18.4062 6.21065 18.1312 5.73782C17.8562 5.26499 17.7101 4.72825 17.7076 4.18127C17.705 3.63429 17.8461 3.09621 18.1167 2.62083C17.7967 2.55603 17.4737 2.50667 17.149 2.47292C15.9594 2.34375 14.4604 2.34375 12.5469 2.34375H12.4531C10.5396 2.34375 9.04062 2.34375 7.85 2.47292C6.63646 2.60417 5.65208 2.87708 4.8125 3.4875C4.30405 3.85692 3.85692 4.30405 3.4875 4.8125C2.87708 5.65312 2.60417 6.63542 2.47292 7.85C2.34375 9.04062 2.34375 10.5396 2.34375 12.4531V12.5469C2.34375 14.4604 2.34375 15.9594 2.47292 17.149C2.60417 18.3635 2.87708 19.3469 3.4875 20.1875C3.85692 20.6959 4.30405 21.1431 4.8125 21.5125C5.65312 22.1229 6.63542 22.3958 7.85 22.5271C9.04062 22.6562 10.5396 22.6562 12.4531 22.6562H12.5469C14.4604 22.6562 15.9594 22.6562 17.149 22.5271C18.3635 22.3958 19.3469 22.1229 20.1875 21.5125C20.696 21.1431 21.1431 20.696 21.5125 20.1875C22.1229 19.3469 22.3958 18.3646 22.5271 17.15C22.6562 15.9594 22.6562 14.4604 22.6562 12.5469V12.4531C22.6562 10.5396 22.6562 9.04062 22.5271 7.85C22.4933 7.5256 22.4439 7.203 22.3792 6.88333C21.9229 7.14375 21.3958 7.29167 20.8333 7.29167ZM18.0521 8.82292C18.2379 8.91418 18.3799 9.07548 18.4469 9.27138C18.5139 9.46728 18.5004 9.68176 18.4094 9.86771L16.8885 12.9687C15.8229 15.1406 12.6927 15.0344 11.7771 12.7958C11.3708 11.8052 9.98542 11.7583 9.51458 12.7188L7.99375 15.8198C7.94861 15.9119 7.88576 15.9943 7.8088 16.0621C7.73184 16.1299 7.64226 16.182 7.5452 16.2152C7.44813 16.2484 7.34547 16.2622 7.24308 16.2557C7.14069 16.2493 7.04057 16.2227 6.94844 16.1776C6.85631 16.1325 6.77397 16.0696 6.70613 15.9927C6.63829 15.9157 6.58627 15.8261 6.55304 15.7291C6.51981 15.632 6.50603 15.5293 6.51248 15.4269C6.51893 15.3245 6.54548 15.2244 6.59062 15.1323L8.11146 12.0312C9.17708 9.85938 12.3073 9.96562 13.2229 12.2042C13.6292 13.1948 15.0146 13.2417 15.4854 12.2812L17.0062 9.18021C17.0513 9.08797 17.1142 9.00552 17.1912 8.93758C17.2681 8.86964 17.3578 8.81754 17.4549 8.78426C17.552 8.75098 17.6548 8.73717 17.7572 8.74363C17.8597 8.75008 17.9599 8.77667 18.0521 8.82187V8.82292Z" fill="#9CA8BA"/>
<path d="M18.75 4.16683C18.75 4.71936 18.9695 5.24927 19.3602 5.63997C19.7509 6.03067 20.2808 6.25016 20.8333 6.25016C21.3859 6.25016 21.9158 6.03067 22.3065 5.63997C22.6972 5.24927 22.9167 4.71936 22.9167 4.16683C22.9167 3.6143 22.6972 3.08439 22.3065 2.69369C21.9158 2.30299 21.3859 2.0835 20.8333 2.0835C20.2808 2.0835 19.7509 2.30299 19.3602 2.69369C18.9695 3.08439 18.75 3.6143 18.75 4.16683Z" fill="#9CA8BA"/>
</svg>
