<svg width="32" height="24" viewBox="0 0 32 24" fill="none" xmlns="http://www.w3.org/2000/svg">
<path d="M25.0037 23.6424H18.1381V16.7049H20.407C20.9824 16.7049 21.3224 16.0511 20.9824 15.5803L16.5689 9.47323C16.2877 9.08091 15.7058 9.08091 15.4246 9.47323L11.011 15.5803C10.671 16.0511 11.0045 16.7049 11.5864 16.7049H13.8553V23.6424H6.16592C2.73314 23.4528 0 20.2423 0 16.7638C0 14.3641 1.30119 12.2718 3.23008 11.1406C3.05353 10.6633 2.96199 10.1532 2.96199 9.61708C2.96199 7.1651 4.9432 5.1839 7.39518 5.1839C7.92481 5.1839 8.43482 5.27544 8.91214 5.45198C10.331 2.44422 13.3911 0.358398 16.9481 0.358398C21.5513 0.364937 25.3437 3.88925 25.7752 8.38128C29.3126 8.98938 32 12.2652 32 15.9726C32 19.935 28.9138 23.3678 25.0037 23.6424Z" fill="#1579AD"/>
</svg>
